<svg viewBox="0 0 24 24" fill="currentColor" xmlns="http://www.w3.org/2000/svg">
<path d="M12 2C17.5228 2 22 6.47715 22 12C22 17.5228 17.5228 22 12 22C6.47715 22 2 17.5228 2 12C2 6.47715 6.47715 2 12 2ZM12 4C7.58172 4 4 7.58172 4 12C4 16.4183 7.58172 20 12 20C16.4183 20 20 16.4183 20 12C20 7.58172 16.4183 4 12 4ZM12 6.75C12.5523 6.75 13 7.19772 13 7.75V11H16.25C16.8023 11 17.25 11.4477 17.25 12C17.25 12.5523 16.8023 13 16.25 13H13V16.25C13 16.8023 12.5523 17.25 12 17.25C11.4477 17.25 11 16.8023 11 16.25V13H7.75C7.19772 13 6.75 12.5523 6.75 12C6.75 11.4477 7.19772 11 7.75 11H11V7.75C11 7.19772 11.4477 6.75 12 6.75Z" fill="currentColor"/>
</svg>
