<svg viewBox="0 0 24 24" fill="currentColor" xmlns="http://www.w3.org/2000/svg">
<rect fill="currentColor"/>
<path fill-rule="evenodd" clip-rule="evenodd" d="M13.7601 6.32733C14.1316 5.91868 14.764 5.88856 15.1727 6.26007L20.6727 11.2601C20.8811 11.4496 21 11.7183 21 12C21 12.2818 20.8811 12.5504 20.6727 12.7399L15.1727 17.7399C14.764 18.1115 14.1316 18.0813 13.7601 17.6727C13.3886 17.264 13.4187 16.6316 13.8273 16.2601L17.4134 13H4C3.44772 13 3 12.5523 3 12C3 11.4477 3.44772 11 4 11H17.4134L13.8273 7.73995C13.4187 7.36844 13.3886 6.73599 13.7601 6.32733Z" fill="currentColor"/>
</svg>
