<svg viewBox="0 0 24 24" fill="currentColor" xmlns="http://www.w3.org/2000/svg">
<path d="M2 18V15C2 12.7909 3.79086 11 6 11H7.5C8.05228 11 8.5 11.4477 8.5 12C8.5 12.5523 8.05228 13 7.5 13H6C4.89543 13 4 13.8954 4 15V18C4 19.1046 4.89543 20 6 20H18C19.1046 20 20 19.1046 20 18V15C20 13.8954 19.1046 13 18 13H16.5C15.9477 13 15.5 12.5523 15.5 12C15.5 11.4477 15.9477 11 16.5 11H18C20.2091 11 22 12.7909 22 15V18C22 20.2091 20.2091 22 18 22H6C3.79086 22 2 20.2091 2 18Z" fill="currentColor"/>
<path d="M7.8418 7.75293C7.4522 7.41203 7.39024 6.83507 7.68359 6.42188L7.74707 6.3418L11.2471 2.3418C11.437 2.12478 11.7116 2 12 2C12.2884 2 12.563 2.12478 12.7529 2.3418L16.2529 6.3418C16.6163 6.75744 16.5737 7.38935 16.1582 7.75293C15.7426 8.11629 15.1107 8.07372 14.7471 7.6582L13 5.66113V17C13 17.5523 12.5523 18 12 18C11.4477 18 11 17.5523 11 17V5.66113L9.25293 7.6582L9.18164 7.73242C8.81115 8.07806 8.23144 8.09356 7.8418 7.75293Z" fill="currentColor"/>
</svg>
