<svg viewBox="0 0 24 24" fill="currentColor" xmlns="http://www.w3.org/2000/svg">
<path d="M3 19V13C3 11.3431 4.34315 10 6 10H8C8.55228 10 9 10.4477 9 11C9 11.5523 8.55228 12 8 12H6C5.44772 12 5 12.4477 5 13V19C5 19.5523 5.44772 20 6 20H18C18.5523 20 19 19.5523 19 19V13C19 12.4477 18.5523 12 18 12H16C15.4477 12 15 11.5523 15 11C15 10.4477 15.4477 10 16 10H18C19.6569 10 21 11.3431 21 13V19C21 20.6569 19.6569 22 18 22H6C4.34315 22 3 20.6569 3 19Z" fill="currentColor"/>
<path d="M7.8418 7.75293C7.4522 7.41203 7.39024 6.83507 7.68359 6.42188L7.74707 6.3418L11.2471 2.3418C11.437 2.12478 11.7116 2 12 2C12.2884 2 12.563 2.12478 12.7529 2.3418L16.2529 6.3418C16.6163 6.75744 16.5737 7.38935 16.1582 7.75293C15.7426 8.11629 15.1107 8.07372 14.7471 7.6582L13 5.66113V17C13 17.5523 12.5523 18 12 18C11.4477 18 11 17.5523 11 17V5.66113L9.25293 7.6582L9.18164 7.73242C8.81115 8.07806 8.23144 8.09356 7.8418 7.75293Z" fill="currentColor"/>
</svg>
