<svg viewBox="0 0 24 24" fill="currentColor" xmlns="http://www.w3.org/2000/svg">
<path d="M16.8492 4.75927C16.4299 4.39985 16.3813 3.76855 16.7407 3.34923C17.1002 2.9299 17.7315 2.88134 18.1508 3.24076L21.6456 6.2363C21.6634 6.25136 21.6807 6.26704 21.6974 6.28329C21.884 6.46496 22 6.71895 22 7.00002C22 7.24935 21.9069 7.48805 21.7417 7.67077C21.7232 7.69124 21.7038 7.711 21.6835 7.73C21.6713 7.74139 21.6589 7.75247 21.6462 7.76324L18.1508 10.7593C17.7315 11.1187 17.1002 11.0701 16.7407 10.6508C16.3813 10.2315 16.4299 9.60018 16.8492 9.24076L18.2967 8.00002H15.5C13.0147 8.00002 11 10.0147 11 12.5C11 16.0899 8.08985 19 4.5 19H3C2.44772 19 2 18.5523 2 18C2 17.4477 2.44772 17 3 17H4.5C6.98528 17 9 14.9853 9 12.5C9 8.91016 11.9101 6.00002 15.5 6.00002H18.2967L16.8492 4.75927Z" fill="currentColor"/>
<path d="M4.5 5.00002C6.66059 5.00002 8.57497 6.05418 9.75686 7.67623C9.27385 8.2507 8.87544 8.89867 8.58084 9.60096C7.86473 8.06474 6.30671 7.00002 4.5 7.00002H3C2.44772 7.00002 2 6.5523 2 6.00002C2 5.44773 2.44772 5.00002 3 5.00002H4.5Z" fill="currentColor"/>
<path d="M15.5 18C13.7634 18 12.1859 17.319 11.0199 16.2095C11.3894 15.5614 11.6651 14.8529 11.8284 14.1025C12.6438 15.2508 13.9844 16 15.5 16H18.2967L16.8492 14.7593C16.4299 14.3999 16.3813 13.7686 16.7407 13.3492C17.1002 12.9299 17.7315 12.8813 18.1508 13.2408L21.6456 16.2363C21.6516 16.2414 21.6575 16.2465 21.6635 16.2518C21.6981 16.2825 21.7305 16.3155 21.7606 16.3507C21.9099 16.5254 22 16.7522 22 17C22 17.288 21.8783 17.5475 21.6835 17.73C21.6713 17.7414 21.6589 17.7524 21.6462 17.7632L18.1508 20.7593C17.7315 21.1187 17.1002 21.0701 16.7407 20.6508C16.3813 20.2315 16.4299 19.6002 16.8492 19.2408L18.2967 18H15.5Z" fill="currentColor"/>
</svg>
