<svg viewBox="0 0 24 24" fill="currentColor" xmlns="http://www.w3.org/2000/svg">
<path fill-rule="evenodd" clip-rule="evenodd" d="M17.6727 10.24C18.0813 9.86845 18.1115 9.236 17.7399 8.82734L12.7399 3.32734C12.5504 3.11887 12.2818 3.00002 12 3.00002C11.7183 3.00002 11.4496 3.11887 11.2601 3.32734L6.26007 8.82734C5.88856 9.236 5.91868 9.86845 6.32733 10.24C6.73599 10.6115 7.36844 10.5813 7.73995 10.1727L11 6.58662L11 20C11 20.5523 11.4477 21 12 21C12.5523 21 13 20.5523 13 20L13 6.58662L16.2601 10.1727C16.6316 10.5813 17.264 10.6115 17.6727 10.24Z" fill="currentColor"/>
</svg>
