<svg viewBox="0 0 24 24" fill="currentColor" xmlns="http://www.w3.org/2000/svg">
<path d="M8.29297 5.70703C7.92685 5.34092 7.90426 4.76192 8.22461 4.36914L8.29297 4.29297L11.293 1.29297L11.3691 1.22461C11.7357 0.925618 12.2643 0.925618 12.6309 1.22461L12.707 1.29297L15.707 4.29297C16.0976 4.68349 16.0976 5.31651 15.707 5.70703C15.3165 6.09756 14.6835 6.09756 14.293 5.70703L13 4.41406V15C13 15.5523 12.5523 16 12 16C11.4477 16 11 15.5523 11 15V4.41406L9.70703 5.70703L9.63086 5.77539C9.23809 6.09574 8.65908 6.07315 8.29297 5.70703Z" fill="currentColor"/>
<path d="M3 18V12C3 9.79086 4.79086 8 7 8H9.5V10H7C5.89543 10 5 10.8954 5 12V18C5 19.1046 5.89543 20 7 20H17C18.1046 20 19 19.1046 19 18V12C19 10.8954 18.1046 10 17 10H14.5V8H17C19.2091 8 21 9.79086 21 12V18C21 20.2091 19.2091 22 17 22H7C4.79086 22 3 20.2091 3 18Z" fill="currentColor"/>
</svg>
