<svg viewBox="0 0 24 24" fill="currentColor" xmlns="http://www.w3.org/2000/svg">
<path d="M13.1508 2.75924C13.5701 2.39982 13.6187 1.76852 13.2593 1.3492C12.8998 0.92987 12.2685 0.881309 11.8492 1.24073L8.34921 4.24073C8.12756 4.43071 8 4.70806 8 4.99999C8 5.29191 8.12756 5.56926 8.34921 5.75924L11.8492 8.75924C12.2685 9.11866 12.8998 9.0701 13.2593 8.65078C13.6187 8.23145 13.5701 7.60015 13.1508 7.24073L11.7033 5.99999H12C15.3137 5.99999 18 8.68628 18 12C18 15.3137 15.3137 18 12 18C8.68629 18 6 15.3137 6 12C6 10.8042 6.3488 9.69286 6.94987 8.75863C7.24869 8.29417 7.11442 7.67541 6.64996 7.37658C6.18551 7.07775 5.56674 7.21203 5.26792 7.67648C4.46544 8.92375 4 10.409 4 12C4 16.4183 7.58172 20 12 20C16.4183 20 20 16.4183 20 12C20 7.58171 16.4183 3.99999 12 3.99999H11.7033L13.1508 2.75924Z" fill="currentColor"/>
</svg>
