<svg viewBox="0 0 24 24" fill="currentColor" xmlns="http://www.w3.org/2000/svg">
<rect fill="currentColor"/>
<path fill-rule="evenodd" clip-rule="evenodd" d="M17.6727 10.2399C18.0813 9.86843 18.1114 9.23598 17.7399 8.82733L12.7399 3.32733C12.5504 3.11885 12.2817 3 12 3C11.7183 3 11.4496 3.11885 11.2601 3.32733L6.26006 8.82733C5.88855 9.23599 5.91867 9.86843 6.32733 10.2399C6.73599 10.6114 7.36843 10.5813 7.73994 10.1727L11 6.58661L11 20C11 20.5523 11.4477 21 12 21C12.5523 21 13 20.5523 13 20L13 6.58661L16.2601 10.1727C16.6316 10.5813 17.264 10.6114 17.6727 10.2399Z" fill="currentColor"/>
</svg>
