<svg viewBox="0 0 24 24" fill="currentColor" xmlns="http://www.w3.org/2000/svg">
<path d="M2 19V14.5C2 12.2909 3.79086 10.5 6 10.5H7.5C8.05228 10.5 8.5 10.9477 8.5 11.5C8.5 12.0523 8.05228 12.5 7.5 12.5H6C4.89543 12.5 4 13.3954 4 14.5V19C4 19.5523 4.44772 20 5 20H19C19.5523 20 20 19.5523 20 19V14.5C20 13.3954 19.1046 12.5 18 12.5H16.5C15.9477 12.5 15.5 12.0523 15.5 11.5C15.5 10.9477 15.9477 10.5 16.5 10.5H18C20.2091 10.5 22 12.2909 22 14.5V19C22 20.6569 20.6569 22 19 22H5C3.34315 22 2 20.6569 2 19Z" fill="currentColor"/>
<path d="M7.8418 7.75293C7.4522 7.41203 7.39024 6.83507 7.68359 6.42188L7.74707 6.3418L11.2471 2.3418C11.437 2.12478 11.7116 2 12 2C12.2884 2 12.563 2.12478 12.7529 2.3418L16.2529 6.3418C16.6163 6.75744 16.5737 7.38935 16.1582 7.75293C15.7426 8.11629 15.1107 8.07372 14.7471 7.6582L13 5.66113V17C13 17.5523 12.5523 18 12 18C11.4477 18 11 17.5523 11 17V5.66113L9.25293 7.6582L9.18164 7.73242C8.81115 8.07806 8.23144 8.09356 7.8418 7.75293Z" fill="currentColor"/>
</svg>
