<svg viewBox="0 0 24 24" fill="currentColor" xmlns="http://www.w3.org/2000/svg">
<rect fill="currentColor"/>
<path fill-rule="evenodd" clip-rule="evenodd" d="M10.2399 6.32733C9.86843 5.91868 9.23598 5.88856 8.82733 6.26007L3.32733 11.2601C3.11885 11.4496 3 11.7183 3 12C3 12.2818 3.11885 12.5504 3.32733 12.7399L8.82733 17.7399C9.23598 18.1115 9.86843 18.0813 10.2399 17.6727C10.6114 17.264 10.5813 16.6316 10.1727 16.2601L6.58661 13H20C20.5523 13 21 12.5523 21 12C21 11.4477 20.5523 11 20 11H6.58661L10.1727 7.73995C10.5813 7.36844 10.6114 6.73599 10.2399 6.32733Z" fill="currentColor"/>
</svg>
