<svg viewBox="0 0 24 24" fill="currentColor" xmlns="http://www.w3.org/2000/svg">
<path d="M13.1508 2.75926C13.5701 2.39984 13.6187 1.76854 13.2593 1.34921C12.8998 0.929886 12.2685 0.881324 11.8492 1.24075L8.34921 4.24075C8.12756 4.43073 8 4.70808 8 5C8 5.29193 8.12756 5.56928 8.34921 5.75926L11.8492 8.75926C12.2685 9.11868 12.8998 9.07012 13.2593 8.65079C13.6187 8.23147 13.5701 7.60017 13.1508 7.24075L11.7033 6H12C15.3137 6 18 8.68629 18 12C18 15.3137 15.3137 18 12 18C8.68629 18 6 15.3137 6 12C6 10.8042 6.3488 9.69287 6.94987 8.75865C7.24869 8.29419 7.11442 7.67542 6.64996 7.3766C6.18551 7.07777 5.56674 7.21204 5.26792 7.6765C4.46544 8.92377 4 10.4091 4 12C4 16.4183 7.58172 20 12 20C16.4183 20 20 16.4183 20 12C20 7.58173 16.4183 4 12 4H11.7033L13.1508 2.75926Z" fill="currentColor"/>
</svg>
