<svg viewBox="0 0 24 24" fill="currentColor" xmlns="http://www.w3.org/2000/svg">
<path d="M15.707 13.293C16.0731 13.6591 16.0957 14.2381 15.7754 14.6309L15.707 14.707L12.707 17.707C12.5195 17.8946 12.2652 18 12 18C11.7348 18 11.4805 17.8946 11.293 17.707L8.29297 14.707C7.90245 14.3165 7.90245 13.6835 8.29297 13.293C8.68349 12.9025 9.31651 12.9025 9.70703 13.293L11 14.586L11 3.00002C11 2.44773 11.4477 2.00002 12 2.00002C12.5523 2.00002 13 2.44773 13 3.00002L13 14.586L14.293 13.293L14.3691 13.2246C14.7619 12.9043 15.3409 12.9269 15.707 13.293Z" fill="currentColor"/>
<path d="M3 18V11C3 8.79086 4.79086 7 7 7H9.5V9H7C5.89543 9 5 9.89543 5 11V18C5 19.1046 5.89543 20 7 20H17C18.1046 20 19 19.1046 19 18V11C19 9.89543 18.1046 9 17 9H14.5V7H17C19.2091 7 21 8.79086 21 11V18C21 20.2091 19.2091 22 17 22H7C4.79086 22 3 20.2091 3 18Z" fill="currentColor"/>
</svg>
