<svg viewBox="0 0 24 24" fill="currentColor" xmlns="http://www.w3.org/2000/svg">
<path d="M2 18V11C2 8.79086 3.79086 7 6 7H7.5C8.05228 7 8.5 7.44772 8.5 8C8.5 8.55228 8.05228 9 7.5 9H6C4.89543 9 4 9.89543 4 11V18C4 19.1046 4.89543 20 6 20H18C19.1046 20 20 19.1046 20 18V11C20 9.89543 19.1046 9 18 9H16.5C15.9477 9 15.5 8.55228 15.5 8C15.5 7.44772 15.9477 7 16.5 7H18C20.2091 7 22 8.79086 22 11V18C22 20.2091 20.2091 22 18 22H6C3.79086 22 2 20.2091 2 18Z" fill="currentColor"/>
<path d="M16.1582 12.2471C16.5478 12.588 16.6098 13.1649 16.3164 13.5781L16.2529 13.6582L12.7529 17.6582C12.563 17.8752 12.2884 18 12 18C11.7116 18 11.437 17.8752 11.2471 17.6582L7.74707 13.6582C7.3837 13.2426 7.42627 12.6107 7.8418 12.2471C8.25744 11.8837 8.88935 11.9263 9.25293 12.3418L11 14.3389L11 3.00002C11 2.44773 11.4477 2.00002 12 2.00002C12.5523 2.00002 13 2.44773 13 3.00002L13 14.3389L14.7471 12.3418L14.8184 12.2676C15.1888 11.922 15.7686 11.9064 16.1582 12.2471Z" fill="currentColor"/>
</svg>
