<svg viewBox="0 0 24 24" fill="currentColor" xmlns="http://www.w3.org/2000/svg">
<path d="M3 19V11C3 9.34316 4.34315 8.00002 6 8.00002H8L8.10254 8.0049C8.60667 8.05623 9 8.48234 9 9.00002C8.99999 9.51769 8.60666 9.9438 8.10254 9.99513L8 10H6C5.44772 10 5 10.4477 5 11V19C5.00001 19.5523 5.44772 20 6 20H18C18.5523 20 19 19.5523 19 19V11C19 10.4477 18.5523 10 18 10H16C15.4477 10 15 9.55229 15 9.00002C15 8.44773 15.4477 8.00002 16 8.00002H18C19.6569 8.00002 21 9.34316 21 11V19C21 20.6569 19.6568 22 18 22H6C4.34315 22 3.00001 20.6569 3 19ZM11 3.00002C11 2.44773 11.4477 2.00002 12 2.00002C12.5177 2.00002 12.9438 2.39335 12.9951 2.89748L13 3.00002V14.3379L14.7471 12.3418L14.8184 12.2676C15.1888 11.922 15.7686 11.9064 16.1582 12.2471C16.5478 12.588 16.6098 13.1649 16.3164 13.5781L16.2529 13.6582L12.7529 17.6582C12.563 17.8752 12.2884 18 12 18C11.7476 18 11.5059 17.9047 11.3223 17.7354L11.2471 17.6582L7.74707 13.6582L7.68359 13.5781C7.39023 13.1649 7.4522 12.588 7.8418 12.2471C8.23144 11.9064 8.81115 11.922 9.18164 12.2676L9.25293 12.3418L11 14.3379V3.00002Z" fill="currentColor"/>
</svg>
