<svg viewBox="0 0 24 24" fill="currentColor" xmlns="http://www.w3.org/2000/svg">
<path d="M3 12C3 11.4477 3.44772 11 4 11H5C5.55228 11 6 11.4477 6 12V16C6 16.5523 5.55228 17 5 17H4C3.44772 17 3 16.5523 3 16V12Z" fill="currentColor"/>
<path d="M8 7C8 6.44772 8.44772 6 9 6H10C10.5523 6 11 6.44772 11 7V16C11 16.5523 10.5523 17 10 17H9C8.44772 17 8 16.5523 8 16V7Z" fill="currentColor"/>
<path d="M13 9C13 8.44772 13.4477 8 14 8H15C15.5523 8 16 8.44772 16 9V16C16 16.5523 15.5523 17 15 17H14C13.4477 17 13 16.5523 13 16V9Z" fill="currentColor"/>
<path d="M18 5C18 4.44772 18.4477 4 19 4H20C20.5523 4 21 4.44772 21 5V16C21 16.5523 20.5523 17 20 17H19C18.4477 17 18 16.5523 18 16V5Z" fill="currentColor"/>
<path d="M2 19.5C2 19.2239 2.22386 19 2.5 19H21.5C21.7761 19 22 19.2239 22 19.5C22 19.7761 21.7761 20 21.5 20H2.5C2.22386 20 2 19.7761 2 19.5Z" fill="currentColor"/>
</svg>
