<svg viewBox="0 0 24 24" fill="currentColor" xmlns="http://www.w3.org/2000/svg">
<path d="M6 15.5C6 16.3284 5.32843 17 4.5 17C3.67157 17 3 16.3284 3 15.5V12.5C3 11.6716 3.67157 11 4.5 11C5.32843 11 6 11.6716 6 12.5V15.5Z" fill="currentColor"/>
<path d="M11 15.5C11 16.3284 10.3284 17 9.5 17C8.67157 17 8 16.3284 8 15.5V7.5C8 6.67157 8.67157 6 9.5 6C10.3284 6 11 6.67157 11 7.5V15.5Z" fill="currentColor"/>
<path d="M16 15.5L15.9922 15.6533C15.9154 16.4097 15.2767 17 14.5 17C13.7233 17 13.0846 16.4097 13.0078 15.6533L13 15.5V9.5C13 8.67157 13.6716 8 14.5 8C15.3284 8 16 8.67157 16 9.5V15.5Z" fill="currentColor"/>
<path d="M21 15.5C21 16.3284 20.3284 17 19.5 17C18.6716 17 18 16.3284 18 15.5V5.5C18 4.67157 18.6716 4 19.5 4C20.3284 4 21 4.67157 21 5.5V15.5Z" fill="currentColor"/>
<path d="M2 19.5C2 19.2239 2.22386 19 2.5 19H21.5C21.7761 19 22 19.2239 22 19.5C22 19.7761 21.7761 20 21.5 20H2.5C2.22386 20 2 19.7761 2 19.5Z" fill="currentColor"/>
</svg>
