<svg viewBox="0 0 24 24" fill="currentColor" xmlns="http://www.w3.org/2000/svg">
<path fill-rule="evenodd" clip-rule="evenodd" d="M22 17.5C22 19.9853 19.9853 22 17.5 22C15.0147 22 13 19.9853 13 17.5C13 15.0147 15.0147 13 17.5 13C19.9853 13 22 15.0147 22 17.5ZM17.5 20C18.8807 20 20 18.8807 20 17.5C20 16.1193 18.8807 15 17.5 15C16.1193 15 15 16.1193 15 17.5C15 18.8807 16.1193 20 17.5 20Z" fill="currentColor"/>
<path fill-rule="evenodd" clip-rule="evenodd" d="M4.1 13H8.9C10.0598 13 11 13.9402 11 15.1V19.9C11 21.0598 10.0598 22 8.9 22H4.1C2.9402 22 2 21.0598 2 19.9V15.1C2 13.9402 2.9402 13 4.1 13ZM4.1 15C4.04477 15 4 15.0448 4 15.1V19.9C4 19.9552 4.04477 20 4.1 20H8.9C8.95523 20 9 19.9552 9 19.9V15.1C9 15.0448 8.95523 15 8.9 15H4.1Z" fill="currentColor"/>
<path fill-rule="evenodd" clip-rule="evenodd" d="M9.05551 9.1C9.01702 9.16667 9.06514 9.25 9.14212 9.25H14.8579C14.9349 9.25 14.983 9.16667 14.9445 9.1L12.0866 4.15C12.0481 4.08333 11.9519 4.08333 11.9134 4.15L9.05551 9.1ZM13.8187 3.15L16.6765 8.1C17.4848 9.50001 16.4745 11.25 14.8579 11.25H9.14212C7.52552 11.25 6.51518 9.49999 7.32346 8.1L10.1813 3.15C10.9896 1.74999 13.0104 1.75001 13.8187 3.15Z" fill="currentColor"/>
</svg>
