<svg viewBox="0 0 24 24" fill="currentColor" xmlns="http://www.w3.org/2000/svg">
<path fill-rule="evenodd" clip-rule="evenodd" d="M6.5 2C4.84315 2 3.5 3.34315 3.5 5V19C3.5 20.6569 4.84315 22 6.5 22H19.5C20.0523 22 20.5 21.5523 20.5 21C20.5 20.4477 20.0523 20 19.5 20C18.9477 20 18.5 19.5523 18.5 19C18.5 18.4477 18.9477 18 19.5 18C20.0523 18 20.5 17.5523 20.5 17V5C20.5 3.34315 19.1569 2 17.5 2H6.5ZM6.5 18C5.94772 18 5.5 18.4477 5.5 19C5.5 19.5523 5.94772 20 6.5 20H17.7676C17.5974 19.7058 17.5 19.3643 17.5 19C17.5 18.6357 17.5974 18.2942 17.7676 18H6.5ZM5.5 16.1707C5.81278 16.0602 6.14936 16 6.5 16H7V4H6.5C5.94772 4 5.5 4.44772 5.5 5V16.1707ZM18.5 16V5C18.5 4.44772 18.0523 4 17.5 4H8V16H18.5Z" fill="currentColor"/>
</svg>
