<svg viewBox="0 0 24 24" fill="currentColor" xmlns="http://www.w3.org/2000/svg">
<path d="M11.2927 17.5858C11.6833 17.1953 12.3163 17.1953 12.7068 17.5858L13.4138 18.2928C13.8044 18.6834 13.8044 19.3164 13.4138 19.7069L12.7068 20.4139C12.3408 20.7799 11.7617 20.8033 11.3689 20.4833L11.2927 20.4139L10.5857 19.7069C10.2196 19.3407 10.1969 18.7618 10.5173 18.369L10.5857 18.2928L11.2927 17.5858ZM7.29274 18.2928C7.68325 17.9023 8.31628 17.9023 8.7068 18.2928C9.09731 18.6833 9.09729 19.3164 8.7068 19.7069C8.34067 20.073 7.76168 20.0956 7.36891 19.7752L7.29274 19.7069C6.92664 19.3408 6.904 18.7618 7.22438 18.369L7.29274 18.2928ZM15.2927 18.2928C15.6833 17.9023 16.3163 17.9023 16.7068 18.2928C17.0973 18.6833 17.0973 19.3164 16.7068 19.7069C16.3407 20.073 15.7617 20.0956 15.3689 19.7752L15.2927 19.7069C14.9266 19.3408 14.904 18.7618 15.2244 18.369L15.2927 18.2928ZM11.2927 18.9999L11.9998 19.7069L12.7068 18.9999L11.9998 18.2928L11.2927 18.9999ZM5.29274 14.0858C5.68326 13.6953 6.31628 13.6953 6.7068 14.0858L7.41383 14.7928C7.80435 15.1834 7.80435 15.8164 7.41383 16.2069L6.7068 16.9139C6.34081 17.2799 5.76168 17.3033 5.36891 16.9833L5.29274 16.9139L4.58571 16.2069C4.21956 15.8407 4.19693 15.2618 4.51735 14.869L4.58571 14.7928L5.29274 14.0858ZM9.29274 14.0858C9.68326 13.6953 10.3163 13.6953 10.7068 14.0858L11.4138 14.7928C11.8044 15.1834 11.8044 15.8164 11.4138 16.2069L10.7068 16.9139C10.3408 17.2799 9.76168 17.3033 9.36891 16.9833L9.29274 16.9139L8.58571 16.2069C8.21957 15.8407 8.19693 15.2618 8.51735 14.869L8.58571 14.7928L9.29274 14.0858ZM13.2927 14.0858C13.6833 13.6953 14.3163 13.6953 14.7068 14.0858L15.4138 14.7928C15.8044 15.1834 15.8044 15.8164 15.4138 16.2069L14.7068 16.9139C14.3163 17.3044 13.6833 17.3044 13.2927 16.9139L12.5857 16.2069C12.2196 15.8407 12.1969 15.2618 12.5173 14.869L12.5857 14.7928L13.2927 14.0858ZM17.2927 14.0858C17.6833 13.6953 18.3163 13.6953 18.7068 14.0858L19.4138 14.7928C19.8044 15.1834 19.8044 15.8164 19.4138 16.2069L18.7068 16.9139C18.3408 17.2799 17.7617 17.3033 17.3689 16.9833L17.2927 16.9139L16.5857 16.2069C16.2196 15.8407 16.1969 15.2618 16.5173 14.869L16.5857 14.7928L17.2927 14.0858ZM13.2927 15.4999L13.9998 16.2069L14.7068 15.4999L13.9998 14.7928L13.2927 15.4999ZM5.29274 15.4999L5.99977 16.2069L6.7068 15.4999L5.99977 14.7928L5.29274 15.4999ZM9.29274 15.4999L9.99977 16.2069L10.7068 15.4999L9.99977 14.7928L9.29274 15.4999ZM17.2927 15.4999L17.9998 16.2069L18.7068 15.4999L17.9998 14.7928L17.2927 15.4999ZM7.29274 10.5858C7.68326 10.1953 8.31628 10.1953 8.7068 10.5858L9.41383 11.2928C9.80435 11.6834 9.80435 12.3164 9.41383 12.7069L8.7068 13.4139C8.31628 13.8044 7.68326 13.8044 7.29274 13.4139L6.58571 12.7069C6.21956 12.3407 6.19692 11.7618 6.51735 11.369L6.58571 11.2928L7.29274 10.5858ZM11.2927 10.5858C11.6833 10.1953 12.3163 10.1953 12.7068 10.5858L13.4138 11.2928C13.8044 11.6834 13.8044 12.3164 13.4138 12.7069L12.7068 13.4139C12.3163 13.8044 11.6833 13.8044 11.2927 13.4139L10.5857 12.7069C10.2196 12.3407 10.1969 11.7618 10.5173 11.369L10.5857 11.2928L11.2927 10.5858ZM15.2927 10.5858C15.6833 10.1953 16.3163 10.1953 16.7068 10.5858L17.4138 11.2928C17.8044 11.6834 17.8044 12.3164 17.4138 12.7069L16.7068 13.4139C16.3163 13.8044 15.6833 13.8044 15.2927 13.4139L14.5857 12.7069C14.2196 12.3407 14.1969 11.7618 14.5173 11.369L14.5857 11.2928L15.2927 10.5858ZM7.29274 11.9999L7.99977 12.7069L8.7068 11.9999L7.99977 11.2928L7.29274 11.9999ZM11.2927 11.9999L11.9998 12.7069L12.7068 11.9999L11.9998 11.2928L11.2927 11.9999ZM15.2927 11.9999L15.9998 12.7069L16.7068 11.9999L15.9998 11.2928L15.2927 11.9999ZM3.29274 11.2928C3.68325 10.9023 4.31628 10.9023 4.7068 11.2928C5.09731 11.6833 5.09729 12.3164 4.7068 12.7069C4.34067 13.073 3.76168 13.0956 3.36891 12.7752L3.29274 12.7069C2.92664 12.3408 2.904 11.7618 3.22438 11.369L3.29274 11.2928ZM19.2927 11.2928C19.6833 10.9023 20.3163 10.9023 20.7068 11.2928C21.0973 11.6833 21.0973 12.3164 20.7068 12.7069C20.3407 13.073 19.7617 13.0956 19.3689 12.7752L19.2927 12.7069C18.9266 12.3408 18.904 11.7618 19.2244 11.369L19.2927 11.2928ZM5.29274 7.0858C5.68326 6.69527 6.31628 6.69527 6.7068 7.0858L7.41383 7.79283C7.80435 8.18335 7.80435 8.81636 7.41383 9.20689L6.7068 9.91392C6.34081 10.2799 5.76168 10.3033 5.36891 9.98326L5.29274 9.91392L4.58571 9.20689C4.21956 8.84075 4.19693 8.26177 4.51735 7.869L4.58571 7.79283L5.29274 7.0858ZM9.29274 7.0858C9.68326 6.69527 10.3163 6.69527 10.7068 7.0858L11.4138 7.79283C11.8044 8.18335 11.8044 8.81636 11.4138 9.20689L10.7068 9.91392C10.3163 10.3044 9.68326 10.3044 9.29274 9.91392L8.58571 9.20689C8.21956 8.84075 8.19692 8.26177 8.51735 7.869L8.58571 7.79283L9.29274 7.0858ZM13.2927 7.0858C13.6833 6.69527 14.3163 6.69527 14.7068 7.0858L15.4138 7.79283C15.8044 8.18335 15.8044 8.81636 15.4138 9.20689L14.7068 9.91392C14.3163 10.3044 13.6833 10.3044 13.2927 9.91392L12.5857 9.20689C12.2196 8.84075 12.1969 8.26177 12.5173 7.869L12.5857 7.79283L13.2927 7.0858ZM17.2927 7.0858C17.6833 6.69528 18.3163 6.69527 18.7068 7.0858L19.4138 7.79283C19.8044 8.18335 19.8043 8.81636 19.4138 9.20689L18.7068 9.91392C18.3163 10.3044 17.6833 10.3044 17.2927 9.91392L16.5857 9.20689C16.2196 8.84074 16.1969 8.26177 16.5173 7.869L16.5857 7.79283L17.2927 7.0858ZM9.29274 8.49986L9.99977 9.20689L10.7068 8.49986L9.99977 7.79283L9.29274 8.49986ZM13.2927 8.49986L13.9998 9.20689L14.7068 8.49986L13.9998 7.79283L13.2927 8.49986ZM17.2927 8.49986L17.9998 9.20689L18.7068 8.49986L17.9998 7.79283L17.2927 8.49986ZM5.29274 8.49986L5.99977 9.20689L6.7068 8.49986L5.99977 7.79283L5.29274 8.49986ZM11.2927 3.5858C11.6833 3.19527 12.3163 3.19527 12.7068 3.5858L13.4138 4.29283C13.8044 4.68335 13.8044 5.31636 13.4138 5.70689L12.7068 6.41392C12.3163 6.80444 11.6833 6.80444 11.2927 6.41392L10.5857 5.70689C10.2196 5.34075 10.1969 4.76177 10.5173 4.369L10.5857 4.29283L11.2927 3.5858ZM11.2927 4.99986L11.9998 5.70689L12.7068 4.99986L11.9998 4.29283L11.2927 4.99986ZM7.29274 4.29283C7.68325 3.90234 8.31628 3.90234 8.7068 4.29283C9.09731 4.68334 9.09729 5.31636 8.7068 5.70689C8.34067 6.07301 7.76168 6.09563 7.36891 5.77525L7.29274 5.70689C6.92664 5.34076 6.904 4.76176 7.22438 4.369L7.29274 4.29283ZM15.2927 4.29283C15.6833 3.90234 16.3163 3.90234 16.7068 4.29283C17.0973 4.68334 17.0973 5.31636 16.7068 5.70689C16.3407 6.07301 15.7617 6.09563 15.3689 5.77525L15.2927 5.70689C14.9266 5.34076 14.904 4.76176 15.2244 4.369L15.2927 4.29283Z" fill="currentColor"/>
</svg>
