<svg viewBox="0 0 24 24" fill="currentColor" xmlns="http://www.w3.org/2000/svg">
<path fill-rule="evenodd" clip-rule="evenodd" d="M19 3C20.6569 3 22 4.34315 22 6V18C22 19.6569 20.6569 21 19 21H5C3.34315 21 2 19.6569 2 18V6C2 4.34315 3.34315 3 5 3H19ZM5 7C4.44772 7 4 7.44772 4 8V18C4 18.5523 4.44772 19 5 19H19C19.5523 19 20 18.5523 20 18V8C20 7.44772 19.5523 7 19 7H5Z" fill="currentColor"/>
<path d="M11.25 9.5C11.25 10.0523 10.8023 10.5 10.25 10.5C9.69772 10.5 9.25 10.0523 9.25 9.5C9.25 8.94772 9.69772 8.5 10.25 8.5C10.8023 8.5 11.25 8.94772 11.25 9.5Z" fill="currentColor"/>
<path d="M18.25 9.5C18.25 10.0523 17.8023 10.5 17.25 10.5C16.6977 10.5 16.25 10.0523 16.25 9.5C16.25 8.94772 16.6977 8.5 17.25 8.5C17.8023 8.5 18.25 8.94772 18.25 9.5Z" fill="currentColor"/>
<path d="M14.75 9.5C14.75 10.0523 14.3023 10.5 13.75 10.5C13.1977 10.5 12.75 10.0523 12.75 9.5C12.75 8.94772 13.1977 8.5 13.75 8.5C14.3023 8.5 14.75 8.94772 14.75 9.5Z" fill="currentColor"/>
<path d="M11.25 13C11.25 13.5523 10.8023 14 10.25 14C9.69772 14 9.25 13.5523 9.25 13C9.25 12.4477 9.69772 12 10.25 12C10.8023 12 11.25 12.4477 11.25 13Z" fill="currentColor"/>
<path d="M18.25 13C18.25 13.5523 17.8023 14 17.25 14C16.6977 14 16.25 13.5523 16.25 13C16.25 12.4477 16.6977 12 17.25 12C17.8023 12 18.25 12.4477 18.25 13Z" fill="currentColor"/>
<path d="M7.75 13C7.75 13.5523 7.30228 14 6.75 14C6.19772 14 5.75 13.5523 5.75 13C5.75 12.4477 6.19772 12 6.75 12C7.30228 12 7.75 12.4477 7.75 13Z" fill="currentColor"/>
<path d="M14.75 13C14.75 13.5523 14.3023 14 13.75 14C13.1977 14 12.75 13.5523 12.75 13C12.75 12.4477 13.1977 12 13.75 12C14.3023 12 14.75 12.4477 14.75 13Z" fill="currentColor"/>
<path d="M11.25 16.5C11.25 17.0523 10.8023 17.5 10.25 17.5C9.69772 17.5 9.25 17.0523 9.25 16.5C9.25 15.9477 9.69772 15.5 10.25 15.5C10.8023 15.5 11.25 15.9477 11.25 16.5Z" fill="currentColor"/>
<path d="M7.75 16.5C7.75 17.0523 7.30228 17.5 6.75 17.5C6.19772 17.5 5.75 17.0523 5.75 16.5C5.75 15.9477 6.19772 15.5 6.75 15.5C7.30228 15.5 7.75 15.9477 7.75 16.5Z" fill="currentColor"/>
<path d="M14.75 16.5C14.75 17.0523 14.3023 17.5 13.75 17.5C13.1977 17.5 12.75 17.0523 12.75 16.5C12.75 15.9477 13.1977 15.5 13.75 15.5C14.3023 15.5 14.75 15.9477 14.75 16.5Z" fill="currentColor"/>
</svg>
