<svg viewBox="0 0 24 24" fill="currentColor" xmlns="http://www.w3.org/2000/svg">
<path fill-rule="evenodd" clip-rule="evenodd" d="M12 22C17.5228 22 22 17.5228 22 12C22 6.47715 17.5228 2 12 2C6.47715 2 2 6.47715 2 12C2 17.5228 6.47715 22 12 22ZM17.3373 8.5481C16.9468 8.15757 16.3136 8.15757 15.9231 8.5481L10.2662 14.205L7.96815 11.9069C7.57762 11.5163 6.94446 11.5163 6.55393 11.9069C6.16341 12.2974 6.16341 12.9305 6.55393 13.3211L9.55914 16.3263C9.92519 16.6923 10.5046 16.7155 10.8974 16.3953L10.9733 16.3263L17.3373 9.96231C17.7278 9.57179 17.7278 8.93862 17.3373 8.5481Z" fill="currentColor"/>
</svg>
