<svg viewBox="0 0 24 24" fill="currentColor" xmlns="http://www.w3.org/2000/svg">
<path d="M12 2C17.5228 2 22 6.47715 22 12C22 17.5228 17.5228 22 12 22C6.47715 22 2 17.5228 2 12C2 6.47715 6.47715 2 12 2ZM12 4C7.58172 4 4 7.58172 4 12C4 16.4183 7.58172 20 12 20C16.4183 20 20 16.4183 20 12C20 7.58172 16.4183 4 12 4ZM15.7617 8.37109C16.1522 7.98074 16.7853 7.9808 17.1758 8.37109C17.5663 8.76158 17.5662 9.39462 17.1758 9.78516L11.166 15.7959C10.7755 16.1864 10.1415 16.1864 9.75098 15.7959L6.92285 12.9678C6.5324 12.5773 6.53255 11.9443 6.92285 11.5537C7.31338 11.1632 7.94639 11.1632 8.33691 11.5537L10.458 13.6748L15.7617 8.37109Z" fill="currentColor"/>
</svg>
