<svg viewBox="0 0 24 24" fill="currentColor" xmlns="http://www.w3.org/2000/svg">
<path fill-rule="evenodd" clip-rule="evenodd" d="M22 12C22 6.47715 17.5228 2 12 2C6.47715 2 2 6.47715 2 12C2 17.5228 6.47715 22 12 22C17.5228 22 22 17.5228 22 12ZM17.0352 8.62109C16.6446 8.23087 16.0115 8.23067 15.6211 8.62109L10.6719 13.5713L8.5498 11.4502C8.15928 11.0597 7.52627 11.0597 7.13574 11.4502C6.74559 11.8407 6.74534 12.4739 7.13574 12.8643L9.96484 15.6924C10.3554 16.0827 10.9884 16.0828 11.3789 15.6924L17.0352 10.0352C17.4257 9.64463 17.4257 9.01162 17.0352 8.62109Z" fill="currentColor"/>
</svg>
