<svg viewBox="0 0 24 24" fill="currentColor" xmlns="http://www.w3.org/2000/svg">
<path d="M15.6213 8.62132C16.0118 8.2308 16.645 8.2308 17.0355 8.62132C17.4016 8.98737 17.4248 9.5668 17.1046 9.95958L17.0355 10.0355L11.0251 16.0459C10.6346 16.4365 10.0014 16.4365 9.61091 16.0459L6.78249 13.2175C6.39196 12.827 6.39196 12.1938 6.78249 11.8033C7.17301 11.4128 7.80617 11.4128 8.1967 11.8033L10.318 13.9246L15.6213 8.62132Z" fill="currentColor"/>
<path fill-rule="evenodd" clip-rule="evenodd" d="M12 22C6.47715 22 2 17.5228 2 12C2 6.47715 6.47715 2 12 2C17.5228 2 22 6.47715 22 12C22 17.5228 17.5228 22 12 22ZM12 4C16.4183 4 20 7.58172 20 12C20 16.4183 16.4183 20 12 20C7.58172 20 4 16.4183 4 12C4 7.58172 7.58172 4 12 4Z" fill="currentColor"/>
</svg>
