<svg viewBox="0 0 24 24" fill="currentColor" xmlns="http://www.w3.org/2000/svg">
<path d="M22 12C22 17.5228 17.5228 22 12 22C6.47715 22 2 17.5228 2 12C2 6.47715 6.47715 2 12 2C17.5228 2 22 6.47715 22 12Z" fill="currentColor"/>
<path d="M15.7981 8.4231C16.1886 8.03257 16.8218 8.03257 17.2123 8.4231C17.6028 8.81362 17.6028 9.44679 17.2123 9.83731L10.8483 16.2013L10.7724 16.2703C10.3796 16.5905 9.80019 16.5673 9.43414 16.2013L6.42893 13.1961C6.03841 12.8055 6.03841 12.1724 6.42893 11.7819C6.81946 11.3913 7.45262 11.3913 7.84315 11.7819L10.1412 14.08L15.7981 8.4231Z" fill="currentColor"/>
</svg>
