<svg viewBox="0 0 24 24" fill="currentColor" xmlns="http://www.w3.org/2000/svg">
<path d="M15.8891 8.11145C16.2793 8.502 16.2795 9.13523 15.8891 9.52566L13.4142 12.0005L15.8891 14.4754C16.2793 14.866 16.2795 15.4992 15.8891 15.8896C15.4986 16.2798 14.8653 16.2798 14.4749 15.8896L12 13.4148L9.52513 15.8896C9.13467 16.2798 8.50137 16.2798 8.11091 15.8896C7.72048 15.4992 7.72065 14.866 8.11091 14.4754L10.5858 12.0005L8.11091 9.52566C7.72048 9.13523 7.72065 8.502 8.11091 8.11145C8.50144 7.72093 9.1346 7.72093 9.52513 8.11145L12 10.5863L14.4749 8.11145C14.8654 7.72093 15.4986 7.72093 15.8891 8.11145Z" fill="currentColor"/>
<path fill-rule="evenodd" clip-rule="evenodd" d="M17.5001 2.49948C19.7091 2.49954 21.5002 4.29076 21.5004 6.49974V17.5C21.5004 19.7091 19.7092 21.5002 17.5001 21.5002H6.4999C4.29081 21.5002 2.49963 19.7091 2.49963 17.5V6.49974C2.49977 4.29076 4.29089 2.49954 6.4999 2.49948H17.5001ZM19.4999 6.50043C19.4999 5.39587 18.604 4.49996 17.4994 4.49996H6.50059C5.39602 4.49996 4.50011 5.39587 4.50011 6.50043L4.49942 17.5C4.49942 18.6045 5.39538 19.5004 6.4999 19.5004H17.5001C18.6046 19.5004 19.5006 18.6045 19.5006 17.5L19.4999 6.50043Z" fill="currentColor"/>
</svg>
