<svg viewBox="0 0 24 24" fill="currentColor" xmlns="http://www.w3.org/2000/svg">
<path d="M17.5 2.5C19.7091 2.5 21.5 4.29086 21.5 6.5V17.5C21.5 19.7091 19.7091 21.5 17.5 21.5H6.5C4.29086 21.5 2.5 19.7091 2.5 17.5V6.5C2.5 4.29086 4.29086 2.5 6.5 2.5H17.5ZM16.2422 7.75684C15.8517 7.36684 15.2185 7.36658 14.8281 7.75684L11.999 10.585L9.17188 7.75684C8.78134 7.36642 8.14732 7.36635 7.75684 7.75684C7.36635 8.14732 7.36642 8.78134 7.75684 9.17188L10.585 11.999L7.75684 14.8281C7.36659 15.2185 7.36684 15.8517 7.75684 16.2422C8.14736 16.6327 8.78135 16.6327 9.17188 16.2422L11.999 13.4141L14.8281 16.2422C15.2186 16.6327 15.8517 16.6327 16.2422 16.2422C16.6327 15.8517 16.6327 15.2186 16.2422 14.8281L13.4141 11.999L16.2422 9.17188C16.6327 8.78135 16.6327 8.14736 16.2422 7.75684Z" fill="currentColor"/>
</svg>
