<svg viewBox="0 0 24 24" fill="currentColor" xmlns="http://www.w3.org/2000/svg">
<path d="M15.5355 15.5355C15.145 15.9261 14.5118 15.9261 14.1213 15.5355L12 13.4142L9.87868 15.5355C9.48815 15.9261 8.85499 15.9261 8.46447 15.5355C8.07394 15.145 8.07394 14.5118 8.46447 14.1213L10.5858 12L8.46447 9.87868C8.07394 9.48815 8.07394 8.85499 8.46447 8.46447C8.85499 8.07394 9.48815 8.07394 9.87868 8.46447L12 10.5858L14.1213 8.46447C14.5118 8.07394 15.145 8.07394 15.5355 8.46446C15.9261 8.85499 15.9261 9.48815 15.5355 9.87868L13.4142 12L15.5355 14.1213C15.9261 14.5118 15.9261 15.145 15.5355 15.5355Z" fill="currentColor"/>
<path d="M19 7C19 5.89543 18.1046 5 17 5H7C5.89543 5 5 5.89543 5 7V17C5 18.1046 5.89543 19 7 19H17C18.1046 19 19 18.1046 19 17V7ZM21 17C21 19.2091 19.2091 21 17 21H7C4.79086 21 3 19.2091 3 17V7C3 4.79086 4.79086 3 7 3H17C19.2091 3 21 4.79086 21 7V17Z" fill="currentColor"/>
</svg>
