<svg viewBox="0 0 24 24" fill="currentColor" xmlns="http://www.w3.org/2000/svg">
<path d="M11.9998 3C12.7943 3 13.5133 3.47042 13.8319 4.19824L16.4569 10.1982L20.0418 8.24414C20.7633 7.85059 21.6526 7.93858 22.283 8.46582C22.9135 8.99319 23.1572 9.85305 22.8973 10.6328L20.9998 16.3242V19C20.9998 20.1046 20.1044 21 18.9998 21H4.99983C3.89534 20.9999 2.99983 20.1045 2.99983 19V16.3242L1.10237 10.6328C0.842493 9.85311 1.08627 8.99318 1.71663 8.46582C2.34704 7.93854 3.23632 7.85065 3.95784 8.24414L7.54182 10.1982L10.1678 4.19824L10.2323 4.06445C10.5767 3.41331 11.2552 3.00006 11.9998 3ZM4.99983 17V19H18.9998V17H4.99983ZM8.93733 12.001L8.8885 12.0977C8.63984 12.5324 8.10328 12.7157 7.64046 12.5244L7.54182 12.4775L2.99983 10L4.89729 15.6924C4.93079 15.7929 4.95633 15.8958 4.97346 16H19.0301C19.0385 15.9487 19.045 15.8972 19.0574 15.8467L19.1024 15.6924L20.9998 10L16.4578 12.4775L16.3592 12.5244C15.8964 12.7156 15.3598 12.5324 15.1112 12.0977L15.0623 12.001L11.9998 5L8.93733 12.001Z" fill="currentColor"/>
</svg>
