<svg viewBox="0 0 24 24" fill="currentColor" xmlns="http://www.w3.org/2000/svg">
<path d="M11.9998 3C12.7223 3 13.3887 3.38983 13.743 4.01953L16.8562 9.55469L18.4949 7.68262C19.0677 7.02833 19.9979 6.81909 20.7957 7.16504C21.5937 7.51116 22.0766 8.33371 21.99 9.19922L20.99 19.1992C20.8877 20.2215 20.0272 21 18.9998 21H4.99979C3.97244 20.9999 3.11187 20.2215 3.00955 19.1992L2.00955 9.19922C1.92302 8.33378 2.40601 7.51121 3.20389 7.16504C4.0017 6.819 4.93185 7.02836 5.50467 7.68262L7.14236 9.55469L10.2566 4.01953C10.6108 3.38984 11.2773 3.00008 11.9998 3ZM4.99979 19H18.9998L19.2 17H4.79959L4.99979 19ZM8.19315 11.7676L8.12381 11.874C7.77683 12.3438 7.0939 12.415 6.65799 12.0264L6.56912 11.9355L3.99979 9L4.69998 16H19.2996L19.9998 9L17.4305 11.9355C16.976 12.4548 16.1447 12.369 15.8064 11.7676L11.9998 5L8.19315 11.7676ZM11.6306 10.1572C11.829 9.93917 12.1725 9.93906 12.3709 10.1572L14.1941 12.1631L14.2517 12.2393C14.3653 12.4253 14.3457 12.6701 14.1941 12.8369L12.3709 14.8428L12.2888 14.915C12.0876 15.0578 11.8041 15.0334 11.6306 14.8428L9.80545 12.8359C9.63257 12.6454 9.63257 12.3546 9.80545 12.1641L11.6306 10.1572ZM10.8504 12.5L11.9998 13.7637L13.1492 12.5L11.9998 11.2363L10.8504 12.5Z" fill="currentColor"/>
</svg>
