<svg viewBox="0 0 24 24" fill="currentColor" xmlns="http://www.w3.org/2000/svg">
<path fill-rule="evenodd" clip-rule="evenodd" d="M19.625 18.6289C19.3285 20.012 18.1059 21 16.6914 21H7.30859C5.98229 21 4.82502 20.1313 4.44141 18.8828L4.375 18.6289L3.05277 12.4601C1.88546 12.2493 1 11.2281 1 10C1 8.61929 2.11929 7.5 3.5 7.5C4.88071 7.5 6 8.61929 6 10C6 10.0868 5.99557 10.1726 5.98694 10.2571L8.10547 11.3164L10.1648 7.1977C9.75219 6.75187 9.5 6.15538 9.5 5.5C9.5 4.11929 10.6193 3 12 3C13.3807 3 14.5 4.11929 14.5 5.5C14.5 6.15538 14.2478 6.75187 13.8352 7.1977L15.8945 11.3164L18.0131 10.2571C18.0044 10.1726 18 10.0868 18 10C18 8.61929 19.1193 7.5 20.5 7.5C21.8807 7.5 23 8.61929 23 10C23 11.2281 22.1145 12.2493 20.9472 12.4601L19.625 18.6289ZM9.39648 13.1943L9.44727 13.1055L12 8L14.5527 13.1055L14.6035 13.1943C14.8568 13.594 15.3584 13.7616 15.8008 13.5938L15.8945 13.5527L19 12L18.1426 16H5.85737L5 12L8.10547 13.5527L8.19922 13.5938C8.64162 13.7616 9.14325 13.594 9.39648 13.1943ZM7.2207 18.9961C6.78726 18.9582 6.42385 18.6419 6.33105 18.21L6.07171 17H17.9283L17.6689 18.21L17.6475 18.2939C17.5197 18.7103 17.1336 19 16.6914 19H7.30859L7.2207 18.9961ZM3.5 9.5C3.77614 9.5 4 9.72386 4 10C4 10.2761 3.77614 10.5 3.5 10.5C3.22386 10.5 3 10.2761 3 10C3 9.72386 3.22386 9.5 3.5 9.5ZM20.5 9.5C20.7761 9.5 21 9.72386 21 10C21 10.2761 20.7761 10.5 20.5 10.5C20.2239 10.5 20 10.2761 20 10C20 9.72386 20.2239 9.5 20.5 9.5ZM12 5C12.2761 5 12.5 5.22386 12.5 5.5C12.5 5.77614 12.2761 6 12 6C11.7239 6 11.5 5.77614 11.5 5.5C11.5 5.22386 11.7239 5 12 5Z" fill="currentColor"/>
</svg>
