<svg viewBox="0 0 24 24" fill="currentColor" xmlns="http://www.w3.org/2000/svg">
<path fill-rule="evenodd" clip-rule="evenodd" d="M11.9998 2.5C12.7943 2.5 13.5133 2.97042 13.8319 3.69824L16.4569 9.69824L20.0418 7.74414C20.7633 7.35059 21.6526 7.43858 22.283 7.96582C22.9135 8.49319 23.1572 9.35305 22.8973 10.1328L20.9998 15.8242V19.5C20.9998 20.6046 20.1044 21.5 18.9998 21.5H4.99983C3.89534 21.4999 2.99983 20.6045 2.99983 19.5V15.8242L1.10237 10.1328C0.842493 9.35311 1.08627 8.49318 1.71663 7.96582C2.34704 7.43854 3.23632 7.35065 3.95784 7.74414L7.54182 9.69824L10.1678 3.69824L10.2323 3.56445C10.5767 2.91331 11.2552 2.50006 11.9998 2.5ZM4.99983 16.5V19.5H18.9998V16.5H4.99983ZM8.93733 11.501L8.8885 11.5977C8.63984 12.0324 8.10328 12.2157 7.64046 12.0244L7.54182 11.9775L2.99983 9.5L4.89729 15.1924C4.93079 15.2929 4.95633 15.3958 4.97347 15.5H19.0301C19.0385 15.4487 19.045 15.3972 19.0574 15.3467L19.1024 15.1924L20.9998 9.5L16.4578 11.9775L16.3592 12.0244C15.8964 12.2156 15.3598 12.0324 15.1112 11.5977L15.0623 11.501L11.9998 4.5L8.93733 11.501Z" fill="currentColor"/>
</svg>
