<svg viewBox="0 0 24 24" fill="currentColor" xmlns="http://www.w3.org/2000/svg">
<path fill-rule="evenodd" clip-rule="evenodd" d="M11.6308 10.1572C11.8292 9.93922 12.1727 9.93908 12.371 10.1572L14.1942 12.1631L14.2519 12.2393C14.3654 12.4253 14.3458 12.6701 14.1942 12.8369L12.371 14.8428L12.289 14.915C12.0878 15.0578 11.8042 15.0334 11.6308 14.8428L9.80557 12.8359C9.63262 12.6453 9.63262 12.3547 9.80557 12.1641L11.6308 10.1572ZM10.8505 12.5L11.9999 13.7637L13.1483 12.5L11.9999 11.2363L10.8505 12.5Z" fill="currentColor"/>
<path fill-rule="evenodd" clip-rule="evenodd" d="M11.9999 3C12.7574 3 13.4502 3.42792 13.789 4.10547L16.8222 10.1738L19.9706 8.28516L20.1073 8.20996C20.8009 7.86385 21.6388 7.94884 22.2509 8.43945C22.8629 8.93038 23.1276 9.73021 22.9403 10.4824L22.8974 10.6328L20.9999 16.3242V19C20.9999 20.1046 20.1045 21 18.9999 21H4.9999C3.89538 20.9999 2.9999 20.1045 2.9999 19V16.3242L1.10244 10.6328C0.8378 9.83884 1.09612 8.96316 1.74893 8.43945C2.40172 7.91615 3.31172 7.85471 4.0292 8.28516L7.17666 10.1738L10.2108 4.10547L10.2782 3.98145C10.6362 3.37607 11.2897 3.00004 11.9999 3ZM4.9999 19H18.9999V17H4.9999V19ZM8.4833 12.0342L8.42959 12.1279C8.16095 12.547 7.62043 12.7046 7.16885 12.4951L7.07412 12.4443L2.9999 10L4.89736 15.6924C4.93086 15.7929 4.9564 15.8958 4.97354 16H19.0302C19.0386 15.9487 19.0451 15.8972 19.0575 15.8467L19.1024 15.6924L20.9999 10L16.9257 12.4443L16.831 12.4951C16.3794 12.7045 15.8388 12.547 15.5702 12.1279L15.5165 12.0342L11.9999 5L8.4833 12.0342Z" fill="currentColor"/>
</svg>
