<svg viewBox="0 0 24 24" fill="currentColor" xmlns="http://www.w3.org/2000/svg">
<path fill-rule="evenodd" clip-rule="evenodd" d="M10.4991 2.08562C11.427 1.54991 12.5711 1.55028 13.4991 2.08562L16.2628 3.68132C17.1907 4.21711 17.7625 5.20749 17.7628 6.27898V10.0475L21.0265 11.9313C21.9544 12.4671 22.5262 13.4575 22.5265 14.529V17.7204C22.5263 18.7919 21.9544 19.7822 21.0265 20.318L18.2628 21.9137C17.3347 22.4494 16.1908 22.4495 15.2628 21.9137L11.9991 20.029L8.73642 21.9137C7.80831 22.4494 6.66446 22.4495 5.73642 21.9137L2.97372 20.318C2.10353 19.8156 1.54669 18.9136 1.48056 17.9196L1.47372 17.7204V14.529C1.47398 13.4575 2.04573 12.4671 2.97372 11.9313L6.23642 10.0475V6.27898C6.23668 5.20754 6.80854 4.21713 7.73642 3.68132L10.4991 2.08562ZM13.0001 18.2966L16.2628 20.1813V16.4137L13.0001 14.53V18.2966ZM17.2628 16.4137V20.1813L20.0265 18.5856C20.3355 18.407 20.5263 18.0773 20.5265 17.7204V14.529L17.2628 16.4137ZM3.47372 17.7204L3.48251 17.8522C3.52315 18.1572 3.7031 18.4293 3.97372 18.5856L6.73642 20.1813V16.4137L3.47372 14.53V17.7204ZM7.73642 16.4137V20.1813L11.0001 18.2966V14.529L7.73642 16.4137ZM3.97275 13.6637L7.23544 15.5475L10.4991 13.6637L7.23544 11.779L3.97275 13.6637ZM13.5001 13.6628L16.7628 15.5475L20.0255 13.6628L16.7628 11.779L13.5001 13.6628ZM8.23642 10.0466L11.5001 11.9313V8.16374L8.23642 6.27898V10.0466ZM12.5001 8.16374V11.9303L15.7628 10.0466V6.27995L12.5001 8.16374ZM12.4991 3.81804C12.1899 3.63987 11.8082 3.63956 11.4991 3.81804L8.73544 5.41374L11.9991 7.29753L15.2618 5.41277L12.4991 3.81804Z" fill="currentColor"/>
</svg>
