<svg viewBox="0 0 24 24" fill="currentColor" xmlns="http://www.w3.org/2000/svg">
<path fill-rule="evenodd" clip-rule="evenodd" d="M13 21H9C5.68629 21 3 18.3137 3 15V5L3.00488 4.89746C3.05621 4.39333 3.48232 4 4 4H18L18.1025 4.00488C18.6067 4.05621 19 4.48232 19 5V7H20C21.6569 7 23 8.34315 23 10V10.9561C23 12.1673 22.4516 13.3088 21.5166 14.0654L21.3252 14.2109L18.9296 15.9217C18.4862 18.7979 16.0003 21 13 21ZM5 6H17V15C17 17.2091 15.2091 19 13 19H9C6.79086 19 5 17.2091 5 15V6ZM21 10V10.9561C21 11.5212 20.7614 12.0563 20.3496 12.4326L20.1621 12.584L19 13.4142V9H20C20.5523 9 21 9.44772 21 10Z" fill="currentColor"/>
</svg>
