<svg viewBox="0 0 24 24" fill="currentColor" xmlns="http://www.w3.org/2000/svg">
<path d="M12 20C12.5523 20 13 20.4477 13 21V22C13 22.5523 12.5523 23 12 23C11.4477 23 11 22.5523 11 22V21C11 20.4477 11.4477 20 12 20ZM4.9375 17.6602C5.32798 17.2698 5.96107 17.2699 6.35156 17.6602C6.74204 18.0506 6.74195 18.6837 6.35156 19.0742L5.64453 19.7812C5.25401 20.1718 4.62099 20.1718 4.23047 19.7812C3.84012 19.3907 3.84 18.7577 4.23047 18.3672L4.9375 17.6602ZM17.665 17.6533C18.0556 17.2628 18.6896 17.2628 19.0801 17.6533L19.7871 18.3604C20.1774 18.7508 20.1773 19.3839 19.7871 19.7744C19.3966 20.1649 18.7626 20.1649 18.3721 19.7744L17.665 19.0674C17.2748 18.6769 17.2748 18.0438 17.665 17.6533ZM12 5C15.866 5 19 8.13401 19 12C19 15.866 15.866 19 12 19C8.13401 19 5 15.866 5 12C5 8.13401 8.13401 5 12 5ZM12 7C9.23858 7 7 9.23858 7 12C7 14.7614 9.23858 17 12 17C14.7614 17 17 14.7614 17 12C17 9.23858 14.7614 7 12 7ZM13.6387 9.83203C14.0292 9.44151 14.6632 9.44151 15.0537 9.83203C15.444 10.2225 15.4439 10.8556 15.0537 11.2461L11.8711 14.4287C11.4806 14.8189 10.8475 14.819 10.457 14.4287L9.04297 13.0137C8.65261 12.6231 8.6525 11.9901 9.04297 11.5996C9.43345 11.2093 10.0666 11.2093 10.457 11.5996L11.1641 12.3066L13.6387 9.83203ZM3.00488 11.0049C3.55713 11.0049 4.00482 11.4527 4.00488 12.0049C4.00488 12.5572 3.55717 13.0049 3.00488 13.0049H2.00488C1.45265 13.0048 1.00488 12.5571 1.00488 12.0049C1.00495 11.4527 1.45269 11.0049 2.00488 11.0049H3.00488ZM22.0049 11.0049C22.5571 11.0049 23.0048 11.4527 23.0049 12.0049C23.0049 12.5572 22.5572 13.0049 22.0049 13.0049H21.0049C20.4526 13.0048 20.0049 12.5571 20.0049 12.0049C20.0049 11.4527 20.4527 11.0049 21.0049 11.0049H22.0049ZM18.3721 4.22559C18.7626 3.83506 19.3966 3.83506 19.7871 4.22559C20.1773 4.61608 20.1774 5.24921 19.7871 5.63965L19.0801 6.34668C18.6896 6.7372 18.0556 6.7372 17.665 6.34668C17.2748 5.95622 17.2748 5.3231 17.665 4.93262L18.3721 4.22559ZM4.23047 4.21875C4.62099 3.82823 5.25401 3.82823 5.64453 4.21875L6.35156 4.92578C6.74195 5.31632 6.74204 5.94936 6.35156 6.33984C5.96107 6.73016 5.32798 6.73018 4.9375 6.33984L4.23047 5.63281C3.84 5.24234 3.84011 4.60929 4.23047 4.21875ZM12 1C12.5523 1 13 1.44772 13 2V3C13 3.55228 12.5523 4 12 4C11.4477 4 11 3.55228 11 3V2C11 1.44772 11.4477 1 12 1Z" fill="currentColor"/>
</svg>
