<svg viewBox="0 0 24 24" fill="currentColor" xmlns="http://www.w3.org/2000/svg">
<path d="M9.71196 8.28769C10.1024 7.89722 10.7356 7.89734 11.1262 8.28769L13.4243 10.5858L15.7224 8.28769C16.1128 7.89722 16.746 7.89734 17.1366 8.28769C17.5271 8.67821 17.5271 9.31138 17.1366 9.7019L14.8385 12L17.1366 14.2981C17.5271 14.6886 17.5271 15.3218 17.1366 15.7123C16.746 16.1028 16.1129 16.1028 15.7224 15.7123L13.4243 13.4142L11.1262 15.7123C10.7356 16.1028 10.1025 16.1028 9.71196 15.7123C9.32164 15.3218 9.32158 14.6886 9.71196 14.2981L12.0101 12L9.71196 9.7019C9.32164 9.31139 9.32158 8.67816 9.71196 8.28769Z" fill="currentColor"/>
<path fill-rule="evenodd" clip-rule="evenodd" d="M8.02844 3.61277C8.77097 2.90098 9.76156 2.50051 10.7954 2.50032L17.9997 2.49963C20.2088 2.49963 21.9999 4.29085 22 6.4999V17.5001C22 19.7092 20.2089 21.5004 17.9997 21.5004H10.7961C9.69347 21.5003 8.63992 21.0444 7.88412 20.2415L2.70718 14.7414C1.2577 13.2012 1.25769 10.7988 2.70718 9.25858L7.88342 3.75917L8.02844 3.61277ZM4.16283 10.6286C3.43803 11.3987 3.43803 12.6013 4.16283 13.3714L9.33976 18.8715C9.71752 19.2727 10.2444 19.4997 10.7954 19.4999L17.9997 19.5006C19.1043 19.5006 20.0002 18.6047 20.0002 17.5001V6.4999C20.0001 5.39559 19.1047 4.5004 18.0004 4.50011H10.7954C10.2444 4.50031 9.71752 4.72739 9.33976 5.1285L4.16283 10.6286Z" fill="currentColor"/>
</svg>
