<svg viewBox="0 0 24 24" fill="currentColor" xmlns="http://www.w3.org/2000/svg">
<path d="M9.21189 8.28769C9.60236 7.89722 10.2356 7.89734 10.6261 8.28769L12.9242 10.5858L15.2223 8.28769C15.6128 7.89722 16.246 7.89734 16.6365 8.28769C17.027 8.67821 17.027 9.31138 16.6365 9.7019L14.3384 12L16.6365 14.2981C17.027 14.6886 17.027 15.3218 16.6365 15.7123C16.246 16.1028 15.6128 16.1028 15.2223 15.7123L12.9242 13.4142L10.6261 15.7123C10.2356 16.1028 9.60239 16.1028 9.21189 15.7123C8.82157 15.3218 8.82151 14.6886 9.21189 14.2981L11.51 12L9.21189 9.7019C8.82157 9.31139 8.82151 8.67816 9.21189 8.28769Z" fill="currentColor"/>
<path fill-rule="evenodd" clip-rule="evenodd" d="M7.52837 3.61277C8.2709 2.90098 9.26149 2.50051 10.2953 2.50032L17.4997 2.49963C19.7088 2.49963 21.4998 4.29085 21.4999 6.4999V17.5001C21.4999 19.7092 19.7088 21.5004 17.4997 21.5004H10.296C9.1934 21.5003 8.13985 21.0444 7.38405 20.2415L2.20711 14.7414C0.757629 13.2012 0.757627 10.7988 2.20711 9.25858L7.38336 3.75917L7.52837 3.61277ZM3.66276 10.6286C2.93796 11.3987 2.93796 12.6013 3.66276 13.3714L8.83969 18.8715C9.21746 19.2727 9.74431 19.4997 10.2953 19.4999L17.4997 19.5006C18.6042 19.5006 19.5001 18.6047 19.5002 17.5001V6.4999C19.5001 5.39559 18.6046 4.5004 17.5004 4.50011H10.2953C9.74436 4.50031 9.21745 4.72739 8.83969 5.1285L3.66276 10.6286Z" fill="currentColor"/>
</svg>
