<svg viewBox="0 0 24 24" fill="currentColor" xmlns="http://www.w3.org/2000/svg">
<path fill-rule="evenodd" clip-rule="evenodd" d="M7.44017 4.45304C8.00755 3.84514 8.80179 3.5 9.63333 3.5H18.2642C19.9211 3.5 21.2642 4.84315 21.2642 6.5V17.5C21.2642 19.1569 19.9211 20.5 18.2642 20.5H9.63333C8.80179 20.5 8.00755 20.1549 7.44017 19.547L2.30683 14.047C1.23105 12.8943 1.23106 11.1057 2.30683 9.95305L7.44017 4.45304ZM9.63333 5.5C9.35615 5.5 9.0914 5.61505 8.90228 5.81768L3.76895 11.3177C3.41035 11.7019 3.41035 12.2981 3.76894 12.6823L8.90228 18.1823C9.0914 18.385 9.35615 18.5 9.63333 18.5H18.2642C18.8165 18.5 19.2642 18.0523 19.2642 17.5V6.5C19.2642 5.94772 18.8165 5.5 18.2642 5.5H9.63333Z" fill="currentColor"/>
<path d="M16.3708 15.5355C15.9803 15.9261 15.3471 15.9261 14.9566 15.5355L12.8353 13.4142L10.714 15.5355C10.3235 15.9261 9.69029 15.9261 9.29976 15.5355C8.90924 15.145 8.90924 14.5118 9.29976 14.1213L11.4211 12L9.29976 9.87868C8.90924 9.48816 8.90924 8.85499 9.29976 8.46447C9.69029 8.07394 10.3235 8.07394 10.714 8.46447L12.8353 10.5858L14.9566 8.46447C15.3471 8.07394 15.9803 8.07394 16.3708 8.46447C16.7614 8.85499 16.7614 9.48815 16.3708 9.87868L14.2495 12L16.3708 14.1213C16.7614 14.5118 16.7614 15.145 16.3708 15.5355Z" fill="currentColor"/>
</svg>
