<svg viewBox="0 0 24 24" fill="currentColor" xmlns="http://www.w3.org/2000/svg">
<path d="M9.21239 8.2876C9.60292 7.89716 10.2361 7.8971 10.6266 8.2876L12.9247 10.5857L15.2228 8.2876C15.6133 7.89716 16.2465 7.8971 16.637 8.2876C17.0275 8.67809 17.0275 9.31128 16.637 9.70181L14.3389 11.9999L16.637 14.298C17.0275 14.6885 17.0275 15.3217 16.637 15.7122C16.2465 16.1027 15.6133 16.1027 15.2228 15.7122L12.9247 13.4141L10.6266 15.7122C10.2361 16.1027 9.60292 16.1027 9.21239 15.7122C8.82187 15.3217 8.82187 14.6885 9.21239 14.298L11.5105 11.9999L9.21239 9.70181C8.82187 9.31129 8.82187 8.67812 9.21239 8.2876Z" fill="currentColor"/>
<path fill-rule="evenodd" clip-rule="evenodd" d="M7.52818 3.61199C8.27079 2.90017 9.2619 2.50033 10.2958 2.50023L18.0001 2.49954C20.2091 2.49961 22.0003 4.29079 22.0004 6.49981V17.5C22.0004 19.7091 20.2092 21.5002 18.0001 21.5003L10.2958 21.4996C9.19308 21.4995 8.13967 21.0438 7.38386 20.2407L2.20693 14.7406C0.757854 13.2005 0.757798 10.7992 2.20693 9.25918L7.38386 3.75908L7.52818 3.61199ZM3.66326 10.6285C2.93846 11.3986 2.93846 12.6012 3.66326 13.3713L8.84019 18.8714C9.21802 19.2725 9.74477 19.4997 10.2958 19.4998L18.0001 19.5005C19.1046 19.5004 20.0006 18.6045 20.0006 17.5L19.9999 6.5005C19.9999 5.39593 19.104 4.50002 17.9994 4.50002H10.2958C9.74461 4.50012 9.21735 4.72774 8.8395 5.1291L3.66326 10.6285Z" fill="currentColor"/>
</svg>
