<svg viewBox="0 0 24 24" fill="currentColor" xmlns="http://www.w3.org/2000/svg">
<path fill-rule="evenodd" clip-rule="evenodd" d="M17.9999 2.5C20.209 2.50005 21.9999 4.29089 21.9999 6.5V17.5C21.9999 19.7091 20.209 21.4999 17.9999 21.5H10.2958C9.19311 21.4999 8.13946 21.0442 7.38368 20.2412L2.20692 14.7412C0.757564 13.2011 0.757562 10.7989 2.20692 9.25879L7.38368 3.75879C8.13946 2.95583 9.19311 2.50014 10.2958 2.5H17.9999ZM16.9169 8.11133C16.5264 7.72092 15.8933 7.72084 15.5028 8.11133L13.0272 10.5859L10.5526 8.11133C10.1621 7.72092 9.52905 7.72084 9.13857 8.11133C8.74849 8.50185 8.7483 9.13499 9.13857 9.52539L11.6132 12L9.13857 14.4746C8.74827 14.865 8.74842 15.4982 9.13857 15.8887C9.52905 16.2792 10.1621 16.2791 10.5526 15.8887L13.0272 13.4131L15.5028 15.8887C15.8933 16.2792 16.5264 16.2791 16.9169 15.8887C17.3072 15.4981 17.3073 14.8651 16.9169 14.4746L14.4413 12L16.9169 9.52539C17.3073 9.13496 17.3071 8.50187 16.9169 8.11133Z" fill="currentColor"/>
</svg>
