<svg viewBox="0 0 24 24" fill="currentColor" xmlns="http://www.w3.org/2000/svg">
<path d="M8.71196 8.28769C9.10242 7.89722 9.73563 7.89734 10.1262 8.28769L12.4243 10.5858L14.7224 8.28769C15.1128 7.89722 15.746 7.89734 16.1366 8.28769C16.5271 8.67821 16.5271 9.31138 16.1366 9.7019L13.8385 12L16.1366 14.2981C16.5271 14.6886 16.5271 15.3218 16.1366 15.7123C15.746 16.1028 15.1129 16.1028 14.7224 15.7123L12.4243 13.4142L10.1262 15.7123C9.73564 16.1028 9.10245 16.1028 8.71196 15.7123C8.32164 15.3218 8.32158 14.6886 8.71196 14.2981L11.0101 12L8.71196 9.7019C8.32164 9.31139 8.32158 8.67816 8.71196 8.28769Z" fill="currentColor"/>
<path fill-rule="evenodd" clip-rule="evenodd" d="M7.02844 3.61277C7.77097 2.90098 8.76156 2.50051 9.79541 2.50032L16.9997 2.49963C19.2088 2.49963 20.9999 4.29085 21 6.4999V17.5001C21 19.7092 19.2089 21.5004 16.9997 21.5004H9.7961C8.69347 21.5003 7.63992 21.0444 6.88412 20.2415L1.70718 14.7414C0.257696 13.2012 0.257695 10.7988 1.70718 9.25858L6.88342 3.75917L7.02844 3.61277ZM3.16283 10.6286C2.43803 11.3987 2.43803 12.6013 3.16283 13.3714L8.33976 18.8715C8.71752 19.2727 9.24438 19.4997 9.79541 19.4999L16.9997 19.5006C18.1043 19.5006 19.0002 18.6047 19.0002 17.5001V6.4999C19.0001 5.39559 18.1047 4.5004 17.0004 4.50011H9.79541C9.24443 4.50031 8.71752 4.72739 8.33976 5.1285L3.16283 10.6286Z" fill="currentColor"/>
</svg>
