<svg viewBox="0 0 24 24" fill="currentColor" xmlns="http://www.w3.org/2000/svg">
<path fill-rule="evenodd" clip-rule="evenodd" d="M7.68017 4.45304C8.24755 3.84514 9.04179 3.5 9.87333 3.5H18.5042C20.1611 3.5 21.5042 4.84315 21.5042 6.5V17.5C21.5042 19.1569 20.1611 20.5 18.5042 20.5H9.87333C9.04179 20.5 8.24755 20.1549 7.68017 19.547L2.54683 14.047C1.47105 12.8943 1.47106 11.1057 2.54683 9.95305L7.68017 4.45304ZM9.87333 5.5C9.59615 5.5 9.3314 5.61505 9.14228 5.81768L4.00895 11.3177C3.65035 11.7019 3.65035 12.2981 4.00894 12.6823L9.14228 18.1823C9.3314 18.385 9.59615 18.5 9.87333 18.5H18.5042C19.0565 18.5 19.5042 18.0523 19.5042 17.5V6.5C19.5042 5.94772 19.0565 5.5 18.5042 5.5H9.87333Z" fill="currentColor"/>
<path d="M16.6108 15.5355C16.2203 15.9261 15.5871 15.9261 15.1966 15.5355L13.0753 13.4142L10.954 15.5355C10.5635 15.9261 9.93029 15.9261 9.53976 15.5355C9.14924 15.145 9.14924 14.5118 9.53976 14.1213L11.6611 12L9.53976 9.87868C9.14924 9.48816 9.14924 8.85499 9.53976 8.46447C9.93029 8.07394 10.5635 8.07394 10.954 8.46447L13.0753 10.5858L15.1966 8.46447C15.5871 8.07394 16.2203 8.07394 16.6108 8.46447C17.0014 8.85499 17.0014 9.48815 16.6108 9.87868L14.4895 12L16.6108 14.1213C17.0014 14.5118 17.0014 15.145 16.6108 15.5355Z" fill="currentColor"/>
</svg>
