<svg viewBox="0 0 24 24" fill="currentColor" xmlns="http://www.w3.org/2000/svg">
<path d="M8.54362 4.03347C8.47215 3.76674 8.19799 3.60844 7.93125 3.67991L5.03348 4.45637C4.76674 4.52784 4.60845 4.80201 4.67992 5.06874L5.45638 7.96652C5.52785 8.23325 5.80202 8.39154 6.06875 8.32007L8.96653 7.54362C9.23326 7.47215 9.39155 7.19798 9.32008 6.93124L8.54362 4.03347ZM11.2519 6.41361C11.6093 7.74727 10.8178 9.11811 9.48417 9.47547L6.58639 10.2519C5.25272 10.6093 3.88188 9.81782 3.52453 8.48416L2.74807 5.58638C2.39072 4.25272 3.18217 2.88187 4.51584 2.52452L7.41361 1.74806C8.74728 1.39071 10.1181 2.18216 10.4755 3.51583L11.2519 6.41361Z" fill="currentColor"/>
<path d="M18.5436 16.0335C18.4722 15.7667 18.198 15.6084 17.9313 15.6799L15.0335 16.4564C14.7667 16.5278 14.6085 16.802 14.6799 17.0687L15.4564 19.9665C15.5279 20.2333 15.802 20.3915 16.0688 20.3201L18.9665 19.5436C19.2333 19.4721 19.3916 19.198 19.3201 18.9312L18.5436 16.0335ZM21.2519 18.4136C21.6093 19.7473 20.8178 21.1181 19.4842 21.4755L16.5864 22.2519C15.2527 22.6093 13.8819 21.8178 13.5245 20.4842L12.7481 17.5864C12.3907 16.2527 13.1822 14.8819 14.5158 14.5245L17.4136 13.7481C18.7473 13.3907 20.1181 14.1822 20.4755 15.5158L21.2519 18.4136Z" fill="currentColor"/>
<path d="M9.32008 15.0687C9.39155 14.802 9.23326 14.5278 8.96653 14.4564L6.06875 13.6799C5.80202 13.6084 5.52785 13.7667 5.45638 14.0335L4.67992 16.9312C4.60845 17.198 4.76674 17.4721 5.03347 17.5436L7.93125 18.3201C8.19798 18.3915 8.47215 18.2333 8.54362 17.9665L9.32008 15.0687ZM10.4755 18.4842C10.1181 19.8178 8.74728 20.6093 7.41361 20.2519L4.51583 19.4755C3.18217 19.1181 2.39071 17.7473 2.74807 16.4136L3.52452 13.5158C3.88188 12.1822 5.25272 11.3907 6.58639 11.7481L9.48416 12.5245C10.8178 12.8819 11.6093 14.2527 11.2519 15.5864L10.4755 18.4842Z" fill="currentColor"/>
<path d="M19.3201 7.06875C19.3916 6.80201 19.2333 6.52785 18.9665 6.45637L16.0687 5.67992C15.802 5.60845 15.5278 5.76674 15.4564 6.03347L14.6799 8.93125C14.6084 9.19798 14.7667 9.47215 15.0335 9.54362L17.9313 10.3201C18.198 10.3915 18.4722 10.2333 18.5436 9.96652L19.3201 7.06875ZM20.4755 10.4842C20.1181 11.8178 18.7473 12.6093 17.4136 12.2519L14.5158 11.4755C13.1822 11.1181 12.3907 9.74728 12.7481 8.41361L13.5245 5.51583C13.8819 4.18217 15.2527 3.39071 16.5864 3.74807L19.4842 4.52452C20.8178 4.88188 21.6093 6.25272 21.2519 7.58638L20.4755 10.4842Z" fill="currentColor"/>
</svg>
