<svg viewBox="0 0 24 24" fill="currentColor" xmlns="http://www.w3.org/2000/svg">
<path d="M4.77452 5.52454L5.52452 4.2255L4.22548 3.4755L3.47548 4.77454L4.77452 5.52454ZM6.49102 3.05146C7.08889 3.39664 7.29373 4.16113 6.94855 4.75899L5.94855 6.49104C5.60338 7.08891 4.83889 7.29375 4.24102 6.94858L2.50897 5.94858C1.91111 5.6034 1.70626 4.83891 2.05144 4.24104L3.05144 2.50899C3.39662 1.91113 4.16111 1.70628 4.75897 2.05146L6.49102 3.05146Z" fill="currentColor"/>
<path d="M2.87868 12L5 14.1213L7.12133 12L5 9.87866L2.87868 12ZM8.53554 10.5858C9.31659 11.3668 9.31659 12.6331 8.53554 13.4142L6.41422 15.5355C5.63317 16.3166 4.36684 16.3166 3.58579 15.5355L1.46447 13.4142C0.683423 12.6331 0.683423 11.3668 1.46447 10.5858L3.58579 8.46445C4.36684 7.6834 5.63317 7.6834 6.41422 8.46445L8.53554 10.5858Z" fill="currentColor"/>
<path d="M4.77452 20.5245L5.52452 19.2255L4.22548 18.4755L3.47548 19.7745L4.77452 20.5245ZM6.49102 18.0514C7.08889 18.3966 7.29373 19.1611 6.94855 19.759L5.94855 21.491C5.60338 22.0889 4.83889 22.2937 4.24102 21.9486L2.50897 20.9486C1.91111 20.6034 1.70626 19.8389 2.05144 19.241L3.05144 17.509C3.39662 16.9111 4.16111 16.7063 4.75897 17.0514L6.49102 18.0514Z" fill="currentColor"/>
<path d="M19.7745 5.52452L20.5245 4.22548L19.2255 3.47548L18.4755 4.77452L19.7745 5.52452ZM21.491 3.05145C22.0889 3.39662 22.2937 4.16111 21.9486 4.75898L20.9486 6.49103C20.6034 7.08889 19.8389 7.29374 19.241 6.94856L17.509 5.94856C16.9111 5.60338 16.7063 4.83889 17.0514 4.24103L18.0514 2.50898C18.3966 1.91111 19.1611 1.70627 19.759 2.05145L21.491 3.05145Z" fill="currentColor"/>
<path d="M16.8787 12L19 14.1213L21.1213 12L19 9.87866L16.8787 12ZM22.5355 10.5858C23.3166 11.3668 23.3166 12.6331 22.5355 13.4142L20.4142 15.5355C19.6332 16.3166 18.3668 16.3166 17.5858 15.5355L15.4645 13.4142C14.6834 12.6331 14.6834 11.3668 15.4645 10.5858L17.5858 8.46445C18.3668 7.6834 19.6332 7.6834 20.4142 8.46445L22.5355 10.5858Z" fill="currentColor"/>
<path d="M19.7745 20.5245L20.5245 19.2255L19.2255 18.4755L18.4755 19.7745L19.7745 20.5245ZM21.491 18.0515C22.0889 18.3966 22.2937 19.1611 21.9486 19.759L20.9486 21.491C20.6034 22.0889 19.8389 22.2938 19.241 21.9486L17.509 20.9486C16.9111 20.6034 16.7063 19.8389 17.0514 19.241L18.0514 17.509C18.3966 16.9111 19.1611 16.7063 19.759 17.0515L21.491 18.0515Z" fill="currentColor"/>
<path d="M9.95096 16.451L11.451 19.049L14.049 17.549L12.549 14.951L9.95096 16.451ZM15.7811 16.549C16.3334 17.5056 16.0056 18.7288 15.049 19.2811L12.451 20.7811C11.4944 21.3334 10.2712 21.0056 9.71891 20.049L8.21891 17.451C7.66663 16.4944 7.99438 15.2712 8.95096 14.7189L11.549 13.2189C12.5056 12.6666 13.7288 12.9944 14.2811 13.951L15.7811 16.549Z" fill="currentColor"/>
<path d="M9.95096 6.45096L11.451 9.04903L14.049 7.54903L12.549 4.95096L9.95096 6.45096ZM15.7811 6.54903C16.3334 7.50562 16.0056 8.7288 15.049 9.28108L12.451 10.7811C11.4944 11.3334 10.2712 11.0056 9.71891 10.049L8.21891 7.45096C7.66663 6.49437 7.99438 5.27119 8.95096 4.71891L11.549 3.21891C12.5056 2.66662 13.7288 2.99437 14.2811 3.95096L15.7811 6.54903Z" fill="currentColor"/>
</svg>
