<svg viewBox="0 0 24 24" fill="currentColor" xmlns="http://www.w3.org/2000/svg">
<path d="M3.77526 12.7071L5.70711 13.2247L6.22475 11.2929L4.29289 10.7753L3.77526 12.7071ZM7.57425 13.9839C7.32411 14.9174 6.36452 15.4714 5.43095 15.2213L3.01614 14.5742C2.08257 14.3241 1.52855 13.3645 1.7787 12.4309L2.42575 10.0161C2.6759 9.08257 3.63549 8.52855 4.56905 8.7787L6.98386 9.42574C7.91743 9.67589 8.47145 10.6355 8.2213 11.569L7.57425 13.9839Z" fill="currentColor"/>
<path d="M17.7753 12.7071L19.7071 13.2247L20.2247 11.2929L18.2929 10.7753L17.7753 12.7071ZM21.5743 13.9839C21.3241 14.9174 20.3645 15.4714 19.431 15.2213L17.0161 14.5742C16.0826 14.3241 15.5286 13.3645 15.7787 12.4309L16.4257 10.0161C16.6759 9.08257 17.6355 8.52855 18.569 8.7787L20.9839 9.42574C21.9174 9.67589 22.4714 10.6355 22.2213 11.569L21.5743 13.9839Z" fill="currentColor"/>
<path d="M11.6464 12.6124L12.6124 12.3536L12.3536 11.3876L11.3876 11.6465L11.6464 12.6124ZM14.6089 12.0774C14.8591 13.011 14.3051 13.9706 13.3715 14.2207L11.9226 14.6089C10.989 14.8591 10.0294 14.3051 9.7793 13.3715L9.39107 11.9226C9.14092 10.989 9.69494 10.0295 10.6285 9.77931L12.0774 9.39108C13.011 9.14093 13.9706 9.69495 14.2207 10.6285L14.6089 12.0774Z" fill="currentColor"/>
<path d="M4.38763 5.60067L5.35355 5.85949L5.61237 4.89357L4.64645 4.63475L4.38763 5.60067ZM7.2207 6.61861C6.97055 7.55218 6.01096 8.1062 5.0774 7.85605L3.62851 7.46782C2.69494 7.21767 2.14092 6.25808 2.39107 5.32452L2.7793 3.87563C3.02945 2.94206 3.98904 2.38804 4.9226 2.63819L6.37149 3.02642C7.30506 3.27657 7.85908 4.23616 7.60893 5.16972L7.2207 6.61861Z" fill="currentColor"/>
<path d="M4.38763 19.1007L5.35355 19.3595L5.61237 18.3936L4.64645 18.1347L4.38763 19.1007ZM7.2207 20.1186C6.97055 21.0522 6.01096 21.6062 5.0774 21.3561L3.62851 20.9678C2.69494 20.7177 2.14092 19.7581 2.39107 18.8245L2.7793 17.3756C3.02945 16.4421 3.98904 15.888 4.9226 16.1382L6.37149 16.5264C7.30506 16.7766 7.85908 17.7362 7.60893 18.6697L7.2207 20.1186Z" fill="currentColor"/>
<path d="M18.3876 5.60356L19.3536 5.86238L19.6124 4.89645L18.6464 4.63763L18.3876 5.60356ZM21.2207 6.6215C20.9706 7.55506 20.011 8.10908 19.0774 7.85893L17.6285 7.4707C16.6949 7.22056 16.1409 6.26097 16.3911 5.3274L16.7793 3.87851C17.0294 2.94495 17.989 2.39093 18.9226 2.64108L20.3715 3.0293C21.3051 3.27945 21.8591 4.23904 21.6089 5.17261L21.2207 6.6215Z" fill="currentColor"/>
<path d="M18.3876 19.1036L19.3536 19.3624L19.6124 18.3965L18.6464 18.1376L18.3876 19.1036ZM21.2207 20.1215C20.9706 21.0551 20.011 21.6091 19.0774 21.3589L17.6285 20.9707C16.6949 20.7206 16.1409 19.761 16.3911 18.8274L16.7793 17.3785C17.0294 16.4449 17.989 15.8909 18.9226 16.1411L20.3715 16.5293C21.3051 16.7795 21.8591 17.739 21.6089 18.6726L21.2207 20.1215Z" fill="currentColor"/>
<path d="M11.2929 20.2247L13.2248 19.7071L12.7071 17.7753L10.7753 18.2929L11.2929 20.2247ZM15.2213 19.4309C15.4715 20.3645 14.9174 21.3241 13.9839 21.5743L11.5691 22.2213C10.6355 22.4714 9.67591 21.9174 9.42576 20.9839L8.77871 18.569C8.52856 17.6355 9.08258 16.6759 10.0161 16.4257L12.431 15.7787C13.3645 15.5285 14.3241 16.0826 14.5743 17.0161L15.2213 19.4309Z" fill="currentColor"/>
<path d="M11.2929 6.22474L13.2248 5.70711L12.7071 3.77525L10.7753 4.29289L11.2929 6.22474ZM15.2213 5.43095C15.4715 6.36451 14.9174 7.3241 13.9839 7.57425L11.5691 8.2213C10.6355 8.47145 9.67591 7.91743 9.42576 6.98386L8.77871 4.56905C8.52856 3.63548 9.08258 2.67589 10.0161 2.42575L12.431 1.7787C13.3645 1.52855 14.3241 2.08257 14.5743 3.01613L15.2213 5.43095Z" fill="currentColor"/>
</svg>
