<svg viewBox="0 0 24 24" fill="currentColor" xmlns="http://www.w3.org/2000/svg">
<path fill-rule="evenodd" clip-rule="evenodd" d="M3.04155 4.01044C1.94295 4.63821 1 5.65785 1 7V20C1 20.5523 1.44772 21 2 21C2.55228 21 3.04883 20.5177 3.44676 20.1347C3.58459 20.0021 3.75964 19.8678 3.97896 19.7362C4.70366 19.3014 5.76937 19 7 19C8.23063 19 9.29634 19.3014 10.021 19.7362C10.2404 19.8678 10.4154 20.0021 10.5532 20.1347C10.9512 20.5177 11.4477 21 12 21C12.5523 21 13.0488 20.5177 13.4468 20.1347C13.5846 20.0021 13.7596 19.8678 13.979 19.7362C14.7037 19.3014 15.7694 19 17 19C18.2306 19 19.2963 19.3014 20.021 19.7362C20.2404 19.8678 20.4154 20.0021 20.5532 20.1347C20.9512 20.5177 21.4477 21 22 21C22.5523 21 23 20.5523 23 20V7C23 5.65785 22.057 4.63821 20.9585 4.01044C19.8316 3.3665 18.3415 3 16.75 3C15.1585 3 13.6684 3.3665 12.5416 4.01044C12.3553 4.11688 12.1735 4.23458 12 4.36322C11.8265 4.23458 11.6447 4.11688 11.4584 4.01044C10.3316 3.3665 8.84153 3 7.25 3C5.65847 3 4.16844 3.3665 3.04155 4.01044ZM4.03383 5.74692C3.2323 6.20494 3 6.6853 3 7V17.9915C4.07882 17.359 5.49262 17 7 17C8.53079 17 9.96508 17.3702 11.05 18.0212C11.2045 18.1139 11.3552 18.2146 11.5 18.3232V7C11.5 6.72176 11.3184 6.31402 10.7223 5.90672C10.6442 5.85335 10.559 5.79998 10.4662 5.74692C9.69293 5.30507 8.55796 5 7.25 5C5.94204 5 4.80707 5.30507 4.03383 5.74692ZM21 7C21 6.6853 20.7677 6.20494 19.9662 5.74692C19.1929 5.30507 18.058 5 16.75 5C15.442 5 14.3071 5.30507 13.5338 5.74692C13.441 5.79998 13.3558 5.85335 13.2777 5.90672C12.6816 6.31402 12.5 6.72176 12.5 7V18.3232C12.6448 18.2146 12.7955 18.1139 12.95 18.0212C14.0349 17.3702 15.4692 17 17 17C18.5074 17 19.9212 17.359 21 17.9915V7Z" fill="currentColor"/>
<path d="M5.86133 14.5C5.44385 14.5 5.19775 14.2451 5.19775 13.8057V8.84863C5.19775 8.41357 5.44385 8.15869 5.86133 8.15869H8.87598C9.24072 8.15869 9.47803 8.36523 9.47803 8.70801C9.47803 9.05078 9.23633 9.25732 8.87598 9.25732H6.5249V10.7822H8.76172C9.09131 10.7822 9.31543 10.9756 9.31543 11.292C9.31543 11.6084 9.0957 11.8018 8.76172 11.8018H6.5249V13.4014H8.87598C9.23633 13.4014 9.47803 13.6079 9.47803 13.9507C9.47803 14.2935 9.24072 14.5 8.87598 14.5H5.86133Z" fill="currentColor"/>
<path d="M16.7544 14.6055C15.4448 14.6055 14.6055 14.0825 14.3506 13.3882C14.3066 13.2739 14.2803 13.1509 14.2803 13.0322C14.2803 12.6807 14.522 12.4478 14.8647 12.4478C15.1372 12.4478 15.3174 12.5532 15.4756 12.8345C15.6821 13.3179 16.1787 13.5376 16.7852 13.5376C17.4971 13.5376 17.9805 13.1948 17.9805 12.729C17.9805 12.3115 17.6816 12.0742 16.8862 11.9116L16.2139 11.7798C14.9482 11.5293 14.3286 10.9229 14.3286 9.97803C14.3286 8.81787 15.3394 8.04883 16.75 8.04883C17.9102 8.04883 18.7847 8.53662 19.0659 9.36279C19.0967 9.45068 19.1143 9.54297 19.1143 9.65723C19.1143 9.97363 18.8857 10.189 18.5474 10.189C18.2485 10.189 18.064 10.0703 17.9146 9.79785C17.7036 9.31885 17.2949 9.12109 16.75 9.12109C16.0952 9.12109 15.6602 9.42871 15.6602 9.89453C15.6602 10.2856 15.9634 10.5273 16.7148 10.6768L17.3828 10.813C18.7275 11.0811 19.3076 11.6216 19.3076 12.584C19.3076 13.8232 18.3364 14.6055 16.7544 14.6055Z" fill="currentColor"/>
</svg>
