<svg viewBox="0 0 24 24" fill="currentColor" xmlns="http://www.w3.org/2000/svg">
<path fill-rule="evenodd" clip-rule="evenodd" d="M6.5 2C4.84315 2 3.5 3.34315 3.5 5V19C3.5 20.6569 4.84315 22 6.5 22H19.5C20.0523 22 20.5 21.5523 20.5 21C20.5 20.4477 20.0523 20 19.5 20C18.9477 20 18.5 19.5523 18.5 19C18.5 18.4477 18.9477 18 19.5 18C20.0523 18 20.5 17.5523 20.5 17V5C20.5 3.34315 19.1569 2 17.5 2H6.5ZM6.5 18C5.94772 18 5.5 18.4477 5.5 19C5.5 19.5523 5.94772 20 6.5 20H17.7676C17.5974 19.7058 17.5 19.3643 17.5 19C17.5 18.6357 17.5974 18.2942 17.7676 18H6.5ZM5.5 16.1707C5.81278 16.0602 6.14936 16 6.5 16H7V4H6.5C5.94772 4 5.5 4.44772 5.5 5V16.1707ZM18.5 16V5C18.5 4.44772 18.0523 4 17.5 4H8V16H18.5Z" fill="currentColor"/>
<path d="M9.32178 11.0649C9.00049 11.0649 8.79883 10.877 8.79883 10.5796C8.79883 10.4941 8.82275 10.3779 8.86719 10.2515L10.2139 6.58398C10.3574 6.18408 10.6001 5.99951 10.9897 5.99951C11.3931 5.99951 11.6323 6.17725 11.7793 6.58057L13.1328 10.2515C13.1807 10.3848 13.1978 10.4771 13.1978 10.5796C13.1978 10.8633 12.9824 11.0649 12.6816 11.0649C12.3911 11.0649 12.2373 10.9316 12.145 10.6104L11.8853 9.83105H10.1045L9.84473 10.6001C9.74902 10.9282 9.59521 11.0649 9.32178 11.0649ZM10.3301 9.03125H11.646L10.9932 7.01123H10.9692L10.3301 9.03125Z" fill="currentColor"/>
<path d="M14.9907 14.0581C14.2935 14.0581 13.7637 13.6069 13.7637 12.9473C13.7637 12.2808 14.2764 11.8945 15.1924 11.8398L16.1152 11.7852V11.5425C16.1152 11.2007 15.876 11.0024 15.5 11.0024C15.1958 11.0024 15.0112 11.1016 14.7891 11.3887C14.6797 11.5117 14.5532 11.5732 14.3926 11.5732C14.1499 11.5732 13.9756 11.416 13.9756 11.1904C13.9756 11.1118 13.9927 11.04 14.0269 10.9648C14.1978 10.5273 14.7856 10.2573 15.5444 10.2573C16.4844 10.2573 17.0962 10.7427 17.0962 11.481V13.5693C17.0962 13.9009 16.8945 14.0718 16.6108 14.0718C16.3408 14.0718 16.1528 13.9214 16.1323 13.6274V13.4395H16.1118C15.9067 13.8291 15.4487 14.0581 14.9907 14.0581ZM15.3188 13.3369C15.7563 13.3369 16.1152 13.0532 16.1152 12.6567V12.3901L15.3428 12.438C14.9702 12.4653 14.7583 12.6328 14.7583 12.8926C14.7583 13.166 14.9839 13.3369 15.3188 13.3369Z" fill="currentColor"/>
</svg>
