<svg viewBox="0 0 24 24" fill="currentColor" xmlns="http://www.w3.org/2000/svg">
<path fill-rule="evenodd" clip-rule="evenodd" d="M3.04155 4.01044C1.94295 4.63821 1 5.65785 1 7V20C1 20.5523 1.44772 21 2 21C2.55228 21 3.04883 20.5177 3.44676 20.1347C3.58459 20.0021 3.75964 19.8678 3.97896 19.7362C4.70366 19.3014 5.76937 19 7 19C8.23063 19 9.29634 19.3014 10.021 19.7362C10.2404 19.8678 10.4154 20.0021 10.5532 20.1347C10.9512 20.5177 11.4477 21 12 21C12.5523 21 13.0488 20.5177 13.4468 20.1347C13.5846 20.0021 13.7596 19.8678 13.979 19.7362C14.7037 19.3014 15.7694 19 17 19C18.2306 19 19.2963 19.3014 20.021 19.7362C20.2404 19.8678 20.4154 20.0021 20.5532 20.1347C20.9512 20.5177 21.4477 21 22 21C22.5523 21 23 20.5523 23 20V7C23 5.65785 22.057 4.63821 20.9585 4.01044C19.8316 3.3665 18.3415 3 16.75 3C15.1585 3 13.6684 3.3665 12.5416 4.01044C12.3553 4.11688 12.1735 4.23458 12 4.36322C11.8265 4.23458 11.6447 4.11688 11.4584 4.01044C10.3316 3.3665 8.84153 3 7.25 3C5.65847 3 4.16844 3.3665 3.04155 4.01044ZM4.03383 5.74692C3.2323 6.20494 3 6.6853 3 7V17.9915C4.07882 17.359 5.49262 17 7 17C8.53079 17 9.96508 17.3702 11.05 18.0212C11.2045 18.1139 11.3552 18.2146 11.5 18.3232V7C11.5 6.72176 11.3184 6.31402 10.7223 5.90672C10.6442 5.85335 10.559 5.79998 10.4662 5.74692C9.69293 5.30507 8.55796 5 7.25 5C5.94204 5 4.80707 5.30507 4.03383 5.74692ZM21 7C21 6.6853 20.7677 6.20494 19.9662 5.74692C19.1929 5.30507 18.058 5 16.75 5C15.442 5 14.3071 5.30507 13.5338 5.74692C13.441 5.79998 13.3558 5.85335 13.2777 5.90672C12.6816 6.31402 12.5 6.72176 12.5 7V18.3232C12.6448 18.2146 12.7955 18.1139 12.95 18.0212C14.0349 17.3702 15.4692 17 17 17C18.5074 17 19.9212 17.359 21 17.9915V7Z" fill="currentColor"/>
<path d="M7.25439 14.6055C5.94482 14.6055 5.10547 14.0825 4.85059 13.3882C4.80664 13.2739 4.78027 13.1509 4.78027 13.0322C4.78027 12.6807 5.02197 12.4478 5.36475 12.4478C5.63721 12.4478 5.81738 12.5532 5.97559 12.8345C6.18213 13.3179 6.67871 13.5376 7.28516 13.5376C7.99707 13.5376 8.48047 13.1948 8.48047 12.729C8.48047 12.3115 8.18164 12.0742 7.38623 11.9116L6.71387 11.7798C5.44824 11.5293 4.82861 10.9229 4.82861 9.97803C4.82861 8.81787 5.83936 8.04883 7.25 8.04883C8.41016 8.04883 9.28467 8.53662 9.56592 9.36279C9.59668 9.45068 9.61426 9.54297 9.61426 9.65723C9.61426 9.97363 9.38574 10.189 9.04736 10.189C8.74854 10.189 8.56396 10.0703 8.41455 9.79785C8.20361 9.31885 7.79492 9.12109 7.25 9.12109C6.59521 9.12109 6.16016 9.42871 6.16016 9.89453C6.16016 10.2856 6.46338 10.5273 7.21484 10.6768L7.88281 10.813C9.22754 11.0811 9.80762 11.6216 9.80762 12.584C9.80762 13.8232 8.83643 14.6055 7.25439 14.6055Z" fill="currentColor"/>
<path d="M16.7456 14.5835C16.2271 14.5835 15.9194 14.355 15.7261 13.8145L13.9595 9.07275C13.9155 8.94971 13.8936 8.82666 13.8936 8.69922C13.8936 8.32568 14.1748 8.0708 14.5923 8.0708C14.9482 8.0708 15.1592 8.2334 15.269 8.59375L16.7544 13.1333H16.7852L18.2661 8.58057C18.376 8.22461 18.5737 8.0708 18.9209 8.0708C19.3252 8.0708 19.6021 8.32129 19.6021 8.68164C19.6021 8.80029 19.5801 8.91895 19.5361 9.0376L17.7607 13.8188C17.5674 14.355 17.2598 14.5835 16.7456 14.5835Z" fill="currentColor"/>
</svg>
