<svg viewBox="0 0 24 24" fill="currentColor" xmlns="http://www.w3.org/2000/svg">
<path fill-rule="evenodd" clip-rule="evenodd" d="M3.04155 4.01044C1.94295 4.63821 1 5.65785 1 7V20C1 20.5523 1.44772 21 2 21C2.55228 21 3.04883 20.5177 3.44676 20.1347C3.58459 20.0021 3.75964 19.8678 3.97896 19.7362C4.70366 19.3014 5.76937 19 7 19C8.23063 19 9.29634 19.3014 10.021 19.7362C10.2404 19.8678 10.4154 20.0021 10.5532 20.1347C10.9512 20.5177 11.4477 21 12 21C12.5523 21 13.0488 20.5177 13.4468 20.1347C13.5846 20.0021 13.7596 19.8678 13.979 19.7362C14.7037 19.3014 15.7694 19 17 19C18.2306 19 19.2963 19.3014 20.021 19.7362C20.2404 19.8678 20.4154 20.0021 20.5532 20.1347C20.9512 20.5177 21.4477 21 22 21C22.5523 21 23 20.5523 23 20V7C23 5.65785 22.057 4.63821 20.9585 4.01044C19.8316 3.3665 18.3415 3 16.75 3C15.1585 3 13.6684 3.3665 12.5416 4.01044C12.3553 4.11688 12.1735 4.23458 12 4.36322C11.8265 4.23458 11.6447 4.11688 11.4584 4.01044C10.3316 3.3665 8.84153 3 7.25 3C5.65847 3 4.16844 3.3665 3.04155 4.01044ZM4.03383 5.74692C3.2323 6.20494 3 6.6853 3 7V17.9915C4.07882 17.359 5.49262 17 7 17C8.53079 17 9.96508 17.3702 11.05 18.0212C11.2045 18.1139 11.3552 18.2146 11.5 18.3232V7C11.5 6.72176 11.3184 6.31402 10.7223 5.90672C10.6442 5.85335 10.559 5.79998 10.4662 5.74692C9.69293 5.30507 8.55796 5 7.25 5C5.94204 5 4.80707 5.30507 4.03383 5.74692ZM21 7C21 6.6853 20.7677 6.20494 19.9662 5.74692C19.1929 5.30507 18.058 5 16.75 5C15.442 5 14.3071 5.30507 13.5338 5.74692C13.441 5.79998 13.3558 5.85335 13.2777 5.90672C12.6816 6.31402 12.5 6.72176 12.5 7V18.3232C12.6448 18.2146 12.7955 18.1139 12.95 18.0212C14.0349 17.3702 15.4692 17 17 17C18.5074 17 19.9212 17.359 21 17.9915V7Z" fill="currentColor"/>
<path d="M5.97119 14.5835C5.55371 14.5835 5.30762 14.3286 5.30762 13.8936V8.84863C5.30762 8.41357 5.55371 8.15869 5.97119 8.15869H8.9375C9.30225 8.15869 9.53955 8.36523 9.53955 8.70801C9.53955 9.05078 9.29785 9.25732 8.9375 9.25732H6.63477V10.9536H8.72217C9.06494 10.9536 9.28906 11.1514 9.28906 11.4766C9.28906 11.8062 9.06934 12.0039 8.72217 12.0039H6.63477V13.8936C6.63477 14.3286 6.38867 14.5835 5.97119 14.5835Z" fill="currentColor"/>
<path d="M16.75 14.5835C16.3325 14.5835 16.0864 14.3286 16.0864 13.8936V8.76514C16.0864 8.32568 16.3325 8.0708 16.75 8.0708C17.1675 8.0708 17.4136 8.32568 17.4136 8.76514V13.8936C17.4136 14.3286 17.1675 14.5835 16.75 14.5835Z" fill="currentColor"/>
</svg>
