<svg viewBox="0 0 24 24" fill="currentColor" xmlns="http://www.w3.org/2000/svg">
<path fill-rule="evenodd" clip-rule="evenodd" d="M6.5 2C4.84315 2 3.5 3.34315 3.5 5V19C3.5 20.6569 4.84315 22 6.5 22H19.5C20.0523 22 20.5 21.5523 20.5 21C20.5 20.4477 20.0523 20 19.5 20C18.9477 20 18.5 19.5523 18.5 19C18.5 18.4477 18.9477 18 19.5 18C20.0523 18 20.5 17.5523 20.5 17V5C20.5 3.34315 19.1569 2 17.5 2H6.5ZM6.5 18C5.94772 18 5.5 18.4477 5.5 19C5.5 19.5523 5.94772 20 6.5 20H17.7676C17.5974 19.7058 17.5 19.3643 17.5 19C17.5 18.6357 17.5974 18.2942 17.7676 18H6.5ZM5.5 16.1707C5.81278 16.0602 6.14936 16 6.5 16H7V4H6.5C5.94772 4 5.5 4.44772 5.5 5V16.1707ZM18.5 16V5C18.5 4.44772 18.0523 4 17.5 4H8V16H18.5Z" fill="currentColor"/>
<path d="M10.8525 14.0928C10.3936 14.0928 10.1055 13.8242 10.1055 13.3994C10.1055 13.2773 10.1396 13.1113 10.2031 12.9307L12.127 7.69141C12.332 7.12012 12.6787 6.85645 13.2354 6.85645C13.8115 6.85645 14.1533 7.11035 14.3633 7.68652L16.2969 12.9307C16.3652 13.1211 16.3896 13.2529 16.3896 13.3994C16.3896 13.8047 16.082 14.0928 15.6523 14.0928C15.2373 14.0928 15.0176 13.9023 14.8857 13.4434L14.5146 12.3301H11.9707L11.5996 13.4287C11.4629 13.8975 11.2432 14.0928 10.8525 14.0928ZM12.293 11.1875H14.1729L13.2402 8.30176H13.2061L12.293 11.1875Z" fill="currentColor"/>
</svg>
