<svg viewBox="0 0 24 24" fill="currentColor" xmlns="http://www.w3.org/2000/svg">
<path fill-rule="evenodd" clip-rule="evenodd" d="M13.5859 2C14.1163 2.00004 14.625 2.2109 15 2.58594L20.4141 8L20.5469 8.14648C20.8386 8.50237 21 8.94989 21 9.41406V19C21 20.6569 19.6569 22 18 22H6C4.34315 22 3 20.6569 3 19V5C3 3.34315 4.34315 2 6 2H13.5859ZM6 4C5.44772 4 5 4.44772 5 5V19C5 19.5523 5.44772 20 6 20H18C18.5523 20 19 19.5523 19 19V11H14C12.9643 11 12.113 10.2128 12.0107 9.2041L12 9V4H6ZM14 9H18.5859L14 4.41406V9Z" fill="currentColor"/>
<path d="M7 10.5C7 10.2239 7.22386 10 7.5 10H9.5C9.77614 10 10 10.2239 10 10.5C10 10.7761 9.77614 11 9.5 11H7.5C7.22386 11 7 10.7761 7 10.5Z" fill="currentColor"/>
<path d="M7 7.5C7 7.22386 7.22386 7 7.5 7H9.5C9.77614 7 10 7.22386 10 7.5C10 7.77614 9.77614 8 9.5 8H7.5C7.22386 8 7 7.77614 7 7.5Z" fill="currentColor"/>
<path d="M7 13.5C7 13.2239 7.22386 13 7.5 13H16.5C16.7761 13 17 13.2239 17 13.5C17 13.7761 16.7761 14 16.5 14H7.5C7.22386 14 7 13.7761 7 13.5Z" fill="currentColor"/>
<path d="M7 16.5C7 16.2239 7.22386 16 7.5 16H14.5C14.7761 16 15 16.2239 15 16.5C15 16.7761 14.7761 17 14.5 17H7.5C7.22386 17 7 16.7761 7 16.5Z" fill="currentColor"/>
</svg>
