<svg viewBox="0 0 24 24" fill="currentColor" xmlns="http://www.w3.org/2000/svg">
<path d="M17.5 14.5C17.5 13.6502 17.2058 12.6085 16.6846 11.458C16.1696 10.3213 15.4664 9.15142 14.7266 8.06445C13.7224 6.58928 12.676 5.30417 12 4.51269C11.324 5.30417 10.2776 6.58928 9.27344 8.06445C8.53356 9.15142 7.8304 10.3213 7.31543 11.458C6.79423 12.6085 6.5 13.6502 6.5 14.5C6.5 17.8975 9.00065 20 12 20C14.9993 20 17.5 17.8975 17.5 14.5ZM19.5 14.5C19.5 19.1025 16.0007 22 12 22C7.99935 22 4.5 19.1025 4.5 14.5C4.5 13.2401 4.92058 11.8968 5.49316 10.6328C6.07193 9.35525 6.8424 8.08102 7.62012 6.93847C9.17576 4.6531 10.8177 2.81305 11.1875 2.40624L11.2725 2.32226C11.6864 1.95508 12.3136 1.95508 12.7275 2.32226L12.8125 2.40624L13.3076 2.96484C13.9984 3.76099 15.2132 5.22453 16.3799 6.93847C17.1576 8.08102 17.9281 9.35525 18.5068 10.6328C19.0794 11.8968 19.5 13.2401 19.5 14.5Z" fill="currentColor"/>
</svg>
