<svg viewBox="0 0 24 24" fill="currentColor" xmlns="http://www.w3.org/2000/svg">
<path fill-rule="evenodd" clip-rule="evenodd" d="M16.5 13.5C16.7761 13.5 17 13.7239 17 14C17 16.7614 14.7614 19 12 19C11.7239 19 11.5 18.7761 11.5 18.5C11.5 18.2239 11.7239 18 12 18C14.2091 18 16 16.2091 16 14C16 13.7239 16.2239 13.5 16.5 13.5Z" fill="currentColor"/>
<path fill-rule="evenodd" clip-rule="evenodd" d="M12 2C11.7223 2 11.4571 2.11547 11.2679 2.31875L11.2615 2.32565L11.2452 2.34336L11.1838 2.41014C11.1306 2.46826 11.0533 2.55315 10.9555 2.66203C10.7598 2.87975 10.4814 3.19371 10.1479 3.58171C9.48176 4.35668 8.5912 5.43204 7.69838 6.62919C6.80834 7.82261 5.90086 9.15722 5.21156 10.4486C4.5404 11.7059 4 13.0589 4 14.25C4 18.5642 7.61631 22 12 22C16.3837 22 20 18.5642 20 14.25C20 13.0589 19.4596 11.7059 18.7884 10.4486C18.0991 9.15722 17.1917 7.82261 16.3016 6.62919C15.4088 5.43204 14.5182 4.35668 13.8521 3.58171C13.5186 3.19371 13.2402 2.87975 13.0445 2.66203C12.9467 2.55315 12.8694 2.46826 12.8162 2.41014L12.7548 2.34336L12.7385 2.32565L12.7321 2.31875C12.5429 2.11547 12.2777 2 12 2ZM12 4.49869C11.8966 4.61686 11.7843 4.74615 11.6646 4.88543C11.0182 5.63735 10.1588 6.67551 9.30162 7.82487C8.44166 8.97796 7.59914 10.2229 6.97594 11.3904C6.3346 12.5919 6 13.5772 6 14.25C6 17.3917 8.6517 20 12 20C15.3483 20 18 17.3917 18 14.25C18 13.5772 17.6654 12.5919 17.0241 11.3904C16.4009 10.2229 15.5583 8.97796 14.6984 7.82487C13.8412 6.67551 12.9818 5.63735 12.3354 4.88543C12.2157 4.74615 12.1034 4.61686 12 4.49869Z" fill="currentColor"/>
<path fill-rule="evenodd" clip-rule="evenodd" d="M17 14C17 13.7239 16.7761 13.5 16.5 13.5C16.2239 13.5 16 13.7239 16 14C16 16.2091 14.2091 18 12 18C11.7239 18 11.5 18.2239 11.5 18.5C11.5 18.7761 11.7239 19 12 19C14.7614 19 17 16.7614 17 14Z" fill="currentColor"/>
</svg>
