<svg viewBox="0 0 24 24" fill="currentColor" xmlns="http://www.w3.org/2000/svg">
<path d="M15.9999 6.2998C17.6567 6.2998 18.9998 7.64304 18.9999 9.2998C18.9999 9.57595 18.7761 9.7998 18.4999 9.7998C18.2238 9.79977 17.9999 9.57593 17.9999 9.2998C17.9998 8.19533 17.1044 7.2998 15.9999 7.2998C14.8955 7.29984 14 8.19535 13.9999 9.2998V11H15.6181C15.9655 11 16.3056 11.1032 16.5947 11.2959C17.4842 11.8891 17.6087 13.0834 17.0771 13.9131C16.9146 14.1667 16.7653 14.4297 16.6581 14.6748C16.5474 14.9283 16.4999 15.1223 16.4999 15.25C16.4999 15.5261 16.2761 15.75 15.9999 15.75C15.7238 15.75 15.4999 15.5261 15.4999 15.25C15.4999 14.9194 15.6101 14.5765 15.7421 14.2744C15.8778 13.9639 16.0565 13.652 16.2353 13.373C16.519 12.9303 16.4077 12.3733 16.04 12.1279C15.9152 12.0448 15.768 12 15.6181 12H13.9999V13.5C13.9998 13.7761 13.776 14 13.4999 14C13.2239 14 13 13.776 12.9999 13.5V9.2998C13 7.64306 14.3432 6.29984 15.9999 6.2998Z" fill="currentColor"/>
<path fill-rule="evenodd" clip-rule="evenodd" d="M15.9999 2.5C19.8659 2.5 22.9999 5.63401 22.9999 9.5C22.9999 11.5178 22.1827 13.0641 21.4013 14.0811L21.1113 14.4668C20.4442 15.3776 19.8552 16.3682 19.6708 17.4736C19.2837 19.7967 17.2739 21.4998 14.9189 21.5H14.414L14.1347 21.4932C11.3667 21.3526 9.147 19.1333 9.00677 16.3652L8.99994 16.0869V9.5C8.99994 5.63403 12.134 2.50003 15.9999 2.5ZM15.9999 4.5C13.2385 4.50003 10.9999 6.7386 10.9999 9.5V16.0869C11 17.9719 12.5284 19.5 14.414 19.5H14.9189C16.2962 19.4998 17.4716 18.504 17.6982 17.1455C17.9964 15.3563 19.015 13.904 19.8154 12.8623C20.4165 12.08 20.9999 10.9514 20.9999 9.5C20.9999 6.73858 18.7614 4.5 15.9999 4.5Z" fill="currentColor"/>
<path d="M4.46869 6.94531C4.65897 6.74566 4.97478 6.73781 5.17474 6.92773C6.51364 8.20222 7.34955 10.0037 7.34955 11.999C7.34947 13.8695 6.61478 15.569 5.41986 16.8242L5.17474 17.0693L5.09466 17.1318C4.89773 17.2546 4.63514 17.2272 4.46869 17.0527C4.30217 16.8777 4.2869 16.6127 4.41986 16.4219L4.48529 16.3457L4.69623 16.1348C5.72115 15.058 6.34947 13.6023 6.34955 11.999C6.34955 10.2886 5.63415 8.74593 4.48529 7.65234C4.28558 7.46198 4.27855 7.14525 4.46869 6.94531Z" fill="currentColor"/>
<path d="M1.62396 9.79102C1.80627 9.58369 2.12264 9.56291 2.33002 9.74512C2.95441 10.2942 3.34955 11.1009 3.34955 11.999C3.34946 12.8969 2.9542 13.703 2.33002 14.252C2.12264 14.4341 1.80625 14.4143 1.62396 14.207C1.44191 13.9997 1.46275 13.6833 1.66986 13.501C2.08723 13.1338 2.34946 12.5973 2.34955 11.999C2.34955 11.4005 2.08744 10.8634 1.66986 10.4961C1.46282 10.3139 1.4422 9.99835 1.62396 9.79102Z" fill="currentColor"/>
<path d="M3.7558 8.33887C4.73535 9.25104 5.34955 10.5539 5.34955 11.999C5.34947 13.444 4.73528 14.7461 3.7558 15.6582C3.55378 15.8461 3.23788 15.8356 3.04974 15.6338C2.86174 15.4318 2.87327 15.1149 3.07513 14.9268C3.85987 14.1959 4.34947 13.1549 4.34955 11.999C4.34955 10.8429 3.86005 9.80124 3.07513 9.07031C2.8733 8.88216 2.8618 8.56629 3.04974 8.36426C3.23779 8.16232 3.55369 8.15111 3.7558 8.33887Z" fill="currentColor"/>
</svg>
