<svg viewBox="0 0 24 24" fill="currentColor" xmlns="http://www.w3.org/2000/svg">
<path d="M3.34985 11.999C3.34978 12.8969 2.95451 13.7029 2.33032 14.2519C2.12295 14.4343 1.80661 14.4144 1.62426 14.207C1.44204 13.9996 1.46283 13.6832 1.67016 13.5009C2.08755 13.1337 2.34978 12.5973 2.34985 11.999C2.34985 11.4004 2.08775 10.8633 1.67016 10.4961C1.46292 10.3138 1.44229 9.99836 1.62426 9.79098C1.80661 9.5836 2.12295 9.56273 2.33032 9.74508C2.95471 10.2941 3.34985 11.1009 3.34985 11.999ZM5.34985 11.999C5.34978 13.444 4.7356 14.746 3.7561 15.6582C3.55409 15.8462 3.23824 15.8356 3.05005 15.6338C2.86186 15.4317 2.87335 15.1149 3.07544 14.9267C3.86019 14.1958 4.34978 13.1549 4.34985 11.999C4.34985 10.8429 3.86035 9.80121 3.07544 9.07027C2.87341 8.88208 2.86188 8.56629 3.05005 8.36422C3.23814 8.16223 3.554 8.15094 3.7561 8.33883C4.73565 9.251 5.34985 10.5539 5.34985 11.999ZM7.34985 11.999C7.34979 13.9943 6.5139 15.7949 5.17505 17.0693C4.97519 17.2595 4.65943 17.2522 4.46899 17.0527C4.27871 16.8528 4.28591 16.5361 4.48559 16.3457C5.6344 15.2521 6.34979 13.7093 6.34985 11.999C6.34985 10.2886 5.63445 8.74589 4.48559 7.65231C4.28569 7.4619 4.27864 7.14525 4.46899 6.94527C4.65932 6.74557 4.97509 6.73764 5.17505 6.9277C6.51395 8.20218 7.34985 10.0036 7.34985 11.999Z" fill="currentColor"/>
<path d="M16 3C19.5899 3 22.5 6.13401 22.5 10C22.5 11.76 20.9752 13.8102 19.9385 15.001C19.3483 15.6788 18.8637 16.4526 18.6055 17.3135L18.4805 17.7314C17.8983 19.6715 16.1124 21 14.0869 21C11.5537 20.9999 9.50008 18.9463 9.5 16.4131V10C9.5 6.13401 12.4102 3.00001 16 3ZM16 5.75C13.9289 5.75 12.25 7.42893 12.25 9.5V14.5C12.25 14.9142 12.5858 15.25 13 15.25C13.4142 15.25 13.75 14.9142 13.75 14.5V13.25H15.6182C15.7188 13.25 15.8177 13.2801 15.9014 13.3359C16.1386 13.4943 16.2471 13.8923 16.0254 14.2383C15.8425 14.5236 15.6556 14.847 15.5127 15.1738C15.3753 15.4881 15.25 15.8686 15.25 16.25C15.25 16.6642 15.5858 17 16 17C16.4142 17 16.75 16.6642 16.75 16.25C16.75 16.173 16.7821 16.0159 16.8877 15.7744C16.9877 15.5456 17.1297 15.2951 17.2881 15.0479C17.8817 14.1215 17.7533 12.768 16.7334 12.0879C16.4033 11.8678 16.0149 11.75 15.6182 11.75H13.75V9.5C13.75 8.25736 14.7574 7.25 16 7.25C17.2426 7.25 18.25 8.25736 18.25 9.5C18.25 9.91421 18.5858 10.25 19 10.25C19.4142 10.25 19.75 9.91421 19.75 9.5C19.75 7.42893 18.0711 5.75 16 5.75Z" fill="currentColor"/>
</svg>
