<svg viewBox="0 0 24 24" fill="currentColor" xmlns="http://www.w3.org/2000/svg">
<path d="M16 6C17.8999 6 19.4999 7.44543 19.5 9.2998C19.5 9.57595 19.2761 9.7998 19 9.7998C18.7239 9.7998 18.5 9.57595 18.5 9.2998C18.4999 8.06156 17.4137 7 16 7C14.5863 7 13.5001 8.06156 13.5 9.2998V11H15.6182C15.9655 11 16.3057 11.1032 16.5947 11.2959C17.4842 11.8891 17.6088 13.0834 17.0772 13.9131C16.9147 14.1667 16.7653 14.4297 16.6582 14.6748C16.5474 14.9283 16.5 15.1223 16.5 15.25L16.4902 15.3506C16.4437 15.5786 16.2417 15.75 16 15.75C15.7583 15.75 15.5563 15.5786 15.5098 15.3506L15.5 15.25C15.5 14.9194 15.6102 14.5765 15.7422 14.2744C15.8779 13.9639 16.0566 13.652 16.2354 13.373C16.5191 12.9303 16.4078 12.3733 16.04 12.1279C15.9153 12.0448 15.7681 12 15.6182 12H13.5V13.5L13.4902 13.6006C13.4437 13.8286 13.2417 14 13 14C12.7583 14 12.5563 13.8286 12.5098 13.6006L12.5 13.5V9.2998C12.5001 7.44543 14.1001 6 16 6Z" fill="currentColor"/>
<path fill-rule="evenodd" clip-rule="evenodd" d="M16 2.5C19.866 2.5 23 5.63401 23 9.5C23 11.5178 22.1828 13.0641 21.4014 14.0811L21.1113 14.4668C20.4443 15.3776 19.8552 16.3682 19.6709 17.4736L19.6299 17.6904C19.1576 19.9021 17.2002 21.4998 14.9189 21.5H14.4141L14.1348 21.4932C11.3667 21.3527 9.14706 19.1334 9.00684 16.3652L9 16.0869V9.5C9 5.63401 12.134 2.5 16 2.5ZM16 4.5C13.2386 4.5 11 6.73858 11 9.5V16.0869C11.0001 17.972 12.5284 19.5 14.4141 19.5H14.9189C16.2962 19.4998 17.4717 18.5041 17.6982 17.1455L17.7627 16.8135C18.1233 15.176 19.0652 13.8388 19.8154 12.8623L20.0391 12.5527C20.5534 11.7928 21 10.77 21 9.5C21 6.73858 18.7614 4.5 16 4.5Z" fill="currentColor"/>
<path d="M4.46941 6.94554C4.65975 6.7459 4.97554 6.73792 5.17547 6.92796C6.51416 8.20243 7.35027 10.004 7.35027 11.9992C7.35014 13.8696 6.61542 15.5692 5.42058 16.8244L5.17547 17.0696L5.09539 17.1321C4.89856 17.2549 4.63595 17.2271 4.46941 17.053C4.30272 16.8778 4.28746 16.613 4.42058 16.4221L4.48601 16.3459L4.69695 16.135C5.72179 15.0583 6.35014 13.6024 6.35027 11.9992C6.35027 10.289 5.63467 8.74613 4.48601 7.65257C4.28611 7.46216 4.27905 7.14551 4.46941 6.94554Z" fill="currentColor"/>
<path d="M3.05047 8.36448C3.23857 8.16256 3.55444 8.15122 3.75652 8.33909C4.73586 9.25125 5.35027 10.5543 5.35027 11.9992C5.35013 13.4441 4.7359 14.7464 3.75652 15.6584C3.55463 15.8464 3.2387 15.8355 3.05047 15.634C2.86228 15.4319 2.87377 15.1152 3.07586 14.927C3.86049 14.1962 4.35013 13.155 4.35027 11.9992C4.35027 10.8433 3.86057 9.80145 3.07586 9.07054C2.87382 8.88234 2.8623 8.56655 3.05047 8.36448Z" fill="currentColor"/>
<path d="M1.62468 9.79124C1.80704 9.58392 2.12339 9.56301 2.33074 9.74534C2.95492 10.2944 3.35027 11.1013 3.35027 11.9992C3.35013 12.841 3.00276 13.6025 2.445 14.1467L2.33074 14.2522L2.24773 14.3117C2.04604 14.4268 1.78414 14.3883 1.62468 14.2073C1.46518 14.0257 1.46081 13.7609 1.60125 13.5754L1.67058 13.5012L1.81902 13.3557C2.14886 12.9989 2.35014 12.5228 2.35027 11.9992C2.35027 11.4009 2.08796 10.8636 1.67058 10.4963C1.46334 10.3141 1.44271 9.99862 1.62468 9.79124Z" fill="currentColor"/>
</svg>
