<svg viewBox="0 0 24 24" fill="currentColor" xmlns="http://www.w3.org/2000/svg">
<path d="M12 3C15.5899 3 18.5 6.13401 18.5 10C18.5 11.76 16.9752 13.8102 15.9385 15.001C15.3483 15.6788 14.8637 16.4526 14.6055 17.3135L14.4805 17.7314C13.8983 19.6715 12.1124 21 10.0869 21C7.55367 20.9999 5.50008 18.9463 5.5 16.4131V10C5.5 6.13401 8.41015 3.00001 12 3ZM12 5.75C9.92893 5.75 8.25 7.42893 8.25 9.5V14.5C8.25 14.9142 8.58579 15.25 9 15.25C9.41421 15.25 9.75 14.9142 9.75 14.5V13.25H11.6182C11.7188 13.25 11.8177 13.2801 11.9014 13.3359C12.1386 13.4943 12.2471 13.8923 12.0254 14.2383C11.8425 14.5236 11.6556 14.847 11.5127 15.1738C11.3753 15.4881 11.25 15.8686 11.25 16.25C11.25 16.6642 11.5858 17 12 17C12.4142 17 12.75 16.6642 12.75 16.25C12.75 16.173 12.7821 16.0159 12.8877 15.7744C12.9877 15.5456 13.1297 15.2951 13.2881 15.0479C13.8817 14.1215 13.7533 12.768 12.7334 12.0879C12.4033 11.8678 12.0149 11.75 11.6182 11.75H9.75V9.5C9.75 8.25736 10.7574 7.25 12 7.25C13.2426 7.25 14.25 8.25736 14.25 9.5C14.25 9.91421 14.5858 10.25 15 10.25C15.4142 10.25 15.75 9.91421 15.75 9.5C15.75 7.42893 14.0711 5.75 12 5.75Z" fill="currentColor"/>
</svg>
