<svg viewBox="0 0 24 24" fill="currentColor" xmlns="http://www.w3.org/2000/svg">
<path d="M12 6C13.8999 6 15.4999 7.44543 15.5 9.2998C15.5 9.57595 15.2761 9.7998 15 9.7998C14.7239 9.7998 14.5 9.57595 14.5 9.2998C14.4999 8.06156 13.4137 7 12 7C10.5863 7 9.50011 8.06156 9.5 9.2998V11H11.6182C11.9655 11 12.3057 11.1032 12.5947 11.2959C13.4842 11.8891 13.6088 13.0834 13.0771 13.9131C12.9147 14.1667 12.7653 14.4297 12.6582 14.6748C12.5474 14.9283 12.5 15.1223 12.5 15.25C12.5 15.5261 12.2761 15.75 12 15.75C11.7239 15.75 11.5 15.5261 11.5 15.25C11.5 14.9194 11.6102 14.5765 11.7422 14.2744C11.8779 13.9639 12.0566 13.652 12.2354 13.373C12.5191 12.9303 12.4077 12.3733 12.04 12.1279C11.9153 12.0448 11.7681 12 11.6182 12H9.5V13.5L9.49023 13.6006C9.44371 13.8286 9.24171 14 9 14C8.72386 14 8.5 13.7761 8.5 13.5V9.2998C8.50011 7.44543 10.1001 6 12 6Z" fill="currentColor"/>
<path fill-rule="evenodd" clip-rule="evenodd" d="M12 2C16.1421 2 19.5 5.35786 19.5 9.5C19.5 11.7768 18.4427 13.5148 17.4902 14.6182L17.1719 14.9951C16.4383 15.8873 15.7844 16.8636 15.5059 17.9775L15.4453 18.1973C14.781 20.4436 12.7141 22 10.3535 22H10.1152C7.11107 21.9998 4.65745 19.6415 4.50684 16.6748L4.5 16.3857V9.5C4.5 5.35786 7.85786 2 12 2ZM12 4C8.96243 4 6.5 6.46243 6.5 9.5V16.3857C6.5002 18.3819 8.11828 19.9998 10.1152 20H10.3535C11.8726 20 13.197 18.9659 13.5654 17.4922C14.0045 15.736 15.086 14.3422 15.9766 13.3105C16.7459 12.4192 17.5 11.1288 17.5 9.5C17.5 6.46243 15.0376 4 12 4Z" fill="currentColor"/>
</svg>
