<svg viewBox="0 0 24 24" fill="currentColor" xmlns="http://www.w3.org/2000/svg">
<path fill-rule="evenodd" clip-rule="evenodd" d="M12 4.5C15.2763 4.5 17.7665 6.07708 19.4072 7.71777C20.2285 8.53908 20.8532 9.39252 21.2783 10.1094C21.4906 10.4674 21.6601 10.8021 21.7793 11.0928C21.881 11.3408 22 11.6806 22 12C22 12.3194 21.881 12.6592 21.7793 12.9072C21.6601 13.1979 21.4906 13.5326 21.2783 13.8906C20.8532 14.6075 20.2285 15.4609 19.4072 16.2822C17.7665 17.9229 15.2763 19.5 12 19.5C8.72367 19.5 6.23347 17.9229 4.59277 16.2822C3.77147 15.4609 3.14682 14.6075 2.72168 13.8906C2.50938 13.5326 2.33987 13.1979 2.2207 12.9072C2.11901 12.6592 2 12.3194 2 12C2 11.6806 2.11901 11.3408 2.2207 11.0928C2.33987 10.8021 2.50938 10.4674 2.72168 10.1094C3.14682 9.39252 3.77147 8.53908 4.59277 7.71777C6.23347 6.07708 8.72367 4.5 12 4.5ZM12 7.5C9.51472 7.5 7.5 9.51472 7.5 12C7.5 14.4853 9.51472 16.5 12 16.5C14.4853 16.5 16.5 14.4853 16.5 12C16.5 9.51472 14.4853 7.5 12 7.5Z" fill="currentColor"/>
<path d="M14.75 10.5C14.75 11.1904 14.1904 11.75 13.5 11.75C12.8096 11.75 12.25 11.1904 12.25 10.5C12.25 9.80964 12.8096 9.25 13.5 9.25C14.1904 9.25 14.75 9.80964 14.75 10.5Z" fill="currentColor"/>
</svg>
