<svg viewBox="0 0 24 24" fill="currentColor" xmlns="http://www.w3.org/2000/svg">
<path fill-rule="evenodd" clip-rule="evenodd" d="M12 8C14.2091 8 16 9.79086 16 12C16 14.2091 14.2091 16 12 16C9.79086 16 8 14.2091 8 12C8 9.79086 9.79086 8 12 8ZM13.5 9.5C12.9477 9.5 12.5 9.94772 12.5 10.5C12.5 11.0523 12.9477 11.5 13.5 11.5C14.0523 11.5 14.5 11.0523 14.5 10.5C14.5 9.94772 14.0523 9.5 13.5 9.5Z" fill="currentColor"/>
<path d="M12 4.5C15.2763 4.5 17.7665 6.07708 19.4072 7.71777C20.2285 8.53908 20.8532 9.39252 21.2783 10.1094C21.4906 10.4674 21.6601 10.8021 21.7793 11.0928C21.881 11.3408 22 11.6806 22 12C22 12.3194 21.881 12.6592 21.7793 12.9072C21.6601 13.1979 21.4906 13.5326 21.2783 13.8906C20.8532 14.6075 20.2285 15.4609 19.4072 16.2822C17.7665 17.9229 15.2763 19.5 12 19.5C8.72367 19.5 6.23347 17.9229 4.59277 16.2822C3.77147 15.4609 3.14682 14.6075 2.72168 13.8906C2.50938 13.5326 2.33987 13.1979 2.2207 12.9072C2.11901 12.6592 2 12.3194 2 12C2 11.6806 2.11901 11.3408 2.2207 11.0928C2.33987 10.8021 2.50938 10.4674 2.72168 10.1094C3.14682 9.39252 3.77147 8.53908 4.59277 7.71777C6.23347 6.07708 8.72367 4.5 12 4.5ZM12 6.5C9.41033 6.5 7.40062 7.74 6.00781 9.13281C5.31242 9.8282 4.78721 10.5459 4.44141 11.1289C4.26828 11.4208 4.14641 11.6684 4.07129 11.8516C4.04437 11.9172 4.02857 11.9664 4.01758 12C4.02857 12.0336 4.04437 12.0828 4.07129 12.1484C4.14641 12.3316 4.26828 12.5792 4.44141 12.8711C4.78721 13.4541 5.31242 14.1718 6.00781 14.8672C7.40062 16.26 9.41033 17.5 12 17.5C14.5897 17.5 16.5994 16.26 17.9922 14.8672C18.6876 14.1718 19.2128 13.4541 19.5586 12.8711C19.7317 12.5792 19.8536 12.3316 19.9287 12.1484C19.9556 12.083 19.9705 12.0335 19.9814 12C19.9705 11.9665 19.9556 11.917 19.9287 11.8516C19.8536 11.6684 19.7317 11.4208 19.5586 11.1289C19.2128 10.5459 18.6876 9.8282 17.9922 9.13281C16.5994 7.74 14.5897 6.5 12 6.5Z" fill="currentColor"/>
</svg>
