<svg viewBox="0 0 24 24" fill="currentColor" xmlns="http://www.w3.org/2000/svg">
<path fill-rule="evenodd" clip-rule="evenodd" d="M4 6C4 5.44772 4.44772 5 5 5H13.208C13.5938 4.11705 14.4748 3.5 15.5 3.5C16.5252 3.5 17.4062 4.11705 17.792 5H19C19.5523 5 20 5.44772 20 6C20 6.55228 19.5523 7 19 7H17.792C17.4062 7.88295 16.5252 8.5 15.5 8.5C14.4748 8.5 13.5938 7.88295 13.208 7H5C4.44772 7 4 6.55228 4 6ZM16.6181 7C16.8556 6.73462 17 6.38418 17 6C17 5.61582 16.8556 5.26538 16.6181 5C16.3434 4.69313 15.9443 4.5 15.5 4.5C15.0557 4.5 14.6566 4.69313 14.3819 5C14.1444 5.26538 14 5.61582 14 6C14 6.38418 14.1444 6.73462 14.3819 7C14.6566 7.30687 15.0557 7.5 15.5 7.5C15.9443 7.5 16.3434 7.30687 16.6181 7Z" fill="currentColor"/>
<path fill-rule="evenodd" clip-rule="evenodd" d="M4 18C4 17.4477 4.44772 17 5 17H13.208C13.5938 16.117 14.4748 15.5 15.5 15.5C16.5252 15.5 17.4062 16.117 17.792 17H19C19.5523 17 20 17.4477 20 18C20 18.5523 19.5523 19 19 19H17.792C17.4062 19.883 16.5252 20.5 15.5 20.5C14.4748 20.5 13.5938 19.883 13.208 19H5C4.44772 19 4 18.5523 4 18ZM16.6181 19C16.8556 18.7346 17 18.3842 17 18C17 17.6158 16.8556 17.2654 16.6181 17C16.3434 16.6931 15.9443 16.5 15.5 16.5C15.0557 16.5 14.6566 16.6931 14.3819 17C14.1444 17.2654 14 17.6158 14 18C14 18.3842 14.1444 18.7346 14.3819 19C14.6566 19.3069 15.0557 19.5 15.5 19.5C15.9443 19.5 16.3434 19.3069 16.6181 19Z" fill="currentColor"/>
<path fill-rule="evenodd" clip-rule="evenodd" d="M4 18C4 17.4477 4.44772 17 5 17H13.208C13.5938 16.117 14.4748 15.5 15.5 15.5C16.5252 15.5 17.4062 16.117 17.792 17H19C19.5523 17 20 17.4477 20 18C20 18.5523 19.5523 19 19 19H17.792C17.4062 19.883 16.5252 20.5 15.5 20.5C14.4748 20.5 13.5938 19.883 13.208 19H5C4.44772 19 4 18.5523 4 18ZM16.6181 19C16.8556 18.7346 17 18.3842 17 18C17 17.6158 16.8556 17.2654 16.6181 17C16.3434 16.6931 15.9443 16.5 15.5 16.5C15.0557 16.5 14.6566 16.6931 14.3819 17C14.1444 17.2654 14 17.6158 14 18C14 18.3842 14.1444 18.7346 14.3819 19C14.6566 19.3069 15.0557 19.5 15.5 19.5C15.9443 19.5 16.3434 19.3069 16.6181 19Z" fill="currentColor"/>
<path fill-rule="evenodd" clip-rule="evenodd" d="M20 12C20 11.4477 19.5523 11 19 11H10.792C10.4062 10.117 9.52516 9.5 8.5 9.5C7.47484 9.5 6.5938 10.117 6.20802 11H5C4.44771 11 4 11.4477 4 12C4 12.5523 4.44771 13 5 13H6.20802C6.5938 13.883 7.47484 14.5 8.5 14.5C9.52516 14.5 10.4062 13.883 10.792 13H19C19.5523 13 20 12.5523 20 12ZM7.38195 13C7.14443 12.7346 7 12.3842 7 12C7 11.6158 7.14443 11.2654 7.38195 11C7.65661 10.6931 8.05575 10.5 8.5 10.5C8.94425 10.5 9.34339 10.6931 9.61805 11C9.85557 11.2654 10 11.6158 10 12C10 12.3842 9.85557 12.7346 9.61805 13C9.34339 13.3069 8.94425 13.5 8.5 13.5C8.05575 13.5 7.65661 13.3069 7.38195 13Z" fill="currentColor"/>
</svg>
