<svg viewBox="0 0 24 24" fill="currentColor" xmlns="http://www.w3.org/2000/svg">
<path fill-rule="evenodd" clip-rule="evenodd" d="M21 13.9981C21 14.2419 20.9115 14.4762 20.7529 14.6582L20.6807 14.7324C18.1592 17.0858 14.2701 17.1966 11.5898 15.0527C9.98796 13.7712 7.76452 13.5853 6 14.5566V21C6 21.5523 5.55228 22 5 22C4.44772 22 4 21.5523 4 21V13.9902V10V4.00391C4.00007 3.66731 4.16822 3.35294 4.44824 3.16602L4.5332 3.10938L4.77441 2.95509C7.29335 1.42193 10.5386 1.65026 12.8447 3.49512C14.7576 5.02511 17.5298 4.93779 19.3057 3.28028L19.4307 3.1797C20.0766 2.73837 20.9997 3.19124 21 4.01661V13.9981ZM6 4.55665C7.76415 3.58634 9.99191 3.77447 11.5947 5.05665C13.728 6.76324 16.6339 7.03964 19 5.8877V13.54C17.2173 14.9393 14.6473 14.937 12.8389 13.4902C10.8918 11.9327 8.28082 11.5322 6 12.3662V4.55665Z" fill="currentColor"/>
</svg>
