<svg viewBox="0 0 24 24" fill="currentColor" xmlns="http://www.w3.org/2000/svg">
<path fill-rule="evenodd" clip-rule="evenodd" d="M11.3718 2.07166C11.0106 1.92704 10.5983 2.00499 10.3149 2.2715C10.0317 2.5379 9.9282 2.94346 10.0501 3.31268L10.0537 3.3239C10.0573 3.33546 10.0633 3.35501 10.0711 3.38189C10.0868 3.43573 10.1097 3.51847 10.1356 3.62477C10.1878 3.83843 10.2508 4.14138 10.2926 4.492C10.3793 5.21804 10.3609 6.03333 10.0807 6.68784C9.99487 6.88832 9.70882 7.21685 9.09003 7.74778C8.89119 7.91839 8.6472 8.11854 8.38309 8.3352C7.95516 8.68623 7.47445 9.08058 7.0475 9.46269C5.61509 10.7447 3.99999 12.5377 4 15C4.00002 19.1985 7.60627 22 12 22C16.417 22 20 18.9779 20 15C20 13.671 19.6404 12.5317 19.2907 11.7348C19.1148 11.3339 18.9381 11.0119 18.8026 10.7864C18.7347 10.6734 18.6768 10.5839 18.634 10.5201C18.6126 10.4882 18.5949 10.4626 18.5816 10.4437L18.5649 10.4203L18.5592 10.4124L18.557 10.4094L18.5553 10.4071C18.3318 10.1035 17.9566 9.95147 17.5848 10.0137C17.2131 10.076 16.9079 10.342 16.7955 10.7018C16.3373 12.1685 15.3467 12.8653 14.356 13.2086C15.1121 12.1273 16 10.5573 16 8.99999C16 7.45479 15.2644 5.90661 14.3976 4.71101C13.5386 3.52609 12.4022 2.48429 11.3718 2.07166ZM12.3379 5.32754C12.3292 6.0061 12.225 6.76085 11.9193 7.47493C11.6243 8.16399 10.97 8.77005 10.3924 9.26565C10.1132 9.50519 9.84324 9.72577 9.57214 9.94729C9.1874 10.2617 8.80035 10.5779 8.38129 10.953C7.00409 12.1856 5.99999 13.4623 6 15C6.00001 17.8015 8.39373 20 12 20C15.583 20 18 17.621 18 15C18 14.3408 17.8783 13.7333 17.7142 13.2149C16.8526 14.3125 15.7115 14.8999 14.6918 15.2005C13.9508 15.4189 13.2627 15.4919 12.7632 15.5116C12.5117 15.5215 12.3034 15.5181 12.1542 15.5118C12.0795 15.5087 12.0193 15.5048 11.9755 15.5015C11.9536 15.4999 11.9357 15.4983 11.9222 15.4971L11.9052 15.4955L11.8992 15.4949L11.8968 15.4947L11.8958 15.4945C11.5125 15.454 11.1858 15.1968 11.0572 14.8335C10.9288 14.4705 11.0203 14.066 11.2923 13.7935L11.2968 13.7889L11.317 13.7683C11.3356 13.7492 11.3643 13.7194 11.4017 13.6798C11.4764 13.6006 11.5855 13.4825 11.7173 13.3324C11.982 13.031 12.3335 12.606 12.683 12.1108C13.4188 11.0684 14 9.91574 14 8.99999C14 8.04519 13.5196 6.90733 12.7784 5.88491C12.6347 5.68677 12.4869 5.50059 12.3379 5.32754Z" fill="currentColor"/>
</svg>
