<svg viewBox="0 0 24 24" fill="currentColor" xmlns="http://www.w3.org/2000/svg">
<path d="M20 6C21.1046 6 22 6.89543 22 8V20C22 21.1046 21.1046 22 20 22H11C9.89543 22 9 21.1046 9 20V19H13C14.6569 19 16 17.6569 16 16V6H20Z" fill="currentColor"/>
<path fill-rule="evenodd" clip-rule="evenodd" d="M13.2041 2.01074C14.2128 2.113 15 2.96435 15 4V16C15 17.0357 14.2128 17.887 13.2041 17.9893L13 18H4C2.89543 18 2 17.1046 2 16V4C2 2.89543 2.89543 2 4 2H13L13.2041 2.01074ZM4 16H13V4H4V16Z" fill="currentColor"/>
</svg>
