<svg viewBox="0 0 24 24" fill="currentColor" xmlns="http://www.w3.org/2000/svg">
<path fill-rule="evenodd" clip-rule="evenodd" d="M7.76367 3C8.89995 3 9.93907 3.64191 10.4473 4.6582L10.6182 5H19C20.6569 5 22 6.34315 22 8V18C22 19.6569 20.6569 21 19 21H5C3.34315 21 2 19.6569 2 18V6C2 4.34315 3.34315 3 5 3H7.76367ZM4 10V18C4 18.5523 4.44772 19 5 19H19C19.5523 19 20 18.5523 20 18V10H4ZM5 5C4.44772 5 4 5.44772 4 6V9H20V8C20 7.44772 19.5523 7 19 7H10C9.62123 7 9.27486 6.78605 9.10547 6.44727L8.6582 5.55273C8.48879 5.21401 8.14241 5 7.76367 5H5Z" fill="currentColor"/>
</svg>
