<svg viewBox="0 0 24 24" fill="currentColor" xmlns="http://www.w3.org/2000/svg">
<path fill-rule="evenodd" clip-rule="evenodd" d="M21.7727 12.4172C21.4156 13.75 20.8318 14.8608 20.3327 15.7276C20.2081 15.9441 20.0999 16.1268 20.0007 16.2942C19.8857 16.4884 19.7829 16.6621 19.6807 16.844C19.4972 17.1708 19.4126 17.3615 19.3833 17.471L18.8656 19.4028C18.3654 21.27 16.4462 22.378 14.579 21.8777C12.7119 21.3774 11.6039 19.4582 12.1042 17.5911L12.6218 15.6593C12.6511 15.5498 12.6733 15.3423 12.6777 14.9675C12.6802 14.7589 12.678 14.5571 12.6755 14.3314C12.6733 14.1368 12.671 13.9245 12.6713 13.6748C12.6725 12.6745 12.7223 11.4207 13.0794 10.0878C13.4626 8.65774 14.3104 7.49126 15.3375 6.74288C16.3511 6.00446 17.6336 5.61411 18.8496 5.93993C20.0655 6.26575 20.981 7.24502 21.4896 8.39133C22.0049 9.55301 22.1559 10.9871 21.7727 12.4172ZM19.8409 11.8996C20.1047 10.9151 19.9927 9.94907 19.661 9.20151C19.3224 8.43881 18.8062 7.99887 18.3319 7.87179C17.8576 7.7447 17.1906 7.86759 16.5161 8.35883C15.855 8.84039 15.275 9.62097 15.0112 10.6055C14.7213 11.6874 14.6717 12.7364 14.6706 13.6766C14.6703 13.8645 14.6724 14.0685 14.6744 14.2694C14.677 14.529 14.6796 14.7835 14.6771 14.9917C14.6745 15.2133 14.6671 15.4502 14.6419 15.6829L17.622 16.4814C17.7165 16.2673 17.8286 16.0585 17.9371 15.8652C18.0391 15.6837 18.1685 15.4646 18.3006 15.2411C18.4028 15.068 18.5066 14.8924 18.6003 14.7296C19.0694 13.9148 19.551 12.9815 19.8409 11.8996ZM15.0967 19.9459C14.2965 19.7314 13.8216 18.9089 14.036 18.1087L14.4242 16.6599L17.322 17.4363L16.9338 18.8852C16.7194 19.6854 15.8969 20.1603 15.0967 19.9459Z" fill="currentColor"/>
<path fill-rule="evenodd" clip-rule="evenodd" d="M11.0118 7.11062C11.132 8.48521 10.9633 9.72863 10.7908 10.7139C10.7477 10.9599 10.7085 11.1686 10.6726 11.3599C10.631 11.5817 10.5937 11.7801 10.5599 11.9859C10.4992 12.3558 10.485 12.564 10.4949 12.6768L10.6692 14.6692C10.8377 16.5949 9.41323 18.2925 7.48759 18.461C5.56195 18.6294 3.86433 17.205 3.69586 15.2793L3.52155 13.2869C3.51168 13.1741 3.46155 12.9715 3.33753 12.6178C3.2685 12.421 3.19739 12.2321 3.11785 12.0208C3.04929 11.8387 2.97446 11.64 2.88932 11.4052C2.54834 10.4648 2.16626 9.26961 2.046 7.89502C1.91696 6.42011 2.31468 5.03401 3.02389 3.97946C3.72385 2.93889 4.79544 2.13347 6.04952 2.02375C7.3036 1.91403 8.49877 2.52114 9.36879 3.42436C10.2503 4.33973 10.8827 5.63571 11.0118 7.11062ZM9.01936 7.28493C8.93053 6.26957 8.49491 5.40013 7.92753 4.81111C7.34852 4.2102 6.71299 3.97334 6.22383 4.01614C5.73468 4.05893 5.14992 4.40255 4.68406 5.09487C4.22758 5.77348 3.94956 6.70535 4.03839 7.72071C4.13601 8.83651 4.44817 9.83929 4.76867 10.7232C4.83271 10.8998 4.9044 11.0908 4.97502 11.2789C5.06626 11.5219 5.15571 11.7602 5.22459 11.9567C5.29793 12.1658 5.37199 12.391 5.42791 12.6182L8.5014 12.3493C8.51702 12.1159 8.55085 11.8813 8.58675 11.6625C8.62047 11.4571 8.66719 11.2069 8.71483 10.9517C8.75171 10.7542 8.78915 10.5536 8.82155 10.3686C8.9837 9.44248 9.11698 8.40073 9.01936 7.28493ZM7.31328 16.4686C6.488 16.5408 5.76045 15.9303 5.68825 15.105L5.55752 13.6107L8.5461 13.3493L8.67684 14.8435C8.74904 15.6688 8.13855 16.3964 7.31328 16.4686Z" fill="currentColor"/>
</svg>
