<svg viewBox="0 0 24 24" fill="currentColor" xmlns="http://www.w3.org/2000/svg">
<path fill-rule="evenodd" clip-rule="evenodd" d="M10.2417 3.6365C10.1377 5.08416 8.42662 5.79291 7.32942 4.84281C5.67566 3.41076 3.41076 5.67566 4.8428 7.32942C5.79291 8.42662 5.08416 10.1377 3.6365 10.2417C1.4545 10.3985 1.4545 13.6015 3.6365 13.7583C5.08416 13.8623 5.79291 15.5734 4.84281 16.6706C3.41076 18.3243 5.67566 20.5892 7.32942 19.1572C8.42662 18.2071 10.1377 18.9158 10.2417 20.3635C10.3985 22.5455 13.6015 22.5455 13.7583 20.3635C13.8623 18.9158 15.5734 18.2071 16.6706 19.1572C18.3243 20.5892 20.5892 18.3243 19.1572 16.6706C18.2071 15.5734 18.9158 13.8623 20.3635 13.7583C22.5455 13.6015 22.5455 10.3985 20.3635 10.2417C18.9158 10.1377 18.2071 8.42662 19.1572 7.32942C20.5892 5.67566 18.3243 3.41076 16.6706 4.8428C15.5734 5.79291 13.8623 5.08416 13.7583 3.6365C13.6015 1.4545 10.3985 1.4545 10.2417 3.6365ZM12 17.5C15.0376 17.5 17.5 15.0376 17.5 12C17.5 8.96243 15.0376 6.5 12 6.5C8.96243 6.5 6.5 8.96243 6.5 12C6.5 15.0376 8.96243 17.5 12 17.5Z" fill="currentColor"/>
</svg>
