<svg viewBox="0 0 24 24" fill="currentColor" xmlns="http://www.w3.org/2000/svg">
<path fill-rule="evenodd" clip-rule="evenodd" d="M22 12C22 17.5228 17.5228 22 12 22C6.47715 22 2 17.5228 2 12C2 6.47715 6.47715 2 12 2C17.5228 2 22 6.47715 22 12ZM16.4912 12.5C16.4388 13.9837 16.155 15.3507 15.708 16.5H12.5V12.5H16.4912ZM11.5 12.5V16.5H8.29195C7.84505 15.3507 7.56121 13.9837 7.5088 12.5H11.5ZM12.5 11.5H16.4912C16.4388 10.0163 16.155 8.64933 15.708 7.5H12.5V11.5ZM11.5 7.5V11.5H7.5088C7.56121 10.0163 7.84505 8.64933 8.29195 7.5H11.5ZM12.5 6.5H15.2491C15.202 6.41246 15.1538 6.3268 15.1046 6.2431C14.3726 4.99874 13.4552 4.24635 12.5 4.05102V6.5ZM11.5 4.05102V6.5H8.75087C8.79799 6.41246 8.8462 6.3268 8.89543 6.2431C9.62741 4.99874 10.5448 4.24635 11.5 4.05102ZM11.5 17.5H8.75087C8.79799 17.5875 8.8462 17.6732 8.89543 17.7569C9.62741 19.0013 10.5448 19.7536 11.5 19.949V17.5ZM12.5 19.949C13.4552 19.7536 14.3726 19.0013 15.1046 17.7569C15.1538 17.6732 15.202 17.5875 15.2491 17.5H12.5V19.949ZM8.78641 4.67162C8.51236 4.99249 8.26052 5.35014 8.0335 5.73608C7.89112 5.97813 7.75717 6.23319 7.63229 6.5H6.1905C6.92012 5.72959 7.80134 5.10421 8.78641 4.67162ZM5.38468 7.5C4.59879 8.65308 4.1065 10.0223 4.01537 11.5H6.50823C6.55596 10.0537 6.80967 8.69202 7.22621 7.5H5.38468ZM6.50823 12.5H4.01537C4.1065 13.9777 4.59879 15.3469 5.38468 16.5H7.22621C6.80967 15.308 6.55596 13.9463 6.50823 12.5ZM8.78641 19.3284C8.51236 19.0075 8.26052 18.6499 8.0335 18.2639C7.89112 18.0219 7.75717 17.7668 7.63229 17.5H6.1905C6.92012 18.2704 7.80134 18.8958 8.78641 19.3284ZM15.2136 19.3284C15.4876 19.0075 15.7395 18.6499 15.9665 18.2639C16.1089 18.0219 16.2428 17.7668 16.3677 17.5H17.8095C17.0799 18.2704 16.1987 18.8958 15.2136 19.3284ZM19.9846 12.5C19.8935 13.9777 19.4012 15.3469 18.6153 16.5H16.7738C17.1903 15.308 17.444 13.9463 17.4918 12.5H19.9846ZM19.9846 11.5C19.8935 10.0223 19.4012 8.65308 18.6153 7.5H16.7738C17.1903 8.69202 17.444 10.0537 17.4918 11.5H19.9846ZM15.2136 4.67162C16.1987 5.10421 17.0799 5.72959 17.8095 6.5H16.3677C16.2428 6.23319 16.1089 5.97813 15.9665 5.73608C15.7395 5.35014 15.4876 4.99249 15.2136 4.67162Z" fill="currentColor"/>
</svg>
