<svg viewBox="0 0 24 24" fill="currentColor" xmlns="http://www.w3.org/2000/svg">
<path d="M19.4915 10.6366L19.5758 10.5781C20.007 10.3119 20.5785 10.4105 20.8936 10.8212C23.2471 13.8883 22.6685 18.2826 19.6014 20.636C16.5344 22.9895 12.1401 22.411 9.78665 19.3439C9.45044 18.9057 9.53308 18.278 9.97124 17.9418L19.4915 10.6366ZM12.0619 18.8585C13.8188 20.387 16.4649 20.5219 18.3839 19.0493C20.303 17.5768 20.8576 14.986 19.8358 12.8933L12.0619 18.8585Z" fill="currentColor"/>
<path d="M3.10965 4.65164C5.46312 1.58457 9.85701 1.00618 12.9241 3.35964C13.1343 3.52104 13.2723 3.75901 13.3069 4.02175C13.328 4.18203 13.3082 4.34321 13.2542 4.49246C14.2572 4.69925 15.2305 5.12942 16.097 5.79421C16.3074 5.95567 16.4451 6.19435 16.4798 6.4573C16.5143 6.72015 16.4439 6.98621 16.2825 7.19656L8.97684 16.7171C8.64058 17.1549 8.01254 17.2377 7.57449 16.9016C6.70822 16.2369 6.04169 15.4075 5.58231 14.4925C5.23443 14.7354 4.75624 14.7381 4.40164 14.4661C1.33454 12.1126 0.756182 7.71873 3.10965 4.65164ZM14.0247 6.85183C13.2135 6.4557 12.3279 6.29591 11.4602 6.3616C10.0894 6.4655 8.77074 7.12936 7.86941 8.30398C6.968 9.47873 6.66854 10.9245 6.92313 12.2757C7.08425 13.1307 7.46732 13.9443 8.05984 14.6253L14.0247 6.85183ZM10.8518 4.41628C8.75931 3.39478 6.16807 3.94957 4.69559 5.86843C3.22318 7.78732 3.35787 10.4338 4.88602 12.1907L4.88797 12.1878C4.67608 10.4352 5.12196 8.59866 6.2825 7.08621C7.44321 5.57357 9.10194 4.667 10.8499 4.41824L10.8518 4.41628Z" fill="currentColor"/>
</svg>
