<svg viewBox="0 0 24 24" fill="currentColor" xmlns="http://www.w3.org/2000/svg">
<path d="M19.75 11.0004C20.1642 11.0004 20.5 11.3362 20.5 11.7504C20.4998 12.1644 20.1641 12.5004 19.75 12.5004C19.3359 12.5004 19.0002 12.1644 19 11.7504C19 11.3362 19.3358 11.0004 19.75 11.0004Z" fill="currentColor"/>
<path fill-rule="evenodd" clip-rule="evenodd" d="M13.7285 3.9877C14.53 3.9877 15.282 4.31953 15.9336 4.76505C16.588 5.21253 17.1789 5.79979 17.6709 6.37051C18.1647 6.94336 18.5706 7.51384 18.8525 7.93985C18.9875 8.1438 19.0942 8.31613 19.1699 8.44083C19.2982 8.46043 19.4669 8.4905 19.6621 8.53751C20.0971 8.64227 20.6796 8.83231 21.2422 9.1752C21.8071 9.5195 22.3647 10.026 22.7197 10.7641C23.0765 11.5058 23.2071 12.438 22.9912 13.5922C22.8446 14.3752 22.2759 14.8298 21.6992 15.0756C21.1278 15.319 20.4816 15.392 19.999 15.392C19.2763 15.392 18.5451 15.1317 17.9922 14.9047C17.8512 14.8468 17.7177 14.789 17.5967 14.7367C17.4737 14.6836 17.3656 14.6364 17.2695 14.5971C17.1728 14.5575 17.0991 14.53 17.0439 14.5131C17.0235 14.5068 17.0095 14.5033 17.001 14.5014C16.9857 14.504 16.9577 14.5099 16.9141 14.5209C16.8421 14.5391 16.7487 14.5678 16.6377 14.6059C16.4161 14.6818 16.1402 14.7917 15.8486 14.9252C15.6259 15.0272 15.4031 15.1417 15.1914 15.2592C15.5226 15.2886 15.86 15.3325 16.1816 15.3988C16.6733 15.5002 17.1739 15.6604 17.5625 15.9272C17.9668 16.2047 18.2803 16.624 18.2803 17.2016C18.2802 17.8003 18.0632 18.2661 17.6865 18.5883C17.3299 18.8932 16.8761 19.0306 16.4609 19.0902C15.6346 19.2089 14.7395 19.0499 14.4131 18.9926C14.2969 18.9722 14.127 18.9655 13.8906 18.9682C13.6826 18.9705 13.378 18.9811 13.1162 18.9818C12.5839 18.9833 11.9295 18.9519 11.3848 18.7016C11.3298 18.7332 11.2648 18.772 11.1895 18.8129C10.9514 18.9422 10.616 19.1129 10.2285 19.2797C9.4747 19.6041 8.4369 19.9504 7.51465 19.8666C6.67428 19.7901 5.97135 19.5558 5.52051 19.1273C5.03164 18.6626 4.90701 18.0338 5.12598 17.3871C5.23994 17.0508 5.43582 16.7931 5.69824 16.6205C5.95287 16.4532 6.2363 16.388 6.49512 16.3705C6.99326 16.337 7.52723 16.4755 7.85645 16.5551C7.95862 16.5797 8.12226 16.5886 8.33789 16.5736C8.51042 16.5616 8.695 16.534 8.875 16.5023C8.73478 16.3806 8.60338 16.2726 8.48047 16.1859C8.34585 16.0911 8.24108 16.0339 8.16602 16.0053C8.11082 15.9842 8.09432 15.9871 8.10449 15.9867C7.58561 16.1192 6.61705 16.0999 5.63184 15.8285C4.68392 15.5674 3.63341 15.0513 2.90039 14.1166C2.88871 14.116 2.87647 14.1164 2.86426 14.1156C2.6853 14.104 2.43644 14.074 2.17969 13.9945C1.92562 13.9159 1.63187 13.7784 1.39746 13.5336C1.15178 13.2769 1.00009 12.9307 1 12.5004C0.999999 11.6497 1.52816 11.1376 1.97754 10.8656C2.2029 10.7292 2.42463 10.6418 2.58691 10.5883C2.59056 10.5871 2.59406 10.5856 2.59766 10.5844C2.62406 10.5201 2.65415 10.4451 2.69238 10.3627C2.82489 10.0771 3.03294 9.6893 3.33789 9.27383C3.94859 8.44191 4.95652 7.48721 6.52637 7.02774C8.5603 6.43262 10.7275 7.33211 12.3857 8.26895C13.2287 8.74519 13.9813 9.25587 14.5537 9.63419C14.8448 9.82655 15.0814 9.97902 15.2666 10.0834C15.3589 10.1354 15.4273 10.1694 15.4756 10.1889C15.4861 10.1931 15.4947 10.1955 15.501 10.1977C15.7375 10.1915 16.0496 10.0911 16.3613 9.95352C16.294 9.91409 16.2231 9.87294 16.1494 9.8295C15.5555 9.47947 14.7633 9.00478 13.9736 8.50626C13.1863 8.0092 12.3902 7.48212 11.7949 7.02969C11.4996 6.80528 11.2384 6.58751 11.0498 6.39297C10.9565 6.29676 10.8655 6.19042 10.7979 6.0795C10.7402 5.98498 10.6446 5.79961 10.6787 5.57559L10.708 5.4252C10.8858 4.69453 11.4908 4.33998 12.0459 4.17422C12.6328 3.999 13.2962 3.98771 13.7285 3.9877ZM9.75879 17.3354C9.6066 17.3738 9.40182 17.4229 9.1748 17.4662C8.93779 17.5114 8.66875 17.5525 8.40723 17.5707C8.15301 17.5884 7.87096 17.5869 7.62207 17.5268C7.24934 17.4367 6.87667 17.3475 6.5625 17.3686C6.41529 17.3785 6.31442 17.4113 6.24707 17.4555C6.18765 17.4946 6.12235 17.5629 6.07324 17.7074C5.96606 18.024 6.03132 18.2338 6.20898 18.4027C6.42486 18.6079 6.86529 18.8032 7.60547 18.8705C8.26399 18.9303 9.10492 18.675 9.83301 18.3617C10.0824 18.2544 10.3076 18.1424 10.4961 18.0453C10.4683 18.0198 10.4404 17.9947 10.4131 17.9691C10.2082 17.7778 9.98171 17.5547 9.75879 17.3354ZM13.7285 4.9877C13.2927 4.98771 12.7634 5.00347 12.332 5.13223C11.9649 5.24187 11.7688 5.39791 11.6943 5.61563C11.7125 5.6374 11.7364 5.66456 11.7676 5.69669C11.9038 5.8372 12.1184 6.01946 12.4004 6.2338C12.9604 6.6594 13.7262 7.16775 14.5068 7.66055C15.2851 8.15184 16.0683 8.62104 16.6572 8.96817C16.9513 9.14147 17.1965 9.28406 17.3682 9.38321C17.454 9.43279 17.5215 9.47219 17.5674 9.49844C17.5903 9.51155 17.6084 9.52105 17.6201 9.52774C17.6258 9.53101 17.6299 9.53391 17.6328 9.53555L17.6357 9.53751C17.7874 9.62372 17.8844 9.7831 17.8896 9.95743C17.8949 10.1316 17.809 10.2958 17.6631 10.391L17.6611 10.393L17.6572 10.3949C17.6544 10.3968 17.6504 10.3996 17.6455 10.4027C17.6356 10.4091 17.6212 10.4182 17.6035 10.4291C17.568 10.4511 17.5176 10.4816 17.4551 10.518C17.3297 10.591 17.1531 10.6886 16.9492 10.7865C16.5621 10.9725 15.9966 11.1995 15.4785 11.1996C15.3323 11.1996 15.1973 11.1543 15.1016 11.1156C14.9967 11.0733 14.8858 11.0167 14.7754 10.9545C14.5549 10.8302 14.2906 10.6583 14.0029 10.4682C13.4179 10.0815 12.6996 9.59493 11.8945 9.14005C10.2564 8.21452 8.41475 7.51703 6.80664 7.9877C5.4987 8.37059 4.6598 9.1623 4.14355 9.86563C3.88504 10.2178 3.70983 10.5461 3.59961 10.7836C3.54466 10.902 3.50637 10.9974 3.48242 11.0609C3.47047 11.0927 3.46204 11.1165 3.45703 11.1313L3.45117 11.1488C3.40347 11.3029 3.28491 11.4219 3.13477 11.4731L3.06836 11.4906H3.07031C3.07031 11.4906 3.06755 11.4909 3.06445 11.4916C3.05821 11.493 3.04724 11.4956 3.03223 11.4994C3.00207 11.507 2.95642 11.52 2.90039 11.5385C2.78641 11.5761 2.6391 11.6355 2.49609 11.7221C2.2087 11.896 2 12.1347 2 12.5004C2.00008 12.6777 2.0557 12.7749 2.12012 12.8422C2.19607 12.9215 2.31586 12.989 2.47559 13.0385C2.63246 13.0871 2.79735 13.1091 2.92871 13.1176C2.99298 13.1217 3.04658 13.1227 3.08203 13.1225C3.09944 13.1224 3.11238 13.1217 3.12012 13.1215C3.1233 13.1214 3.12695 13.1215 3.12695 13.1215L3.19141 13.1225C3.34199 13.1333 3.48069 13.2119 3.56738 13.3383C4.12168 14.1466 5.0129 14.621 5.89746 14.8647C6.79691 15.1123 7.58886 15.0946 7.86816 15.018L7.95801 14.9984C8.16758 14.9646 8.3656 15.0109 8.52246 15.0707C8.70631 15.1409 8.88792 15.2496 9.05664 15.3686C9.39413 15.6064 9.75748 15.9403 10.1006 16.2709C10.4585 16.6157 10.7827 16.9454 11.0957 17.2377C11.4163 17.537 11.6476 17.72 11.7871 17.7865C12.1136 17.9422 12.5763 17.9833 13.1133 17.9818C13.3909 17.9811 13.6135 17.9712 13.8799 17.9682C14.1176 17.9655 14.3706 17.9692 14.5869 18.0072C14.9259 18.0668 15.6711 18.1929 16.3184 18.1C16.64 18.0538 16.8817 17.9604 17.0361 17.8285C17.1702 17.7139 17.2802 17.5362 17.2803 17.2016C17.2803 17.0402 17.209 16.8985 16.9961 16.7523C16.7675 16.5954 16.4178 16.4687 15.9795 16.3783C15.1096 16.199 14.0674 16.1948 13.4346 16.2162C13.2705 16.2218 13.1367 16.2291 13.0449 16.2348C12.9992 16.2376 12.9639 16.2399 12.9404 16.2416C12.9287 16.2425 12.9197 16.2431 12.9141 16.2436C12.9114 16.2438 12.9082 16.2445 12.9082 16.2445L12.832 16.2455C12.6588 16.2341 12.501 16.1326 12.4199 15.975C12.3494 15.8378 12.2237 15.5266 12.082 15.1986C11.9308 14.8483 11.7394 14.4226 11.5127 13.9906C11.2852 13.5572 11.0272 13.1267 10.7461 12.7631C10.4616 12.3951 10.1743 12.1242 9.89746 11.975C9.25033 11.6263 8.59423 11.5045 8.09375 11.4721C7.84467 11.4559 7.63803 11.4622 7.49609 11.4721C7.42529 11.477 7.37088 11.4824 7.33594 11.4867C7.31876 11.4888 7.30623 11.4905 7.29883 11.4916L7.29199 11.4926C7.01993 11.5385 6.76202 11.3555 6.71582 11.0834C6.66979 10.8113 6.85295 10.5535 7.125 10.5072H7.12695L7.12891 10.5063C7.12891 10.5063 7.13247 10.5056 7.13477 10.5053C7.1394 10.5045 7.14589 10.5034 7.15332 10.5023C7.16818 10.5002 7.18853 10.4977 7.21387 10.4945C7.26502 10.4882 7.337 10.4803 7.42676 10.474C7.60599 10.4616 7.85788 10.4546 8.1582 10.474C8.75679 10.5128 9.56374 10.6586 10.3721 11.0941C10.8229 11.3371 11.2111 11.73 11.5371 12.1518C11.8666 12.578 12.1556 13.0641 12.3984 13.5268C12.6418 13.9905 12.8443 14.4416 13 14.8022C13.0738 14.9732 13.1358 15.1141 13.1836 15.227C13.2488 15.2239 13.322 15.2199 13.4014 15.2172C13.4478 15.2156 13.4967 15.2156 13.5479 15.2143C13.5682 15.1851 13.5919 15.1573 13.6191 15.1322C14.089 14.6995 14.8099 14.3012 15.4326 14.016C15.7501 13.8706 16.0565 13.7476 16.3135 13.6596C16.5465 13.5797 16.8025 13.5056 16.9863 13.5004L17.084 13.5033C17.18 13.5123 17.2686 13.5365 17.3359 13.557C17.4352 13.5874 17.5426 13.6289 17.6484 13.6723C17.7553 13.7161 17.8737 13.7671 17.9932 13.8188C18.1142 13.871 18.2404 13.9248 18.3721 13.9789C18.9123 14.2007 19.4868 14.392 19.999 14.392C20.4017 14.392 20.9013 14.3283 21.3066 14.1557C21.7067 13.9852 21.946 13.7434 22.0088 13.4076C22.1921 12.4275 22.0683 11.7174 21.8184 11.1977C21.5667 10.6744 21.1653 10.2991 20.7217 10.0287C20.2757 9.75691 19.7991 9.59962 19.4277 9.51016C19.2436 9.46582 19.0891 9.43859 18.9824 9.42325C18.9293 9.41561 18.8878 9.41141 18.8613 9.4086C18.8482 9.40722 18.8386 9.40617 18.833 9.40567C18.8307 9.40546 18.8281 9.40469 18.8281 9.40469L18.7666 9.39688C18.6246 9.36848 18.5006 9.2788 18.4287 9.15079L18.4277 9.14981C18.4277 9.14981 18.4258 9.14545 18.4238 9.142C18.4197 9.13473 18.413 9.12285 18.4043 9.10782C18.3868 9.07775 18.3601 9.03277 18.3252 8.97501C18.2552 8.85924 18.1514 8.69231 18.0186 8.49161C17.7522 8.0892 17.3714 7.55549 16.9131 7.02383C16.453 6.4901 15.9262 5.97218 15.3691 5.59122C14.809 5.20824 14.2538 4.9877 13.7285 4.9877Z" fill="currentColor"/>
</svg>
