<svg viewBox="0 0 24 24" fill="currentColor" xmlns="http://www.w3.org/2000/svg">
<path d="M12.9414 7.83691L12.9404 7.83887V7.83594L12.9414 7.83691ZM22 8.5C22 10.2628 21.3477 11.9223 20.4443 13.3809C19.5393 14.8422 18.3485 16.1577 17.1855 17.252C16.0193 18.3493 14.8568 19.246 13.9883 19.8682C13.5532 20.1799 13.1893 20.4243 12.9326 20.5918C12.8043 20.6755 12.7026 20.7408 12.6318 20.7852C12.5967 20.8072 12.5691 20.8241 12.5498 20.8359C12.5404 20.8417 12.5328 20.8463 12.5273 20.8496C12.5248 20.8512 12.5205 20.8535 12.5205 20.8535L12.5186 20.8555C12.2403 21.0236 11.8991 21.0451 11.6055 20.9189L11.4824 20.8555L11.4795 20.8535C11.4795 20.8535 11.4752 20.8512 11.4727 20.8496C11.4672 20.8463 11.4596 20.8417 11.4502 20.8359C11.4309 20.8241 11.4033 20.8072 11.3682 20.7852C11.2974 20.7408 11.1957 20.6755 11.0674 20.5918C10.8107 20.4243 10.4468 20.1799 10.0117 19.8682C9.14325 19.246 7.98066 18.3493 6.81445 17.252C5.65154 16.1577 4.46074 14.8422 3.55566 13.3809C2.65234 11.9223 2 10.2628 2 8.5C2 5.44559 4.46457 3 7.5 3C9.52907 3 10.911 4.10461 11.7412 5.11523C11.8334 5.22746 11.9195 5.33977 12 5.4502C12.0805 5.33977 12.1666 5.22746 12.2588 5.11523C13.089 4.10461 14.4709 3 16.5 3C19.5354 3 22 5.44559 22 8.5Z" fill="currentColor"/>
</svg>
