<svg viewBox="0 0 24 24" fill="currentColor" xmlns="http://www.w3.org/2000/svg">
<path d="M20 8.5C20 6.55442 18.4351 5 16.5 5C15.2792 5 14.411 5.64543 13.8037 6.38477C13.5011 6.75322 13.2813 7.12684 13.1367 7.40918C13.0651 7.54909 13.0127 7.66309 12.9805 7.73926C12.9645 7.77707 12.9538 7.8055 12.9473 7.82227C12.9448 7.8286 12.9415 7.83301 12.9404 7.83594C12.7983 8.23389 12.4226 8.5 12 8.5C11.5774 8.5 11.2007 8.23393 11.0586 7.83594C11.0575 7.83299 11.0551 7.82837 11.0527 7.82227C11.0462 7.80549 11.0355 7.77707 11.0195 7.73926C10.9873 7.66309 10.9349 7.54909 10.8633 7.40918C10.7187 7.12684 10.4989 6.75322 10.1963 6.38477C9.58897 5.64543 8.72083 5 7.5 5C5.56487 5 4 6.55442 4 8.5C4 9.76828 4.47277 11.0622 5.25684 12.3281C6.03923 13.5913 7.09856 14.7721 8.18555 15.7949C9.26931 16.8147 10.3568 17.6564 11.1758 18.2432C11.4993 18.475 11.7805 18.6648 12 18.8105C12.2195 18.6648 12.5007 18.475 12.8242 18.2432C13.6432 17.6564 14.7307 16.8147 15.8145 15.7949C16.9014 14.7721 17.9608 13.5913 18.7432 12.3281C19.5272 11.0622 20 9.76828 20 8.5ZM12.9414 7.83691V7.83789L12.9404 7.83887C12.9406 7.83829 12.9401 7.83688 12.9404 7.83594L12.9414 7.83691ZM22 8.5C22 10.2628 21.3477 11.9223 20.4443 13.3809C19.5393 14.8422 18.3485 16.1577 17.1855 17.252C16.0193 18.3493 14.8568 19.246 13.9883 19.8682C13.5532 20.1799 13.1893 20.4243 12.9326 20.5918C12.8043 20.6755 12.7026 20.7408 12.6318 20.7852C12.5967 20.8072 12.5691 20.8241 12.5498 20.8359C12.5404 20.8417 12.5328 20.8463 12.5273 20.8496C12.5248 20.8512 12.5221 20.8525 12.5205 20.8535L12.5186 20.8555H12.5176C12.2393 21.0236 11.8991 21.0451 11.6055 20.9189L11.4824 20.8555H11.4814L11.4795 20.8535C11.4779 20.8525 11.4752 20.8512 11.4727 20.8496C11.4672 20.8463 11.4596 20.8417 11.4502 20.8359C11.4309 20.8241 11.4033 20.8072 11.3682 20.7852C11.2974 20.7408 11.1957 20.6755 11.0674 20.5918C10.8107 20.4243 10.4468 20.1799 10.0117 19.8682C9.14325 19.246 7.98066 18.3493 6.81445 17.252C5.65154 16.1577 4.46074 14.8422 3.55566 13.3809C2.65234 11.9223 2 10.2628 2 8.5C2 5.44559 4.46457 3 7.5 3C9.52907 3 10.911 4.10461 11.7412 5.11523C11.8334 5.22746 11.9195 5.33977 12 5.4502C12.0805 5.33977 12.1666 5.22746 12.2588 5.11523C13.089 4.10461 14.4709 3 16.5 3C19.5354 3 22 5.44559 22 8.5Z" fill="currentColor"/>
</svg>
