<svg viewBox="0 0 24 24" fill="currentColor" xmlns="http://www.w3.org/2000/svg">
<path d="M12 2C17.5228 2 22 6.47715 22 12C22 17.5228 17.5228 22 12 22C6.47715 22 2 17.5228 2 12C2 6.47715 6.47715 2 12 2ZM12 4C7.58172 4 4 7.58172 4 12C4 16.4183 7.58172 20 12 20C16.4183 20 20 16.4183 20 12C20 7.58172 16.4183 4 12 4ZM12 15C12.6904 15 13.25 15.5596 13.25 16.25C13.25 16.9404 12.6904 17.5 12 17.5C11.3096 17.5 10.75 16.9404 10.75 16.25C10.75 15.5596 11.3096 15 12 15ZM12 6.5C13.9812 6.5 15.5 7.87922 15.5 9.75C15.5 10.8851 14.7374 12.0526 13.5908 12.627L13.3564 12.7344C13.2141 12.793 13.1041 12.8727 13.043 12.9414C12.9874 13.004 13 13.0216 13 13V13.25C13 13.8023 12.5523 14.25 12 14.25C11.4477 14.25 11 13.8023 11 13.25V13C11 11.846 11.9324 11.1574 12.5947 10.8848L12.7051 10.834C13.2392 10.564 13.5 10.0455 13.5 9.75C13.5 9.12078 13.0188 8.5 12 8.5C10.9812 8.5 10.5 9.12078 10.5 9.75C10.5 10.3023 10.0523 10.75 9.5 10.75C8.94772 10.75 8.5 10.3023 8.5 9.75C8.5 7.87922 10.0188 6.5 12 6.5Z" fill="currentColor"/>
</svg>
