<svg viewBox="0 0 24 24" fill="currentColor" xmlns="http://www.w3.org/2000/svg">
<path d="M11.9997 3C16.9703 3 20.9997 7.02944 20.9997 12C20.9997 16.9706 16.9703 21 11.9997 21C9.67015 20.9999 7.54539 20.1139 5.94794 18.6621L5.63544 18.3643L5.56708 18.2881C5.24697 17.8955 5.26986 17.3163 5.63544 16.9502C6.00152 16.5841 6.58153 16.5606 6.9743 16.8809L7.0495 16.9502L7.29364 17.1816C8.53741 18.3121 10.1875 18.9999 11.9997 19C15.8657 19 18.9997 15.866 18.9997 12C18.9997 8.13401 15.8657 5 11.9997 5C8.34984 5.00015 5.35352 7.79378 5.02997 11.3594L5.21844 11.125C5.56341 10.6938 6.19344 10.6239 6.62469 10.9688C7.05596 11.3138 7.12595 11.9437 6.78094 12.375L4.78094 14.875C4.59117 15.1121 4.30342 15.25 3.99969 15.25C3.69602 15.2499 3.40816 15.1121 3.21844 14.875L1.21844 12.375L1.15887 12.292C0.883843 11.8663 0.97052 11.2922 1.37469 10.9688C1.77896 10.6453 2.35758 10.6872 2.71259 11.0488L2.78094 11.125L3.01923 11.4238C3.31633 6.72188 7.22284 3.00016 11.9997 3ZM12.1003 7.00977C12.3284 7.05618 12.4997 7.25818 12.4997 7.5V11.793L15.1813 14.4746L15.2458 14.5537C15.3737 14.7478 15.3521 15.0109 15.1813 15.1816C15.0106 15.3523 14.7474 15.374 14.5534 15.2461L14.4743 15.1816L11.6462 12.3535C11.6423 12.3496 11.6392 12.3449 11.6354 12.3408C11.6224 12.3269 11.6107 12.3122 11.5993 12.2969C11.5921 12.2871 11.5843 12.2778 11.5778 12.2676C11.5458 12.2172 11.5218 12.161 11.5095 12.1006L11.4997 12V7.5C11.4997 7.22396 11.7237 7.00016 11.9997 7L12.1003 7.00977Z" fill="currentColor"/>
</svg>
