<svg viewBox="0 0 24 24" fill="currentColor" xmlns="http://www.w3.org/2000/svg">
<rect fill="currentColor"/>
<path d="M12.5 7.5C12.5 7.22386 12.2761 7 12 7C11.7239 7 11.5 7.22386 11.5 7.5L11.5 12C11.5 12.1381 11.556 12.2631 11.6465 12.3536L14.4749 15.182C14.6701 15.3772 14.9867 15.3772 15.182 15.182C15.3772 14.9867 15.3772 14.6701 15.182 14.4749L12.5 11.7929V7.5Z" fill="currentColor"/>
<path d="M2.78088 12.1253C2.43587 11.694 1.80657 11.6241 1.37531 11.9691C0.944049 12.3141 0.874128 12.9434 1.21914 13.3747L3.21914 15.8747C3.40891 16.1119 3.69622 16.25 4.00001 16.25C4.30379 16.25 4.5911 16.1119 4.78087 15.8747L6.78087 13.3747C7.12588 12.9434 7.05596 12.3141 6.6247 11.9691C6.19344 11.6241 5.56415 11.694 5.21914 12.1253L5.00001 12.3992V12C5.00001 8.13401 8.13401 5 12 5C15.866 5 19 8.13401 19 12C19 15.866 15.866 19 12 19C10.6051 19 9.30835 18.593 8.2183 17.8917C7.75384 17.5929 7.13508 17.7272 6.83625 18.1916C6.53743 18.6561 6.6717 19.2748 7.13615 19.5737C8.53924 20.4764 10.21 21 12 21C16.9706 21 21 16.9706 21 12C21 7.02944 16.9706 3 12 3C7.02944 3 3.00001 7.02944 3.00001 12V12.3992L2.78088 12.1253Z" fill="currentColor"/>
</svg>
