<svg viewBox="0 0 24 24" fill="currentColor" xmlns="http://www.w3.org/2000/svg">
<path d="M11.9999 3C16.9704 3 20.9999 7.02944 20.9999 12C20.9999 16.9706 16.9704 21 11.9999 21C9.67034 20.9999 7.54558 20.1139 5.94812 18.6621L5.63562 18.3643L5.56726 18.2881C5.24716 17.8955 5.27004 17.3163 5.63562 16.9502C6.0017 16.5841 6.58172 16.5606 6.97449 16.8809L7.04969 16.9502L7.29383 17.1816C8.5376 18.3121 10.1876 18.9999 11.9999 19C15.8659 19 18.9999 15.866 18.9999 12C18.9999 8.13401 15.8659 5 11.9999 5C8.35002 5.00015 5.3537 7.79378 5.03015 11.3594L5.21863 11.125C5.56359 10.6938 6.19362 10.6239 6.62488 10.9688C7.05614 11.3138 7.12614 11.9437 6.78113 12.375L4.78113 14.875C4.59136 15.1121 4.3036 15.25 3.99988 15.25C3.69621 15.2499 3.40834 15.1121 3.21863 14.875L1.21863 12.375L1.15906 12.292C0.884029 11.8663 0.970706 11.2922 1.37488 10.9688C1.77915 10.6453 2.35777 10.6872 2.71277 11.0488L2.78113 11.125L3.01941 11.4238C3.31652 6.72188 7.22302 3.00016 11.9999 3ZM12.1005 7.00977C12.3286 7.05618 12.4999 7.25818 12.4999 7.5V11.793L15.1815 14.4746L15.246 14.5537C15.3739 14.7478 15.3523 15.0109 15.1815 15.1816C15.0107 15.3523 14.7476 15.374 14.5536 15.2461L14.4745 15.1816L11.6464 12.3535C11.6424 12.3496 11.6394 12.3449 11.6356 12.3408C11.6226 12.3269 11.6109 12.3122 11.5995 12.2969C11.5923 12.2871 11.5845 12.2778 11.578 12.2676C11.546 12.2172 11.522 12.161 11.5096 12.1006L11.4999 12V7.5C11.4999 7.22396 11.7239 7.00016 11.9999 7C12.0342 7 12.0681 7.00318 12.1005 7.00977Z" fill="currentColor"/>
</svg>
