<svg viewBox="0 0 24 24" fill="currentColor" xmlns="http://www.w3.org/2000/svg">
<path d="M17 9.5C17 10.6046 16.1046 11.5 15 11.5C13.8954 11.5 13 10.6046 13 9.5C13 8.39543 13.8954 7.5 15 7.5C16.1046 7.5 17 8.39543 17 9.5Z" fill="currentColor"/>
<path fill-rule="evenodd" clip-rule="evenodd" d="M4.5 3.5C2.84315 3.5 1.5 4.84315 1.5 6.5V17.5C1.5 19.1569 2.84315 20.5 4.5 20.5H19.5C21.1569 20.5 22.5 19.1569 22.5 17.5V6.5C22.5 4.84315 21.1569 3.5 19.5 3.5H4.5ZM4.5 5.5C3.94772 5.5 3.5 5.94772 3.5 6.5V15.5L8.08579 10.9142C8.86683 10.1332 10.1332 10.1332 10.9142 10.9142L15 15L16.7929 13.2071C17.1834 12.8166 17.8166 12.8166 18.2071 13.2071L20.5 15.5V6.5C20.5 5.94772 20.0523 5.5 19.5 5.5H4.5Z" fill="currentColor"/>
</svg>
