<svg viewBox="0 0 24 24" fill="currentColor" xmlns="http://www.w3.org/2000/svg">
<path d="M8.69724 6.03045C8.96145 6.05356 9.20557 6.18076 9.37605 6.38392C9.54653 6.58709 9.6294 6.84959 9.60628 7.1138L8.99619 14.0872C8.81135 16.179 8.35914 18.2473 7.63967 20.2924C7.55972 20.5196 7.47645 20.7467 7.38991 20.9734C7.34403 20.7351 7.30147 20.497 7.2622 20.2593C6.90877 18.1204 6.8226 16.005 7.0038 13.9129L7.61389 6.93949C7.63701 6.67528 7.7642 6.43116 7.96737 6.26068C8.17054 6.0902 8.43304 6.00733 8.69724 6.03045Z" fill="currentColor"/>
<path d="M4.69724 17.9696C4.96145 17.9464 5.20557 17.8192 5.37605 17.6161C5.54653 17.4129 5.6294 17.1504 5.60628 16.8862L4.99619 9.91284C4.81135 7.82105 4.35914 5.75267 3.63967 3.70765C3.55972 3.48042 3.47645 3.25329 3.38991 3.02663C3.34403 3.26487 3.30147 3.50302 3.2622 3.74068C2.90877 5.87956 2.8226 7.99505 3.0038 10.0872L3.61389 17.0605C3.63701 17.3247 3.7642 17.5688 3.96737 17.7393C4.17054 17.9098 4.43304 17.9927 4.69724 17.9696Z" fill="currentColor"/>
<path d="M20.6972 17.9696C20.9615 17.9464 21.2056 17.8192 21.3761 17.6161C21.5465 17.4129 21.6294 17.1504 21.6063 16.8862L20.9962 9.91284C20.8113 7.82105 20.3591 5.75267 19.6397 3.70765C19.5597 3.48042 19.4765 3.25329 19.3899 3.02663C19.344 3.26487 19.3015 3.50302 19.2622 3.74068C18.9088 5.87956 18.8226 7.99505 19.0038 10.0872L19.6139 17.0605C19.637 17.3247 19.7642 17.5688 19.9674 17.7393C20.1705 17.9098 20.433 17.9927 20.6972 17.9696Z" fill="currentColor"/>
<path d="M16.6972 6.03045C16.9615 6.05356 17.2056 6.18076 17.3761 6.38392C17.5465 6.58709 17.6294 6.84959 17.6063 7.1138L16.9962 14.0872C16.8113 16.179 16.3591 18.2473 15.6397 20.2924C15.5597 20.5196 15.4765 20.7467 15.3899 20.9734C15.344 20.7351 15.3015 20.497 15.2622 20.2593C14.9088 18.1204 14.8226 16.005 15.0038 13.9129L15.6139 6.93949C15.637 6.67528 15.7642 6.43116 15.9674 6.26068C16.1705 6.0902 16.433 6.00733 16.6972 6.03045Z" fill="currentColor"/>
<path d="M12.6972 17.9696C12.9615 17.9464 13.2056 17.8192 13.3761 17.6161C13.5465 17.4129 13.6294 17.1504 13.6063 16.8862L12.9962 9.91284C12.8113 7.82105 12.3591 5.75267 11.6397 3.70765C11.5597 3.48042 11.4765 3.25329 11.3899 3.02663C11.344 3.26487 11.3015 3.50302 11.2622 3.74068C10.9088 5.87956 10.8226 7.99505 11.0038 10.0872L11.6139 17.0605C11.637 17.3247 11.7642 17.5688 11.9674 17.7393C12.1705 17.9098 12.433 17.9927 12.6972 17.9696Z" fill="currentColor"/>
</svg>
