<svg viewBox="0 0 24 24" fill="currentColor" xmlns="http://www.w3.org/2000/svg">
<path fill-rule="evenodd" clip-rule="evenodd" d="M1 7C1 4.23858 3.23858 2 6 2H18C20.7614 2 23 4.23858 23 7V14C23 16.7614 20.7614 19 18 19H15.9538L13.1289 22.2285C12.5312 22.9115 11.4688 22.9115 10.8711 22.2285L8.04623 19H6C3.23858 19 1 16.7614 1 14V7ZM6 4C4.34315 4 3 5.34315 3 7V14C3 15.6569 4.34315 17 6 17H8.04623C8.62296 17 9.17161 17.249 9.55138 17.683L12 20.4814L14.4486 17.683C14.8284 17.249 15.377 17 15.9538 17H18C19.6569 17 21 15.6569 21 14V7C21 5.34315 19.6569 4 18 4H6Z" fill="currentColor"/>
<path d="M7.29785 14C6.83398 14 6.56055 13.7168 6.56055 13.2285V7.7207C6.56055 7.2373 6.83398 6.9541 7.29785 6.9541H10.6475C11.0527 6.9541 11.3164 7.18359 11.3164 7.56445C11.3164 7.94531 11.0479 8.1748 10.6475 8.1748H8.03516V9.86914H10.5205C10.8867 9.86914 11.1357 10.084 11.1357 10.4355C11.1357 10.7871 10.8916 11.002 10.5205 11.002H8.03516V12.7793H10.6475C11.0479 12.7793 11.3164 13.0088 11.3164 13.3896C11.3164 13.7705 11.0527 14 10.6475 14H7.29785Z" fill="currentColor"/>
<path d="M14.8711 14.1172C13.416 14.1172 12.4834 13.5361 12.2002 12.7646C12.1514 12.6377 12.1221 12.501 12.1221 12.3691C12.1221 11.9785 12.3906 11.7197 12.7715 11.7197C13.0742 11.7197 13.2744 11.8369 13.4502 12.1494C13.6797 12.6865 14.2314 12.9307 14.9053 12.9307C15.6963 12.9307 16.2334 12.5498 16.2334 12.0322C16.2334 11.5684 15.9014 11.3047 15.0176 11.124L14.2705 10.9775C12.8643 10.6992 12.1758 10.0254 12.1758 8.97559C12.1758 7.68652 13.2988 6.83203 14.8662 6.83203C16.1553 6.83203 17.127 7.37402 17.4395 8.29199C17.4736 8.38965 17.4932 8.49219 17.4932 8.61914C17.4932 8.9707 17.2393 9.20996 16.8633 9.20996C16.5312 9.20996 16.3262 9.07812 16.1602 8.77539C15.9258 8.24316 15.4717 8.02344 14.8662 8.02344C14.1387 8.02344 13.6553 8.36523 13.6553 8.88281C13.6553 9.31738 13.9922 9.58594 14.8271 9.75195L15.5693 9.90332C17.0635 10.2012 17.708 10.8018 17.708 11.8711C17.708 13.248 16.6289 14.1172 14.8711 14.1172Z" fill="currentColor"/>
</svg>
