<svg viewBox="0 0 24 24" fill="currentColor" xmlns="http://www.w3.org/2000/svg">
<path fill-rule="evenodd" clip-rule="evenodd" d="M1 7C1 4.23858 3.23858 2 6 2H18C20.7614 2 23 4.23858 23 7V14C23 16.7614 20.7614 19 18 19H15.9538L13.1289 22.2285C12.5312 22.9115 11.4688 22.9115 10.8711 22.2285L8.04623 19H6C3.23858 19 1 16.7614 1 14V7ZM6 4C4.34315 4 3 5.34315 3 7V14C3 15.6569 4.34315 17 6 17H8.04623C8.62296 17 9.17161 17.249 9.55138 17.683L12 20.4814L14.4486 17.683C14.8284 17.249 15.377 17 15.9538 17H18C19.6569 17 21 15.6569 21 14V7C21 5.34315 19.6569 4 18 4H6Z" fill="currentColor"/>
<path d="M6.88281 14C6.41895 14 6.14551 13.7168 6.14551 13.2285V7.7207C6.14551 7.2373 6.41895 6.9541 6.88281 6.9541H10.2324C10.6377 6.9541 10.9014 7.18359 10.9014 7.56445C10.9014 7.94531 10.6328 8.1748 10.2324 8.1748H7.62012V9.86914H10.1055C10.4717 9.86914 10.7207 10.084 10.7207 10.4355C10.7207 10.7871 10.4766 11.002 10.1055 11.002H7.62012V12.7793H10.2324C10.6328 12.7793 10.9014 13.0088 10.9014 13.3896C10.9014 13.7705 10.6377 14 10.2324 14H6.88281Z" fill="currentColor"/>
<path d="M12.5859 14.0928C12.1416 14.0928 11.8779 13.8242 11.8779 13.3555V7.59375C11.8779 7.125 12.1514 6.85645 12.6201 6.85645C12.9229 6.85645 13.1279 6.97852 13.3525 7.28613L16.3994 11.5439H16.4385V7.59863C16.4385 7.125 16.7021 6.85645 17.1465 6.85645C17.5908 6.85645 17.8496 7.125 17.8496 7.59863V13.375C17.8496 13.834 17.5908 14.0928 17.127 14.0928C16.8096 14.0928 16.6143 13.9805 16.3896 13.668L13.333 9.38574H13.2891V13.3555C13.2891 13.8242 13.0254 14.0928 12.5859 14.0928Z" fill="currentColor"/>
</svg>
