<svg viewBox="0 0 24 24" fill="currentColor" xmlns="http://www.w3.org/2000/svg">
<path fill-rule="evenodd" clip-rule="evenodd" d="M1 7C1 4.23858 3.23858 2 6 2H18C20.7614 2 23 4.23858 23 7V14C23 16.7614 20.7614 19 18 19H15.9538L13.1289 22.2285C12.5312 22.9115 11.4688 22.9115 10.8711 22.2285L8.04623 19H6C3.23858 19 1 16.7614 1 14V7ZM6 4C4.34315 4 3 5.34315 3 7V14C3 15.6569 4.34315 17 6 17H8.04623C8.62296 17 9.17161 17.249 9.55138 17.683L12 20.4814L14.4486 17.683C14.8284 17.249 15.377 17 15.9538 17H18C19.6569 17 21 15.6569 21 14V7C21 5.34315 19.6569 4 18 4H6Z" fill="currentColor"/>
<path d="M9.25586 14.0928C8.79199 14.0928 8.51855 13.8096 8.51855 13.3262V7.7207C8.51855 7.2373 8.79199 6.9541 9.25586 6.9541H12.5518C12.957 6.9541 13.2207 7.18359 13.2207 7.56445C13.2207 7.94531 12.9521 8.1748 12.5518 8.1748H9.99316V10.0596H12.3125C12.6934 10.0596 12.9424 10.2793 12.9424 10.6406C12.9424 11.0068 12.6982 11.2266 12.3125 11.2266H9.99316V13.3262C9.99316 13.8096 9.71973 14.0928 9.25586 14.0928Z" fill="currentColor"/>
<path d="M14.7441 14.0928C14.2803 14.0928 14.0068 13.8096 14.0068 13.3262V7.62793C14.0068 7.13965 14.2803 6.85645 14.7441 6.85645C15.208 6.85645 15.4814 7.13965 15.4814 7.62793V13.3262C15.4814 13.8096 15.208 14.0928 14.7441 14.0928Z" fill="currentColor"/>
</svg>
