<svg viewBox="0 0 24 24" fill="currentColor" xmlns="http://www.w3.org/2000/svg">
<path fill-rule="evenodd" clip-rule="evenodd" d="M1 7C1 4.23858 3.23858 2 6 2H18C20.7614 2 23 4.23858 23 7V14C23 16.7614 20.7614 19 18 19H15.9538L13.1289 22.2285C12.5312 22.9115 11.4688 22.9115 10.8711 22.2285L8.04623 19H6C3.23858 19 1 16.7614 1 14V7ZM6 4C4.34315 4 3 5.34315 3 7V14C3 15.6569 4.34315 17 6 17H8.04623C8.62296 17 9.17161 17.249 9.55138 17.683L12 20.4814L14.4486 17.683C14.8284 17.249 15.377 17 15.9538 17H18C19.6569 17 21 15.6569 21 14V7C21 5.34315 19.6569 4 18 4H6Z" fill="currentColor"/>
<path d="M8.65039 14.1172C7.19531 14.1172 6.2627 13.5361 5.97949 12.7646C5.93066 12.6377 5.90137 12.501 5.90137 12.3691C5.90137 11.9785 6.16992 11.7197 6.55078 11.7197C6.85352 11.7197 7.05371 11.8369 7.22949 12.1494C7.45898 12.6865 8.01074 12.9307 8.68457 12.9307C9.47559 12.9307 10.0127 12.5498 10.0127 12.0322C10.0127 11.5684 9.68066 11.3047 8.79688 11.124L8.0498 10.9775C6.64355 10.6992 5.95508 10.0254 5.95508 8.97559C5.95508 7.68652 7.07812 6.83203 8.64551 6.83203C9.93457 6.83203 10.9062 7.37402 11.2188 8.29199C11.2529 8.38965 11.2725 8.49219 11.2725 8.61914C11.2725 8.9707 11.0186 9.20996 10.6426 9.20996C10.3105 9.20996 10.1055 9.07812 9.93945 8.77539C9.70508 8.24316 9.25098 8.02344 8.64551 8.02344C7.91797 8.02344 7.43457 8.36523 7.43457 8.88281C7.43457 9.31738 7.77148 9.58594 8.60645 9.75195L9.34863 9.90332C10.8428 10.2012 11.4873 10.8018 11.4873 11.8711C11.4873 13.248 10.4082 14.1172 8.65039 14.1172Z" fill="currentColor"/>
<path d="M15.1152 14.0928C14.5391 14.0928 14.1973 13.8389 13.9824 13.2383L12.0195 7.96973C11.9707 7.83301 11.9463 7.69629 11.9463 7.55469C11.9463 7.13965 12.2588 6.85645 12.7227 6.85645C13.1182 6.85645 13.3525 7.03711 13.4746 7.4375L15.125 12.4814H15.1592L16.8047 7.42285C16.9268 7.02734 17.1465 6.85645 17.5322 6.85645C17.9814 6.85645 18.2891 7.13477 18.2891 7.53516C18.2891 7.66699 18.2646 7.79883 18.2158 7.93066L16.2432 13.2432C16.0283 13.8389 15.6865 14.0928 15.1152 14.0928Z" fill="currentColor"/>
</svg>
