<svg viewBox="0 0 24 24" fill="currentColor" xmlns="http://www.w3.org/2000/svg">
<path d="M3 15.5C3 14.6716 3.67157 14 4.5 14C5.32843 14 6 14.6716 6 15.5V17.5C6 18.3284 5.32843 19 4.5 19C3.67157 19 3 18.3284 3 17.5V15.5Z" fill="currentColor"/>
<path d="M8 12.5C8 11.6716 8.67157 11 9.5 11C10.3284 11 11 11.6716 11 12.5V17.5C11 18.3284 10.3284 19 9.5 19C8.67157 19 8 18.3284 8 17.5V12.5Z" fill="currentColor"/>
<path d="M13 9.5C13 8.67157 13.6716 8 14.5 8C15.3284 8 16 8.67157 16 9.5V17.5C16 18.3284 15.3284 19 14.5 19C13.6716 19 13 18.3284 13 17.5V9.5Z" fill="currentColor"/>
<path d="M18 6.5C18 5.67157 18.6716 5 19.5 5C20.3284 5 21 5.67157 21 6.5V17.5C21 18.3284 20.3284 19 19.5 19C18.6716 19 18 18.3284 18 17.5V6.5Z" fill="currentColor"/>
</svg>
