<svg viewBox="0 0 24 24" fill="currentColor" xmlns="http://www.w3.org/2000/svg">
<path d="M6 15C6 14.4477 5.55228 14 5 14C4.44772 14 4 14.4477 4 15V17C4 17.5523 4.44772 18 5 18C5.55228 18 6 17.5523 6 17V15ZM8 17C8 18.6569 6.65685 20 5 20C3.34315 20 2 18.6569 2 17V15C2 13.3431 3.34315 12 5 12C6.65685 12 8 13.3431 8 15V17Z" fill="currentColor"/>
<path d="M13 11C13 10.4477 12.5523 10 12 10C11.4477 10 11 10.4477 11 11V17C11 17.5523 11.4477 18 12 18C12.5523 18 13 17.5523 13 17V11ZM15 17C15 18.6569 13.6569 20 12 20C10.3431 20 9 18.6569 9 17V11C9 9.34315 10.3431 8 12 8C13.6569 8 15 9.34315 15 11V17Z" fill="currentColor"/>
<path d="M20 7C20 6.44772 19.5523 6 19 6C18.4477 6 18 6.44772 18 7V17C18 17.5523 18.4477 18 19 18C19.5523 18 20 17.5523 20 17V7ZM22 17C22 18.6569 20.6569 20 19 20C17.3431 20 16 18.6569 16 17V7C16 5.34315 17.3431 4 19 4C20.6569 4 22 5.34315 22 7V17Z" fill="currentColor"/>
</svg>
