<svg viewBox="0 0 24 24" fill="currentColor" xmlns="http://www.w3.org/2000/svg">
<path d="M3 14C3 13.4477 3.44772 13 4 13H5C5.55228 13 6 13.4477 6 14V16C6 16.5523 5.55228 17 5 17H4C3.44772 17 3 16.5523 3 16V14Z" fill="currentColor"/>
<path d="M8 11C8 10.4477 8.44772 10 9 10H10C10.5523 10 11 10.4477 11 11V16C11 16.5523 10.5523 17 10 17H9C8.44772 17 8 16.5523 8 16V11Z" fill="currentColor"/>
<path d="M13 8C13 7.44772 13.4477 7 14 7H15C15.5523 7 16 7.44772 16 8V16C16 16.5523 15.5523 17 15 17H14C13.4477 17 13 16.5523 13 16V8Z" fill="currentColor"/>
<path d="M18 5C18 4.44772 18.4477 4 19 4H20C20.5523 4 21 4.44772 21 5V16C21 16.5523 20.5523 17 20 17H19C18.4477 17 18 16.5523 18 16V5Z" fill="currentColor"/>
<path d="M2 19.5C2 19.2239 2.22386 19 2.5 19H21.5C21.7761 19 22 19.2239 22 19.5C22 19.7761 21.7761 20 21.5 20H2.5C2.22386 20 2 19.7761 2 19.5Z" fill="currentColor"/>
</svg>
