<svg viewBox="0 0 24 24" fill="currentColor" xmlns="http://www.w3.org/2000/svg">
<path d="M5.5 15C5.5 14.4477 5.05228 14 4.5 14C3.94772 14 3.5 14.4477 3.5 15V17C3.5 17.5523 3.94772 18 4.5 18C5.05228 18 5.5 17.5523 5.5 17V15ZM7.5 17C7.5 18.6569 6.15685 20 4.5 20C2.84315 20 1.5 18.6569 1.5 17V15C1.5 13.3431 2.84315 12 4.5 12C6.15685 12 7.5 13.3431 7.5 15V17Z" fill="currentColor"/>
<path d="M13 11C13 10.4477 12.5523 10 12 10C11.4477 10 11 10.4477 11 11V17C11 17.5523 11.4477 18 12 18C12.5523 18 13 17.5523 13 17V11ZM15 17C15 18.6569 13.6569 20 12 20C10.3431 20 9 18.6569 9 17V11C9 9.34315 10.3431 8 12 8C13.6569 8 15 9.34315 15 11V17Z" fill="currentColor"/>
<path d="M20.5 7C20.5 6.44772 20.0523 6 19.5 6C18.9477 6 18.5 6.44772 18.5 7V17C18.5 17.5523 18.9477 18 19.5 18C20.0523 18 20.5 17.5523 20.5 17V7ZM22.5 17C22.5 18.6569 21.1569 20 19.5 20C17.8431 20 16.5 18.6569 16.5 17V7C16.5 5.34315 17.8431 4 19.5 4C21.1569 4 22.5 5.34315 22.5 7V17Z" fill="currentColor"/>
</svg>
