<svg viewBox="0 0 24 24" fill="currentColor" xmlns="http://www.w3.org/2000/svg">
<path fill-rule="evenodd" clip-rule="evenodd" d="M16 15.5C16.5523 15.5 17 15.9477 17 16.5V17.5C17 18.0523 16.5523 18.5 16 18.5H15C14.4477 18.5 14 18.0523 14 17.5V16.5C14 15.9477 14.4477 15.5 15 15.5H16ZM15 17.5H16V16.5H15V17.5Z" fill="currentColor"/>
<path d="M12.5 16.5C12.7761 16.5 13 16.7239 13 17C13 17.2761 12.7761 17.5 12.5 17.5H7.5C7.22386 17.5 7 17.2761 7 17C7 16.7239 7.22386 16.5 7.5 16.5H12.5Z" fill="currentColor"/>
<path fill-rule="evenodd" clip-rule="evenodd" d="M16 11.5C16.5523 11.5 17 11.9477 17 12.5V13.5C17 14.0523 16.5523 14.5 16 14.5H15C14.4477 14.5 14 14.0523 14 13.5V12.5C14 11.9477 14.4477 11.5 15 11.5H16ZM15 13.5H16V12.5H15V13.5Z" fill="currentColor"/>
<path d="M12.5 12.5C12.7761 12.5 13 12.7239 13 13C13 13.2761 12.7761 13.5 12.5 13.5H7.5C7.22386 13.5 7 13.2761 7 13C7 12.7239 7.22386 12.5 7.5 12.5H12.5Z" fill="currentColor"/>
<path fill-rule="evenodd" clip-rule="evenodd" d="M16 7.5C16.5523 7.5 17 7.94772 17 8.5V9.5C17 10.0523 16.5523 10.5 16 10.5H15C14.4477 10.5 14 10.0523 14 9.5V8.5C14 7.94772 14.4477 7.5 15 7.5H16ZM15 9.5H16V8.5H15V9.5Z" fill="currentColor"/>
<path d="M12.5 8.5C12.7761 8.5 13 8.72386 13 9C13 9.27614 12.7761 9.5 12.5 9.5H7.5C7.22386 9.5 7 9.27614 7 9C7 8.72386 7.22386 8.5 7.5 8.5H12.5Z" fill="currentColor"/>
<path fill-rule="evenodd" clip-rule="evenodd" d="M14 1C15.0249 1 15.9041 1.61743 16.29 2.5H18C19.6569 2.5 21 3.84315 21 5.5V19C21 20.6569 19.6569 22 18 22H6C4.34315 22 3 20.6569 3 19V5.5C3 3.84315 4.34315 2.5 6 2.5H7.70996C8.0959 1.61743 8.97512 1 10 1H14ZM6 4.5C5.44772 4.5 5 4.94772 5 5.5V19C5 19.5523 5.44772 20 6 20H18C18.5523 20 19 19.5523 19 19V5.5C19 4.94772 18.5523 4.5 18 4.5H16.5V5C16.5 5.55228 16.0523 6 15.5 6H8.5C7.94772 6 7.5 5.55228 7.5 5V4.5H6ZM10 2C9.17157 2 8.5 2.67157 8.5 3.5V5H15.5V3.5C15.5 2.67157 14.8284 2 14 2H10Z" fill="currentColor"/>
</svg>
