<svg viewBox="0 0 24 24" fill="currentColor" xmlns="http://www.w3.org/2000/svg">
<path d="M14 1.5C15.0249 1.5 15.9041 2.11743 16.29 3H18C19.6569 3 21 4.34315 21 6V19.5C21 21.1569 19.6569 22.5 18 22.5H6C4.34315 22.5 3 21.1569 3 19.5V6C3 4.34315 4.34315 3 6 3H7.70996C8.0959 2.11743 8.97512 1.5 10 1.5H14ZM6 5C5.44772 5 5 5.44772 5 6V19.5C5 20.0523 5.44772 20.5 6 20.5H18C18.5523 20.5 19 20.0523 19 19.5V6C19 5.44772 18.5523 5 18 5H16.5V5.5C16.5 6.05228 16.0523 6.5 15.5 6.5H8.5C7.94772 6.5 7.5 6.05228 7.5 5.5V5H6ZM16 16C16.5523 16 17 16.4477 17 17V18C17 18.5523 16.5523 19 16 19H15C14.4477 19 14 18.5523 14 18V17C14 16.4477 14.4477 16 15 16H16ZM12.5 17C12.7761 17 13 17.2239 13 17.5C13 17.7761 12.7761 18 12.5 18H7.5C7.22386 18 7 17.7761 7 17.5C7 17.2239 7.22386 17 7.5 17H12.5ZM15 18H16V17H15V18ZM16 12C16.5523 12 17 12.4477 17 13V14C17 14.5523 16.5523 15 16 15H15C14.4477 15 14 14.5523 14 14V13C14 12.4477 14.4477 12 15 12H16ZM12.5 13C12.7761 13 13 13.2239 13 13.5C13 13.7761 12.7761 14 12.5 14H7.5C7.22386 14 7 13.7761 7 13.5C7 13.2239 7.22386 13 7.5 13H12.5ZM15 14H16V13H15V14ZM16 8C16.5523 8 17 8.44772 17 9V10C17 10.5523 16.5523 11 16 11H15C14.4477 11 14 10.5523 14 10V9C14 8.44772 14.4477 8 15 8H16ZM12.5 9C12.7761 9 13 9.22386 13 9.5C13 9.77614 12.7761 10 12.5 10H7.5C7.22386 10 7 9.77614 7 9.5C7 9.22386 7.22386 9 7.5 9H12.5ZM15 10H16V9H15V10ZM10 2.5C9.17157 2.5 8.5 3.17157 8.5 4V5.5H15.5V4C15.5 3.17157 14.8284 2.5 14 2.5H10Z" fill="currentColor"/>
</svg>
