<svg viewBox="0 0 24 24" fill="currentColor" xmlns="http://www.w3.org/2000/svg">
<path fill-rule="evenodd" clip-rule="evenodd" d="M13.7877 15.8877C12.6959 16.5916 11.3956 17 10 17C6.13401 17 3 13.866 3 10C3 6.13401 6.13401 3 10 3C13.866 3 17 6.13401 17 10C17 11.3846 16.598 12.6753 15.9044 13.7617L20.5817 18.4391C21.1675 19.0249 21.1675 19.9746 20.5817 20.5604C19.996 21.1462 19.0462 21.1462 18.4604 20.5604L13.7877 15.8877ZM15 10C15 12.7614 12.7614 15 10 15C7.23858 15 5 12.7614 5 10C5 7.23858 7.23858 5 10 5C12.7614 5 15 7.23858 15 10Z" fill="currentColor"/>
</svg>
