<svg viewBox="0 0 24 24" fill="currentColor" xmlns="http://www.w3.org/2000/svg">
<path d="M9.93021 8.27148C8.93873 8.53634 8.02244 8.98533 7.2222 9.58203L5.22122 6.11426C4.79079 5.36873 4.88542 4.43121 5.45658 3.78711L6.59818 2.5L9.93021 8.27148Z" fill="currentColor"/>
<path d="M18.5435 3.78711C19.1147 4.43121 19.2093 5.36873 18.7788 6.11426L16.7759 9.58105C15.9758 8.9848 15.06 8.53613 14.0689 8.27148L17.4019 2.5L18.5435 3.78711Z" fill="currentColor"/>
<path d="M14.8033 5H9.19583L7.46341 2H16.5357L14.8033 5Z" fill="currentColor"/>
<path fill-rule="evenodd" clip-rule="evenodd" d="M12 23C8.134 23 5 19.866 5 16C5 12.134 8.134 9 12 9C15.866 9 19 12.134 19 16C19 19.866 15.866 23 12 23ZM12 11C14.7614 11 17 13.2386 17 16C17 18.7614 14.7614 21 12 21C9.23857 21 7 18.7614 7 16C7 13.2386 9.23857 11 12 11Z" fill="currentColor"/>
<path d="M11.528 12.8588C11.6837 12.411 12.3167 12.411 12.4724 12.8588L13.0583 14.5434L14.8415 14.5805C15.3155 14.5901 15.5113 15.1925 15.1335 15.4789L13.7116 16.5561L14.2282 18.2641C14.3567 18.6892 13.9151 19.0429 13.5388 18.8627L13.4646 18.8188L11.9997 17.8002L10.5358 18.8188L10.4616 18.8627C10.0853 19.0432 9.64285 18.6893 9.77119 18.2641L10.2878 16.5561L8.8669 15.4789C8.48926 15.1926 8.6843 14.5905 9.15791 14.5805L10.9421 14.5434L11.528 12.8588Z" fill="currentColor"/>
</svg>
