<svg viewBox="0 0 24 24" fill="currentColor" xmlns="http://www.w3.org/2000/svg">
<path d="M9.93022 8.27148C8.93874 8.53634 8.02246 8.98533 7.22222 9.58203L5.22124 6.11426C4.79081 5.36873 4.88544 4.43121 5.45659 3.78711L6.59819 2.5L9.93022 8.27148Z" fill="currentColor"/>
<path d="M18.5435 3.78711C19.1147 4.43121 19.2093 5.36873 18.7789 6.11426L16.7759 9.58105C15.9759 8.9848 15.06 8.53613 14.0689 8.27148L17.4019 2.5L18.5435 3.78711Z" fill="currentColor"/>
<path d="M14.8033 5H9.19585L7.46343 2H16.5357L14.8033 5Z" fill="currentColor"/>
<path fill-rule="evenodd" clip-rule="evenodd" d="M12 23C8.13402 23 5.00001 19.866 5.00001 16C5.00001 12.134 8.13402 9 12 9C15.866 9 19 12.134 19 16C19 19.866 15.866 23 12 23ZM12 11C14.7614 11 17 13.2386 17 16C17 18.7614 14.7614 21 12 21C9.23859 21 7.00001 18.7614 7.00001 16C7.00001 13.2386 9.23859 11 12 11Z" fill="currentColor"/>
<path d="M11.5277 12.8587C11.6834 12.4109 12.3166 12.4109 12.4723 12.8587L13.058 14.5438L14.8416 14.5801C15.3156 14.5898 15.5113 15.192 15.1335 15.4784L13.7119 16.5562L14.2285 18.2638C14.3658 18.7175 13.8535 19.0897 13.4643 18.819L12 17.8L10.5357 18.819C10.1466 19.0897 9.63424 18.7175 9.77152 18.2638L10.2881 16.5562L8.86651 15.4784C8.48874 15.192 8.68443 14.5898 9.1584 14.5801L10.942 14.5438L11.5277 12.8587Z" fill="currentColor"/>
</svg>
