<svg viewBox="0 0 24 24" fill="currentColor" xmlns="http://www.w3.org/2000/svg">
<path d="M3 6C3 5.17157 3.67157 4.5 4.5 4.5H19.5C20.3284 4.5 21 5.17157 21 6C21 6.82843 20.3284 7.5 19.5 7.5H4.5C3.67157 7.5 3 6.82843 3 6Z" fill="currentColor"/>
<path d="M3 12C3 11.1716 3.67157 10.5 4.5 10.5H19.5C20.3284 10.5 21 11.1716 21 12C21 12.8284 20.3284 13.5 19.5 13.5H4.5C3.67157 13.5 3 12.8284 3 12Z" fill="currentColor"/>
<path d="M3 18C3 17.1716 3.67157 16.5 4.5 16.5H19.5C20.3284 16.5 21 17.1716 21 18C21 18.8284 20.3284 19.5 19.5 19.5H4.5C3.67157 19.5 3 18.8284 3 18Z" fill="currentColor"/>
</svg>
