<svg viewBox="0 0 24 24" fill="currentColor" xmlns="http://www.w3.org/2000/svg">
<path d="M16.2422 6.34277C16.6327 5.95225 17.2667 5.95225 17.6572 6.34277C18.0475 6.73316 18.0473 7.3663 17.6572 7.75684L13.4141 11.999L17.6572 16.2422C18.0477 16.6327 18.0477 17.2667 17.6572 17.6572C17.2667 18.0477 16.6327 18.0477 16.2422 17.6572L11.999 13.4141L7.75684 17.6572C7.3663 18.0473 6.73315 18.0475 6.34277 17.6572C5.95225 17.2667 5.95225 16.6327 6.34277 16.2422L10.585 11.999L6.34277 7.75684C5.95262 7.36628 5.95237 6.73317 6.34277 6.34277C6.73317 5.95238 7.36628 5.95262 7.75684 6.34277L11.999 10.585L16.2422 6.34277Z" fill="currentColor"/>
</svg>
