<svg viewBox="0 0 24 24" fill="currentColor" xmlns="http://www.w3.org/2000/svg">
<path d="M16.2423 6.34285C16.6328 5.95232 17.2668 5.95232 17.6573 6.34285C18.0476 6.73323 18.0474 7.36638 17.6573 7.75691L13.4141 11.9991L17.6573 16.2423C18.0478 16.6328 18.0478 17.2668 17.6573 17.6573C17.2668 18.0478 16.6328 18.0478 16.2423 17.6573L11.9991 13.4141L7.75691 17.6573C7.36638 18.0474 6.73323 18.0476 6.34285 17.6573C5.95233 17.2668 5.95233 16.6328 6.34285 16.2423L10.585 11.9991L6.34285 7.75691C5.9527 7.36636 5.95245 6.73325 6.34285 6.34285C6.73325 5.95245 7.36636 5.9527 7.75691 6.34285L11.9991 10.585L16.2423 6.34285Z" fill="currentColor"/>
</svg>
