<svg viewBox="0 0 24 24" fill="currentColor" xmlns="http://www.w3.org/2000/svg">
<path fill-rule="evenodd" clip-rule="evenodd" d="M19.4324 2.11645C20.9901 1.65447 22.4534 3.18487 21.861 4.7467L15.7995 20.727C15.1686 22.3901 12.8713 22.447 12.1293 20.8907L12.0623 20.7353L9.62612 14.4017L3.29254 11.9655C1.57895 11.3065 1.58427 8.87959 3.30083 8.22837L19.2812 2.16686L19.4324 2.11645ZM10.3443 12.5345L4.0107 10.0983L18.8518 4.46895L10.6421 12.6787C10.6077 12.6584 10.5726 12.6391 10.5369 12.6209L10.3443 12.5345ZM13.9295 20.0172L11.4933 13.6836C11.4534 13.5797 11.4051 13.4801 11.3494 13.3856L19.5589 5.17606L13.9295 20.0172Z" fill="currentColor"/>
</svg>
