<svg viewBox="0 0 24 24" fill="currentColor" xmlns="http://www.w3.org/2000/svg">
<path fill-rule="evenodd" clip-rule="evenodd" d="M6.5 4H8C9.65685 4 11 5.34315 11 7V17C11 18.6569 9.65685 20 8 20H6.5C4.84315 20 3.5 18.6569 3.5 17V7C3.5 5.34314 4.84315 4 6.5 4ZM6.5 6C5.94772 6 5.5 6.44772 5.5 7V17C5.5 17.5523 5.94772 18 6.5 18H8C8.55228 18 9 17.5523 9 17V7C9 6.44772 8.55228 6 8 6H6.5Z" fill="currentColor"/>
<path fill-rule="evenodd" clip-rule="evenodd" d="M16 4H17.5C19.1569 4 20.5 5.34315 20.5 7V17C20.5 18.6569 19.1569 20 17.5 20H16C14.3431 20 13 18.6569 13 17V7C13 5.34314 14.3431 4 16 4ZM16 6C15.4477 6 15 6.44772 15 7V17C15 17.5523 15.4477 18 16 18H17.5C18.0523 18 18.5 17.5523 18.5 17V7C18.5 6.44772 18.0523 6 17.5 6H16Z" fill="currentColor"/>
</svg>
