<svg viewBox="0 0 24 24" fill="currentColor" xmlns="http://www.w3.org/2000/svg">
<rect fill="currentColor"/>
<path fill-rule="evenodd" clip-rule="evenodd" d="M13.5269 3.60529C14.3553 2.17042 16.1901 1.67879 17.625 2.50722C19.0599 3.33565 19.5515 5.17042 18.7231 6.60529L11.8951 18.4316C11.8125 18.5747 11.7024 18.7 11.5711 18.8002L7.95809 21.558C7.0753 22.2319 5.81775 21.5059 5.95993 20.4044L6.54181 15.8966C6.56296 15.7327 6.61639 15.5747 6.69899 15.4316L13.5269 3.60529ZM15.259 4.60529C15.5351 4.127 16.1467 3.96313 16.625 4.23927C17.1033 4.51541 17.2671 5.127 16.991 5.60529L16.491 6.47132L14.759 5.47132L15.259 4.60529ZM8.50896 16.2966L8.50613 16.3015L8.17363 18.8774L10.2382 17.3015L10.241 17.2966L8.50896 16.2966ZM9.00896 15.4306L14.259 6.33734L15.991 7.33734L10.741 16.4306L9.00896 15.4306Z" fill="currentColor"/>
</svg>
