<svg viewBox="0 0 24 24" fill="currentColor" xmlns="http://www.w3.org/2000/svg">
<path fill-rule="evenodd" clip-rule="evenodd" d="M13.5269 3.60528C14.3553 2.17041 16.1901 1.67878 17.625 2.50721C19.0599 3.33563 19.5515 5.1704 18.7231 6.60528L11.8952 18.4316C11.8125 18.5747 11.7024 18.6999 11.5711 18.8002L7.9581 21.558C7.07531 22.2319 5.81776 21.5059 5.95994 20.4044L6.54182 15.8966C6.56297 15.7327 6.6164 15.5747 6.699 15.4316L13.5269 3.60528ZM15.259 4.60528C15.5351 4.12699 16.1467 3.96312 16.625 4.23926C17.1033 4.5154 17.2672 5.12699 16.991 5.60528L16.491 6.47131L14.759 5.47131L15.259 4.60528ZM8.50897 16.2966L8.50614 16.3015L8.17364 18.8774L10.2382 17.3015L10.241 17.2966L8.50897 16.2966ZM9.00897 15.4306L14.259 6.33733L15.991 7.33733L10.741 16.4306L9.00897 15.4306Z" fill="currentColor"/>
</svg>
