<svg viewBox="0 0 24 24" fill="currentColor" xmlns="http://www.w3.org/2000/svg">
<path fill-rule="evenodd" clip-rule="evenodd" d="M16 13C17.6569 13 19 14.4551 19 16.25C19 18.0449 17.6569 19.5 16 19.5C14.3431 19.5 13 18.0449 13 16.25C13 14.4551 14.3431 13 16 13ZM16 15C15.5954 15 15 15.4059 15 16.25C15 17.0941 15.5954 17.5 16 17.5C16.4046 17.5 17 17.0941 17 16.25C17 15.4059 16.4046 15 16 15Z" fill="currentColor"/>
<path d="M15.8887 6.69629C16.2792 6.30577 16.9132 6.30577 17.3037 6.69629C17.6942 7.08681 17.6942 7.7208 17.3037 8.11133L8.11133 17.3037C7.7208 17.6942 7.08681 17.6942 6.69629 17.3037C6.30577 16.9132 6.30577 16.2792 6.69629 15.8887L15.8887 6.69629Z" fill="currentColor"/>
<path fill-rule="evenodd" clip-rule="evenodd" d="M8 4.5C9.65685 4.5 11 5.95507 11 7.75C11 9.54493 9.65685 11 8 11C6.34315 11 5 9.54493 5 7.75C5 5.95507 6.34315 4.5 8 4.5ZM8 6.5C7.59543 6.5 7 6.9059 7 7.75C7 8.5941 7.59543 9 8 9C8.40457 9 9 8.5941 9 7.75C9 6.9059 8.40457 6.5 8 6.5Z" fill="currentColor"/>
</svg>
