<svg viewBox="0 0 24 24" fill="currentColor" xmlns="http://www.w3.org/2000/svg">
<path fill-rule="evenodd" clip-rule="evenodd" d="M12 22C6.47715 22 2 17.5228 2 12C2 6.47715 6.47715 2 12 2C17.5228 2 22 6.47715 22 12C22 17.5228 17.5228 22 12 22ZM12 20C7.58172 20 4 16.4183 4 12C4 7.74965 7.31463 4.27347 11.5 4.01537V12C11.5 12.1326 11.5527 12.2597 11.6465 12.3535L17.2923 17.9994C15.882 19.2445 14.0292 20 12 20ZM12.5 11.2783V4.01537C15.5374 4.20268 18.1163 6.08489 19.3024 8.72788L12.5 11.2783ZM19.6535 9.66365C19.8788 10.4027 20 11.1872 20 12C20 14.0292 19.2445 15.882 17.9994 17.2923L12.9023 12.1953L19.6535 9.66365Z" fill="currentColor"/>
</svg>
