<svg viewBox="0 0 24 24" fill="currentColor" xmlns="http://www.w3.org/2000/svg">
<path d="M4.75 6.25H6.25V4.75H4.75V6.25ZM7.75 6.5C7.75 7.19036 7.19036 7.75 6.5 7.75H4.5C3.80964 7.75 3.25 7.19036 3.25 6.5V4.5C3.25 3.80965 3.80964 3.25 4.5 3.25H6.5C7.19036 3.25 7.75 3.80965 7.75 4.5V6.5Z" fill="currentColor"/>
<path d="M4.27526 12.7071L6.20711 13.2247L6.72475 11.2929L4.79289 10.7753L4.27526 12.7071ZM8.07425 13.9839C7.82411 14.9174 6.86452 15.4714 5.93095 15.2213L3.51614 14.5743C2.58257 14.3241 2.02855 13.3645 2.2787 12.431L2.92575 10.0161C3.1759 9.08257 4.13549 8.52855 5.06905 8.7787L7.48387 9.42575C8.41743 9.67589 8.97145 10.6355 8.7213 11.569L8.07425 13.9839Z" fill="currentColor"/>
<path d="M4.75 19.25H6.25V17.75H4.75V19.25ZM7.75 19.5C7.75 20.1904 7.19036 20.75 6.5 20.75H4.5C3.80964 20.75 3.25 20.1904 3.25 19.5V17.5C3.25 16.8097 3.80964 16.25 4.5 16.25H6.5C7.19036 16.25 7.75 16.8096 7.75 17.5V19.5Z" fill="currentColor"/>
<path d="M11.25 12.75H12.75V11.25H11.25V12.75ZM14.25 13C14.25 13.6904 13.6904 14.25 13 14.25H11C10.3096 14.25 9.75 13.6904 9.75 13V11C9.75 10.3096 10.3096 9.75 11 9.75H13C13.6904 9.75 14.25 10.3096 14.25 11V13Z" fill="currentColor"/>
<path d="M17.75 6.25H19.25V4.75H17.75V6.25ZM20.75 6.5C20.75 7.19036 20.1904 7.75 19.5 7.75H17.5C16.8096 7.75 16.25 7.19036 16.25 6.5V4.5C16.25 3.80965 16.8096 3.25 17.5 3.25H19.5C20.1904 3.25 20.75 3.80965 20.75 4.5V6.5Z" fill="currentColor"/>
<path d="M17.2753 12.7071L19.2071 13.2247L19.7247 11.2929L17.7929 10.7753L17.2753 12.7071ZM21.0743 13.9839C20.8241 14.9174 19.8645 15.4714 18.931 15.2213L16.5161 14.5743C15.5826 14.3241 15.0286 13.3645 15.2787 12.431L15.9257 10.0161C16.1759 9.08257 17.1355 8.52855 18.069 8.7787L20.4839 9.42575C21.4174 9.67589 21.9715 10.6355 21.7213 11.569L21.0743 13.9839Z" fill="currentColor"/>
<path d="M17.75 19.25H19.25V17.75H17.75V19.25ZM20.75 19.5C20.75 20.1904 20.1904 20.75 19.5 20.75H17.5C16.8096 20.75 16.25 20.1904 16.25 19.5V17.5C16.25 16.8097 16.8096 16.25 17.5 16.25H19.5C20.1904 16.25 20.75 16.8096 20.75 17.5V19.5Z" fill="currentColor"/>
<path d="M10.7752 19.2071L12.7071 19.7247L13.2247 17.7929L11.2929 17.2753L10.7752 19.2071ZM14.5742 20.4839C14.3241 21.4174 13.3645 21.9714 12.4309 21.7213L10.0161 21.0743C9.08256 20.8241 8.52854 19.8645 8.77869 18.9309L9.42573 16.5161C9.67588 15.5826 10.6355 15.0286 11.569 15.2787L13.9839 15.9257C14.9174 16.1759 15.4714 17.1355 15.2213 18.069L14.5742 20.4839Z" fill="currentColor"/>
<path d="M10.7752 6.20711L12.7071 6.72474L13.2247 4.79289L11.2929 4.27525L10.7752 6.20711ZM14.5742 7.48386C14.3241 8.41743 13.3645 8.97145 12.4309 8.7213L10.0161 8.07425C9.08256 7.8241 8.52854 6.86452 8.77869 5.93095L9.42573 3.51614C9.67588 2.58257 10.6355 2.02855 11.569 2.2787L13.9839 2.92575C14.9174 3.17589 15.4714 4.13548 15.2213 5.06905L14.5742 7.48386Z" fill="currentColor"/>
</svg>
