<svg viewBox="0 0 24 24" fill="currentColor" xmlns="http://www.w3.org/2000/svg">
<path d="M13 16C14.1046 16 15 16.8954 15 18V20C15 21.1046 14.1046 22 13 22H11C9.89542 22 8.99999 21.1046 8.99999 20V18C8.99999 16.8954 9.89542 16 11 16H13ZM5.99999 12.5L6.20409 12.5107C7.21277 12.613 7.99999 13.4643 7.99999 14.5V16.5C7.99999 17.6046 7.10456 18.5 5.99999 18.5H3.99999C2.89542 18.5 1.99999 17.6046 1.99999 16.5V14.5C1.99999 13.3954 2.89542 12.5 3.99999 12.5H5.99999ZM20 12.5C21.1046 12.5 22 13.3954 22 14.5V16.5C22 17.6046 21.1046 18.5 20 18.5H18C16.8954 18.5 16 17.6046 16 16.5V14.5C16 13.3954 16.8954 12.5 18 12.5H20ZM13 9C14.1046 9 15 9.89543 15 11V13C15 14.1046 14.1046 15 13 15H11C9.89542 15 8.99999 14.1046 8.99999 13V11C8.99999 9.89543 9.89542 9 11 9H13ZM5.99999 5.5L6.20409 5.51074C7.21277 5.613 7.99999 6.46435 7.99999 7.5V9.5C7.99999 10.6046 7.10456 11.5 5.99999 11.5H3.99999C2.89542 11.5 1.99999 10.6046 1.99999 9.5V7.5C1.99999 6.39543 2.89542 5.5 3.99999 5.5H5.99999ZM20 5.5C21.1046 5.5 22 6.39543 22 7.5V9.5C22 10.6046 21.1046 11.5 20 11.5H18C16.8954 11.5 16 10.6046 16 9.5V7.5C16 6.39543 16.8954 5.5 18 5.5H20ZM13 2C14.1046 2 15 2.89543 15 4V6L14.9893 6.2041C14.887 7.21278 14.0356 8 13 8H11C9.89542 8 8.99999 7.10457 8.99999 6V4C8.99999 2.89543 9.89542 2 11 2H13ZM11 20H13V18H11V20ZM3.99999 16.5H5.99999V14.5H3.99999V16.5ZM18 16.5H20V14.5H18V16.5ZM11 13H13V11H11V13ZM3.99999 9.5H5.99999V7.5H3.99999V9.5ZM18 9.5H20V7.5H18V9.5ZM11 6H13V4H11V6Z" fill="currentColor"/>
</svg>
