<svg viewBox="0 0 24 24" fill="currentColor" xmlns="http://www.w3.org/2000/svg">
<path fill-rule="evenodd" clip-rule="evenodd" d="M16.7046 3.01074C17.713 3.11322 18.5005 3.96451 18.5005 5V6.5H19.5005C21.1571 6.50025 22.5005 7.8433 22.5005 9.5V11.4561C22.5005 12.6672 21.9519 13.8088 21.0171 14.5654L20.8257 14.7109L18.5005 16.3711V18C18.5005 19.6567 17.1571 20.9998 15.5005 21H7.00046C5.34361 21 4.00046 19.6569 4.00046 18V8.47168C4.00041 8.35557 3.98018 8.24047 3.94089 8.13184L3.89499 8.02539L2.2866 4.80859C1.87153 3.97763 2.47583 3.00015 3.40476 3H16.5005L16.7046 3.01074ZM6.00046 8.5V18C6.00046 18.5523 6.44818 19 7.00046 19H15.5005C16.0525 18.9997 16.5005 18.5521 16.5005 18V8.5H6.00046ZM18.5005 13.9141L19.6626 13.084L19.8501 12.9326C20.2617 12.5563 20.5005 12.0211 20.5005 11.4561V9.5C20.5005 8.94787 20.0525 8.50025 19.5005 8.5H18.5005V13.9141ZM5.68406 7.13086C5.74385 7.25051 5.79427 7.37415 5.83738 7.5H16.5005V5H4.61863L5.68406 7.13086Z" fill="currentColor"/>
</svg>
