<svg viewBox="0 0 24 24" fill="currentColor" xmlns="http://www.w3.org/2000/svg">
<path d="M13 9.5C13 9.22386 13.2239 9 13.5 9H14C14.2761 9 14.5 9.22386 14.5 9.5C14.5 9.77614 14.2761 10 14 10H13.5C13.2239 10 13 9.77614 13 9.5Z" fill="currentColor"/>
<path d="M13 13.5C13 13.2239 13.2239 13 13.5 13H14C14.2761 13 14.5 13.2239 14.5 13.5C14.5 13.7761 14.2761 14 14 14H13.5C13.2239 14 13 13.7761 13 13.5Z" fill="currentColor"/>
<path d="M12 7.5C12 7.22386 12.2239 7 12.5 7H14C14.2761 7 14.5 7.22386 14.5 7.5C14.5 7.77614 14.2761 8 14 8H12.5C12.2239 8 12 7.77614 12 7.5Z" fill="currentColor"/>
<path d="M12 11.5C12 11.2239 12.2239 11 12.5 11H14C14.2761 11 14.5 11.2239 14.5 11.5C14.5 11.7761 14.2761 12 14 12H12.5C12.2239 12 12 11.7761 12 11.5Z" fill="currentColor"/>
<path fill-rule="evenodd" clip-rule="evenodd" d="M18.5 18C18.5 19.6569 17.1569 21 15.5 21H7C5.34315 21 4 19.6569 4 18V8.47168C3.99993 8.31675 3.96376 8.164 3.89453 8.02539L2.8291 5.89453C2.1642 4.56473 3.1314 3 4.61817 3H16.5C17.6046 3 18.5 3.89543 18.5 5L18.5 6.5H19.5C21.1569 6.5 22.5 7.84315 22.5 9.5V11.4561C22.5 12.6673 21.9516 13.8088 21.0166 14.5654L20.8252 14.7109L18.5 16.3715V18ZM5.68359 7.13086L4.61817 5H16.5V15H6V8.47168C5.99993 8.00626 5.89167 7.54718 5.68359 7.13086ZM7 19C6.44772 19 6 18.5523 6 18V16H16.5V18C16.5 18.5523 16.0523 19 15.5 19H7ZM20.5 9.5V11.4561C20.5 12.0212 20.2614 12.5563 19.8496 12.9326L19.6621 13.084L18.5 13.9142L18.5 8.5H19.5C20.0523 8.5 20.5 8.94772 20.5 9.5Z" fill="currentColor"/>
</svg>
