<svg viewBox="0 0 24 24" fill="currentColor" xmlns="http://www.w3.org/2000/svg">
<path fill-rule="evenodd" clip-rule="evenodd" d="M12 2C17.5228 2 22 6.47715 22 12C22 17.5228 17.5228 22 12 22C6.47715 22 2 17.5228 2 12C2 6.47715 6.47715 2 12 2ZM12 6.25C11.4477 6.25 11 6.69772 11 7.25V11H7.25C6.69772 11 6.25 11.4477 6.25 12C6.25 12.5523 6.69772 13 7.25 13H11V16.75C11 17.3023 11.4477 17.75 12 17.75C12.5523 17.75 13 17.3023 13 16.75V13H16.75C17.3023 13 17.75 12.5523 17.75 12C17.75 11.4477 17.3023 11 16.75 11H13V7.25C13 6.69772 12.5523 6.25 12 6.25Z" fill="currentColor"/>
</svg>
