<svg viewBox="0 0 24 24" fill="currentColor" xmlns="http://www.w3.org/2000/svg">
<path fill-rule="evenodd" clip-rule="evenodd" d="M10 21C12.7614 21 15 18.7614 15 16C15 13.2386 12.7614 11 10 11C7.23858 11 5 13.2386 5 16C5 18.7614 7.23858 21 10 21ZM10 23C13.866 23 17 19.866 17 16C17 12.134 13.866 9 10 9C6.13401 9 3 12.134 3 16C3 19.866 6.13401 23 10 23Z" fill="currentColor"/>
<path d="M9 15C9 15.5523 8.55228 16 8 16C7.44772 16 7 15.5523 7 15C7 14.4477 7.44772 14 8 14C8.55228 14 9 14.4477 9 15Z" fill="currentColor"/>
<path d="M13 15C13 15.5523 12.5523 16 12 16C11.4477 16 11 15.5523 11 15C11 14.4477 11.4477 14 12 14C12.5523 14 13 14.4477 13 15Z" fill="currentColor"/>
<path fill-rule="evenodd" clip-rule="evenodd" d="M7.5 18C7.5 17.7239 7.72386 17.5 8 17.5H12C12.2761 17.5 12.5 17.7239 12.5 18C12.5 18.2761 12.2761 18.5 12 18.5H8C7.72386 18.5 7.5 18.2761 7.5 18Z" fill="currentColor"/>
<path d="M19.25 10.25C19.25 10.9404 18.6904 11.5 18 11.5C17.3096 11.5 16.75 10.9404 16.75 10.25C16.75 9.55964 17.3096 9 18 9C18.6904 9 19.25 9.55964 19.25 10.25Z" fill="currentColor"/>
<path fill-rule="evenodd" clip-rule="evenodd" d="M18 3C17.3149 3 17 3.45171 17 3.75C17 4.30228 16.5523 4.75 16 4.75C15.4477 4.75 15 4.30228 15 3.75C15 2.09905 16.4759 1 18 1C19.5241 1 21 2.09905 21 3.75C21 4.55425 20.664 5.30487 20.0357 5.8222C20.0209 5.83436 20.0063 5.84639 19.9918 5.85831C19.6677 6.12512 19.4133 6.33446 19.2225 6.55918C19.0341 6.78101 19 6.91416 19 7C19 7.55228 18.5523 8 18 8C17.4477 8 17 7.55228 17 7C17 6.25742 17.3461 5.67898 17.6979 5.26468C18.0105 4.89657 18.3992 4.57782 18.6885 4.34056C18.7147 4.31912 18.74 4.29834 18.7644 4.27826C18.9109 4.15761 19 3.98345 19 3.75C19 3.45171 18.6851 3 18 3Z" fill="currentColor"/>
</svg>
