<svg viewBox="0 0 24 24" fill="currentColor" xmlns="http://www.w3.org/2000/svg">
<path d="M13.5 19.5C13.5 20.3284 12.8284 21 12 21C11.1716 21 10.5 20.3284 10.5 19.5C10.5 18.6716 11.1716 18 12 18C12.8284 18 13.5 18.6716 13.5 19.5Z" fill="currentColor"/>
<path fill-rule="evenodd" clip-rule="evenodd" d="M11.9444 5C9.91142 5 8.5 6.29828 8.5 8C8.5 8.55228 8.05228 9 7.5 9C6.94772 9 6.5 8.55228 6.5 8C6.5 4.94928 9.06827 3 11.9444 3C14.8206 3 17.3889 4.94928 17.3889 8C17.3889 9.67859 16.5876 11.0738 15.3504 11.9562C14.689 12.428 14.0685 12.9188 13.6155 13.4555C13.1682 13.9855 12.9444 14.4885 12.9444 15C12.9444 15.5523 12.4967 16 11.9444 16C11.3922 16 10.9444 15.5523 10.9444 15C10.9444 13.8546 11.4589 12.9098 12.0871 12.1655C12.7095 11.428 13.5016 10.8183 14.1891 10.328C14.9297 9.79972 15.3889 8.9966 15.3889 8C15.3889 6.29828 13.9775 5 11.9444 5Z" fill="currentColor"/>
</svg>
