<svg viewBox="0 0 24 24" fill="currentColor" xmlns="http://www.w3.org/2000/svg">
<path fill-rule="evenodd" clip-rule="evenodd" d="M18.5 13C20.9853 13 23 15.0147 23 17.5C23 19.9853 20.9853 22 18.5 22C16.0147 22 14 19.9853 14 17.5C14 15.0147 16.0147 13 18.5 13ZM20.6221 15.9824C20.4268 15.7872 20.1103 15.7872 19.915 15.9824L17.793 18.1045L17.085 17.3965C16.8897 17.2012 16.5732 17.2013 16.3779 17.3965C16.1827 17.5917 16.1827 17.9083 16.3779 18.1035L17.4385 19.1641C17.5364 19.262 17.6647 19.3098 17.793 19.3096C17.9212 19.3098 18.0496 19.2619 18.1475 19.1641L20.6221 16.6895C20.8173 16.4942 20.8173 16.1777 20.6221 15.9824Z" fill="currentColor"/>
<path d="M3.76777 19.2678C3.5725 19.0725 3.5725 18.7559 3.76777 18.5607L4.82843 17.5L3.76777 16.4393C3.5725 16.2441 3.5725 15.9275 3.76777 15.7322C3.96303 15.537 4.27961 15.537 4.47487 15.7322L5.53553 16.7929L6.59619 15.7322C6.79146 15.537 7.10804 15.537 7.3033 15.7322C7.49856 15.9275 7.49856 16.2441 7.3033 16.4393L6.24264 17.5L7.3033 18.5607C7.49856 18.7559 7.49856 19.0725 7.3033 19.2678C7.10804 19.463 6.79146 19.463 6.59619 19.2678L5.53553 18.2071L4.47487 19.2678C4.27961 19.463 3.96303 19.463 3.76777 19.2678Z" fill="currentColor"/>
<path fill-rule="evenodd" clip-rule="evenodd" d="M5.5 22C3.01472 22 1 19.9853 1 17.5C1 15.0147 3.01472 13 5.5 13C7.98528 13 10 15.0147 10 17.5C10 19.9853 7.98528 22 5.5 22ZM5.5 14C7.433 14 9 15.567 9 17.5C9 19.433 7.433 21 5.5 21C3.567 21 2 19.433 2 17.5C2 15.567 3.567 14 5.5 14Z" fill="currentColor"/>
<path d="M13.208 16C13.0731 16.4769 13 16.9799 13 17.5C13 17.6686 13.0086 17.8353 13.0234 18H10.9766C10.9914 17.8353 11 17.6686 11 17.5C11 16.9799 10.9269 16.4769 10.792 16H13.208Z" fill="currentColor"/>
<path d="M16 2C18.2091 2 20 3.79086 20 6V12.208C19.5231 12.0731 19.0201 12 18.5 12C18.3314 12 18.1647 12.0086 18 12.0234V6C18 4.89543 17.1046 4 16 4H8C6.89543 4 6 4.89543 6 6V12.0234C5.83529 12.0086 5.66858 12 5.5 12C4.9799 12 4.47691 12.0731 4 12.208V6C4 3.79086 5.79086 2 8 2H16Z" fill="currentColor"/>
<path d="M12.75 13C12.75 13.4142 12.4142 13.75 12 13.75C11.5858 13.75 11.25 13.4142 11.25 13C11.25 12.5858 11.5858 12.25 12 12.25C12.4142 12.25 12.75 12.5858 12.75 13Z" fill="currentColor"/>
<path d="M11.5 11V10.75C11.5 9.8973 12.2104 9.34758 12.7363 9.07812L12.916 8.96973C13.3073 8.6951 13.5 8.28238 13.5 8C13.5 7.63078 13.3648 7.33116 13.1328 7.12012C12.8978 6.90645 12.5252 6.75 12 6.75C11.4748 6.75 11.1022 6.90645 10.8672 7.12012C10.6352 7.33116 10.5 7.63078 10.5 8C10.5 8.27614 10.2761 8.5 10 8.5C9.72386 8.5 9.5 8.27614 9.5 8C9.5 7.36937 9.73998 6.79382 10.1953 6.37988C10.6478 5.96872 11.2753 5.75 12 5.75C12.7247 5.75 13.3522 5.96872 13.8047 6.37988C14.26 6.79382 14.5 7.36937 14.5 8C14.5 8.69118 14.0624 9.4516 13.3408 9.88574L13.1924 9.96875C12.7354 10.2029 12.5 10.4982 12.5 10.75V11C12.5 11.2761 12.2761 11.5 12 11.5C11.7239 11.5 11.5 11.2761 11.5 11Z" fill="currentColor"/>
</svg>
