<svg viewBox="0 0 24 24" fill="currentColor" xmlns="http://www.w3.org/2000/svg">
<path fill-rule="evenodd" clip-rule="evenodd" d="M12 22C6.47715 22 2 17.5228 2 12C2 6.47715 6.47715 2 12 2C17.5228 2 22 6.47715 22 12C22 17.5228 17.5228 22 12 22ZM12 4C16.4183 4 20 7.58172 20 12C20 16.4183 16.4183 20 12 20C7.58172 20 4 16.4183 4 12C4 7.58172 7.58172 4 12 4Z" fill="currentColor"/>
<path fill-rule="evenodd" clip-rule="evenodd" d="M12 18C15.3137 18 18 15.3137 18 12C18 8.68629 15.3137 6 12 6C8.68629 6 6 8.68629 6 12C6 15.3137 8.68629 18 12 18ZM15.9017 9.23744C15.5111 8.84691 14.878 8.84691 14.4874 9.23744L10.9519 12.773L9.71447 11.5355C9.32394 11.145 8.69078 11.145 8.30025 11.5355C7.90973 11.9261 7.90973 12.5592 8.30025 12.9497L10.2448 14.8943C10.6353 15.2848 11.2685 15.2848 11.659 14.8943L15.9017 10.6517C16.2922 10.2611 16.2922 9.62796 15.9017 9.23744Z" fill="currentColor"/>
</svg>
