<svg viewBox="0 0 24 24" fill="currentColor" xmlns="http://www.w3.org/2000/svg">
<path fill-rule="evenodd" clip-rule="evenodd" d="M12 22C6.47715 22 2 17.5228 2 12C2 6.47715 6.47715 2 12 2C17.5228 2 22 6.47715 22 12C22 17.5228 17.5228 22 12 22ZM12 4C16.4183 4 20 7.58172 20 12C20 16.4183 16.4183 20 12 20C7.58172 20 4 16.4183 4 12C4 7.58172 7.58172 4 12 4Z" fill="currentColor"/>
<path fill-rule="evenodd" clip-rule="evenodd" d="M12 19C15.866 19 19 15.866 19 12C19 8.13401 15.866 5 12 5C8.13401 5 5 8.13401 5 12C5 15.866 8.13401 19 12 19ZM16.432 9.01777C16.0415 8.62724 15.4083 8.62724 15.0178 9.01777L10.7751 13.2604L9.00736 11.4926C8.61684 11.1021 7.98367 11.1021 7.59315 11.4926C7.20262 11.8832 7.20262 12.5163 7.59315 12.9069L10.068 15.3817C10.4585 15.7723 11.0917 15.7723 11.4822 15.3817L16.432 10.432C16.8225 10.0415 16.8225 9.40829 16.432 9.01777Z" fill="currentColor"/>
</svg>
