<svg viewBox="0 0 24 24" fill="currentColor" xmlns="http://www.w3.org/2000/svg">
<path fill-rule="evenodd" clip-rule="evenodd" d="M12 22C6.47715 22 2 17.5228 2 12C2 6.47715 6.47715 2 12 2C17.5228 2 22 6.47715 22 12C22 17.5228 17.5228 22 12 22ZM12 4C16.4183 4 20 7.58172 20 12C20 16.4183 16.4183 20 12 20C7.58172 20 4 16.4183 4 12C4 7.58172 7.58172 4 12 4Z" fill="currentColor"/>
<path fill-rule="evenodd" clip-rule="evenodd" d="M12 18C15.3137 18 18 15.3137 18 12C18 11.1224 17.8116 10.2888 17.473 9.53743L12.1412 14.8692L12.0653 14.9382C11.6725 15.2584 11.0931 15.2352 10.727 14.8692L8.42893 12.5711C8.03841 12.1805 8.03841 11.5474 8.42893 11.1569C8.81946 10.7663 9.45262 10.7663 9.84315 11.1569L11.4341 12.7478L16.3327 7.84932C15.2405 6.70962 13.7031 6 12 6C8.68629 6 6 8.68629 6 12C6 15.3137 8.68629 18 12 18Z" fill="currentColor"/>
</svg>
