<svg viewBox="0 0 24 24" fill="currentColor" xmlns="http://www.w3.org/2000/svg">
<path d="M19.5 6.5C19.5 5.39543 18.6046 4.5 17.5 4.5H6.5C5.39543 4.5 4.5 5.39543 4.5 6.5V17.5C4.5 18.6046 5.39543 19.5 6.5 19.5H17.5C18.6046 19.5 19.5 18.6046 19.5 17.5V6.5ZM21.5 17.5C21.5 19.7091 19.7091 21.5 17.5 21.5H6.5C4.29086 21.5 2.5 19.7091 2.5 17.5V6.5C2.5 4.29086 4.29086 2.5 6.5 2.5H17.5C19.7091 2.5 21.5 4.29086 21.5 6.5V17.5Z" fill="currentColor"/>
<path d="M13.25 16C13.25 16.6904 12.6904 17.25 12 17.25C11.3096 17.25 10.75 16.6904 10.75 16C10.75 15.3096 11.3096 14.75 12 14.75C12.6904 14.75 13.25 15.3096 13.25 16Z" fill="currentColor"/>
<path d="M13.25 9.75C13.25 9.41487 13.1264 9.19581 12.9482 9.04492C12.7532 8.87992 12.4321 8.75 12 8.75C11.568 8.75 11.2468 8.87986 11.0518 9.04492C10.8735 9.19589 10.75 9.41505 10.75 9.75C10.75 10.3023 10.3023 10.75 9.75 10.75C9.19772 10.75 8.75 10.3023 8.75 9.75C8.75 8.83521 9.1258 8.0541 9.75977 7.51758C10.3771 6.99514 11.1818 6.75 12 6.75C12.8181 6.75 13.6228 6.99515 14.2402 7.51758C14.8742 8.0541 15.25 8.83516 15.25 9.75C15.25 10.817 14.5734 11.913 13.627 12.5137L13.4346 12.627C13.2664 12.7182 13.1361 12.8217 13.0596 12.9121C13.012 12.9683 13.0008 12.9991 12.999 13.0068C12.9953 13.556 12.55 14 12 14C11.4477 14 11 13.5523 11 13C11 11.8605 11.9295 11.1681 12.4805 10.8691L12.5693 10.8174C13.0014 10.5391 13.25 10.0433 13.25 9.75Z" fill="currentColor"/>
<path d="M7 6.5C7 6.77614 6.77614 7 6.5 7C6.22386 7 6 6.77614 6 6.5C6 6.22386 6.22386 6 6.5 6C6.77614 6 7 6.22386 7 6.5Z" fill="currentColor"/>
<path d="M7 17.5C7 17.7761 6.77614 18 6.5 18C6.22386 18 6 17.7761 6 17.5C6 17.2239 6.22386 17 6.5 17C6.77614 17 7 17.2239 7 17.5Z" fill="currentColor"/>
<path d="M18 6.5C18 6.77614 17.7761 7 17.5 7C17.2239 7 17 6.77614 17 6.5C17 6.22386 17.2239 6 17.5 6C17.7761 6 18 6.22386 18 6.5Z" fill="currentColor"/>
<path d="M18 17.5C18 17.7761 17.7761 18 17.5 18C17.2239 18 17 17.7761 17 17.5C17 17.2239 17.2239 17 17.5 17C17.7761 17 18 17.2239 18 17.5Z" fill="currentColor"/>
</svg>
