<svg viewBox="0 0 24 24" fill="currentColor" xmlns="http://www.w3.org/2000/svg">
<path d="M12 2C17.5228 2 22 6.47715 22 12C22 17.5228 17.5228 22 12 22C6.47715 22 2 17.5228 2 12C2 6.47715 6.47715 2 12 2ZM12 4C7.58172 4 4 7.58172 4 12C4 16.4183 7.58172 20 12 20C16.4183 20 20 16.4183 20 12C20 7.58172 16.4183 4 12 4ZM15.6211 8.62109C16.0115 8.23067 16.6446 8.23087 17.0352 8.62109C17.4257 9.01162 17.4257 9.64463 17.0352 10.0352L11.3789 15.6924C10.9884 16.0828 10.3554 16.0827 9.96484 15.6924L7.13574 12.8643C6.74534 12.4739 6.74559 11.8407 7.13574 11.4502C7.52627 11.0597 8.15928 11.0597 8.5498 11.4502L10.6719 13.5713L15.6211 8.62109Z" fill="currentColor"/>
</svg>
