<svg viewBox="0 0 24 24" fill="currentColor" xmlns="http://www.w3.org/2000/svg">
<path fill-rule="evenodd" clip-rule="evenodd" d="M4.9015 4.63399C2.9846 5.74086 1.80385 7.78665 1.80385 10.0002C1.80395 13.3947 4.41929 15.8834 7.41634 16.1765C8.45066 17.3025 9.88358 18.0266 11.4163 18.1765C13.2699 20.1942 16.4035 20.9217 19.0978 19.3664C21.0148 18.2596 22.1964 16.2138 22.1964 14.0002C22.1964 10.6057 19.5809 8.11699 16.5838 7.82366C15.5494 6.69783 14.1165 5.97367 12.5838 5.82366C10.73 3.80589 7.59591 3.07837 4.9015 4.63399ZM5.9015 6.36641C4.60349 7.11604 3.80385 8.50124 3.80385 10.0002C3.80392 11.674 4.74283 13.0224 6.03681 13.7086C5.88563 13.1722 5.80387 12.6004 5.80385 12.0002C5.80385 9.78665 6.9846 7.74086 8.9015 6.63399C9.19433 6.46492 9.49235 6.32283 9.79336 6.20642C8.61967 5.64936 7.18671 5.6244 5.9015 6.36641ZM9.9015 8.36641C8.60349 9.11604 7.80385 10.5012 7.80385 12.0002C7.80388 12.8185 8.02834 13.5591 8.40898 14.1825C8.80689 14.8342 9.37547 15.3579 10.0368 15.7086C9.88563 15.1722 9.80387 14.6004 9.80385 14.0002C9.80385 13.9291 9.80507 13.8582 9.80749 13.7875C9.86953 11.9749 10.722 10.2928 12.1169 9.17121C12.3621 8.97403 12.6241 8.79417 12.9015 8.63399C13.1943 8.46492 13.4924 8.32283 13.7934 8.20642C13.1191 7.88642 12.3594 7.742 11.5912 7.8177C11.0221 7.87377 10.4484 8.05064 9.9015 8.36641ZM13.9015 10.3662C16.6989 8.75111 20.1964 10.7698 20.1964 14C20.1964 15.4991 19.3961 16.8842 18.0978 17.6338C15.3004 19.2487 11.8038 17.2301 11.8038 14C11.8038 12.501 12.6034 11.1158 13.9015 10.3662Z" fill="currentColor"/>
</svg>
