<svg viewBox="0 0 24 24" fill="currentColor" xmlns="http://www.w3.org/2000/svg">
<path d="M20.6338 14.0001C20.6338 11.4038 18.5826 9.50489 16.2568 9.37025C15.4109 9.32134 14.527 9.5078 13.6895 9.99134C12.2573 10.8183 11.375 12.3464 11.375 14.0001C11.375 15.1774 11.7913 16.1981 12.4561 16.9816C13.8315 18.6023 16.2513 19.2022 18.3184 18.0089C19.7506 17.182 20.6337 15.6539 20.6338 14.0001ZM22.6338 14.0001C22.6337 16.3685 21.3694 18.5572 19.3184 19.7413C16.4838 21.3776 13.2024 20.6461 11.2148 18.5861C9.68952 18.3986 8.2721 17.6826 7.21484 16.5861C4.08744 16.2006 1.37507 13.5773 1.375 10.0001C1.375 7.63179 2.63843 5.44312 4.68945 4.25892C7.52407 2.62236 10.8063 3.35317 12.7939 5.41322C14.3186 5.60068 15.7359 6.31646 16.793 7.41224C19.9207 7.7974 22.6338 10.4226 22.6338 14.0001ZM7.375 12.0001C7.37503 13.1774 7.79126 14.1981 8.45605 14.9816C8.8026 15.3899 9.21771 15.7331 9.67676 16.0001C9.48152 15.3756 9.37501 14.7051 9.375 14.0001C9.375 11.6318 10.6384 9.44312 12.6895 8.25892C13.0565 8.04701 13.4322 7.87441 13.8125 7.73939C13.3223 7.52969 12.7959 7.40146 12.2568 7.37025C11.4109 7.32134 10.527 7.5078 9.68945 7.99134C8.25732 8.8183 7.375 10.3464 7.375 12.0001ZM3.375 10.0001C3.37505 11.7726 4.33126 13.2191 5.67773 14.0021C5.48209 13.3769 5.37501 12.7059 5.375 12.0001C5.375 9.63179 6.63843 7.44312 8.68945 6.25892C9.05743 6.04647 9.43417 5.87359 9.81543 5.73841C8.55081 5.19727 7.04431 5.20911 5.68945 5.99134C4.25732 6.8183 3.375 8.34638 3.375 10.0001Z" fill="currentColor"/>
</svg>
