<svg viewBox="0 0 24 24" fill="currentColor" xmlns="http://www.w3.org/2000/svg">
<path fill-rule="evenodd" clip-rule="evenodd" d="M5.98952 3.1614C7.1245 2.02642 8.94273 1.99087 10.1204 3.05495L10.2327 3.1614L20.8391 13.7678L20.9456 13.8792C22.0096 15.0567 21.9738 16.875 20.8391 18.01L18.01 20.8391L17.8987 20.9456C16.759 21.9753 15.0188 21.9753 13.8792 20.9456L13.7678 20.8391L3.1614 10.2327L3.05495 10.1204C2.02522 8.98074 2.0253 7.24152 3.05495 6.10183L3.1614 5.98953L5.98952 3.1614ZM8.81765 4.57546C8.42711 4.18507 7.79407 4.18498 7.40359 4.57546L4.57546 7.40359C4.18498 7.79407 4.18507 8.42711 4.57546 8.81765L15.1819 19.4251C15.5723 19.8153 16.2055 19.8152 16.596 19.4251L19.4251 16.596C19.7908 16.2299 19.8135 15.6507 19.4934 15.2581L19.4251 15.1819L18.7171 14.4739L16.2425 16.9495C16.0472 17.1447 15.7307 17.1447 15.5354 16.9495C15.3403 16.7542 15.3402 16.4377 15.5354 16.2425L18.01 13.7669L17.303 13.0598L16.2425 14.1214C16.0472 14.3165 15.7306 14.3166 15.5354 14.1214C15.3402 13.9261 15.3403 13.6096 15.5354 13.4143L16.596 12.3528L15.8889 11.6458L14.8284 12.7073C14.6332 12.9024 14.3166 12.9024 14.1214 12.7073C13.9261 12.5121 13.9262 12.1955 14.1214 12.0003L15.1819 10.9387L14.4739 10.2317L12.0003 12.7073C11.8051 12.9025 11.4885 12.9023 11.2932 12.7073C11.098 12.512 11.098 12.1955 11.2932 12.0003L13.7669 9.52468L13.0598 8.81765L12.0003 9.8782C11.805 10.0735 11.4885 10.0735 11.2932 9.8782C11.098 9.68293 11.098 9.36641 11.2932 9.17117L12.3528 8.11062L11.6458 7.40359L10.5862 8.46413C10.3909 8.6594 10.0735 8.6594 9.8782 8.46413C9.68336 8.26888 9.68317 7.95224 9.8782 7.7571L10.9387 6.69656L10.2317 5.98953L7.7571 8.46413C7.56184 8.6594 7.24533 8.6594 7.05007 8.46413C6.85505 8.26885 6.85489 7.95228 7.05007 7.7571L9.52468 5.28249L8.81765 4.57546Z" fill="currentColor"/>
</svg>
