<svg viewBox="0 0 24 24" fill="currentColor" xmlns="http://www.w3.org/2000/svg">
<path d="M20.2774 1.50977C20.9861 1.61002 21.3791 2.43171 20.9639 3.05469L20.5938 3.60938L20.5216 3.71094C20.17 4.17313 19.6343 4.45983 19.0548 4.49609L18.9298 4.5H13.0001V6.5H15.9884L16.169 6.50391C18.0285 6.58716 19.5958 7.94875 19.9259 9.79688L21.3546 17.7969L21.3887 18.0264C21.6737 20.3872 19.8295 22.4999 17.4171 22.5H6.58308C4.09267 22.4999 2.2078 20.2485 2.64558 17.7969L4.0743 9.79688C4.41496 7.88918 6.07392 6.50001 8.0118 6.5H11.0001V4.5H5.07039L4.94539 4.49609C4.36585 4.45985 3.83012 4.17313 3.47859 3.71094L3.40633 3.60938L3.03621 3.05469C2.62103 2.43168 3.01396 1.60997 3.72273 1.50977L3.86824 1.5H20.1319L20.2774 1.50977ZM8.0118 8.5C7.04286 8.50001 6.21338 9.1946 6.04305 10.1484L4.61433 18.1484C4.39546 19.3742 5.33792 20.4999 6.58308 20.5H17.4171C18.5843 20.4999 19.4854 19.5106 19.4132 18.377L19.3858 18.1484L17.9571 10.1484C17.7974 9.25415 17.0583 8.58755 16.168 8.50781L15.9884 8.5H8.0118ZM12.0001 9.5C14.7615 9.50004 17.0001 11.7386 17.0001 14.5C17.0001 17.2614 14.7615 19.5 12.0001 19.5C9.23865 19.5 7.00008 17.2614 7.00008 14.5C7.00008 11.7386 9.23865 9.5 12.0001 9.5ZM12.0001 10.5C9.79094 10.5 8.00008 12.2909 8.00008 14.5C8.00008 16.7091 9.79094 18.5 12.0001 18.5C14.2092 18.5 16.0001 16.7091 16.0001 14.5C16.0001 12.2909 14.2092 10.5 12.0001 10.5ZM12.0001 17C12.2762 17 12.5001 17.2239 12.5001 17.5C12.5001 17.7761 12.2762 18 12.0001 18C11.7239 18 11.5001 17.7761 11.5001 17.5C11.5001 17.2239 11.7239 17 12.0001 17ZM10.0001 16C10.2762 16 10.5001 16.2239 10.5001 16.5C10.5001 16.7761 10.2762 17 10.0001 17C9.72393 17 9.50008 16.7761 9.50008 16.5C9.50008 16.2239 9.72393 16 10.0001 16ZM14.0001 16C14.2762 16 14.5001 16.2239 14.5001 16.5C14.5001 16.7761 14.2762 17 14.0001 17C13.7239 17 13.5001 16.7761 13.5001 16.5C13.5001 16.2239 13.7239 16 14.0001 16ZM12.0001 11C12.2762 11 12.5001 11.2239 12.5001 11.5V13.6348C12.7987 13.8077 13.0001 14.1301 13.0001 14.5C13.0001 15.0523 12.5523 15.5 12.0001 15.5C11.4478 15.5 11.0001 15.0523 11.0001 14.5C11.0001 14.13 11.2014 13.8077 11.5001 13.6348V11.5C11.5001 11.2239 11.7239 11 12.0001 11ZM9.00008 14C9.27618 14 9.50008 14.2239 9.50008 14.5C9.50008 14.7761 9.27618 15 9.00008 15C8.72393 15 8.50008 14.7761 8.50008 14.5C8.50008 14.2239 8.72393 14 9.00008 14ZM15.0001 14C15.2762 14 15.5001 14.2239 15.5001 14.5C15.5001 14.7761 15.2762 15 15.0001 15C14.7239 15 14.5001 14.7761 14.5001 14.5C14.5001 14.2239 14.7239 14 15.0001 14ZM10.0001 12C10.2762 12 10.5001 12.2239 10.5001 12.5C10.5001 12.7761 10.2762 13 10.0001 13C9.72393 13 9.50008 12.7761 9.50008 12.5C9.50008 12.2239 9.72393 12 10.0001 12ZM14.0001 12C14.2762 12 14.5001 12.2239 14.5001 12.5C14.5001 12.7761 14.2762 13 14.0001 13C13.7239 13 13.5001 12.7761 13.5001 12.5C13.5001 12.2239 13.7239 12 14.0001 12Z" fill="currentColor"/>
</svg>
