<svg viewBox="0 0 24 24" fill="currentColor" xmlns="http://www.w3.org/2000/svg">
<path d="M19.2774 1.50977C19.9861 1.61002 20.3791 2.43171 19.9639 3.05469L19.5938 3.60938C19.223 4.16557 18.5982 4.49985 17.9298 4.5H13.0001V6.5H15.9884C17.9262 6.50005 19.5852 7.8892 19.9259 9.79688L21.3546 17.7969C21.7923 20.2485 19.9074 22.4999 17.4171 22.5H6.58308C4.09267 22.4999 2.2078 20.2485 2.64558 17.7969L4.0743 9.79688C4.41496 7.88918 6.07392 6.50001 8.0118 6.5H11.0001V4.5H6.07039C5.40192 4.49986 4.7772 4.16554 4.40633 3.60938L4.03719 3.05469C3.6219 2.43176 4.01411 1.61019 4.72273 1.50977L4.86922 1.5H19.1319L19.2774 1.50977ZM8.0118 8.5C7.04287 8.50001 6.21338 9.1946 6.04305 10.1484L4.61433 18.1484C4.39546 19.3742 5.33792 20.4999 6.58308 20.5H17.4171C18.6622 20.4999 19.6047 19.3742 19.3858 18.1484L17.9571 10.1484C17.7868 9.19462 16.9573 8.50005 15.9884 8.5H8.0118ZM12.0001 9.5C14.7615 9.50004 17.0001 11.7386 17.0001 14.5C17.0001 17.2614 14.7615 19.5 12.0001 19.5C9.23865 19.5 7.00008 17.2614 7.00008 14.5C7.00008 11.7386 9.23865 9.5 12.0001 9.5ZM12.0001 10.5C9.79094 10.5 8.00008 12.2909 8.00008 14.5C8.00008 16.7091 9.79094 18.5 12.0001 18.5C14.2092 18.5 16.0001 16.7091 16.0001 14.5C16.0001 12.2909 14.2092 10.5 12.0001 10.5ZM12.0001 11C12.2762 11 12.5001 11.2239 12.5001 11.5V13.6348C12.7987 13.8077 13.0001 14.1301 13.0001 14.5C13.0001 15.0523 12.5523 15.5 12.0001 15.5C11.4478 15.5 11.0001 15.0523 11.0001 14.5C11.0001 14.13 11.2014 13.8077 11.5001 13.6348V11.5C11.5001 11.2239 11.7239 11 12.0001 11Z" fill="currentColor"/>
</svg>
