<svg viewBox="0 0 24 24" fill="currentColor" xmlns="http://www.w3.org/2000/svg">
<path d="M11.9999 10C12.1456 10 12.2719 10.1017 12.3026 10.2441L12.9559 13.293C12.9854 13.4305 13.0068 13.5724 12.9774 13.71C12.8808 14.1612 12.48 14.5 11.9999 14.5C11.5198 14.4999 11.1189 14.1612 11.0223 13.71C10.993 13.5724 11.0143 13.4305 11.0438 13.293L11.6971 10.2441C11.7277 10.1017 11.8542 10.0001 11.9999 10Z" fill="currentColor"/>
<path fill-rule="evenodd" clip-rule="evenodd" d="M11.9999 8.5C14.7613 8.5 16.9999 10.7386 16.9999 13.5C16.9999 16.2614 14.7613 18.5 11.9999 18.5C9.2385 18.4999 6.99986 16.2614 6.99986 13.5C6.99986 10.7386 9.2385 8.50007 11.9999 8.5ZM11.9999 9.5C9.79078 9.50007 7.99986 11.2909 7.99986 13.5C7.99986 15.7091 9.79078 17.4999 11.9999 17.5C14.209 17.5 15.9999 15.7091 15.9999 13.5C15.9999 11.2909 14.209 9.5 11.9999 9.5Z" fill="currentColor"/>
<path fill-rule="evenodd" clip-rule="evenodd" d="M20.2586 2.00488C20.5909 2.04893 20.7942 2.41192 20.6385 2.72363L20.5526 2.89453L20.4852 3.01855C20.1272 3.62382 19.4737 4 18.7635 4H12.9999V5.06055C16.7857 5.5036 19.8753 8.42935 20.453 12.2793L21.2225 17.4062C21.5853 19.8246 19.7119 21.9999 17.2665 22H6.73326C4.28802 21.9997 2.41449 19.8245 2.7772 17.4062L3.54673 12.2793C4.12441 8.42947 7.21415 5.50377 10.9999 5.06055V4H5.23619L5.09458 3.99512C4.43998 3.94879 3.84857 3.58342 3.51451 3.01855L3.44712 2.89453L3.36119 2.72363C3.19534 2.39145 3.43726 2.00049 3.80845 2H20.1913L20.2586 2.00488ZM11.9999 7C8.75895 7.00014 6.00513 9.37113 5.52427 12.5762L4.75572 17.7031C4.57439 18.9122 5.51076 19.9997 6.73326 20H17.2665C18.4891 19.9999 19.4254 18.9123 19.244 17.7031L18.4754 12.5762C17.9946 9.37106 15.2409 7 11.9999 7Z" fill="currentColor"/>
</svg>
