<svg viewBox="0 0 24 24" fill="currentColor" xmlns="http://www.w3.org/2000/svg">
<path d="M11.9999 10.25C12.1456 10.25 12.2719 10.3517 12.3026 10.4941L12.9559 13.543C12.9854 13.6805 13.0068 13.8224 12.9774 13.96C12.8808 14.4112 12.48 14.75 11.9999 14.75C11.5198 14.7499 11.1189 14.4112 11.0223 13.96C10.993 13.8224 11.0153 13.6806 11.0448 13.543L11.6981 10.4941C11.7288 10.3518 11.8542 10.2501 11.9999 10.25Z" fill="currentColor"/>
<path fill-rule="evenodd" clip-rule="evenodd" d="M11.9999 8.75C14.7613 8.75 16.9999 10.9886 16.9999 13.75C16.9999 16.5114 14.7613 18.75 11.9999 18.75C9.2385 18.7499 6.99986 16.5114 6.99986 13.75C6.99986 10.9886 9.2385 8.75008 11.9999 8.75ZM11.9999 9.75C9.79079 9.75008 7.99986 11.5409 7.99986 13.75C7.99986 15.9591 9.79079 17.7499 11.9999 17.75C14.209 17.75 15.9999 15.9591 15.9999 13.75C15.9999 11.5409 14.209 9.75 11.9999 9.75Z" fill="currentColor"/>
<path fill-rule="evenodd" clip-rule="evenodd" d="M20.2587 1.75488C20.5909 1.79893 20.7943 2.16192 20.6385 2.47363L20.5526 2.64453L20.4852 2.76855C20.1272 3.37386 19.4737 3.75 18.7635 3.75H12.9999V5.31055C16.7858 5.7536 19.8753 8.67934 20.453 12.5293L21.2225 17.6562C21.5853 20.0746 19.7119 22.2499 17.2665 22.25H6.73326C4.28795 22.2498 2.41447 20.0746 2.77721 17.6562L3.54674 12.5293C4.12442 8.67943 7.2141 5.75372 10.9999 5.31055V3.75H5.23619L5.09459 3.74512C4.43993 3.69883 3.8486 3.33346 3.51451 2.76855L3.44713 2.64453L3.36119 2.47363C3.19527 2.1414 3.43717 1.7504 3.80846 1.75H20.1913L20.2587 1.75488ZM11.9999 7.25C8.7589 7.25007 6.00514 9.62109 5.52428 12.8262L4.75572 17.9531C4.57437 19.1622 5.51069 20.2498 6.73326 20.25H17.2665C18.4891 20.2499 19.4254 19.1623 19.244 17.9531L18.4754 12.8262C17.9946 9.62105 15.2409 7.25 11.9999 7.25Z" fill="currentColor"/>
</svg>
