<svg viewBox="0 0 24 24" fill="currentColor" xmlns="http://www.w3.org/2000/svg">
<path d="M7.25 10C7.25 10.5523 6.80228 11 6.25 11C5.69772 11 5.25 10.5523 5.25 10C5.25 9.44772 5.69772 9 6.25 9C6.80228 9 7.25 9.44772 7.25 10Z" fill="currentColor"/>
<path d="M11.75 10C11.75 10.5523 11.3023 11 10.75 11C10.1977 11 9.75 10.5523 9.75 10C9.75 9.44772 10.1977 9 10.75 9C11.3023 9 11.75 9.44772 11.75 10Z" fill="currentColor"/>
<path d="M16 5C19.866 5 23 8.13401 23 12C23 15.866 19.866 19 16 19C15.2301 19 14.4897 18.8741 13.7969 18.6445C14.2553 18.2786 14.6759 17.8677 15.0498 17.416C15.3586 17.4698 15.6758 17.5 16 17.5C19.0376 17.5 21.5 15.0376 21.5 12C21.5 8.96243 19.0376 6.5 16 6.5C15.6759 6.5 15.3585 6.52923 15.0498 6.58301C14.6759 6.1314 14.2553 5.72036 13.7969 5.35449C14.4897 5.12494 15.2302 5 16 5Z" fill="currentColor"/>
<path d="M19.1006 12.0098C19.3286 12.0563 19.5 12.2583 19.5 12.5C19.5 14.433 17.933 16 16 16C16.1796 15.664 16.3379 15.3151 16.4717 14.9541C17.4646 14.7644 18.2495 13.9889 18.4502 13H16.9395C16.9779 12.6719 17 12.3384 17 12H19L19.1006 12.0098Z" fill="currentColor"/>
<path d="M19.25 10C19.25 10.5523 18.8023 11 18.25 11C17.6977 11 17.25 10.5523 17.25 10C17.25 9.44772 17.6977 9 18.25 9C18.8023 9 19.25 9.44772 19.25 10Z" fill="currentColor"/>
<path fill-rule="evenodd" clip-rule="evenodd" d="M16 12C16 16.1421 12.6421 19.5 8.5 19.5C4.35786 19.5 1 16.1421 1 12C1 7.85786 4.35786 4.5 8.5 4.5C12.6421 4.5 16 7.85786 16 12ZM8.5 6.5C11.5376 6.5 14 8.96243 14 12C14 15.0376 11.5376 17.5 8.5 17.5C5.46243 17.5 3 15.0376 3 12C3 8.96243 5.46243 6.5 8.5 6.5Z" fill="currentColor"/>
<path fill-rule="evenodd" clip-rule="evenodd" d="M11.5 12L11.6006 12.0098C11.8286 12.0563 12 12.2583 12 12.5C12 14.433 10.433 16 8.5 16C6.567 16 5 14.433 5 12.5L5.00977 12.3994C5.05629 12.1714 5.25829 12 5.5 12H11.5ZM8.5 15C7.29051 15 6.28142 14.1411 6.0498 13H10.9502C10.7186 14.1411 9.70949 15 8.5 15Z" fill="currentColor"/>
<path fill-rule="evenodd" clip-rule="evenodd" d="M6.25 11C6.80228 11 7.25 10.5523 7.25 10C7.25 9.44772 6.80228 9 6.25 9C5.69772 9 5.25 9.44772 5.25 10C5.25 10.5523 5.69772 11 6.25 11ZM10.75 11C11.3023 11 11.75 10.5523 11.75 10C11.75 9.44772 11.3023 9 10.75 9C10.1977 9 9.75 9.44772 9.75 10C9.75 10.5523 10.1977 11 10.75 11Z" fill="currentColor"/>
</svg>
