<svg viewBox="0 0 24 24" fill="currentColor" xmlns="http://www.w3.org/2000/svg">
<path fill-rule="evenodd" clip-rule="evenodd" d="M19 4H20C21.6569 4 23 5.34315 23 7V17C23 18.6569 21.6569 20 20 20H19C17.3431 20 16 18.6569 16 17V7C16 5.34314 17.3431 4 19 4ZM19 6C18.4477 6 18 6.44772 18 7V17C18 17.5523 18.4477 18 19 18H20C20.5523 18 21 17.5523 21 17V7C21 6.44772 20.5523 6 20 6H19Z" fill="currentColor"/>
<path fill-rule="evenodd" clip-rule="evenodd" d="M1 7.75869V16.3879C1 18.6137 3.33864 20.0645 5.33275 19.0757L13.2429 15.1533C15.3722 14.0974 15.4867 11.1028 13.4442 9.88745L5.53408 5.18059C3.53434 3.99066 1 5.4317 1 7.75869ZM4.44425 17.2838L12.3544 13.3615C13.0642 13.0095 13.1023 12.0113 12.4215 11.6062L4.51136 6.89932C3.84478 6.50268 3 6.98303 3 7.75869V16.3879C3 17.1299 3.77955 17.6134 4.44425 17.2838Z" fill="currentColor"/>
</svg>
