<svg viewBox="0 0 24 24" fill="currentColor" xmlns="http://www.w3.org/2000/svg">
<path fill-rule="evenodd" clip-rule="evenodd" d="M9.69643 1.8661C11.4563 0.850182 13.6037 1.84562 14.0939 3.67274C15.7659 3.00261 17.6401 3.98122 18.0939 5.67274C20.0122 4.9039 22.1962 6.30544 22.1964 8.46375V15.8456C22.1963 16.9171 21.6244 17.9074 20.6964 18.4432L14.3038 22.1337C12.5439 23.1498 10.3965 22.1542 9.90639 20.327C8.2343 20.9973 6.36014 20.0186 5.90639 18.327C3.98798 19.0961 1.80401 17.6945 1.80385 15.536V8.15418C1.80403 7.08259 2.3758 6.09234 3.30385 5.55653L9.69643 1.8661ZM20.1964 8.46375C20.1962 7.69432 19.3629 7.21316 18.6964 7.59754L12.3038 11.2889C11.9947 11.4675 11.804 11.7972 11.8038 12.1542V19.536C11.804 20.3056 12.6373 20.7869 13.3038 20.4022L19.6964 16.7108C20.0055 16.5322 20.1963 16.2025 20.1964 15.8456V8.46375ZM16.1964 6.46375C16.1962 5.69432 15.3629 5.21316 14.6964 5.59754L8.30385 9.28895C7.9947 9.46752 7.80403 9.79718 7.80385 10.1542V17.536C7.80402 18.3056 8.63728 18.7869 9.30385 18.4022L9.80385 18.1132V12.1542C9.80403 11.0826 10.3758 10.0923 11.3038 9.55653L16.1964 6.73231V6.46375ZM12.1964 4.46375C12.1962 3.69432 11.3629 3.21316 10.6964 3.59754L4.30385 7.28895C3.9947 7.46752 3.80403 7.79718 3.80385 8.15418V15.536C3.80402 16.3056 4.63728 16.7869 5.30385 16.4022L5.80385 16.1132V10.1542C5.80403 9.08259 6.3758 8.09234 7.30385 7.55653L12.1964 4.73231V4.46375Z" fill="currentColor"/>
</svg>
