<svg viewBox="0 0 24 24" fill="currentColor" xmlns="http://www.w3.org/2000/svg">
<path d="M10.1629 15.8107L13.0607 16.5871L13.8371 13.6893L10.9393 12.9129L10.1629 15.8107ZM14.9278 17.3462C14.6777 18.2798 13.7181 18.8338 12.7845 18.5837L9.40377 17.6778C8.4702 17.4277 7.91618 16.4681 8.16633 15.5345L9.0722 12.1538C9.32234 11.2202 10.2819 10.6662 11.2155 10.9163L14.5962 11.8222C15.5298 12.0723 16.0838 13.0319 15.8337 13.9655L14.9278 17.3462Z" fill="currentColor"/>
<path d="M3.79289 11.9747L5.72474 11.4571L5.2071 9.52525L3.27525 10.0429L3.79289 11.9747ZM7.72129 11.1809C7.97144 12.1145 7.41742 13.0741 6.48386 13.3243L4.06904 13.9713C3.13548 14.2214 2.17589 13.6674 1.92574 12.7339L1.27869 10.319C1.02854 9.38548 1.58256 8.42589 2.51613 8.17575L4.93094 7.5287C5.86451 7.27855 6.8241 7.83257 7.07425 8.76613L7.72129 11.1809Z" fill="currentColor"/>
<path d="M3.79289 19.4747L5.72474 18.9571L5.2071 17.0253L3.27525 17.5429L3.79289 19.4747ZM7.72129 18.6809C7.97144 19.6145 7.41742 20.5741 6.48386 20.8243L4.06904 21.4713C3.13548 21.7214 2.17589 21.1674 1.92574 20.2339L1.27869 17.819C1.02854 16.8855 1.58256 15.9259 2.51613 15.6757L4.93094 15.0287C5.86451 14.7785 6.8241 15.3326 7.07425 16.2661L7.72129 18.6809Z" fill="currentColor"/>
<path d="M10.1629 7.31066L13.0606 8.08712L13.8371 5.18934L10.9393 4.41289L10.1629 7.31066ZM14.9278 8.84624C14.6776 9.77981 13.7181 10.3338 12.7845 10.0837L9.40375 9.17781C8.47018 8.92766 7.91617 7.96807 8.16631 7.03451L9.07218 3.65377C9.32233 2.7202 10.2819 2.16618 11.2155 2.41633L14.5962 3.3222C15.5298 3.57234 16.0838 4.53193 15.8337 5.4655L14.9278 8.84624Z" fill="currentColor"/>
<path d="M18.7929 11.9747L20.7247 11.4571L20.2071 9.52525L18.2752 10.0429L18.7929 11.9747ZM22.7213 11.1809C22.9714 12.1145 22.4174 13.0741 21.4839 13.3243L19.069 13.9713C18.1355 14.2214 17.1759 13.6674 16.9257 12.7339L16.2787 10.319C16.0285 9.38548 16.5826 8.42589 17.5161 8.17575L19.9309 7.5287C20.8645 7.27855 21.8241 7.83257 22.0742 8.76613L22.7213 11.1809Z" fill="currentColor"/>
<path d="M18.7929 19.4747L20.7247 18.9571L20.2071 17.0253L18.2752 17.5429L18.7929 19.4747ZM22.7213 18.6809C22.9714 19.6145 22.4174 20.5741 21.4839 20.8243L19.069 21.4713C18.1355 21.7214 17.1759 21.1674 16.9257 20.2339L16.2787 17.819C16.0285 16.8855 16.5826 15.9259 17.5161 15.6757L19.9309 15.0287C20.8645 14.7785 21.8241 15.3326 22.0742 16.2661L22.7213 18.6809Z" fill="currentColor"/>
</svg>
