<svg viewBox="0 0 24 24" fill="currentColor" xmlns="http://www.w3.org/2000/svg">
<path d="M11 13H13V11H11V13ZM15 13.25C15 14.2165 14.2165 15 13.25 15H10.75C9.7835 15 9 14.2165 9 13.25V10.75C9 9.7835 9.7835 9 10.75 9H13.25C14.2165 9 15 9.7835 15 10.75V13.25Z" fill="currentColor"/>
<path d="M4.13397 9.61602L5.86602 8.61602L4.86602 6.88397L3.13397 7.88397L4.13397 9.61602ZM7.72307 7.83253C8.20632 8.66954 7.91954 9.73982 7.08253 10.2231L4.91747 11.4731C4.08045 11.9563 3.01017 11.6695 2.52692 10.8325L1.27692 8.66746C0.793674 7.83045 1.08046 6.76017 1.91747 6.27692L4.08253 5.02692C4.91954 4.54367 5.98983 4.83045 6.47307 5.66746L7.72307 7.83253Z" fill="currentColor"/>
<path d="M3.13397 16.116L4.86602 17.116L5.86602 15.384L4.13397 14.384L3.13397 16.116ZM6.47307 18.3325C5.98983 19.1695 4.91954 19.4563 4.08253 18.9731L1.91747 17.7231C1.08046 17.2398 0.793674 16.1695 1.27692 15.3325L2.52692 13.1675C3.01017 12.3305 4.08046 12.0437 4.91747 12.5269L7.08253 13.7769C7.91954 14.2602 8.20632 15.3305 7.72307 16.1675L6.47307 18.3325Z" fill="currentColor"/>
<path d="M12 5.91421L13.4142 4.5L12 3.08579L10.5858 4.5L12 5.91421ZM15.0052 3.26256C15.6886 3.94598 15.6886 5.05402 15.0052 5.73744L13.2374 7.5052C12.554 8.18862 11.446 8.18862 10.7626 7.5052L8.9948 5.73744C8.31138 5.05402 8.31138 3.94598 8.9948 3.26256L10.7626 1.4948C11.446 0.811377 12.554 0.811378 13.2374 1.4948L15.0052 3.26256Z" fill="currentColor"/>
<path d="M10.7753 20.2071L12.7071 20.7247L13.2247 18.7929L11.2929 18.2753L10.7753 20.2071ZM14.5743 21.4839C14.3241 22.4174 13.3645 22.9714 12.431 22.7213L10.0161 22.0743C9.08257 21.8241 8.52855 20.8645 8.7787 19.9309L9.42575 17.5161C9.6759 16.5826 10.6355 16.0286 11.5691 16.2787L13.9839 16.9257C14.9174 17.1759 15.4715 18.1355 15.2213 19.069L14.5743 21.4839Z" fill="currentColor"/>
<path d="M18.134 8.61603L19.866 9.61603L20.866 7.88398L19.134 6.88398L18.134 8.61603ZM21.4731 10.8325C20.9898 11.6695 19.9195 11.9563 19.0825 11.4731L16.9175 10.2231C16.0805 9.73983 15.7937 8.66955 16.2769 7.83254L17.5269 5.66747C18.0102 4.83046 19.0805 4.54368 19.9175 5.02693L22.0825 6.27693C22.9195 6.76018 23.2063 7.83046 22.7231 8.66747L21.4731 10.8325Z" fill="currentColor"/>
<path d="M19.134 17.116L20.866 16.116L19.866 14.384L18.134 15.384L19.134 17.116ZM22.7231 15.3325C23.2063 16.1695 22.9195 17.2398 22.0825 17.7231L19.9175 18.9731C19.0805 19.4563 18.0102 19.1695 17.5269 18.3325L16.2769 16.1675C15.7937 15.3305 16.0805 14.2602 16.9175 13.7769L19.0825 12.5269C19.9195 12.0437 20.9898 12.3305 21.4731 13.1675L22.7231 15.3325Z" fill="currentColor"/>
</svg>
