<svg viewBox="0 0 24 24" fill="currentColor" xmlns="http://www.w3.org/2000/svg">
<path fill-rule="evenodd" clip-rule="evenodd" d="M18.1543 3.00391C19.7394 3.08421 21 4.39489 21 6V18L20.9961 18.1543C20.9184 19.6883 19.6883 20.9184 18.1543 20.9961L18 21H6C4.39489 21 3.08421 19.7394 3.00391 18.1543L3 18V6C3 4.34315 4.34315 3 6 3H18L18.1543 3.00391ZM6 5C5.44772 5 5 5.44772 5 6V18C5 18.5523 5.44772 19 6 19H18C18.5523 19 19 18.5523 19 18V6C19 5.44772 18.5523 5 18 5H6Z" fill="currentColor"/>
<path d="M10.25 9.25C10.25 9.94036 9.69036 10.5 9 10.5C8.30964 10.5 7.75 9.94036 7.75 9.25C7.75 8.55964 8.30964 8 9 8C9.69036 8 10.25 8.55964 10.25 9.25Z" fill="currentColor"/>
<path d="M16.25 9.25C16.25 9.94036 15.6904 10.5 15 10.5C14.3096 10.5 13.75 9.94036 13.75 9.25C13.75 8.55964 14.3096 8 15 8C15.6904 8 16.25 8.55964 16.25 9.25Z" fill="currentColor"/>
<path d="M16.25 12C16.5261 12 16.75 12.2239 16.75 12.5C16.75 15.1234 14.6234 17.25 12 17.25C9.37665 17.25 7.25 15.1234 7.25 12.5C7.25 12.2239 7.47386 12 7.75 12H16.25ZM8.28418 13C8.52869 14.8346 10.0985 16.25 12 16.25C13.9015 16.25 15.4713 14.8346 15.7158 13H8.28418Z" fill="currentColor"/>
</svg>
