<svg viewBox="0 0 24 24" fill="currentColor" xmlns="http://www.w3.org/2000/svg">
<path fill-rule="evenodd" clip-rule="evenodd" d="M10.7803 4.44498C12.0954 3.43353 13.9997 4.37184 14 6.03092V17.9684C14 19.6278 12.0955 20.5661 10.7803 19.5544L6.16016 15.9997H4.5C2.84315 15.9997 1.5 14.6565 1.5 12.9997V10.9997C1.50018 9.34297 2.84326 7.99967 4.5 7.99967H6.16016L10.7803 4.44498ZM7.10938 9.79264C7.07483 9.81919 7.03738 9.8413 7 9.86295V14.1354C7.03757 14.1571 7.07466 14.18 7.10938 14.2067L12 17.9684V6.03092L7.10938 9.79264ZM4.5 9.99967C3.94782 9.99967 3.50018 10.4475 3.5 10.9997V12.9997C3.5 13.552 3.94772 13.9997 4.5 13.9997H6V9.99967H4.5Z" fill="currentColor"/>
<path d="M17.5251 12.0003C17.5251 13.0356 17.1313 13.9799 16.4861 14.6898L16.3533 14.8284L16.2751 14.8929C16.0811 15.0209 15.817 14.9992 15.6462 14.8284C15.4754 14.6575 15.4544 14.3936 15.5828 14.1995L15.6462 14.1214L15.8406 13.9085C16.2688 13.3898 16.5251 12.7252 16.5251 12.0003C16.5251 11.1718 16.1897 10.4217 15.6462 9.87825C15.4513 9.68296 15.4511 9.36637 15.6462 9.17122C15.8414 8.97612 16.158 8.97629 16.3533 9.17122C17.0766 9.89453 17.5251 10.8959 17.5251 12.0003ZM20.0251 12.0003C20.0251 13.6827 19.3853 15.2166 18.3367 16.3704L18.1208 16.596L18.0427 16.6605C17.8487 16.7885 17.5846 16.7668 17.4138 16.596C17.2431 16.4251 17.222 16.1611 17.3503 15.9671L17.4138 15.889L17.5964 15.6976C18.4844 14.7206 19.0251 13.4241 19.0251 12.0003C19.0251 10.4814 18.4097 9.10652 17.4138 8.11067L17.3503 8.03255C17.2221 7.83851 17.243 7.57454 17.4138 7.40364C17.6091 7.20838 17.9266 7.20838 18.1218 7.40364C19.2974 8.57935 20.0251 10.2056 20.0251 12.0003ZM22.5251 12.0003C22.525 14.4852 21.5173 16.7356 19.8894 18.3636C19.6941 18.5589 19.3776 18.5588 19.1824 18.3636C18.9871 18.1683 18.9871 17.8518 19.1824 17.6566C20.6304 16.2084 21.525 14.2093 21.5251 12.0003C21.5251 9.79113 20.6305 7.79134 19.1824 6.34309C18.9871 6.14783 18.9871 5.83132 19.1824 5.63606C19.3776 5.44097 19.6942 5.44085 19.8894 5.63606C21.5174 7.26418 22.5251 9.51526 22.5251 12.0003Z" fill="currentColor"/>
</svg>
