<svg viewBox="0 0 24 24" fill="currentColor" xmlns="http://www.w3.org/2000/svg">
<path d="M14 4C14 5.10457 13.1046 6 12 6C10.8954 6 10 5.10457 10 4C10 2.89543 10.8954 2 12 2C13.1046 2 14 2.89543 14 4Z" fill="currentColor"/>
<path d="M19.6095 6.27097C19.6095 7.37554 18.714 8.27097 17.6095 8.27097C16.5049 8.27097 15.6095 7.37554 15.6095 6.27097C15.6095 5.1664 16.5049 4.27097 17.6095 4.27097C18.714 4.27097 19.6095 5.1664 19.6095 6.27097Z" fill="currentColor"/>
<path d="M8.39101 6.27097C8.39101 7.37554 7.49558 8.27097 6.39101 8.27097C5.28644 8.27097 4.39101 7.37554 4.39101 6.27097C4.39101 5.1664 5.28644 4.27097 6.39101 4.27097C7.49558 4.27097 8.39101 5.1664 8.39101 6.27097Z" fill="currentColor"/>
<path d="M19.6095 17.729C19.6095 18.8336 18.714 19.729 17.6095 19.729C16.5049 19.729 15.6095 18.8336 15.6095 17.729C15.6095 16.6244 16.5049 15.729 17.6095 15.729C18.714 15.729 19.6095 16.6244 19.6095 17.729Z" fill="currentColor"/>
<path d="M8.39101 17.729C8.39101 18.8336 7.49558 19.729 6.39101 19.729C5.28644 19.729 4.39101 18.8336 4.39101 17.729C4.39101 16.6244 5.28644 15.729 6.39101 15.729C7.49558 15.729 8.39101 16.6244 8.39101 17.729Z" fill="currentColor"/>
<path d="M14 20C14 21.1046 13.1046 22 12 22C10.8954 22 10 21.1046 10 20C10 18.8954 10.8954 18 12 18C13.1046 18 14 18.8954 14 20Z" fill="currentColor"/>
<path d="M6 12C6 13.1046 5.10457 14 4 14C2.89543 14 2 13.1046 2 12C2 10.8954 2.89543 10 4 10C5.10457 10 6 10.8954 6 12Z" fill="currentColor"/>
<path d="M22 12C22 13.1046 21.1046 14 20 14C18.8954 14 18 13.1046 18 12C18 10.8954 18.8954 9.99998 20 9.99998C21.1046 9.99998 22 10.8954 22 12Z" fill="currentColor"/>
</svg>
