<svg viewBox="0 0 24 24" fill="currentColor" xmlns="http://www.w3.org/2000/svg">
<path d="M11.4858 2.0127C6.20214 2.28054 2.00047 6.64975 2.00047 12C2.00047 17.5228 6.47763 22 12.0005 22C17.5233 22 22.0005 17.5228 22.0005 12C22.0005 6.61588 17.7453 2.22791 12.4145 2.01074C13.3235 2.05388 14.2236 2.23869 15.0698 2.55566C19.0417 4.00386 21.3335 8.22093 21.0005 11.959C20.9996 11.9726 20.9985 11.9864 20.9975 12C20.7553 16.8179 16.2336 20.4664 12.0005 20.001C11.9956 20.0006 11.9907 20.0004 11.9858 20C7.70583 19.7392 4.54315 15.6954 4.99754 12C4.99842 11.9902 4.99956 11.9805 5.00047 11.9707C5.24083 9.01315 7.53036 6.60716 10.0825 6.10059C10.6252 5.98443 11.1742 5.94511 11.7202 5.97754C11.8119 5.99042 11.9052 6 12.0005 6C13.105 6 14.0005 5.10457 14.0005 4C14.0005 2.89543 13.105 2 12.0005 2L11.4858 2.0127Z" fill="currentColor"/>
</svg>
