<svg viewBox="0 0 24 24" fill="currentColor" xmlns="http://www.w3.org/2000/svg">
<path d="M10.1719 3.19824C10.9863 1.81048 13.0137 1.81049 13.8281 3.19824L13.9053 3.3418L15.8262 7.2334L20.1211 7.85742L20.2812 7.88672C21.8531 8.23223 22.4796 10.1608 21.4111 11.3643L21.2988 11.4824L18.1904 14.5107L18.9248 18.7891C19.2131 20.4706 17.5121 21.7653 15.9883 21.0996L15.8418 21.0293L12 19.0088L8.1582 21.0293C6.5994 21.8483 4.77765 20.5247 5.0752 18.7891L5.80859 14.5107L2.70117 11.4824C1.44004 10.253 2.13605 8.11076 3.87891 7.85742L8.17285 7.2334L10.0947 3.3418L10.1719 3.19824ZM12.1123 4.22754C12.0665 4.13463 11.9335 4.13463 11.8877 4.22754L9.53125 9.00293L9.49219 9.04883C9.47608 9.06047 9.45677 9.06835 9.43652 9.07129L4.32715 9.81348L4.16699 9.83691C4.06448 9.85181 4.02351 9.97748 4.09766 10.0498L7.91113 13.7676C7.94043 13.7962 7.95412 13.8375 7.94727 13.8779L7.04688 19.127C7.03154 19.2163 7.11161 19.2876 7.19336 19.2715L7.22754 19.2588L11.9414 16.7803C11.9778 16.7611 12.0222 16.7611 12.0586 16.7803L16.7725 19.2588C16.8526 19.3006 16.944 19.2465 16.9541 19.1641L16.9531 19.127L16.9248 18.9668L16.0527 13.8779C16.0459 13.8375 16.0596 13.7962 16.0889 13.7676L19.7852 10.1631L19.9023 10.0498C19.9671 9.98663 19.9443 9.88291 19.8691 9.84766L19.833 9.83691L14.5635 9.07129C14.5432 9.06835 14.5239 9.06047 14.5078 9.04883L14.4688 9.00293L12.1123 4.22754Z" fill="currentColor"/>
</svg>
