<svg viewBox="0 0 24 24" fill="currentColor" xmlns="http://www.w3.org/2000/svg">
<path d="M10.2705 2.99707C11.0408 1.68424 12.9592 1.68424 13.7295 2.99707L13.8027 3.13282L15.8252 7.2334L20.3516 7.89161L20.5029 7.91895C21.9897 8.24565 22.5827 10.0696 21.5723 11.208L21.4658 11.3193L18.1904 14.5117L18.9639 19.0186L18.9844 19.1709C19.1333 20.6861 17.5816 21.8137 16.1865 21.2041L16.0479 21.1377L12 19.0088L7.95215 21.1377C6.47763 21.9126 4.75454 20.6604 5.03614 19.0186L5.8086 14.5117L2.53418 11.3193C1.34169 10.1564 2.00002 8.1312 3.64844 7.89161L8.17383 7.2334L10.1973 3.13282L10.2705 2.99707ZM11.9912 4.01856L9.50391 9.05664L9.49707 9.0625L3.94922 9.86817L3.93653 9.87012C3.92832 9.87131 3.92473 9.88191 3.93067 9.8877L7.95411 13.8096C7.95643 13.8118 7.95754 13.8152 7.95704 13.8184L7.00879 19.3428L7.00684 19.3564C7.00617 19.3603 7.00811 19.3641 7.01075 19.3662L7.02149 19.3672L11.9951 16.7529C11.998 16.7514 12.002 16.7514 12.0049 16.7529L16.9658 19.3604L16.9785 19.3672C16.982 19.3689 16.9855 19.3681 16.9883 19.3662L16.9932 19.3564L16.9902 19.3428L16.043 13.8184C16.0425 13.8152 16.0436 13.8118 16.0459 13.8096L20.0586 9.89649L20.0693 9.8877C20.0724 9.88476 20.0735 9.88039 20.0723 9.87696L20.0635 9.87012L20.0498 9.86817L14.5029 9.0625L14.4961 9.05664L12.0088 4.01856C12.0051 4.01113 11.9949 4.01113 11.9912 4.01856Z" fill="currentColor"/>
</svg>
