<svg viewBox="0 0 24 24" fill="currentColor" xmlns="http://www.w3.org/2000/svg">
<path d="M11.8879 4.22712C11.9338 4.13421 12.0662 4.13421 12.1121 4.22712L14.469 9.00274C14.4872 9.03964 14.5224 9.06521 14.5631 9.07112L19.8333 9.83693C19.9359 9.85183 19.9768 9.97783 19.9026 10.0501L16.0891 13.7674C16.0596 13.7962 16.0462 13.8375 16.0531 13.8781L16.9534 19.127C16.9709 19.2291 16.8637 19.307 16.772 19.2588L12.0582 16.7806C12.0218 16.7614 11.9783 16.7614 11.9418 16.7806L7.22802 19.2588C7.13631 19.307 7.02913 19.2291 7.04665 19.127L7.94691 13.8781C7.95386 13.8375 7.94042 13.7962 7.91096 13.7674L4.09739 10.0501C4.0232 9.97783 4.06414 9.85183 4.16667 9.83693L9.43689 9.07112C9.4776 9.06521 9.5128 9.03964 9.531 9.00274L11.8879 4.22712Z" fill="currentColor"/>
<path d="M10.1718 3.19846C10.9862 1.81046 13.0137 1.81051 13.8281 3.19846L13.9052 3.34201L15.8261 7.23361L20.121 7.85764L20.2812 7.88693C21.8531 8.23245 22.4797 10.161 21.4111 11.3645L21.2988 11.4826L18.1904 14.511L18.9247 18.7893L18.9462 18.9504C19.1033 20.5521 17.4629 21.7441 15.9882 21.0998L15.8417 21.0295L11.9999 19.009L8.15912 21.0295C6.60025 21.8491 4.77775 20.525 5.07513 18.7893L5.80853 14.511L2.70111 11.4826C1.43993 10.2533 2.13604 8.11105 3.87884 7.85764L8.17279 7.23361L10.0947 3.34201L10.1718 3.19846Z" fill="currentColor"/>
</svg>
