<svg viewBox="0 0 24 24" fill="currentColor" xmlns="http://www.w3.org/2000/svg">
<path d="M10.2705 2.99707C11.0408 1.68424 12.9592 1.68424 13.7295 2.99707L13.8027 3.13281L15.8252 7.2334L20.3516 7.8916L20.5029 7.91895C21.9897 8.24564 22.5827 10.0696 21.5723 11.208L21.4658 11.3193L18.1904 14.5117L18.9639 19.0186L18.9844 19.1709C19.1333 20.6861 17.5816 21.8137 16.1865 21.2041L16.0479 21.1377L12 19.0088L7.95215 21.1377C6.47763 21.9126 4.75453 20.6604 5.03614 19.0186L5.8086 14.5117L2.53418 11.3193C1.34169 10.1564 2.00002 8.1312 3.64844 7.8916L8.17383 7.2334L10.1973 3.13281L10.2705 2.99707Z" fill="currentColor"/>
</svg>
