<svg viewBox="0 0 24 24" fill="currentColor" xmlns="http://www.w3.org/2000/svg">
<path d="M10.1719 3.19824C10.9863 1.81048 13.0137 1.81049 13.8281 3.19824L13.9053 3.3418L15.8262 7.2334L20.1211 7.85742L20.2812 7.88672C21.8531 8.23223 22.4796 10.1608 21.4111 11.3643L21.2988 11.4824L18.1904 14.5107L18.9248 18.7891C19.2131 20.4706 17.5121 21.7653 15.9883 21.0996L15.8418 21.0293L12 19.0088L8.1582 21.0293C6.5994 21.8483 4.77765 20.5247 5.0752 18.7891L5.80859 14.5107L2.70117 11.4824C1.44004 10.253 2.13605 8.11076 3.87891 7.85742L8.17285 7.2334L10.0947 3.3418L10.1719 3.19824Z" fill="currentColor"/>
</svg>
