<svg viewBox="0 0 24 24" fill="currentColor" xmlns="http://www.w3.org/2000/svg">
<path d="M3 12C3 11.1716 3.67157 10.5 4.5 10.5C5.32843 10.5 6 11.1716 6 12V15.5C6 16.0523 5.55228 16.5 5 16.5H4C3.44772 16.5 3 16.0523 3 15.5V12Z" fill="currentColor"/>
<path d="M8 8C8 7.17157 8.67157 6.5 9.5 6.5C10.3284 6.5 11 7.17157 11 8V15.5C11 16.0523 10.5523 16.5 10 16.5H9C8.44772 16.5 8 16.0523 8 15.5V8Z" fill="currentColor"/>
<path d="M13 10C13 9.17157 13.6716 8.5 14.5 8.5C15.3284 8.5 16 9.17157 16 10V15.5C16 16.0523 15.5523 16.5 15 16.5H14C13.4477 16.5 13 16.0523 13 15.5V10Z" fill="currentColor"/>
<path d="M18 6C18 5.17157 18.6716 4.5 19.5 4.5C20.3284 4.5 21 5.17157 21 6V15.5C21 16.0523 20.5523 16.5 20 16.5H19C18.4477 16.5 18 16.0523 18 15.5V6Z" fill="currentColor"/>
<path d="M2 19C2 18.7239 2.22386 18.5 2.5 18.5H21.5C21.7761 18.5 22 18.7239 22 19C22 19.2761 21.7761 19.5 21.5 19.5H2.5C2.22386 19.5 2 19.2761 2 19Z" fill="currentColor"/>
</svg>
