<svg viewBox="0 0 24 24" fill="currentColor" xmlns="http://www.w3.org/2000/svg">
<path d="M3 12.5C3 11.6716 3.67157 11 4.5 11C5.32843 11 6 11.6716 6 12.5V15.5C6 16.3284 5.32843 17 4.5 17C3.67157 17 3 16.3284 3 15.5V12.5Z" fill="currentColor"/>
<path d="M8 8.5C8 7.67157 8.67157 7 9.5 7C10.3284 7 11 7.67157 11 8.5V15.5C11 16.3284 10.3284 17 9.5 17C8.67157 17 8 16.3284 8 15.5V8.5Z" fill="currentColor"/>
<path d="M13 10.5C13 9.67157 13.6716 9 14.5 9C15.3284 9 16 9.67157 16 10.5V15.5C16 16.3284 15.3284 17 14.5 17C13.6716 17 13 16.3284 13 15.5V10.5Z" fill="currentColor"/>
<path d="M18 6.5C18 5.67157 18.6716 5 19.5 5C20.3284 5 21 5.67157 21 6.5V15.5C21 16.3284 20.3284 17 19.5 17C18.6716 17 18 16.3284 18 15.5V6.5Z" fill="currentColor"/>
<path d="M2 18.5C2 18.2239 2.22386 18 2.5 18H21.5C21.7761 18 22 18.2239 22 18.5C22 18.7761 21.7761 19 21.5 19H2.5C2.22386 19 2 18.7761 2 18.5Z" fill="currentColor"/>
</svg>
