<svg viewBox="0 0 24 24" fill="currentColor" xmlns="http://www.w3.org/2000/svg">
<path d="M3 11.5C3 10.9477 3.44772 10.5 4 10.5H5C5.55228 10.5 6 10.9477 6 11.5V15.5C6 16.0523 5.55228 16.5 5 16.5H4C3.44772 16.5 3 16.0523 3 15.5V11.5Z" fill="currentColor"/>
<path d="M8 7.5C8 6.94772 8.44772 6.5 9 6.5H10C10.5523 6.5 11 6.94772 11 7.5V15.5C11 16.0523 10.5523 16.5 10 16.5H9C8.44772 16.5 8 16.0523 8 15.5V7.5Z" fill="currentColor"/>
<path d="M13 9.5C13 8.94772 13.4477 8.5 14 8.5H15C15.5523 8.5 16 8.94772 16 9.5V15.5C16 16.0523 15.5523 16.5 15 16.5H14C13.4477 16.5 13 16.0523 13 15.5V9.5Z" fill="currentColor"/>
<path d="M18 5.5C18 4.94772 18.4477 4.5 19 4.5H20C20.5523 4.5 21 4.94772 21 5.5V15.5C21 16.0523 20.5523 16.5 20 16.5H19C18.4477 16.5 18 16.0523 18 15.5V5.5Z" fill="currentColor"/>
<path d="M2 19C2 18.7239 2.22386 18.5 2.5 18.5H21.5C21.7761 18.5 22 18.7239 22 19C22 19.2761 21.7761 19.5 21.5 19.5H2.5C2.22386 19.5 2 19.2761 2 19Z" fill="currentColor"/>
</svg>
