<svg viewBox="0 0 24 24" fill="currentColor" xmlns="http://www.w3.org/2000/svg">
<path d="M8 6.00001C8.26522 6.00001 8.51949 6.10544 8.70703 6.29297C8.89457 6.48051 9 6.73479 9 7.00001V14C8.99817 16.0999 8.72795 18.1999 8.18945 20.2998C8.12962 20.5331 8.06646 20.7667 8 21C7.93354 20.7667 7.87038 20.5331 7.81055 20.2998C7.27205 18.1999 7.00183 16.0999 7 14V7.00001C7 6.73479 7.10543 6.48051 7.29297 6.29297C7.4805 6.10544 7.73478 6.00001 8 6.00001Z" fill="currentColor"/>
<path d="M4 18C4.26522 18 4.51949 17.8946 4.70703 17.707C4.89457 17.5195 5 17.2652 5 17V9.99999C4.99817 7.90006 4.72795 5.80013 4.18945 3.70019C4.12962 3.46686 4.06646 3.23333 4 2.99999C3.93354 3.23333 3.87038 3.46686 3.81055 3.70019C3.27205 5.80013 3.00183 7.90006 3 9.99999V17C3 17.2652 3.10543 17.5195 3.29297 17.707C3.48051 17.8946 3.73478 18 4 18Z" fill="currentColor"/>
<path d="M20 18C20.2652 18 20.5195 17.8946 20.707 17.707C20.8946 17.5195 21 17.2652 21 17V9.99999C20.9982 7.90006 20.728 5.80013 20.1895 3.70019C20.1296 3.46686 20.0665 3.23333 20 2.99999C19.9335 3.23333 19.8704 3.46686 19.8105 3.70019C19.272 5.80013 19.0018 7.90006 19 9.99999V17C19 17.2652 19.1054 17.5195 19.293 17.707C19.4805 17.8946 19.7348 18 20 18Z" fill="currentColor"/>
<path d="M16 6.00001C16.2652 6.00001 16.5195 6.10544 16.707 6.29297C16.8946 6.48051 17 6.73479 17 7.00001V14C16.9982 16.0999 16.728 18.1999 16.1895 20.2998C16.1296 20.5331 16.0665 20.7667 16 21C15.9335 20.7667 15.8704 20.5331 15.8105 20.2998C15.272 18.1999 15.0018 16.0999 15 14V7.00001C15 6.73479 15.1054 6.48051 15.293 6.29297C15.4805 6.10544 15.7348 6.00001 16 6.00001Z" fill="currentColor"/>
<path d="M12 18C12.2652 18 12.5195 17.8946 12.707 17.707C12.8946 17.5195 13 17.2652 13 17V9.99999C12.9982 7.90006 12.728 5.80013 12.1895 3.70019C12.1296 3.46686 12.0665 3.23333 12 2.99999C11.9335 3.23333 11.8704 3.46686 11.8105 3.70019C11.272 5.80013 11.0018 7.90006 11 9.99999V17C11 17.2652 11.1054 17.5195 11.293 17.707C11.4805 17.8946 11.7348 18 12 18Z" fill="currentColor"/>
</svg>
