<svg viewBox="0 0 24 24" fill="currentColor" xmlns="http://www.w3.org/2000/svg">
<path fill-rule="evenodd" clip-rule="evenodd" d="M21.4327 3.04792C22.6297 4.24496 22.5946 6.18423 21.385 7.33821L21.2635 7.44731L13.4196 14.1707C13.6035 14.6708 13.7111 15.1973 13.7277 15.7413C13.7714 17.1753 13.1792 18.5989 11.9413 19.8369C10.7245 21.0536 9.05507 21.9245 7.42521 22.2524C5.82231 22.5748 4.02229 22.4071 2.80761 21.1924C1.59293 19.9777 1.4252 18.1777 1.74764 16.5748C2.07553 14.9449 2.94637 13.2755 4.16313 12.0587C5.40112 10.8208 6.82469 10.2286 8.25868 10.2723C8.8027 10.2889 9.3292 10.3964 9.82928 10.5804L16.5527 2.73649C17.69 1.40967 19.7164 1.33162 20.9521 2.56731L21.4327 3.04792ZM18.0712 4.03815C18.4503 3.59587 19.126 3.56963 19.5379 3.98152L20.0185 4.46213C20.4046 4.84825 20.4062 5.46617 20.0406 5.85425L19.9619 5.92883L12.4053 12.4053L11.594 11.594L18.0712 4.03815ZM8.19723 12.2714C9.01325 12.2963 9.85094 12.6794 10.5858 13.4142C11.3206 14.1491 11.7037 14.9867 11.7286 15.8028C11.753 16.6037 11.4367 17.513 10.5271 18.4227C9.59604 19.3537 8.28427 20.0398 7.03091 20.2919C5.7505 20.5495 4.7645 20.3209 4.22182 19.7782C3.67914 19.2355 3.45049 18.2495 3.70807 16.9691C3.96023 15.7157 4.64629 14.404 5.57734 13.4729C6.48703 12.5633 7.39629 12.247 8.19723 12.2714Z" fill="currentColor"/>
</svg>
