<svg viewBox="0 0 24 24" fill="currentColor" xmlns="http://www.w3.org/2000/svg">
<path fill-rule="evenodd" clip-rule="evenodd" d="M19.2175 4.78249C20.2973 5.86231 20.2238 7.63475 19.058 8.62117L13.9633 12.9315C14.1138 13.3915 14.1883 13.8857 14.169 14.4037C14.1213 15.6801 13.5147 16.8492 12.5587 17.8053C11.6296 18.7343 10.4001 19.4394 9.18337 19.7622C8.07783 20.0555 6.32909 20.1783 5.07538 18.9246C3.82167 17.6709 3.94446 15.9222 4.23776 14.8166C4.56062 13.5999 5.26574 12.3704 6.19474 11.4413C7.15077 10.4853 8.31988 9.87869 9.59631 9.83098C10.1143 9.81166 10.6085 9.88624 11.0685 10.0367L15.3788 4.942L15.4741 4.83566C16.4759 3.77282 18.1715 3.73652 19.2175 4.78249ZM16.9056 6.23399C17.1362 5.96145 17.5509 5.94426 17.8033 6.1967C18.0557 6.44915 18.0385 6.86379 17.766 7.0944L12.9102 11.2031L12.7962 11.0891L16.9056 6.23399ZM7.86652 12.6159C9.15972 11.5037 10.524 11.6454 11.4393 12.5607C12.4157 13.537 12.5113 15.0242 11.1445 16.3911L10.8779 16.6396C9.49412 17.8423 7.40486 18.4257 6.48959 17.5104C5.51334 16.5342 6.24226 14.2224 7.60895 12.8555L7.86652 12.6159Z" fill="currentColor"/>
</svg>
