<svg viewBox="0 0 24 24" fill="currentColor" xmlns="http://www.w3.org/2000/svg">
<path d="M5.75 1C8.37335 1 10.5 3.12665 10.5 5.75C10.5 5.87758 10.4933 6.00386 10.4834 6.12891C10.1309 6.18873 9.7855 6.26862 9.44824 6.36816C9.48162 6.16701 9.5 5.96062 9.5 5.75C9.5 3.67893 7.82107 2 5.75 2C3.67893 2 2 3.67893 2 5.75C2 7.54508 3.2616 9.04408 4.94629 9.41211C4.72567 9.69022 4.52002 9.98078 4.33301 10.2842C2.40188 9.6813 1 7.87973 1 5.75C1 3.12665 3.12665 1 5.75 1Z" fill="currentColor"/>
<path d="M18.25 1C20.8734 1 23 3.12665 23 5.75C23 7.88006 21.5976 9.68158 19.666 10.2842C19.479 9.98076 19.2734 9.69023 19.0527 9.41211C20.7379 9.04443 22 7.54541 22 5.75C22 3.67893 20.3211 2 18.25 2C16.1789 2 14.5 3.67893 14.5 5.75C14.5 5.96056 14.5174 6.16706 14.5508 6.36816C14.2135 6.26865 13.8681 6.1887 13.5156 6.12891C13.5058 6.00388 13.5 5.87756 13.5 5.75C13.5 3.12665 15.6266 1 18.25 1Z" fill="currentColor"/>
<path d="M7.80078 6.25488C7.91453 6.27833 8 6.37931 8 6.5C8 6.66297 7.97585 6.81965 7.93555 6.96973C7.64689 7.11612 7.36737 7.27757 7.09766 7.45312C7.28951 7.25254 7.4216 7.01067 7.47363 6.75H4.02637C4.16389 7.43897 4.85719 8 5.75 8C6.04982 8 6.32605 7.93435 6.56738 7.82422C6.29151 8.0334 6.029 8.25908 5.7793 8.49805C5.76954 8.49816 5.75978 8.5 5.75 8.5C4.53976 8.5 3.5 7.63488 3.5 6.5L3.50488 6.44922C3.52833 6.33547 3.62931 6.25 3.75 6.25H7.75L7.80078 6.25488Z" fill="currentColor"/>
<path d="M20.3008 6.25488C20.4145 6.27833 20.5 6.37931 20.5 6.5C20.5 7.63488 19.4602 8.5 18.25 8.5C18.2399 8.5 18.2298 8.49817 18.2197 8.49805C17.97 8.25908 17.7076 8.0334 17.4316 7.82422C17.6732 7.93458 17.9498 8 18.25 8C19.1428 8 19.8361 7.43897 19.9736 6.75H16.5264C16.5784 7.01046 16.7098 7.25264 16.9014 7.45312C16.6316 7.27758 16.3522 7.1161 16.0635 6.96973C16.0232 6.81972 16 6.66288 16 6.5L16.0049 6.44922C16.0283 6.33547 16.1293 6.25 16.25 6.25H20.25L20.3008 6.25488Z" fill="currentColor"/>
<path d="M4.25 4C4.66421 4 5 4.33579 5 4.75C5 5.16421 4.66421 5.5 4.25 5.5C3.83579 5.5 3.5 5.16421 3.5 4.75C3.5 4.33579 3.83579 4 4.25 4Z" fill="currentColor"/>
<path d="M7.25 4C7.66421 4 8 4.33579 8 4.75C8 5.16421 7.66421 5.5 7.25 5.5C6.83579 5.5 6.5 5.16421 6.5 4.75C6.5 4.33579 6.83579 4 7.25 4Z" fill="currentColor"/>
<path d="M16.75 4C17.1642 4 17.5 4.33579 17.5 4.75C17.5 5.16421 17.1642 5.5 16.75 5.5C16.3358 5.5 16 5.16421 16 4.75C16 4.33579 16.3358 4 16.75 4Z" fill="currentColor"/>
<path d="M19.75 4C20.1642 4 20.5 4.33579 20.5 4.75C20.5 5.16421 20.1642 5.5 19.75 5.5C19.3358 5.5 19 5.16421 19 4.75C19 4.33579 19.3358 4 19.75 4Z" fill="currentColor"/>
<path fill-rule="evenodd" clip-rule="evenodd" d="M12 7C7.58172 7 4 10.5817 4 15C4 19.4183 7.58172 23 12 23C16.4183 23 20 19.4183 20 15C20 10.5817 16.4183 7 12 7ZM12 21C15.3137 21 18 18.3137 18 15C18 11.6863 15.3137 9 12 9C8.68629 9 6 11.6863 6 15C6 18.3137 8.68629 21 12 21Z" fill="currentColor"/>
<path d="M10.5 13C10.5 13.5523 10.0523 14 9.5 14C8.94772 14 8.5 13.5523 8.5 13C8.5 12.4477 8.94772 12 9.5 12C10.0523 12 10.5 12.4477 10.5 13Z" fill="currentColor"/>
<path d="M15.5 13C15.5 13.5523 15.0523 14 14.5 14C13.9477 14 13.5 13.5523 13.5 13C13.5 12.4477 13.9477 12 14.5 12C15.0523 12 15.5 12.4477 15.5 13Z" fill="currentColor"/>
<path d="M15.5 15L15.6006 15.0098C15.8286 15.0563 16 15.2583 16 15.5C16 17.7091 14.2091 19.5 12 19.5C9.79086 19.5 8 17.7091 8 15.5L8.00977 15.3994C8.05629 15.1714 8.25829 15 8.5 15H15.5ZM9.04199 16C9.28007 17.4188 10.5135 18.5 12 18.5C13.4865 18.5 14.7199 17.4188 14.958 16H9.04199Z" fill="currentColor"/>
</svg>
