<svg viewBox="0 0 24 24" fill="currentColor" xmlns="http://www.w3.org/2000/svg">
<path fill-rule="evenodd" clip-rule="evenodd" d="M12 22C8.96243 22 6.5 19.5376 6.5 16.5C6.5 14.7921 7.2785 13.2656 8.5 12.2568V5.5C8.5 3.567 10.067 2 12 2C13.933 2 15.5 3.567 15.5 5.5V12.2568C16.7215 13.2656 17.5 14.7921 17.5 16.5C17.5 19.5376 15.0376 22 12 22ZM14.2266 13.7988C15.0077 14.444 15.5 15.4138 15.5 16.5C15.5 18.433 13.933 20 12 20C10.067 20 8.5 18.433 8.5 16.5C8.5 15.4138 8.99226 14.444 9.77344 13.7988L10.5 13.1992V5.5C10.5 4.67157 11.1716 4 12 4C12.8284 4 13.5 4.67157 13.5 5.5V13.1992L14.2266 13.7988Z" fill="currentColor"/>
<path d="M11.5 7.5C11.5 7.22386 11.7239 7 12 7C12.2761 7 12.5 7.22386 12.5 7.5L12.5 14.05C13.6411 14.2816 14.5 15.2905 14.5 16.5C14.5 17.8807 13.3807 19 12 19C10.6193 19 9.5 17.8807 9.5 16.5C9.5 15.2905 10.3589 14.2816 11.5 14.05V7.5Z" fill="currentColor"/>
<path d="M16.5 7.5C16.5 7.22386 16.7239 7 17 7H17.5C17.7761 7 18 7.22386 18 7.5C18 7.77614 17.7761 8 17.5 8H17C16.7239 8 16.5 7.77614 16.5 7.5Z" fill="currentColor"/>
<path d="M16.5 5.5C16.5 5.22386 16.7239 5 17 5H18.5C18.7761 5 19 5.22386 19 5.5C19 5.77614 18.7761 6 18.5 6H17C16.7239 6 16.5 5.77614 16.5 5.5Z" fill="currentColor"/>
<path d="M16.5 9.5C16.5 9.22386 16.7239 9 17 9H18.5C18.7761 9 19 9.22386 19 9.5C19 9.77614 18.7761 10 18.5 10H17C16.7239 10 16.5 9.77614 16.5 9.5Z" fill="currentColor"/>
<path d="M16.5 11.5C16.5 11.2239 16.7239 11 17 11H17.5C17.7761 11 18 11.2239 18 11.5C18 11.7761 17.7761 12 17.5 12H17C16.7239 12 16.5 11.7761 16.5 11.5Z" fill="currentColor"/>
</svg>
