<svg viewBox="0 0 24 24" fill="currentColor" xmlns="http://www.w3.org/2000/svg">
<path d="M11 6.5V3C11 2.44772 11.4477 2 12 2C17.5228 2 22 6.47715 22 12C22 17.5228 17.5228 22 12 22C6.47715 22 2 17.5228 2 12C2 9.56543 2.87168 7.33179 4.31836 5.59766C4.67218 5.17372 5.30253 5.11696 5.72656 5.4707C6.15041 5.82454 6.20723 6.45491 5.85352 6.87891C4.69571 8.26684 4 10.0509 4 12C4 16.4183 7.58172 20 12 20C16.4183 20 20 16.4183 20 12C20 7.92045 16.9462 4.55566 13 4.06348V6.5C13 7.05228 12.5523 7.5 12 7.5C11.4477 7.5 11 7.05228 11 6.5Z" fill="currentColor"/>
<path d="M13.5607 13.5607C14.0667 13.0547 14.1356 12.2771 13.7674 11.6971C13.6494 11.5111 13.4706 11.375 13.2913 11.2469L7.57691 7.16523C7.45952 7.08138 7.29871 7.09469 7.1967 7.1967C7.09469 7.29871 7.08138 7.45952 7.16523 7.57691L11.2469 13.2913C11.375 13.4706 11.5111 13.6494 11.6971 13.7674C12.2771 14.1356 13.0547 14.0667 13.5607 13.5607Z" fill="currentColor"/>
</svg>
