<svg viewBox="0 0 24 24" fill="currentColor" xmlns="http://www.w3.org/2000/svg">
<path d="M11 6.5V3C11 2.44772 11.4477 2 12 2C17.5228 2 22 6.47715 22 12C22 17.5228 17.5228 22 12 22C6.47715 22 2 17.5228 2 12C2 9.56543 2.87168 7.33179 4.31836 5.59766C4.67218 5.17372 5.30253 5.11696 5.72656 5.4707C6.15041 5.82454 6.20723 6.45491 5.85352 6.87891C4.69571 8.26684 4 10.0509 4 12C4 16.4183 7.58172 20 12 20C16.4183 20 20 16.4183 20 12C20 7.92045 16.9462 4.55566 13 4.06348V6.5C13 7.05228 12.5523 7.5 12 7.5C11.4477 7.5 11 7.05228 11 6.5Z" fill="currentColor"/>
<path d="M13.0607 13.0607C13.5543 12.567 13.632 11.8148 13.2935 11.2398C13.1649 11.0213 12.955 10.8678 12.7451 10.7256L7.78756 7.36724C7.66742 7.28585 7.50642 7.30119 7.40381 7.40381C7.30119 7.50642 7.28585 7.66742 7.36724 7.78756L10.7256 12.7451C10.8678 12.955 11.0213 13.1649 11.2398 13.2935C11.8148 13.632 12.567 13.5543 13.0607 13.0607Z" fill="currentColor"/>
</svg>
