<svg viewBox="0 0 24 24" fill="currentColor" xmlns="http://www.w3.org/2000/svg">
<path d="M20.0001 9.49973C20.4142 9.49976 20.7499 9.83566 20.7501 10.2497C20.7501 10.6639 20.4142 10.9997 20.0001 10.9997C19.5859 10.9997 19.2501 10.6639 19.2501 10.2497C19.2502 9.83564 19.5859 9.49973 20.0001 9.49973Z" fill="currentColor"/>
<path fill-rule="evenodd" clip-rule="evenodd" d="M9.08698 6.52707C11.2219 6.52712 12.7934 7.78719 13.8751 9.07394C14.4194 9.72149 14.8545 10.3929 15.1885 10.9489C15.3552 11.2263 15.4991 11.4792 15.6163 11.6823C15.6257 11.6986 15.6346 11.7147 15.6436 11.7302C15.6451 11.7287 15.6471 11.7278 15.6485 11.7263C15.729 11.6434 15.8382 11.5279 15.9532 11.3962C16.1995 11.1142 16.4167 10.8208 16.4923 10.6267C16.5616 10.4483 16.7619 9.62101 17.1807 8.95578C17.6353 8.234 18.406 7.56332 19.6866 7.5632C20.9888 7.56336 21.9002 8.37696 22.4258 9.23898C22.6903 9.67285 22.8713 10.1388 22.9669 10.5642C23.0588 10.974 23.0854 11.4073 22.9766 11.7507C22.776 12.3836 22.2217 12.8046 21.7227 13.0564C21.2153 13.3124 20.6415 13.4568 20.2315 13.4568C19.9128 13.4568 19.5689 13.4562 19.252 13.4734C18.9253 13.491 18.6736 13.5252 18.5225 13.5749C18.4769 13.59 18.3811 13.64 18.2159 13.7419C18.1393 13.7892 18.0569 13.8413 17.9678 13.8982C17.8802 13.9541 17.786 14.0143 17.6905 14.073C17.5017 14.1889 17.2905 14.3111 17.0811 14.4011C16.93 14.466 16.7452 14.5296 16.5499 14.5466C16.4388 14.5814 16.3155 14.6102 16.1944 14.6306C15.933 14.6746 15.6002 14.7068 15.2569 14.739C15.3687 14.7815 15.4867 14.8266 15.6114 14.8737C15.9057 14.9851 16.2541 15.1236 16.5147 15.3093C16.6489 15.405 16.7925 15.5352 16.8887 15.7136C16.9922 15.9056 17.026 16.1256 16.9727 16.3532C16.8222 16.9957 16.3424 17.3859 15.7628 17.5407C15.203 17.6901 14.535 17.6317 13.8702 17.4196C13.182 17.2001 12.5856 16.7985 12.1719 16.4675C11.9624 16.2998 11.7933 16.1447 11.6758 16.031C11.617 15.974 11.5704 15.9268 11.5382 15.8933C11.5306 15.8854 11.5238 15.8782 11.5176 15.8718C11.4979 15.8824 11.4789 15.8945 11.459 15.905C10.8301 16.2377 10.076 16.5358 9.08698 16.5359C8.09334 16.5358 7.40639 16.2406 6.84479 15.8982C6.81273 15.8786 6.78191 15.8568 6.75007 15.8366C6.64893 15.9487 6.54058 16.059 6.42585 16.1609C6.13811 16.4162 5.79446 16.6616 5.43854 16.8747C5.0827 17.0878 4.70367 17.2748 4.34089 17.4099C3.98514 17.5423 3.61149 17.6374 3.27741 17.6374C2.74693 17.6374 2.15783 17.5532 1.73346 17.2946C1.51174 17.1595 1.30287 16.9556 1.20514 16.6638C1.10633 16.3684 1.14795 16.0598 1.27546 15.7693C1.43426 15.4078 1.73549 15.1897 2.02741 15.0476C2.28593 14.9218 2.5867 14.8332 2.87409 14.7566C2.57296 14.7346 2.28578 14.711 2.04889 14.6736C1.88359 14.6474 1.7119 14.6112 1.56745 14.5544C1.49496 14.5259 1.40662 14.4829 1.32526 14.4177C1.24274 14.3515 1.14207 14.241 1.10065 14.0759C1.02304 13.7654 1.14237 13.5149 1.28327 13.3464C1.40102 13.2057 1.56906 13.0801 1.68854 12.988C1.95743 12.7808 2.24881 12.5519 2.48346 12.156C2.72511 11.7482 3.36701 10.3005 4.38678 9.04074C5.42419 7.75929 6.95236 6.5271 9.08698 6.52707ZM5.19342 14.9802C4.56343 15.3779 3.78755 15.5505 3.22663 15.697C2.90545 15.7809 2.65389 15.855 2.46491 15.947C2.27909 16.0375 2.21506 16.1157 2.19049 16.1716C2.13647 16.2949 2.15208 16.3427 2.15339 16.3464C2.15533 16.3521 2.16951 16.3886 2.25397 16.4402C2.44418 16.556 2.81151 16.6374 3.27741 16.6374C3.44144 16.6374 3.68696 16.5866 3.99128 16.4734C4.28852 16.3627 4.6129 16.2031 4.92487 16.0163C5.23689 15.8295 5.5281 15.6202 5.76178 15.4128C5.81291 15.3674 5.8592 15.3218 5.90241 15.279C5.76238 15.1933 5.62972 15.1196 5.49128 15.0642C5.41389 15.0333 5.31381 15.006 5.19342 14.9802ZM13.6778 14.9167C13.4221 14.9586 13.1975 15.0089 13.0235 15.071C12.8302 15.1401 12.6358 15.2393 12.421 15.3591C12.5167 15.4494 12.6434 15.5641 12.796 15.6862C13.1623 15.9794 13.65 16.2991 14.1749 16.4665C14.7231 16.6413 15.1868 16.6589 15.5049 16.5739C15.7839 16.4994 15.9278 16.3582 15.9864 16.1657C15.9749 16.155 15.9587 16.1399 15.9346 16.1228C15.7959 16.0239 15.5683 15.9271 15.2569 15.8093C14.9735 15.7021 14.6184 15.5776 14.3282 15.4314C14.1191 15.326 13.853 15.1652 13.6778 14.9167ZM10.6602 11.654C10.1459 11.8112 9.60536 11.9155 9.07819 11.906C8.6577 11.8983 8.23092 11.8287 7.81745 11.7253C7.65923 12.3556 7.38628 13.0252 7.14069 13.5603C6.97734 13.9162 6.81994 14.2275 6.70319 14.4499C6.68194 14.4904 6.66114 14.5277 6.64264 14.5622C6.65208 14.5685 6.66161 14.5745 6.67096 14.5808C6.92336 14.7494 7.12363 14.8973 7.3653 15.0446C7.81359 15.318 8.32201 15.5358 9.08698 15.5359C9.85626 15.5358 10.4467 15.3098 10.9923 15.0212C11.2767 14.8707 11.525 14.7165 11.8096 14.5534C11.8127 14.5517 11.8154 14.5493 11.8184 14.5476C11.8039 14.5242 11.7883 14.5 11.7725 14.4743C11.6322 14.2456 11.4468 13.9245 11.2676 13.5583C11.0892 13.1935 10.9117 12.7727 10.793 12.3464C10.7312 12.1241 10.6822 11.8897 10.6602 11.654ZM13.3018 10.3767C13.0389 10.5475 12.6666 10.775 12.2296 11.0017C12.0511 11.0942 11.8572 11.1863 11.6544 11.2771C11.6367 11.4974 11.6699 11.7696 11.7559 12.0788C11.8526 12.4262 12.0028 12.787 12.1651 13.1189C12.3267 13.4492 12.4963 13.7419 12.6251 13.9519C12.6638 14.0149 12.6997 14.0696 12.7296 14.1159C13.3461 13.9073 14.3038 13.824 15.0401 13.7556C15.3638 13.7255 15.6498 13.6954 15.879 13.6638C15.6767 13.4445 15.3683 13.1246 15.0674 12.6999C14.975 12.5694 14.8657 12.3827 14.7501 12.1823C14.6295 11.9734 14.4919 11.7312 14.3311 11.4636C14.1025 11.0831 13.8301 10.6595 13.5137 10.2331C13.4538 10.2739 13.3836 10.3235 13.3018 10.3767ZM4.68073 10.3259C4.01811 11.2941 3.61562 12.207 3.34382 12.6657C3.03901 13.1801 2.66271 13.4952 2.38776 13.7097C2.64517 13.7404 2.96414 13.764 3.32038 13.7868C3.75565 13.8148 4.23913 13.8428 4.67585 13.8904C5.05677 13.9318 5.44681 13.9922 5.7569 14.0974C5.77509 14.0632 5.796 14.0259 5.81745 13.9851C5.92812 13.7743 6.07728 13.4793 6.23151 13.1433C6.48518 12.5906 6.73312 11.9616 6.86139 11.4216C6.5563 11.3059 6.26901 11.1819 6.01178 11.0593C5.58878 10.8577 5.22978 10.6576 4.97663 10.5075C4.85121 10.4332 4.75056 10.3704 4.68073 10.3259ZM19.6866 8.5632C18.8318 8.56331 18.3473 8.98018 18.0274 9.48801C17.672 10.0524 17.576 10.5978 17.4239 10.989C17.278 11.3641 16.9499 11.7742 16.7061 12.0534C16.5763 12.2021 16.4547 12.3316 16.3653 12.4236C16.3205 12.4697 16.283 12.507 16.2569 12.5329C16.2459 12.5439 16.2364 12.5525 16.2296 12.5593C16.3873 12.7423 16.5361 12.8986 16.6719 13.0486C16.756 13.1413 16.8488 13.2485 16.9249 13.362C17.0017 13.3195 17.0828 13.2722 17.1671 13.2204C17.2543 13.1668 17.3418 13.1115 17.4298 13.0554C17.5165 13 17.606 12.9425 17.6905 12.8904C17.8469 12.7938 18.0364 12.6827 18.209 12.6257C18.4945 12.5315 18.8599 12.4936 19.1983 12.4753C19.5468 12.4565 19.9179 12.4568 20.2315 12.4568C20.454 12.4568 20.8742 12.3647 21.2725 12.1638C21.6792 11.9586 21.9434 11.7014 22.0235 11.4489C22.0549 11.3496 22.0667 11.1188 21.9913 10.7829C21.9193 10.4624 21.7791 10.0988 21.5723 9.75949C21.1551 9.07528 20.5195 8.56335 19.6866 8.5632ZM9.08698 7.52707C7.45336 7.5271 6.21841 8.4223 5.2862 9.52414C5.34066 9.55802 5.40767 9.60051 5.48639 9.64719C5.71978 9.78554 6.05164 9.97113 6.44147 10.157C7.23491 10.5351 8.21799 10.89 9.09674 10.906C9.95441 10.9214 10.9477 10.5398 11.7686 10.114C12.1703 9.90562 12.5141 9.69553 12.7569 9.53781C12.8016 9.5088 12.8415 9.47975 12.879 9.4548C11.9095 8.38459 10.6645 7.52711 9.08698 7.52707Z" fill="currentColor"/>
</svg>
