<svg viewBox="0 0 24 24" fill="currentColor" xmlns="http://www.w3.org/2000/svg">
<path fill-rule="evenodd" clip-rule="evenodd" d="M17.5 10.5C17.5 13.5376 15.0376 16 12 16C8.96243 16 6.5 13.5376 6.5 10.5C6.5 7.46243 8.96243 5 12 5C15.0376 5 17.5 7.46243 17.5 10.5ZM12.95 13.8498C12.783 14.2674 12.5966 14.5717 12.4152 14.7635C12.2348 14.9543 12.0944 15 12 15C11.9056 15 11.7652 14.9543 11.5848 14.7635C11.4034 14.5717 11.217 14.2674 11.05 13.8498C10.8971 13.4676 10.7686 13.0111 10.6744 12.5H13.3256C13.2314 13.0111 13.1029 13.4676 12.95 13.8498ZM10.3295 14.6798C9.3 14.2679 8.45812 13.4867 7.96776 12.5H9.65921C9.76584 13.1413 9.92302 13.7249 10.1215 14.2212C10.1855 14.3811 10.2548 14.5346 10.3295 14.6798ZM7.61151 9.5C7.53853 9.82161 7.5 10.1563 7.5 10.5C7.5 10.8437 7.53853 11.1784 7.61151 11.5H9.53844C9.51313 11.1751 9.5 10.8407 9.5 10.5C9.5 10.1593 9.51313 9.8249 9.53844 9.5H7.61151ZM13.5 10.5C13.5 10.1555 13.4855 9.82104 13.4583 9.5H10.5417C10.5145 9.82104 10.5 10.1555 10.5 10.5C10.5 10.8445 10.5145 11.179 10.5417 11.5H13.4583C13.4855 11.179 13.5 10.8445 13.5 10.5ZM12 6C12.0944 6 12.2348 6.04575 12.4152 6.23648C12.5966 6.42826 12.783 6.73261 12.95 7.15016C13.1029 7.53244 13.2314 7.98892 13.3256 8.5H10.6744C10.7686 7.98892 10.8971 7.53244 11.05 7.15016C11.217 6.73261 11.4034 6.42826 11.5848 6.23648C11.7652 6.04575 11.9056 6 12 6ZM10.3295 6.32024C10.2548 6.46542 10.1855 6.6189 10.1215 6.77877C9.92302 7.27509 9.76584 7.85871 9.65921 8.5H7.96776C8.45812 7.51328 9.3 6.73208 10.3295 6.32024ZM13.8785 6.77877C13.8145 6.6189 13.7452 6.46542 13.6705 6.32024C14.7 6.73208 15.5419 7.51328 16.0322 8.5H14.3408C14.2342 7.85871 14.077 7.27509 13.8785 6.77877ZM16.5 10.5C16.5 10.8437 16.4615 11.1784 16.3885 11.5H14.4616C14.4869 11.1751 14.5 10.8407 14.5 10.5C14.5 10.1593 14.4869 9.8249 14.4616 9.5H16.3885C16.4615 9.82161 16.5 10.1563 16.5 10.5ZM13.6705 14.6798C13.7452 14.5346 13.8145 14.3811 13.8785 14.2212C14.077 13.7249 14.2342 13.1413 14.3408 12.5H16.0322C15.5419 13.4867 14.7 14.2679 13.6705 14.6798Z" fill="currentColor"/>
<path fill-rule="evenodd" clip-rule="evenodd" d="M1 7C1 4.23858 3.23858 2 6 2H18C20.7614 2 23 4.23858 23 7V14C23 16.7614 20.7614 19 18 19H15.9538L12.9407 22.4435C12.4427 23.0126 11.5573 23.0126 11.0593 22.4435L8.04623 19H6C3.23858 19 1 16.7614 1 14V7ZM6 4C4.34315 4 3 5.34315 3 7V14C3 15.6569 4.34315 17 6 17H8.04623C8.62296 17 9.17161 17.249 9.55138 17.683L12 20.4814L14.4486 17.683C14.8284 17.249 15.377 17 15.9538 17H18C19.6569 17 21 15.6569 21 14V7C21 5.34315 19.6569 4 18 4H6Z" fill="currentColor"/>
</svg>
