<svg viewBox="0 0 24 24" fill="currentColor" xmlns="http://www.w3.org/2000/svg">
<path d="M9 12C9 11.7239 9.22386 11.5 9.5 11.5C9.77614 11.5 10 11.7239 10 12V17C10 17.2761 9.77614 17.5 9.5 17.5C9.22386 17.5 9 17.2761 9 17V12Z" fill="currentColor"/>
<path d="M11.5 12C11.5 11.7239 11.7239 11.5 12 11.5C12.2761 11.5 12.5 11.7239 12.5 12V17C12.5 17.2761 12.2761 17.5 12 17.5C11.7239 17.5 11.5 17.2761 11.5 17V12Z" fill="currentColor"/>
<path d="M14 12C14 11.7239 14.2239 11.5 14.5 11.5C14.7761 11.5 15 11.7239 15 12V17C15 17.2761 14.7761 17.5 14.5 17.5C14.2239 17.5 14 17.2761 14 17V12Z" fill="currentColor"/>
<path fill-rule="evenodd" clip-rule="evenodd" d="M9.5 3.5C9.5 2.67157 10.1716 2 11 2H13L13.1533 2.00781C13.9097 2.08461 14.5 2.72334 14.5 3.5V4H16.5C18.1569 4 19.5 5.34315 19.5 7V7.75C19.5 8.35474 19.0706 8.85918 18.5 8.975V19C18.5 20.6569 17.1569 22 15.5 22H8.5C6.84315 22 5.5 20.6569 5.5 19V8.975C4.92944 8.85918 4.5 8.35474 4.5 7.75V7C4.5 5.34315 5.84315 4 7.5 4H9.5V3.5ZM13.1006 3.00977C13.3286 3.05629 13.5 3.25829 13.5 3.5V4H10.5V3.5C10.5 3.22386 10.7239 3 11 3H13L13.1006 3.00977ZM8.5 20C7.94772 20 7.5 19.5523 7.5 19V9H16.5V19C16.5 19.5523 16.0523 20 15.5 20H8.5ZM16.5 6C17.0523 6 17.5 6.44772 17.5 7H6.5C6.5 6.44772 6.94772 6 7.5 6H16.5Z" fill="currentColor"/>
</svg>
