<svg viewBox="0 0 24 24" fill="currentColor" xmlns="http://www.w3.org/2000/svg">
<path fill-rule="evenodd" clip-rule="evenodd" d="M20.8744 18.7531C21.4601 19.3388 21.4601 20.2886 20.8744 20.8744C20.2886 21.4602 19.3388 21.4602 18.753 20.8744L8.14643 10.2678C7.56065 9.68199 7.56065 8.73224 8.14643 8.14645C8.73222 7.56066 9.68197 7.56066 10.2678 8.14645L20.8744 18.7531ZM12.7426 12.0355L12.0355 12.7426L8.85354 9.56066C8.65828 9.3654 8.65828 9.04882 8.85354 8.85356C9.0488 8.6583 9.36538 8.6583 9.56065 8.85356L12.7426 12.0355Z" fill="currentColor"/>
<path d="M5.25558 2.63827C5.31214 2.37492 5.68789 2.37492 5.74444 2.63827L6.0714 4.16086C6.154 4.54553 6.45449 4.84601 6.83916 4.92862L8.36175 5.25557C8.6251 5.31212 8.6251 5.68788 8.36175 5.74443L6.83916 6.07139C6.45449 6.15399 6.154 6.45448 6.0714 6.83915L5.74444 8.36174C5.68789 8.62509 5.31214 8.62509 5.25558 8.36174L4.92863 6.83915C4.84603 6.45448 4.54554 6.15399 4.16087 6.07139L2.63828 5.74443C2.37493 5.68788 2.37493 5.31212 2.63828 5.25557L4.16087 4.92862C4.54554 4.84601 4.84603 4.54553 4.92863 4.16086L5.25558 2.63827Z" fill="currentColor"/>
<path d="M13.2556 2.63827C13.3121 2.37492 13.6879 2.37492 13.7444 2.63827L13.8946 3.33763C13.9772 3.7223 14.2777 4.02279 14.6624 4.10539L15.3617 4.25557C15.6251 4.31212 15.6251 4.68788 15.3617 4.74443L14.6624 4.89461C14.2777 4.97721 13.9772 5.2777 13.8946 5.66237L13.7444 6.36174C13.6879 6.62509 13.3121 6.62509 13.2556 6.36174L13.1054 5.66237C13.0228 5.2777 12.7223 4.97721 12.3376 4.89461L11.6383 4.74443C11.3749 4.68788 11.3749 4.31212 11.6383 4.25557L12.3376 4.10539C12.7223 4.02279 13.0228 3.7223 13.1054 3.33763L13.2556 2.63827Z" fill="currentColor"/>
<path d="M4.25558 11.6383C4.31214 11.3749 4.68789 11.3749 4.74444 11.6383L4.89462 12.3376C4.97722 12.7223 5.27771 13.0228 5.66238 13.1054L6.36175 13.2556C6.6251 13.3121 6.6251 13.6879 6.36175 13.7444L5.66238 13.8946C5.27771 13.9772 4.97722 14.2777 4.89462 14.6624L4.74444 15.3617C4.68789 15.6251 4.31214 15.6251 4.25558 15.3617L4.1054 14.6624C4.0228 14.2777 3.72231 13.9772 3.33764 13.8946L2.63828 13.7444C2.37493 13.6879 2.37493 13.3121 2.63828 13.2556L3.33764 13.1054C3.72231 13.0228 4.0228 12.7223 4.1054 12.3376L4.25558 11.6383Z" fill="currentColor"/>
</svg>
