<svg viewBox="0 0 24 24" fill="currentColor" xmlns="http://www.w3.org/2000/svg">
<path fill-rule="evenodd" clip-rule="evenodd" d="M9 1C4.58172 1 1 4.58172 1 9C1 13.2475 4.31018 16.7219 8.49156 16.9841C8.22551 16.3413 8.0596 15.6465 8.0133 14.9193C8.00448 14.7806 8 14.6408 8 14.5C8 14.433 8.00101 14.3663 8.00302 14.2998C7.83239 14.0597 7.66748 13.7596 7.51594 13.4014C7.31565 12.928 7.14599 12.3704 7.01765 11.75H8.60868C8.77309 11.3984 8.96806 11.0639 9.19016 10.75H6.85441C6.78672 10.1974 6.75 9.61022 6.75 9C6.75 8.38978 6.78672 7.80265 6.85441 7.25H11.1456C11.2085 7.76327 11.2446 8.30628 11.2494 8.86991C11.5636 8.68814 11.8944 8.5319 12.2389 8.40405C12.2243 8.00967 12.1951 7.62398 12.1525 7.25H14.7408C14.8163 7.49801 14.8762 7.75282 14.9193 8.0133C15.6465 8.0596 16.3413 8.22551 16.9841 8.49156C16.7219 4.31018 13.2475 1 9 1ZM8.28308 3.3644C8.5499 3.09766 8.7917 3 9 3C9.2083 3 9.4501 3.09766 9.71692 3.3644C9.9857 3.63312 10.2507 4.04714 10.4841 4.59863C10.6844 5.07205 10.854 5.62956 10.9824 6.25H7.01765C7.14599 5.62956 7.31565 5.07205 7.51594 4.59863C7.74926 4.04714 8.0143 3.63312 8.28308 3.3644ZM11.405 4.20899C11.6553 4.80066 11.8578 5.49126 12.0018 6.25H14.3341C13.6296 4.8863 12.4175 3.8274 10.9478 3.32323C11.1167 3.58995 11.2692 3.888 11.405 4.20899ZM5.84748 7.25C5.78367 7.81043 5.75 8.39715 5.75 9C5.75 9.60285 5.78367 10.1896 5.84748 10.75H3.25922C3.09066 10.1964 3 9.60876 3 9C3 8.39124 3.09066 7.80365 3.25922 7.25H5.84748ZM5.99822 6.25C6.14216 5.49126 6.34465 4.80066 6.59497 4.20899C6.73077 3.888 6.88326 3.58995 7.05222 3.32323C5.58247 3.8274 4.37039 4.8863 3.66591 6.25H5.99822ZM3.66591 11.75H5.99822C6.14216 12.5087 6.34465 13.1993 6.59497 13.791C6.73077 14.112 6.88326 14.4101 7.05223 14.6768C5.58247 14.1726 4.37039 13.1137 3.66591 11.75Z" fill="currentColor"/>
<path fill-rule="evenodd" clip-rule="evenodd" d="M14.5 9C17.5376 9 20 11.4624 20 14.5C20 15.4734 19.7471 16.3877 19.3035 17.1809L22.5614 20.4388C23.1472 21.0246 23.1472 21.9743 22.5614 22.5601C21.9756 23.1459 21.0259 23.1459 20.4401 22.5601L17.1826 19.3026C16.389 19.7468 15.4741 20 14.5 20C11.4624 20 9 17.5376 9 14.5C9 11.4624 11.4624 9 14.5 9ZM14.5 18C16.433 18 18 16.433 18 14.5C18 12.567 16.433 11 14.5 11C12.567 11 11 12.567 11 14.5C11 16.433 12.567 18 14.5 18Z" fill="currentColor"/>
</svg>
