<svg viewBox="0 0 24 24" fill="currentColor" xmlns="http://www.w3.org/2000/svg">
<path fill-rule="evenodd" clip-rule="evenodd" d="M12.3923 4.13398C12.8706 3.85783 13.4822 4.02171 13.7583 4.5C14.9254 6.52148 14.9697 8.88311 14.0846 10.8627L22.0023 15.434C22.4806 15.7101 22.6445 16.3217 22.3683 16.8C20.4353 20.148 16.1542 21.2952 12.8062 19.3622C11.0243 18.3334 9.86578 16.6395 9.46329 14.7751C6.489 15.5527 3.24548 14.2912 1.63398 11.5C1.50137 11.2703 1.46554 10.9974 1.53418 10.7412C1.60282 10.485 1.77032 10.2666 2 10.134L12.3923 4.13398ZM3.95314 11.3157L12.4392 6.41632C12.8217 7.55809 12.769 8.77692 12.3393 9.85504L11.61 9.43398C11.3803 9.30137 11.1074 9.26553 10.8512 9.33418C10.595 9.40282 10.3766 9.57032 10.244 9.8C9.70855 10.7274 9.40945 11.7264 9.32798 12.7272C7.42032 13.388 5.28826 12.8261 3.95314 11.3157ZM20.0492 16.6157C18.5068 18.3605 15.901 18.8396 13.8062 17.6301C12.412 16.8252 11.5524 15.4504 11.3514 13.9699C11.2503 13.2258 11.3157 12.4549 11.5631 11.7163L20.0492 16.6157Z" fill="currentColor"/>
</svg>
