<svg viewBox="0 0 24 24" fill="currentColor" xmlns="http://www.w3.org/2000/svg">
<path d="M10.6336 8.50017C10.3576 8.02203 10.5216 7.41055 10.9996 7.13429L20.5265 1.63346C20.7561 1.50103 21.0294 1.46563 21.2854 1.53423C21.5414 1.60294 21.76 1.77082 21.8926 2.0004C23.7834 5.27586 22.9413 9.47719 19.7633 11.3121C16.585 13.1471 12.5247 11.7757 10.6336 8.50017ZM12.9442 8.32083C13.0621 8.45995 13.1848 8.59184 13.3128 8.71543C13.5671 8.78353 13.8482 8.82476 14.1535 8.83798C15.2234 8.88415 16.5178 8.56761 17.7635 7.84842C19.009 7.1293 19.9302 6.16693 20.4252 5.21734C20.5663 4.94661 20.6692 4.68201 20.7374 4.428C20.6944 4.25554 20.6443 4.08276 20.5828 3.91135L12.9442 8.32083ZM15.0107 9.80734C16.2562 10.2901 17.6296 10.2349 18.7634 9.58028C19.8969 8.92579 20.6312 7.76444 20.836 6.44483C20.2159 7.30149 19.3348 8.09578 18.2635 8.71435C17.1918 9.33307 16.0629 9.69878 15.0107 9.80734ZM5.06917 19.4694C4.90966 18.8739 4.9993 18.2138 5.18239 17.6243C5.37211 17.0135 5.69412 16.3742 6.12175 15.7722C6.97276 14.5741 8.31382 13.4236 10.0536 12.9574C11.7933 12.4913 13.53 12.8171 14.866 13.4291C15.5374 13.7367 16.1359 14.1293 16.6056 14.5634C17.0589 14.9825 17.4666 15.5093 17.6262 16.1047C17.7858 16.7002 17.6961 17.3603 17.513 17.9498C17.3233 18.5607 17.0013 19.1999 16.5736 19.802C15.7226 21.0001 14.3816 22.1505 12.6418 22.6167C10.902 23.0828 9.1654 22.7571 7.82935 22.145C7.15801 21.8374 6.55945 21.4448 6.08977 21.0107C5.63647 20.5917 5.22872 20.0648 5.06917 19.4694ZM7.44729 19.5419C7.74349 19.8157 8.15933 20.0959 8.66244 20.3264C9.67549 20.7905 10.9301 21.0047 12.1241 20.6848C13.3182 20.3649 14.2975 19.5521 14.9428 18.6436C15.2633 18.1923 15.4833 17.7419 15.6029 17.3566C15.6337 17.2574 15.6564 17.168 15.6726 17.0882L7.25185 19.3445C7.30581 19.4056 7.37088 19.4713 7.44729 19.5419ZM15.3524 16.1387C15.3198 16.1053 15.2867 16.0679 15.2481 16.0322C14.9518 15.7585 14.536 15.4782 14.0329 15.2477C13.0199 14.7837 11.7652 14.5694 10.5712 14.8893C9.37726 15.2092 8.3978 16.0221 7.75253 16.9306C7.43204 17.3818 7.21207 17.8323 7.09242 18.2175C7.07675 18.268 7.066 18.3168 7.05435 18.3622L15.3524 16.1387ZM4.69641 13.392C1.42083 11.5008 0.0492885 7.44115 1.88428 4.26285C3.71937 1.08485 7.92095 0.242578 11.1964 2.13366L11.2795 2.18722C11.4663 2.32131 11.6013 2.51698 11.6614 2.74103C11.73 2.99705 11.6948 3.26995 11.5624 3.49954L6.06229 13.026C5.78616 13.5043 5.17469 13.6681 4.69641 13.392ZM3.61614 5.26275C2.55912 7.09356 3.06444 9.54881 4.87525 11.0824L9.28475 3.44358C7.05146 2.64251 4.67319 3.43231 3.61614 5.26275Z" fill="currentColor"/>
</svg>
