<svg viewBox="0 0 24 24" fill="currentColor" xmlns="http://www.w3.org/2000/svg">
<path d="M12.0004 2C13.6571 2.0002 15.0004 3.34327 15.0004 5C15.0004 6.30562 14.1647 7.4129 13.0004 7.8252V9H15.7094C17.5127 9.00033 19.0931 10.2074 19.5677 11.9473L20.932 16.9473L20.9896 17.1855C21.5058 19.646 19.6276 21.9998 17.0726 22H6.9281C4.29062 22 2.37476 19.4918 3.06873 16.9473L4.43298 11.9473L4.53455 11.6279C5.10581 10.0614 6.60043 9.00016 8.29138 9H11.0004V7.8252C9.83568 7.41309 9.00037 6.30586 9.00037 5C9.00037 3.34315 10.3435 2 12.0004 2ZM8.29138 11C7.44619 11.0002 6.69922 11.5306 6.41345 12.3135L6.36267 12.4736L4.99841 17.4736C4.65143 18.7459 5.60936 20 6.9281 20H17.0726C18.3087 19.9998 19.2279 18.8978 19.0521 17.7119L19.0023 17.4736L17.6381 12.4736C17.4007 11.6039 16.6109 11.0003 15.7094 11H8.29138ZM12.0004 4C11.4481 4 11.0004 4.44772 11.0004 5C11.0004 5.55228 11.4481 6 12.0004 6C12.5525 5.9998 13.0004 5.55216 13.0004 5C13.0004 4.44784 12.5525 4.0002 12.0004 4Z" fill="currentColor"/>
</svg>
