<svg viewBox="0 0 24 24" fill="currentColor" xmlns="http://www.w3.org/2000/svg">
<path d="M9.80141 9.12063C9.80141 9.12063 9.53502 8.57915 9.44429 8.39914C8.83893 7.20004 8.852 7.13616 8.24011 7.05486C8.06881 7.03236 7.98026 7.01059 7.98026 6.92567V6.54605L8.03179 6.50903C9.13726 6.50757 11.5972 6.50758 11.5972 6.50758L11.6915 6.53879V6.91696C11.6915 7.00333 11.6298 7.04761 11.5042 7.04761L11.2458 7.08462C10.5926 7.13543 10.6993 7.40255 11.1333 8.26703L12.455 10.9712L13.917 8.05509C14.1616 7.52159 14.1115 7.38803 14.0106 7.26464C13.9525 7.19568 13.758 7.0839 13.3348 7.06721L13.1686 7.04906C13.1265 7.04906 13.0873 7.03455 13.0489 7.00624C13.0111 6.97938 12.9922 6.94454 12.9922 6.90026V6.54024L13.0438 6.50323C14.0788 6.49597 16.4037 6.50323 16.4037 6.50323L16.4451 6.54097V6.90099C16.4451 7.00043 16.3892 7.04979 16.2789 7.04979C15.7374 7.07519 15.6263 7.1289 15.4282 7.41416C15.32 7.56949 15.1066 7.90411 14.8852 8.2801L12.985 11.8338L12.9314 11.9457L15.254 16.6977L15.3948 16.7362L19.0531 8.05436C19.1801 7.7045 19.1605 7.45626 18.9972 7.31036C18.8331 7.16882 18.7177 7.0839 18.2938 7.06648L17.9505 7.04978C17.9084 7.04978 17.8685 7.03454 17.83 7.0055C17.7923 6.97865 17.7727 6.94308 17.7727 6.90026V6.53879L17.8249 6.50177H21.9579L22 6.53879V6.90026C22 6.99825 21.9441 7.04761 21.8338 7.04761C21.2923 7.07156 20.8909 7.18915 20.6311 7.39892C20.3705 7.61014 20.1672 7.90048 20.0213 8.27937C20.0213 8.27937 16.657 15.9792 15.5058 18.5392C15.0653 19.3783 14.6319 19.3014 14.2509 18.5153C13.7737 17.5326 12.7829 15.3651 12.055 13.7628C11.2767 15.3686 10.2109 17.5448 9.68237 18.5247C9.16847 19.4182 8.7453 19.3014 8.40851 18.5479C7.23917 15.789 4.83806 10.9447 3.70792 8.23002C3.49888 7.72991 3.34137 7.40908 3.19257 7.28206C3.04304 7.15649 2.73238 7.081 2.25985 7.05559C2.08638 7.03672 2 6.99462 2 6.9264V6.54823L2.0421 6.51121C2.8115 6.50685 6.5351 6.51121 6.5351 6.51121L6.57719 6.54823V6.90825C6.57719 7.00769 6.51405 7.05559 6.38993 7.05559L5.92103 7.07519C5.51891 7.09188 5.31785 7.21238 5.31785 7.43521C5.31785 7.53901 5.35995 7.70813 5.45358 7.9346C6.35363 10.1281 9.46244 16.6832 9.46244 16.6832L9.5764 16.713L11.5803 12.7159C11.3353 12.1747 11.1791 11.828 11.1791 11.828L9.80141 9.12063Z" fill="currentColor"/>
</svg>
