<svg viewBox="0 0 24 24" fill="currentColor" xmlns="http://www.w3.org/2000/svg">
<path d="M9.58155 7.9227C9.58155 7.9227 9.28852 7.32707 9.18872 7.12906C8.52283 5.81005 8.5372 5.73978 7.86412 5.65036C7.67569 5.62561 7.57828 5.60166 7.57828 5.50824V5.09066L7.63497 5.04994C8.85098 5.04834 11.5569 5.04834 11.5569 5.04834L11.6607 5.08267V5.49866C11.6607 5.59367 11.5928 5.64238 11.4547 5.64238L11.1704 5.68309C10.4518 5.73898 10.5692 6.03281 11.0467 6.98374L12.5005 9.95828L14.1087 6.75061C14.3777 6.16376 14.3226 6.01684 14.2117 5.88111C14.1478 5.80526 13.9338 5.6823 13.4683 5.66394L13.2855 5.64398C13.2392 5.64398 13.1961 5.62801 13.1537 5.59687C13.1122 5.56733 13.0915 5.529 13.0915 5.4803V5.08427L13.1481 5.04356C14.2867 5.03557 16.8441 5.04356 16.8441 5.04356L16.8896 5.08507V5.4811C16.8896 5.59048 16.8281 5.64478 16.7068 5.64478C16.1111 5.67272 15.989 5.7318 15.771 6.04559C15.652 6.21645 15.4173 6.58453 15.1738 6.99812L13.0835 10.9072L13.0245 11.0303L15.5794 16.2575L15.7343 16.2998L19.7584 6.7498C19.8981 6.36496 19.8765 6.09189 19.6969 5.93141C19.5164 5.77572 19.3895 5.6823 18.9232 5.66314L18.5455 5.64477C18.4992 5.64477 18.4553 5.628 18.413 5.59606C18.3715 5.56652 18.3499 5.5274 18.3499 5.48029V5.08267L18.4074 5.04196H22.9537L23 5.08267V5.48029C23 5.58808 22.9385 5.64238 22.8172 5.64238C22.2215 5.66873 21.78 5.79807 21.4942 6.02882C21.2075 6.26116 20.984 6.58053 20.8235 6.99732C20.8235 6.99732 17.1227 15.4671 15.8564 18.2832C15.3718 19.2061 14.8951 19.1215 14.4759 18.2568C13.9511 17.1758 12.8612 14.7917 12.0605 13.0291C11.2043 14.7955 10.032 17.1893 9.45061 18.2672C8.88532 19.2501 8.41983 19.1215 8.04936 18.2927C6.76308 15.2579 4.12187 9.92916 2.87871 6.94303C2.64876 6.39291 2.4755 6.04 2.31182 5.90027C2.14735 5.76214 1.80562 5.6791 1.28584 5.65116C1.09501 5.6304 1 5.5841 1 5.50904V5.09306L1.04631 5.05234C1.89265 5.04754 5.98861 5.05234 5.98861 5.05234L6.03491 5.09306V5.48908C6.03491 5.59847 5.96545 5.65116 5.82892 5.65116L5.31313 5.67272C4.8708 5.69108 4.64963 5.82362 4.64963 6.06874C4.64963 6.18292 4.69594 6.36895 4.79894 6.61807C5.789 9.03093 9.20868 16.2416 9.20868 16.2416L9.33404 16.2743L11.5383 11.8775C11.2688 11.2821 11.097 10.9009 11.097 10.9009L9.58155 7.9227Z" fill="currentColor"/>
</svg>
