<svg viewBox="0 0 24 24" fill="currentColor" xmlns="http://www.w3.org/2000/svg">
<path d="M9.58155 8.88269C9.58155 8.88269 9.28852 8.28706 9.18872 8.08905C8.52283 6.77004 8.5372 6.69977 7.86412 6.61035C7.67569 6.5856 7.57828 6.56165 7.57828 6.46823V6.05065L7.63497 6.00993C8.85098 6.00833 11.5569 6.00833 11.5569 6.00833L11.6607 6.04267V6.45865C11.6607 6.55366 11.5928 6.60237 11.4547 6.60237L11.1704 6.64309C10.4518 6.69898 10.5692 6.9928 11.0467 7.94374L12.5005 10.9183L14.1087 7.7106C14.3777 7.12375 14.3226 6.97683 14.2117 6.8411C14.1478 6.76525 13.9338 6.64229 13.4683 6.62393L13.2855 6.60397C13.2392 6.60397 13.1961 6.588 13.1537 6.55686C13.1122 6.52732 13.0915 6.48899 13.0915 6.44029V6.04426L13.1481 6.00355C14.2867 5.99556 16.8441 6.00355 16.8441 6.00355L16.8896 6.04506V6.44109C16.8896 6.55047 16.8281 6.60477 16.7068 6.60477C16.1111 6.63271 15.989 6.6918 15.771 7.00558C15.652 7.17644 15.4173 7.54452 15.1738 7.95811L13.0835 11.8672L13.0245 11.9903L15.5794 17.2175L15.7343 17.2598L19.7584 7.7098C19.8981 7.32495 19.8765 7.05189 19.6969 6.8914C19.5164 6.73571 19.3895 6.64229 18.9232 6.62313L18.5455 6.60476C18.4992 6.60476 18.4553 6.58799 18.413 6.55606C18.3715 6.52651 18.3499 6.48739 18.3499 6.44029V6.04267L18.4074 6.00195H22.9537L23 6.04267V6.44029C23 6.54807 22.9385 6.60237 22.8172 6.60237C22.2215 6.62872 21.78 6.75806 21.4942 6.98881C21.2075 7.22116 20.984 7.54053 20.8235 7.95731C20.8235 7.95731 17.1227 16.4271 15.8564 19.2431C15.3718 20.1661 14.8951 20.0815 14.4759 19.2168C13.9511 18.1358 12.8612 15.7517 12.0605 13.9891C11.2043 15.7555 10.032 18.1493 9.45061 19.2272C8.88532 20.21 8.41983 20.0815 8.04936 19.2527C6.76308 16.2179 4.12187 10.8892 2.87871 7.90302C2.64876 7.3529 2.4755 6.99999 2.31182 6.86026C2.14735 6.72214 1.80562 6.6391 1.28584 6.61115C1.09501 6.59039 1 6.54409 1 6.46903V6.05305L1.04631 6.01233C1.89265 6.00754 5.98861 6.01233 5.98861 6.01233L6.03491 6.05305V6.44907C6.03491 6.55846 5.96545 6.61115 5.82892 6.61115L5.31313 6.63271C4.8708 6.65107 4.64963 6.78361 4.64963 7.02873C4.64963 7.14291 4.69594 7.32895 4.79894 7.57806C5.789 9.99092 9.20868 17.2016 9.20868 17.2016L9.33404 17.2343L11.5383 12.8375C11.2688 12.2421 11.097 11.8608 11.097 11.8608L9.58155 8.88269Z" fill="currentColor"/>
</svg>
