<svg viewBox="0 0 24 24" fill="currentColor" xmlns="http://www.w3.org/2000/svg">
<path fill-rule="evenodd" clip-rule="evenodd" d="M16 16.5C16.5523 16.5 17 16.9477 17 17.5V18.5C17 19.0523 16.5523 19.5 16 19.5H15C14.4477 19.5 14 19.0523 14 18.5V17.5C14 16.9477 14.4477 16.5 15 16.5H16ZM15 18.5H16V17.5H15V18.5Z" fill="currentColor"/>
<path d="M12.5 17.5C12.7761 17.5 13 17.7239 13 18C13 18.2761 12.7761 18.5 12.5 18.5H7.5C7.22386 18.5 7 18.2761 7 18C7 17.7239 7.22386 17.5 7.5 17.5H12.5Z" fill="currentColor"/>
<path fill-rule="evenodd" clip-rule="evenodd" d="M16 12.5C16.5523 12.5 17 12.9477 17 13.5V14.5C17 15.0523 16.5523 15.5 16 15.5H15C14.4477 15.5 14 15.0523 14 14.5V13.5C14 12.9477 14.4477 12.5 15 12.5H16ZM15 14.5H16V13.5H15V14.5Z" fill="currentColor"/>
<path d="M12.5 13.5C12.7761 13.5 13 13.7239 13 14C13 14.2761 12.7761 14.5 12.5 14.5H7.5C7.22386 14.5 7 14.2761 7 14C7 13.7239 7.22386 13.5 7.5 13.5H12.5Z" fill="currentColor"/>
<path fill-rule="evenodd" clip-rule="evenodd" d="M16 8.5C16.5523 8.5 17 8.94772 17 9.5V10.5C17 11.0523 16.5523 11.5 16 11.5H15C14.4477 11.5 14 11.0523 14 10.5V9.5C14 8.94772 14.4477 8.5 15 8.5H16ZM15 10.5H16V9.5H15V10.5Z" fill="currentColor"/>
<path d="M12.5 9.5C12.7761 9.5 13 9.72386 13 10C13 10.2761 12.7761 10.5 12.5 10.5H7.5C7.22386 10.5 7 10.2761 7 10C7 9.72386 7.22386 9.5 7.5 9.5H12.5Z" fill="currentColor"/>
<path fill-rule="evenodd" clip-rule="evenodd" d="M12 1C13.4865 1 14.7176 2.08113 14.9561 3.5H16C16.6529 3.5 17.207 3.91766 17.4131 4.5H18C19.6569 4.5 21 5.84315 21 7.5V20C21 21.6569 19.6569 23 18 23H6C4.34315 23 3 21.6569 3 20V7.5C3 5.84315 4.34315 4.5 6 4.5H6.58691C6.79297 3.91766 7.34707 3.5 8 3.5H9.04395C9.28238 2.08113 10.5135 1 12 1ZM6 6.5C5.44772 6.5 5 6.94772 5 7.5V20C5 20.5523 5.44772 21 6 21H18C18.5523 21 19 20.5523 19 20V7.5C19 6.94772 18.5523 6.5 18 6.5H17.4131C17.207 7.08234 16.6529 7.5 16 7.5H8C7.34707 7.5 6.79297 7.08234 6.58691 6.5H6ZM12 2C10.9631 2 10.1099 2.78954 10.0098 3.7998C9.97383 4.16156 9.67542 4.5 9.25 4.5H8C7.72386 4.5 7.5 4.72386 7.5 5V6C7.5 6.27614 7.72386 6.5 8 6.5H16C16.2761 6.5 16.5 6.27614 16.5 6V5C16.5 4.72386 16.2761 4.5 16 4.5H14.75C14.3246 4.5 14.0262 4.16156 13.9902 3.7998C13.8901 2.78954 13.0369 2 12 2Z" fill="currentColor"/>
</svg>
