<svg viewBox="0 0 24 24" fill="currentColor" xmlns="http://www.w3.org/2000/svg">
<path fill-rule="evenodd" clip-rule="evenodd" d="M22 12C22 6.47715 17.5228 2 12 2C6.47715 2 2 6.47715 2 12C2 17.5228 6.47715 22 12 22C17.5228 22 22 17.5228 22 12ZM15.8887 8.11133C15.4981 7.72081 14.8651 7.72081 14.4746 8.11133L12 10.5859L9.52539 8.11133C9.13487 7.72081 8.50185 7.72081 8.11133 8.11133C7.7208 8.50185 7.7208 9.13487 8.11133 9.52539L10.5859 12L8.11133 14.4746C7.72081 14.8651 7.72081 15.4981 8.11133 15.8887C8.50185 16.2792 9.13487 16.2792 9.52539 15.8887L12 13.4141L14.4746 15.8887C14.8651 16.2792 15.4981 16.2792 15.8887 15.8887C16.2792 15.4981 16.2792 14.8651 15.8887 14.4746L13.4141 12L15.8887 9.52539C16.2792 9.13487 16.2792 8.50185 15.8887 8.11133Z" fill="currentColor"/>
</svg>
