<svg viewBox="0 0 24 24" fill="currentColor" xmlns="http://www.w3.org/2000/svg">
<path d="M14.4746 8.11133C14.8651 7.72081 15.4981 7.72081 15.8887 8.11133C16.2792 8.50185 16.2792 9.13487 15.8887 9.52539L13.4141 12L15.8887 14.4746C16.2792 14.8651 16.2792 15.4981 15.8887 15.8887C15.4981 16.2792 14.8651 16.2792 14.4746 15.8887L12 13.4141L9.52539 15.8887C9.13487 16.2792 8.50185 16.2792 8.11133 15.8887C7.72081 15.4981 7.72081 14.8651 8.11133 14.4746L10.5859 12L8.11133 9.52539C7.7208 9.13487 7.7208 8.50185 8.11133 8.11133C8.50185 7.72081 9.13487 7.72081 9.52539 8.11133L12 10.5859L14.4746 8.11133Z" fill="currentColor"/>
<path fill-rule="evenodd" clip-rule="evenodd" d="M12 2C17.5228 2 22 6.47715 22 12C22 17.5228 17.5228 22 12 22C6.47715 22 2 17.5228 2 12C2 6.47715 6.47715 2 12 2ZM12 4C7.58172 4 4 7.58172 4 12C4 16.4183 7.58172 20 12 20C16.4183 20 20 16.4183 20 12C20 7.58172 16.4183 4 12 4Z" fill="currentColor"/>
</svg>
