<svg viewBox="0 0 24 24" fill="currentColor" xmlns="http://www.w3.org/2000/svg">
<path d="M14 8C13.4477 8 13 7.55228 13 7C13 6.44772 13.4477 6 14 6L20 6C20.5523 6 21 6.44772 21 7C21 7.55228 20.5523 8 20 8L14 8Z" fill="currentColor"/>
<path d="M14 18C13.4477 18 13 17.5523 13 17C13 16.4477 13.4477 16 14 16H20C20.5523 16 21 16.4477 21 17C21 17.5523 20.5523 18 20 18H14Z" fill="currentColor"/>
<path d="M18 14C18 14.5523 17.5523 15 17 15C16.4477 15 16 14.5523 16 14C16 13.4477 16.4477 13 17 13C17.5523 13 18 13.4477 18 14Z" fill="currentColor"/>
<path d="M18 20C18 20.5523 17.5523 21 17 21C16.4477 21 16 20.5523 16 20C16 19.4477 16.4477 19 17 19C17.5523 19 18 19.4477 18 20Z" fill="currentColor"/>
<path d="M7 11C6.44772 11 6 10.5523 6 10V8H4C3.44772 8 3 7.55228 3 7C3 6.44772 3.44772 6 4 6H6V4C6 3.44772 6.44772 3 7 3C7.55228 3 8 3.44772 8 4V6L10 6C10.5523 6 11 6.44772 11 7C11 7.55228 10.5523 8 10 8L8 8V10C8 10.5523 7.55228 11 7 11Z" fill="currentColor"/>
<path d="M9.82843 19.8284C9.4379 20.219 8.80474 20.219 8.41422 19.8284L7 18.4142L5.58579 19.8284C5.19526 20.219 4.5621 20.219 4.17157 19.8284C3.78105 19.4379 3.78105 18.8047 4.17157 18.4142L5.58579 17L4.17157 15.5858C3.78105 15.1953 3.78105 14.5621 4.17157 14.1716C4.5621 13.781 5.19526 13.781 5.58579 14.1716L7 15.5858L8.41421 14.1716C8.80474 13.781 9.4379 13.781 9.82843 14.1716C10.219 14.5621 10.219 15.1953 9.82843 15.5858L8.41422 17L9.82843 18.4142C10.219 18.8047 10.219 19.4379 9.82843 19.8284Z" fill="currentColor"/>
</svg>
