<svg viewBox="0 0 24 24" fill="currentColor" xmlns="http://www.w3.org/2000/svg">
<rect fill="currentColor"/>
<path fill-rule="evenodd" clip-rule="evenodd" d="M17.6727 13.7601C18.0813 14.1316 18.1114 14.764 17.7399 15.1727L12.7399 20.6727C12.5504 20.8812 12.2817 21 12 21C11.7183 21 11.4496 20.8812 11.2601 20.6727L6.26006 15.1727C5.88855 14.764 5.91867 14.1316 6.32733 13.7601C6.73599 13.3886 7.36843 13.4187 7.73994 13.8273L11 17.4134L11 4.00001C11 3.44773 11.4477 3.00001 12 3.00001C12.5523 3.00002 13 3.44773 13 4.00002L13 17.4134L16.2601 13.8273C16.6316 13.4187 17.264 13.3886 17.6727 13.7601Z" fill="currentColor"/>
</svg>
