<svg viewBox="0 0 24 24" fill="currentColor" xmlns="http://www.w3.org/2000/svg">
<rect fill="currentColor"/>
<path d="M16.8492 4.75926C16.4299 4.39984 16.3813 3.76854 16.7407 3.34921C17.1002 2.92989 17.7315 2.88132 18.1508 3.24075L21.6456 6.23629C21.6634 6.25135 21.6807 6.26702 21.6974 6.28328C21.884 6.46495 22 6.71893 22 7C22 7.24934 21.9069 7.48804 21.7417 7.67075C21.7232 7.69122 21.7038 7.71099 21.6835 7.72999C21.6713 7.74137 21.6589 7.75245 21.6462 7.76322L18.1508 10.7593C17.7315 11.1187 17.1002 11.0701 16.7407 10.6508C16.3813 10.2315 16.4299 9.60017 16.8492 9.24075L18.2967 8H15.5C13.0147 8 11 10.0147 11 12.5C11 16.0899 8.08985 19 4.5 19H3C2.44772 19 2 18.5523 2 18C2 17.4477 2.44772 17 3 17H4.5C6.98528 17 9 14.9853 9 12.5C9 8.91015 11.9101 6 15.5 6H18.2967L16.8492 4.75926Z" fill="currentColor"/>
<path d="M4.5 5C6.66059 5 8.57497 6.05416 9.75686 7.67621C9.27385 8.25068 8.87544 8.89866 8.58084 9.60095C7.86473 8.06473 6.30671 7 4.5 7H3C2.44772 7 2 6.55229 2 6C2 5.44771 2.44772 5 3 5H4.5Z" fill="currentColor"/>
<path d="M15.5 18C13.7634 18 12.1859 17.319 11.0199 16.2095C11.3894 15.5614 11.6651 14.8529 11.8284 14.1025C12.6438 15.2508 13.9844 16 15.5 16H18.2967L16.8492 14.7593C16.4299 14.3998 16.3813 13.7685 16.7407 13.3492C17.1002 12.9299 17.7315 12.8813 18.1508 13.2407L21.6456 16.2363C21.6516 16.2414 21.6575 16.2465 21.6635 16.2518C21.6981 16.2825 21.7305 16.3155 21.7606 16.3507C21.9099 16.5254 22 16.7522 22 17C22 17.288 21.8783 17.5475 21.6835 17.73C21.6713 17.7414 21.6589 17.7524 21.6462 17.7632L18.1508 20.7593C17.7315 21.1187 17.1002 21.0701 16.7407 20.6508C16.3813 20.2315 16.4299 19.6002 16.8492 19.2407L18.2967 18H15.5Z" fill="currentColor"/>
</svg>
