<svg viewBox="0 0 24 24" fill="currentColor" xmlns="http://www.w3.org/2000/svg">
<rect fill="currentColor"/>
<path fill-rule="evenodd" clip-rule="evenodd" d="M18.5 13.5C18.5 9.91015 15.5899 7 12 7L11.2033 7L12.6508 8.24075C13.0701 8.60017 13.1187 9.23147 12.7593 9.65079C12.3998 10.0701 11.7685 10.1187 11.3492 9.75926L7.84921 6.75926C7.62756 6.56928 7.5 6.29193 7.5 6C7.5 5.70808 7.62756 5.43073 7.84921 5.24075L11.3492 2.24075C11.7685 1.88132 12.3998 1.92989 12.7593 2.34921C13.1187 2.76854 13.0701 3.39984 12.6508 3.75926L11.2033 5L12 5C16.6944 5 20.5 8.80558 20.5 13.5C20.5 18.1944 16.6944 22 12 22C7.30558 22 3.5 18.1944 3.5 13.5C3.5 12.9477 3.94772 12.5 4.5 12.5C5.05228 12.5 5.5 12.9477 5.5 13.5C5.5 17.0899 8.41015 20 12 20C15.5899 20 18.5 17.0899 18.5 13.5Z" fill="currentColor"/>
</svg>
