<svg width="24" height="24" viewBox="0 0 24 24" fill="none" xmlns="http://www.w3.org/2000/svg">
<path fill-rule="evenodd" clip-rule="evenodd" d="M8.17594 4.45304C8.74332 3.84514 9.53756 3.5 10.3691 3.5H19C20.6569 3.5 22 4.84315 22 6.5V17.5C22 19.1569 20.6569 20.5 19 20.5H10.3691C9.53756 20.5 8.74332 20.1549 8.17594 19.547L3.0426 14.047C1.96683 12.8943 1.96683 11.1057 3.04261 9.95305L8.17594 4.45304ZM10.3691 5.5C10.0919 5.5 9.82718 5.61505 9.63805 5.81768L4.50472 11.3177C4.14612 11.7019 4.14612 12.2981 4.50472 12.6823L9.63805 18.1823C9.82718 18.385 10.0919 18.5 10.3691 18.5H19C19.5523 18.5 20 18.0523 20 17.5V6.5C20 5.94772 19.5523 5.5 19 5.5H10.3691Z" fill="black"/>
<path d="M17.1066 15.5355C16.7161 15.9261 16.0829 15.9261 15.6924 15.5355L13.5711 13.4142L11.4497 15.5355C11.0592 15.9261 10.4261 15.9261 10.0355 15.5355C9.64501 15.145 9.64501 14.5118 10.0355 14.1213L12.1569 12L10.0355 9.87868C9.64501 9.48816 9.64501 8.85499 10.0355 8.46447C10.4261 8.07394 11.0592 8.07394 11.4497 8.46447L13.5711 10.5858L15.6924 8.46447C16.0829 8.07394 16.7161 8.07394 17.1066 8.46447C17.4971 8.85499 17.4971 9.48815 17.1066 9.87868L14.9853 12L17.1066 14.1213C17.4971 14.5118 17.4971 15.145 17.1066 15.5355Z" fill="black"/>
</svg>
