<svg width="24" height="24" viewBox="0 0 24 24" fill="none" xmlns="http://www.w3.org/2000/svg">
<path fill-rule="evenodd" clip-rule="evenodd" d="M13.7052 7.0431C13.624 6.8646 13.4461 6.75 13.25 6.75C13.0539 6.75 12.876 6.8646 12.7948 7.0431L10.2948 12.5431C10.1805 12.7945 10.2917 13.0909 10.5431 13.2052C10.7945 13.3195 11.0909 13.2083 11.2052 12.9569L11.8674 11.5H14.6326L15.2948 12.9569C15.4091 13.2083 15.7055 13.3195 15.9569 13.2052C16.2083 13.0909 16.3195 12.7945 16.2052 12.5431L13.7052 7.0431ZM13.25 8.4583L12.322 10.5H14.178L13.25 8.4583Z" fill="black"/>
<path fill-rule="evenodd" clip-rule="evenodd" d="M7 2C5.34315 2 4 3.34315 4 5V19C4 20.6569 5.34315 22 7 22H19C19.5523 22 20 21.5523 20 21C20 20.4477 19.5523 20 19 20C18.4477 20 18 19.5523 18 19C18 18.4477 18.4477 18 19 18C19.5523 18 20 17.5523 20 17V5C20 3.34315 18.6569 2 17 2H7ZM7 18C6.44772 18 6 18.4477 6 19C6 19.5523 6.44772 20 7 20H17.2676C17.0974 19.7058 17 19.3643 17 19C17 18.6357 17.0974 18.2942 17.2676 18H7ZM6 16.1707C6.31278 16.0602 6.64936 16 7 16H7.5V4H7C6.44772 4 6 4.44772 6 5V16.1707ZM18 16V5C18 4.44772 17.5523 4 17 4H8.5V16H18Z" fill="black"/>
</svg>
