<svg viewBox="0 0 24 24" fill="currentColor" xmlns="http://www.w3.org/2000/svg">
<rect fill="currentColor"/>
<path fill-rule="evenodd" clip-rule="evenodd" d="M4 7C4 6.44772 4.44772 6 5 6H13.208C13.5938 5.11705 14.4748 4.5 15.5 4.5C16.5252 4.5 17.4062 5.11705 17.792 6H19C19.5523 6 20 6.44772 20 7C20 7.55228 19.5523 8 19 8H17.792C17.4062 8.88295 16.5252 9.5 15.5 9.5C14.4748 9.5 13.5938 8.88295 13.208 8H5C4.44772 8 4 7.55228 4 7ZM16.6181 8C16.8556 7.73462 17 7.38418 17 7C17 6.61582 16.8556 6.26538 16.6181 6C16.3434 5.69313 15.9443 5.5 15.5 5.5C15.0557 5.5 14.6566 5.69313 14.3819 6C14.1444 6.26538 14 6.61582 14 7C14 7.38418 14.1444 7.73462 14.3819 8C14.6566 8.30687 15.0557 8.5 15.5 8.5C15.9443 8.5 16.3434 8.30687 16.6181 8Z" fill="currentColor"/>
<path fill-rule="evenodd" clip-rule="evenodd" d="M4 17C4 16.4477 4.44772 16 5 16H13.208C13.5938 15.117 14.4748 14.5 15.5 14.5C16.5252 14.5 17.4062 15.117 17.792 16H19C19.5523 16 20 16.4477 20 17C20 17.5523 19.5523 18 19 18H17.792C17.4062 18.883 16.5252 19.5 15.5 19.5C14.4748 19.5 13.5938 18.883 13.208 18H5C4.44772 18 4 17.5523 4 17ZM16.6181 18C16.8556 17.7346 17 17.3842 17 17C17 16.6158 16.8556 16.2654 16.6181 16C16.3434 15.6931 15.9443 15.5 15.5 15.5C15.0557 15.5 14.6566 15.6931 14.3819 16C14.1444 16.2654 14 16.6158 14 17C14 17.3842 14.1444 17.7346 14.3819 18C14.6566 18.3069 15.0557 18.5 15.5 18.5C15.9443 18.5 16.3434 18.3069 16.6181 18Z" fill="currentColor"/>
<path fill-rule="evenodd" clip-rule="evenodd" d="M4 17C4 16.4477 4.44772 16 5 16H13.208C13.5938 15.117 14.4748 14.5 15.5 14.5C16.5252 14.5 17.4062 15.117 17.792 16H19C19.5523 16 20 16.4477 20 17C20 17.5523 19.5523 18 19 18H17.792C17.4062 18.883 16.5252 19.5 15.5 19.5C14.4748 19.5 13.5938 18.883 13.208 18H5C4.44772 18 4 17.5523 4 17ZM16.6181 18C16.8556 17.7346 17 17.3842 17 17C17 16.6158 16.8556 16.2654 16.6181 16C16.3434 15.6931 15.9443 15.5 15.5 15.5C15.0557 15.5 14.6566 15.6931 14.3819 16C14.1444 16.2654 14 16.6158 14 17C14 17.3842 14.1444 17.7346 14.3819 18C14.6566 18.3069 15.0557 18.5 15.5 18.5C15.9443 18.5 16.3434 18.3069 16.6181 18Z" fill="currentColor"/>
<path fill-rule="evenodd" clip-rule="evenodd" d="M20 12C20 11.4477 19.5523 11 19 11H10.792C10.4062 10.117 9.52516 9.5 8.5 9.5C7.47484 9.5 6.5938 10.117 6.20802 11H5C4.44771 11 4 11.4477 4 12C4 12.5523 4.44771 13 5 13H6.20802C6.5938 13.883 7.47484 14.5 8.5 14.5C9.52516 14.5 10.4062 13.883 10.792 13H19C19.5523 13 20 12.5523 20 12ZM7.38195 13C7.14443 12.7346 7 12.3842 7 12C7 11.6158 7.14443 11.2654 7.38195 11C7.65661 10.6931 8.05575 10.5 8.5 10.5C8.94425 10.5 9.34339 10.6931 9.61805 11C9.85557 11.2654 10 11.6158 10 12C10 12.3842 9.85557 12.7346 9.61805 13C9.34339 13.3069 8.94425 13.5 8.5 13.5C8.05575 13.5 7.65661 13.3069 7.38195 13Z" fill="currentColor"/>
</svg>
