<svg viewBox="0 0 24 24" fill="currentColor" xmlns="http://www.w3.org/2000/svg">
<path d="M17.75 12.5C17.75 12.9142 17.4142 13.25 17 13.25C16.5858 13.25 16.25 12.9142 16.25 12.5C16.25 12.0858 16.5858 11.75 17 11.75C17.4142 11.75 17.75 12.0858 17.75 12.5Z" fill="currentColor"/>
<path d="M17.75 15.5C17.75 15.9142 17.4142 16.25 17 16.25C16.5858 16.25 16.25 15.9142 16.25 15.5C16.25 15.0858 16.5858 14.75 17 14.75C17.4142 14.75 17.75 15.0858 17.75 15.5Z" fill="currentColor"/>
<path d="M15.5 13.25C15.9142 13.25 16.25 13.5858 16.25 14C16.25 14.4142 15.9142 14.75 15.5 14.75C15.0858 14.75 14.75 14.4142 14.75 14C14.75 13.5858 15.0858 13.25 15.5 13.25Z" fill="currentColor"/>
<path d="M18.5 13.25C18.9142 13.25 19.25 13.5858 19.25 14C19.25 14.4142 18.9142 14.75 18.5 14.75C18.0858 14.75 17.75 14.4142 17.75 14C17.75 13.5858 18.0858 13.25 18.5 13.25Z" fill="currentColor"/>
<path fill-rule="evenodd" clip-rule="evenodd" d="M7 8C3.68629 8 1 10.6863 1 14C1 17.3137 3.68629 20 7 20C8.77762 20 10.3744 19.226 11.4718 18H12.5278C13.6253 19.2261 15.2224 20 17 20C20.3137 20 23 17.3137 23 14C23 10.6863 20.3137 8 17 8H12.5C12.5 7.72386 12.7239 7.5 13 7.5C14.1046 7.5 15 6.60457 15 5.5C15 4.39543 14.1046 3.5 13 3.5H12C11.7239 3.5 11.5 3.27614 11.5 3C11.5 2.72386 11.7239 2.5 12 2.5C12.2761 2.5 12.5 2.27614 12.5 2C12.5 1.72386 12.2761 1.5 12 1.5C11.1716 1.5 10.5 2.17157 10.5 3C10.5 3.82843 11.1716 4.5 12 4.5H13C13.5523 4.5 14 4.94772 14 5.5C14 6.05228 13.5523 6.5 13 6.5C12.1716 6.5 11.5 7.17157 11.5 8H7ZM7 10C4.79086 10 3 11.7909 3 14C3 16.2091 4.79086 18 7 18C8.30782 18 9.46892 17.3732 10.2005 16.3994C10.3893 16.1479 10.6855 16 11 16H12.9996C13.3141 16 13.6103 16.148 13.7992 16.3994C14.5307 17.3732 15.692 18 17 18C19.2091 18 21 16.2091 21 14C21 11.7909 19.2091 10 17 10H7Z" fill="currentColor"/>
<path fill-rule="evenodd" clip-rule="evenodd" d="M17.75 12.5C17.75 12.9142 17.4142 13.25 17 13.25C16.5858 13.25 16.25 12.9142 16.25 12.5C16.25 12.0858 16.5858 11.75 17 11.75C17.4142 11.75 17.75 12.0858 17.75 12.5ZM17.75 15.5C17.75 15.9142 17.4142 16.25 17 16.25C16.5858 16.25 16.25 15.9142 16.25 15.5C16.25 15.0858 16.5858 14.75 17 14.75C17.4142 14.75 17.75 15.0858 17.75 15.5ZM15.5 13.25C15.9142 13.25 16.25 13.5858 16.25 14C16.25 14.4142 15.9142 14.75 15.5 14.75C15.0858 14.75 14.75 14.4142 14.75 14C14.75 13.5858 15.0858 13.25 15.5 13.25ZM18.5 13.25C18.9142 13.25 19.25 13.5858 19.25 14C19.25 14.4142 18.9142 14.75 18.5 14.75C18.0858 14.75 17.75 14.4142 17.75 14C17.75 13.5858 18.0858 13.25 18.5 13.25ZM7.5 13.5V12.5C7.5 12.2239 7.27614 12 7 12C6.72386 12 6.5 12.2239 6.5 12.5V13.5H5.5C5.22386 13.5 5 13.7239 5 14C5 14.2761 5.22386 14.5 5.5 14.5H6.5V15.5C6.5 15.7761 6.72386 16 7 16C7.27614 16 7.5 15.7761 7.5 15.5V14.5H8.5C8.77614 14.5 9 14.2761 9 14C9 13.7239 8.77614 13.5 8.5 13.5H7.5Z" fill="currentColor"/>
</svg>
