<svg viewBox="0 0 24 24" fill="currentColor" xmlns="http://www.w3.org/2000/svg">
<path fill-rule="evenodd" clip-rule="evenodd" d="M12 22C17.5228 22 22 17.5228 22 12C22 6.47715 17.5228 2 12 2C6.47715 2 2 6.47715 2 12C2 17.5228 6.47715 22 12 22ZM15.708 16.5C16.155 15.3507 16.4388 13.9837 16.4912 12.5H7.5088C7.56121 13.9837 7.84505 15.3507 8.29195 16.5H15.708ZM15.708 7.5C16.155 8.64933 16.4388 10.0163 16.4912 11.5H7.5088C7.56121 10.0163 7.84505 8.64933 8.29195 7.5H15.708ZM8.89543 6.2431C9.75446 4.78276 10.8689 4 12 4C13.1311 4 14.2455 4.78276 15.1046 6.2431C15.1538 6.3268 15.202 6.41246 15.2491 6.5H8.75087C8.79799 6.41246 8.8462 6.3268 8.89543 6.2431ZM8.0335 5.73608C8.26052 5.35014 8.51236 4.99249 8.78641 4.67162C7.80134 5.10421 6.92012 5.72959 6.1905 6.5H7.63229C7.75717 6.23319 7.89112 5.97813 8.0335 5.73608ZM4.01537 11.5C4.1065 10.0223 4.59879 8.65308 5.38468 7.5H7.22621C6.80967 8.69202 6.55596 10.0537 6.50823 11.5H4.01537ZM4.01537 12.5H6.50823C6.55596 13.9463 6.80967 15.308 7.22621 16.5H5.38468C4.59879 15.3469 4.1065 13.9777 4.01537 12.5ZM8.0335 18.2639C8.26052 18.6499 8.51236 19.0075 8.78641 19.3284C7.80134 18.8958 6.92012 18.2704 6.1905 17.5H7.63229C7.75717 17.7668 7.89112 18.0219 8.0335 18.2639ZM8.89543 17.7569C9.75446 19.2172 10.8689 20 12 20C13.1311 20 14.2455 19.2172 15.1046 17.7569C15.1538 17.6732 15.202 17.5875 15.2491 17.5H8.75087C8.79799 17.5875 8.8462 17.6732 8.89543 17.7569ZM15.9665 18.2639C15.7395 18.6499 15.4876 19.0075 15.2136 19.3284C16.1987 18.8958 17.0799 18.2704 17.8095 17.5H16.3677C16.2428 17.7668 16.1089 18.0219 15.9665 18.2639ZM18.6153 16.5C19.4012 15.3469 19.8935 13.9777 19.9846 12.5H17.4918C17.444 13.9463 17.1903 15.308 16.7738 16.5H18.6153ZM18.6153 7.5C19.4012 8.65308 19.8935 10.0223 19.9846 11.5H17.4918C17.444 10.0537 17.1903 8.69202 16.7738 7.5H18.6153ZM17.8095 6.5C17.0799 5.72959 16.1987 5.10421 15.2136 4.67162C15.4876 4.99249 15.7395 5.35014 15.9665 5.73608C16.1089 5.97813 16.2428 6.23319 16.3677 6.5H17.8095Z" fill="currentColor"/>
</svg>
