<svg viewBox="0 0 24 24" fill="currentColor" xmlns="http://www.w3.org/2000/svg">
<path fill-rule="evenodd" clip-rule="evenodd" d="M12.6321 20.7848C12.7028 20.7405 12.8046 20.6759 12.9331 20.5921L12.5171 20.8559L12.5204 20.8539L12.5226 20.8526L12.527 20.8499L12.5284 20.849L12.5311 20.8474L12.5497 20.836C12.569 20.8241 12.5967 20.807 12.6321 20.7848ZM12.5311 20.8474L12.5618 20.8283L12.5591 20.8301L12.5311 20.8474ZM11.4367 20.8274L11.0669 20.5921C11.1954 20.6759 11.2972 20.7405 11.3679 20.7848C11.4033 20.807 11.431 20.8241 11.4503 20.836L11.4689 20.8474L11.4409 20.8301L11.4382 20.8283L11.4367 20.8274Z" fill="currentColor"/>
<path fill-rule="evenodd" clip-rule="evenodd" d="M12 5.44935C11.9196 5.3391 11.8335 5.2273 11.7415 5.11526C10.9113 4.1046 9.52917 3 7.5 3C4.46457 3 2 5.44558 2 8.5C2 10.263 2.65267 11.9224 3.5561 13.381C4.46119 14.8424 5.65179 16.1574 6.81471 17.2517C7.98092 18.3491 9.14288 19.2464 10.0114 19.8686C10.4465 20.1803 10.8102 20.4246 11.0669 20.5921L11.4367 20.8274L11.4382 20.8283L11.4409 20.8301L11.4665 20.8458L11.4673 20.8463L11.4689 20.8474L11.473 20.8499L11.4796 20.8539L11.4816 20.8552L11.4829 20.8559C11.8009 21.048 12.1991 21.048 12.5171 20.8559L12.9331 20.5921C13.1898 20.4246 13.5535 20.1803 13.9886 19.8686C14.8571 19.2464 16.0191 18.3491 17.1853 17.2517C18.3482 16.1574 19.5388 14.8424 20.4439 13.381C21.3473 11.9224 22 10.263 22 8.5C22 5.44559 19.5354 3 16.5 3C14.4708 3 13.0887 4.1046 12.2585 5.11526C12.1665 5.2273 12.0804 5.3391 12 5.44935ZM4 8.5C4 6.55442 5.56487 5 7.5 5C8.72083 5 9.58871 5.6454 10.196 6.38474C10.4987 6.75324 10.7192 7.12642 10.8638 7.4088C10.9354 7.54882 10.9868 7.66337 11.0191 7.73956C11.0352 7.77757 11.0464 7.80576 11.0529 7.8225L11.0583 7.83634L11.0588 7.83788L11.0595 7.83971C11.2025 8.23583 11.5786 8.5 12 8.5C12.3698 8.5 12.7046 8.29659 12.8778 7.97912C12.9023 7.93418 12.9236 7.88696 12.9413 7.83769L12.9417 7.83633L12.9471 7.8225C12.9536 7.80576 12.9648 7.77756 12.9809 7.73955C13.0132 7.66337 13.0646 7.54882 13.1362 7.40879C13.2808 7.12641 13.5013 6.75324 13.804 6.38474C14.4113 5.6454 15.2792 5 16.5 5C18.4351 5 20 6.55441 20 8.5C20 9.76828 19.5277 11.062 18.7436 12.3279C17.9612 13.5912 16.9018 14.7723 15.8147 15.7952C14.7309 16.815 13.6429 17.656 12.8239 18.2428C12.5 18.4748 12.2196 18.666 12 18.8119C11.7804 18.666 11.5 18.4748 11.1761 18.2428C10.3571 17.656 9.26908 16.815 8.18529 15.7952C7.09821 14.7723 6.03881 13.5912 5.2564 12.3279C4.47233 11.062 4 9.76828 4 8.5Z" fill="currentColor"/>
</svg>
