<svg viewBox="0 0 24 24" fill="currentColor" xmlns="http://www.w3.org/2000/svg">
<path fill-rule="evenodd" clip-rule="evenodd" d="M12.6321 21.7848C12.7028 21.7405 12.8046 21.6759 12.9331 21.5921L12.5171 21.8559L12.5204 21.8539L12.5226 21.8526L12.527 21.8499L12.5284 21.849L12.5311 21.8474L12.5497 21.836C12.569 21.8241 12.5967 21.807 12.6321 21.7848ZM12.5311 21.8474L12.5618 21.8283L12.5591 21.8301L12.5311 21.8474ZM11.4367 21.8274L11.0669 21.5921C11.1954 21.6759 11.2972 21.7405 11.3679 21.7848C11.4033 21.807 11.431 21.8241 11.4503 21.836L11.4689 21.8474L11.4409 21.8301L11.4382 21.8283L11.4367 21.8274Z" fill="currentColor"/>
<path fill-rule="evenodd" clip-rule="evenodd" d="M12 6.44935C11.9196 6.3391 11.8335 6.2273 11.7415 6.11526C10.9113 5.1046 9.52917 4 7.5 4C4.46457 4 2 6.44558 2 9.5C2 11.263 2.65267 12.9224 3.5561 14.381C4.46119 15.8424 5.65179 17.1574 6.81471 18.2517C7.98092 19.3491 9.14288 20.2464 10.0114 20.8686C10.4465 21.1803 10.8102 21.4246 11.0669 21.5921L11.4367 21.8274L11.4382 21.8283L11.4409 21.8301L11.4665 21.8458L11.4673 21.8463L11.4689 21.8474L11.473 21.8499L11.4796 21.8539L11.4816 21.8552L11.4829 21.8559C11.8009 22.048 12.1991 22.048 12.5171 21.8559L12.9331 21.5921C13.1898 21.4246 13.5535 21.1803 13.9886 20.8686C14.8571 20.2464 16.0191 19.3491 17.1853 18.2517C18.3482 17.1574 19.5388 15.8424 20.4439 14.381C21.3473 12.9224 22 11.263 22 9.5C22 6.44559 19.5354 4 16.5 4C14.4708 4 13.0887 5.1046 12.2585 6.11526C12.1665 6.2273 12.0804 6.3391 12 6.44935ZM4 9.5C4 7.55442 5.56487 6 7.5 6C8.72083 6 9.58871 6.6454 10.196 7.38474C10.4987 7.75324 10.7192 8.12642 10.8638 8.4088C10.9354 8.54882 10.9868 8.66337 11.0191 8.73956C11.0352 8.77757 11.0464 8.80576 11.0529 8.8225L11.0583 8.83634L11.0588 8.83788L11.0595 8.83971C11.2025 9.23583 11.5786 9.5 12 9.5C12.3698 9.5 12.7046 9.29659 12.8778 8.97912C12.9023 8.93418 12.9236 8.88696 12.9413 8.83769L12.9417 8.83633L12.9471 8.8225C12.9536 8.80576 12.9648 8.77756 12.9809 8.73955C13.0132 8.66337 13.0646 8.54882 13.1362 8.40879C13.2808 8.12641 13.5013 7.75324 13.804 7.38474C14.4113 6.6454 15.2792 6 16.5 6C18.4351 6 20 7.55441 20 9.5C20 10.7683 19.5277 12.062 18.7436 13.3279C17.9612 14.5912 16.9018 15.7723 15.8147 16.7952C14.7309 17.815 13.6429 18.656 12.8239 19.2428C12.5 19.4748 12.2196 19.666 12 19.8119C11.7804 19.666 11.5 19.4748 11.1761 19.2428C10.3571 18.656 9.26908 17.815 8.18529 16.7952C7.09821 15.7723 6.03881 14.5912 5.2564 13.3279C4.47233 12.062 4 10.7683 4 9.5Z" fill="currentColor"/>
</svg>
