<svg viewBox="0 0 24 24" fill="currentColor" xmlns="http://www.w3.org/2000/svg">
<rect fill="currentColor"/>
<path fill-rule="evenodd" clip-rule="evenodd" d="M12 20C16.4183 20 20 16.4183 20 12C20 7.58172 16.4183 4 12 4C7.58172 4 4 7.58172 4 12C4 16.4183 7.58172 20 12 20ZM12 22C17.5228 22 22 17.5228 22 12C22 6.47715 17.5228 2 12 2C6.47715 2 2 6.47715 2 12C2 17.5228 6.47715 22 12 22Z" fill="currentColor"/>
<path d="M13.25 16.75C13.25 17.4404 12.6904 18 12 18C11.3096 18 10.75 17.4404 10.75 16.75C10.75 16.0596 11.3096 15.5 12 15.5C12.6904 15.5 13.25 16.0596 13.25 16.75Z" fill="currentColor"/>
<path fill-rule="evenodd" clip-rule="evenodd" d="M12 8C11.1537 8 10.5 8.69379 10.5 9.5C10.5 10.0523 10.0523 10.5 9.5 10.5C8.94772 10.5 8.5 10.0523 8.5 9.5C8.5 7.63296 10.0059 6 12 6C13.9941 6 15.5 7.63296 15.5 9.5C15.5 10.6754 14.9071 11.7484 13.9786 12.3877C13.6641 12.6043 13.3993 12.8199 13.2187 13.037C13.0422 13.2492 13 13.3968 13 13.5C13 14.0523 12.5523 14.5 12 14.5C11.4477 14.5 11 14.0523 11 13.5C11 12.7748 11.3224 12.1892 11.6811 11.758C12.0357 11.3317 12.4767 10.9936 12.8445 10.7404C13.2464 10.4636 13.5 9.99861 13.5 9.5C13.5 8.69379 12.8463 8 12 8Z" fill="currentColor"/>
</svg>
