<svg width="24" height="24" viewBox="0 0 24 24" fill="none" xmlns="http://www.w3.org/2000/svg">
<path d="M17 10C17 11.1046 16.1046 12 15 12C13.8954 12 13 11.1046 13 10C13 8.89543 13.8954 8 15 8C16.1046 8 17 8.89543 17 10Z" fill="black"/>
<path fill-rule="evenodd" clip-rule="evenodd" d="M5 3C3.34315 3 2 4.34315 2 6V18C2 19.6569 3.34315 21 5 21H19C20.6569 21 22 19.6569 22 18V6C22 4.34315 20.6569 3 19 3H5ZM4 6C4 5.44772 4.44772 5 5 5H19C19.5523 5 20 5.44772 20 6V16L18.1247 14.4998C17.7595 14.2076 17.2405 14.2076 16.8753 14.4998L15 16L10.8453 12.223C10.0825 11.5295 8.9175 11.5295 8.15465 12.223L4 16V6ZM17 10C17 11.1046 16.1046 12 15 12C13.8954 12 13 11.1046 13 10C13 8.89543 13.8954 8 15 8C16.1046 8 17 8.89543 17 10Z" fill="black"/>
</svg>
