<svg viewBox="0 0 24 24" fill="currentColor" xmlns="http://www.w3.org/2000/svg">
<path fill-rule="evenodd" clip-rule="evenodd" d="M12.6566 2.2047C12.2923 1.92703 11.7859 1.93235 11.4276 2.21762L11.425 2.21963L11.4199 2.22371L11.4023 2.23793C11.3872 2.25009 11.3656 2.26758 11.338 2.29019C11.2827 2.33541 11.2031 2.40116 11.1027 2.48584C10.902 2.65515 10.6175 2.9005 10.2771 3.20904C9.59774 3.8249 8.68898 4.69859 7.77705 5.72675C6.86801 6.75166 5.93693 7.95112 5.22858 9.21931C4.52587 10.4774 4 11.878 4 13.2857C4 15.5208 5.35922 17.3066 6.9281 18.4819C8.19086 19.428 9.71522 20.0777 11.0857 20.2868L11.0499 21.0012C11.0228 21.5446 11.456 22 12 22C12.544 22 12.9772 21.5446 12.9501 21.0012L12.9143 20.2865C14.283 20.0788 15.8179 19.4366 17.0912 18.4839C18.654 17.3146 20 15.537 20 13.2857C20 11.8127 19.4899 10.3786 18.7926 9.09639C18.0923 7.80857 17.1712 6.61533 16.2715 5.60659C15.3691 4.59497 14.47 3.74856 13.7977 3.15564C13.4608 2.85856 13.1791 2.62356 12.98 2.46164C12.8805 2.38064 12.8015 2.31783 12.7465 2.27457C12.7189 2.25294 12.6974 2.23618 12.6823 2.22449L12.6645 2.21074L12.6593 2.20675L12.6566 2.2047ZM12.0615 4.29845C11.9307 4.41255 11.7825 4.54389 11.6204 4.69083C10.9778 5.27331 10.124 6.09478 9.27331 7.05386C8.41976 8.0162 7.58825 9.09608 6.97466 10.1946C6.35542 11.3032 6 12.3567 6 13.2857C6 14.657 6.84014 15.917 8.12727 16.8813C9.10959 17.6173 10.2396 18.0923 11.1863 18.2749L11.2862 16.2764L7.84534 12.5078C7.75103 12.4046 7.75465 12.2454 7.85355 12.1464C7.95246 12.0475 8.11166 12.0439 8.21495 12.1382L11.35 15.0006L11.4768 12.4649L9.58947 10.263C9.49767 10.1559 9.5038 9.9962 9.60355 9.89645C9.7033 9.7967 9.86304 9.79056 9.97014 9.88237L11.5387 11.2268L11.7375 7.24969C11.7445 7.10982 11.86 7 12 7C12.14 7 12.2555 7.10982 12.2625 7.24969L12.4613 11.2268L14.0299 9.88237C14.137 9.79056 14.2967 9.7967 14.3964 9.89645C14.4962 9.9962 14.5023 10.1559 14.4105 10.263L12.5232 12.4649L12.65 15.0006L15.785 12.1382C15.8883 12.0439 16.0475 12.0475 16.1464 12.1464C16.2453 12.2454 16.249 12.4046 16.1547 12.5078L12.7138 16.2764L12.8137 18.275C13.7679 18.0929 14.9083 17.6193 15.893 16.8825C17.1645 15.9312 18 14.6809 18 13.2857C18 12.2646 17.6414 11.1659 17.0356 10.0518C16.4329 8.94344 15.6166 7.87702 14.7789 6.93787C13.9438 6.0016 13.1055 5.2119 12.4748 4.65567C12.3237 4.52244 12.185 4.40296 12.0615 4.29845Z" fill="currentColor"/>
</svg>
