<svg width="24" height="24" viewBox="0 0 24 24" fill="none" xmlns="http://www.w3.org/2000/svg">
<path fill-rule="evenodd" clip-rule="evenodd" d="M12 4C9.23858 4 7 6.23858 7 9C7 10.3369 7.62466 11.0876 8.48106 12.0052C8.52635 12.0537 8.57274 12.103 8.61998 12.1533C9.27615 12.8511 10.0951 13.722 10.3888 15H13.6112C13.9049 13.722 14.7238 12.8511 15.38 12.1533C15.4273 12.103 15.4737 12.0537 15.5189 12.0052C16.3753 11.0876 17 10.3369 17 9C17 6.23858 14.7614 4 12 4ZM5 9C5 5.13401 8.13401 2 12 2C15.866 2 19 5.13401 19 9C19 11.1631 17.8747 12.4124 16.9811 13.3698L16.9753 13.376C16.0551 14.3619 15.5 14.9567 15.5 16C15.5 16.5523 15.0523 17 14.5 17H9.5C8.94772 17 8.5 16.5523 8.5 16C8.5 14.9567 7.9449 14.3619 7.02469 13.376L7.01894 13.3698C6.12534 12.4124 5 11.1631 5 9Z" fill="black"/>
<path fill-rule="evenodd" clip-rule="evenodd" d="M9 18.5C9 18.2239 9.22386 18 9.5 18H14.5C14.7761 18 15 18.2239 15 18.5C15 18.7761 14.7761 19 14.5 19H9.5C9.22386 19 9 18.7761 9 18.5Z" fill="black"/>
<path d="M14 20C14.2761 20 14.507 20.229 14.4237 20.4922C14.1496 21.3588 13.1684 22 12 22C10.8316 22 9.85043 21.3588 9.57629 20.4922C9.49299 20.229 9.72386 20 10 20H14Z" fill="black"/>
</svg>
