<svg viewBox="0 0 24 24" fill="currentColor" xmlns="http://www.w3.org/2000/svg">
<rect fill="currentColor"/>
<path fill-rule="evenodd" clip-rule="evenodd" d="M14.3746 1.0728C14.795 1.24264 15.0485 1.6741 14.9923 2.12403L14.1328 9H19C19.3788 9 19.725 9.214 19.8944 9.55278C20.0638 9.89157 20.0273 10.297 19.8 10.6L10.8 22.6C10.5279 22.9627 10.0459 23.097 9.62544 22.9272C9.20502 22.7574 8.95149 22.3259 9.00773 21.876L9.86722 15H5.00001C4.62123 15 4.27497 14.786 4.10558 14.4472C3.93619 14.1084 3.97274 13.703 4.20001 13.4L13.2 1.4C13.4721 1.03725 13.9541 0.902957 14.3746 1.0728ZM7.00001 13H11C11.2868 13 11.5599 13.1232 11.7497 13.3382C11.9395 13.5532 12.0279 13.8394 11.9923 14.124L11.4593 18.3875L17 11H13C12.7132 11 12.4402 10.8768 12.2503 10.6618C12.0605 10.4468 11.9722 10.1606 12.0077 9.87596L12.5407 5.61245L7.00001 13Z" fill="currentColor"/>
</svg>
