<svg viewBox="0 0 24 24" fill="currentColor" xmlns="http://www.w3.org/2000/svg">
<rect fill="currentColor"/>
<path d="M12 19.0711L14.8284 16.2426C15.0706 16.0005 15.2827 15.7397 15.4648 15.4648C16.1525 14.4268 16.4119 13.1887 16.2429 11.9997C16.0958 10.965 15.6244 9.9675 14.8284 9.17158C14.3256 8.66875 13.7423 8.29541 13.12 8.05155L11.4598 9.71173C12.1711 9.75113 12.8709 10.0425 13.4142 10.5858C14.3379 11.5094 14.5333 12.8855 14.0006 14.0006C13.8576 14.3 13.6622 14.5805 13.4142 14.8284L12 16.2426L10.5858 17.6569C9.41422 18.8284 7.51472 18.8284 6.34315 17.6569C5.17158 16.4853 5.17158 14.5858 6.34315 13.4142L6.91074 12.8466C6.67146 11.9506 6.64306 11.01 6.82554 10.1034L4.92894 12C2.97631 13.9526 2.97631 17.1185 4.92894 19.0711C6.88156 21.0237 10.0474 21.0237 12 19.0711Z" fill="currentColor"/>
<path d="M19.0711 4.92894C17.1185 2.97631 13.9526 2.97631 12 4.92894L9.17158 7.75736C8.92942 7.99952 8.71729 8.26034 8.53519 8.53519C7.84749 9.57319 7.58813 10.8113 7.7571 12.0003C7.90416 13.035 8.37565 14.0325 9.17158 14.8284C9.6744 15.3313 10.2577 15.7046 10.88 15.9485L12.5402 14.2883C11.829 14.2489 11.1291 13.9575 10.5858 13.4142C9.66215 12.4906 9.46669 11.1145 9.99939 9.99939C10.1424 9.70005 10.3379 9.41951 10.5858 9.17158L13.4142 6.34315C14.5858 5.17158 16.4853 5.17158 17.6569 6.34315C18.8284 7.51472 18.8284 9.41422 17.6569 10.5858L17.0893 11.1534C17.3285 12.0494 17.3569 12.99 17.1745 13.8966L19.0711 12C21.0237 10.0474 21.0237 6.88156 19.0711 4.92894Z" fill="currentColor"/>
</svg>
