<svg viewBox="0 0 24 24" fill="currentColor" xmlns="http://www.w3.org/2000/svg">
<path d="M17.6568 17.6568C17.2663 18.0474 16.6332 18.0474 16.2426 17.6568L12 13.4142L7.75735 17.6568C7.36683 18.0474 6.73366 18.0474 6.34314 17.6568C5.95262 17.2663 5.95262 16.6332 6.34314 16.2426L10.5858 12L6.34314 7.75736C5.95262 7.36683 5.95262 6.73367 6.34314 6.34314C6.73366 5.95262 7.36683 5.95262 7.75735 6.34314L12 10.5858L16.2426 6.34314C16.6332 5.95262 17.2663 5.95262 17.6568 6.34314C18.0474 6.73366 18.0474 7.36683 17.6568 7.75735L13.4142 12L17.6568 16.2426C18.0474 16.6332 18.0474 17.2663 17.6568 17.6568Z" fill="currentColor"/>
</svg>
