<svg viewBox="0 0 24 24" fill="currentColor" xmlns="http://www.w3.org/2000/svg">
<path d="M16.2426 6.34315C16.6332 5.95262 17.2663 5.95262 17.6569 6.34315C18.0474 6.73367 18.0474 7.36684 17.6569 7.75736L7.75736 17.6569C7.36683 18.0474 6.73367 18.0474 6.34315 17.6569C5.95262 17.2663 5.95262 16.6332 6.34315 16.2426L16.2426 6.34315Z" fill="currentColor"/>
<path fill-rule="evenodd" clip-rule="evenodd" d="M8.60281 8.67329C8.82306 8.41633 9 8.00775 9 7.5C9 6.99225 8.82306 6.58367 8.60281 6.32671C8.38616 6.07395 8.16679 6 8 6C7.83321 6 7.61384 6.07395 7.39719 6.32671C7.17694 6.58367 7 6.99225 7 7.5C7 8.00775 7.17694 8.41633 7.39719 8.67329C7.61384 8.92605 7.83321 9 8 9C8.16679 9 8.38616 8.92605 8.60281 8.67329ZM8 11C9.65685 11 11 9.433 11 7.5C11 5.567 9.65685 4 8 4C6.34315 4 5 5.567 5 7.5C5 9.433 6.34315 11 8 11Z" fill="currentColor"/>
<path fill-rule="evenodd" clip-rule="evenodd" d="M16.6028 17.6733C16.8231 17.4163 17 17.0077 17 16.5C17 15.9923 16.8231 15.5837 16.6028 15.3267C16.3862 15.0739 16.1668 15 16 15C15.8332 15 15.6138 15.0739 15.3972 15.3267C15.1769 15.5837 15 15.9923 15 16.5C15 17.0077 15.1769 17.4163 15.3972 17.6733C15.6138 17.926 15.8332 18 16 18C16.1668 18 16.3862 17.926 16.6028 17.6733ZM16 20C17.6569 20 19 18.433 19 16.5C19 14.567 17.6569 13 16 13C14.3431 13 13 14.567 13 16.5C13 18.433 14.3431 20 16 20Z" fill="currentColor"/>
</svg>
