<svg viewBox="0 0 24 24" fill="currentColor" xmlns="http://www.w3.org/2000/svg">
<path fill-rule="evenodd" clip-rule="evenodd" d="M8 21C10.7614 21 13 18.7614 13 16C13 13.2386 10.7614 11 8 11C5.23858 11 3 13.2386 3 16C3 18.7614 5.23858 21 8 21ZM8 23C11.866 23 15 19.866 15 16C15 12.134 11.866 9 8 9C4.13401 9 1 12.134 1 16C1 19.866 4.13401 23 8 23Z" fill="currentColor"/>
<path d="M7 15C7 15.5523 6.55228 16 6 16C5.44772 16 5 15.5523 5 15C5 14.4477 5.44772 14 6 14C6.55228 14 7 14.4477 7 15Z" fill="currentColor"/>
<path d="M11 15C11 15.5523 10.5523 16 10 16C9.44771 16 9 15.5523 9 15C9 14.4477 9.44771 14 10 14C10.5523 14 11 14.4477 11 15Z" fill="currentColor"/>
<path fill-rule="evenodd" clip-rule="evenodd" d="M5.5 18C5.5 17.7239 5.72386 17.5 6 17.5H10C10.2761 17.5 10.5 17.7239 10.5 18C10.5 18.2761 10.2761 18.5 10 18.5H6C5.72386 18.5 5.5 18.2761 5.5 18Z" fill="currentColor"/>
<path d="M19.75 14.25C19.75 14.9404 19.1904 15.5 18.5 15.5C17.8096 15.5 17.25 14.9404 17.25 14.25C17.25 13.5596 17.8096 13 18.5 13C19.1904 13 19.75 13.5596 19.75 14.25Z" fill="currentColor"/>
<path fill-rule="evenodd" clip-rule="evenodd" d="M18.5 3C16.9691 3 16 4.0345 16 5C16 5.55228 15.5523 6 15 6C14.4477 6 14 5.55228 14 5C14 2.65179 16.1649 1 18.5 1C20.8351 1 23 2.65179 23 5C23 6.92243 21.5227 8.39695 19.7349 8.84793C19.6413 8.87154 19.5674 8.91974 19.5271 8.96319C19.5087 8.98298 19.502 8.99647 19.5003 9.00052C19.5002 9.00083 19.5004 9.00029 19.5003 9.00052L19.5 10.5C19.5 11.0523 19.0523 11.5 18.5 11.5C17.9477 11.5 17.5 11.0523 17.5 10.5V9C17.5 7.85161 18.4156 7.11807 19.2457 6.90868C20.3601 6.62756 21 5.80186 21 5C21 4.0345 20.0309 3 18.5 3Z" fill="currentColor"/>
</svg>
