<svg width="24" height="24" viewBox="0 0 24 24" fill="none" xmlns="http://www.w3.org/2000/svg">
<path fill-rule="evenodd" clip-rule="evenodd" d="M12 20C16.4183 20 20 16.4183 20 12C20 7.58172 16.4183 4 12 4C7.58172 4 4 7.58172 4 12C4 16.4183 7.58172 20 12 20ZM12 22C17.5228 22 22 17.5228 22 12C22 6.47715 17.5228 2 12 2C6.47715 2 2 6.47715 2 12C2 17.5228 6.47715 22 12 22Z" fill="black"/>
<path fill-rule="evenodd" clip-rule="evenodd" d="M17.0355 8.62132C17.4261 9.01184 17.4261 9.64501 17.0355 10.0355L11.3787 15.6924C10.9882 16.0829 10.355 16.0829 9.96447 15.6924L7.13604 12.864C6.74551 12.4734 6.74551 11.8403 7.13604 11.4497C7.52656 11.0592 8.15973 11.0592 8.55025 11.4497L10.6716 13.5711L15.6213 8.62132C16.0118 8.2308 16.645 8.2308 17.0355 8.62132Z" fill="black"/>
</svg>
