<svg viewBox="0 0 24 24" fill="currentColor" xmlns="http://www.w3.org/2000/svg">
<rect fill="currentColor"/>
<circle cx="12.5" cy="10.5" r="1" fill="currentColor"/>
<path d="M16 12C16 16.1421 12.6421 19.5 8.5 19.5C4.35786 19.5 1 16.1421 1 12C1 7.85786 4.35786 4.5 8.5 4.5C12.6421 4.5 16 7.85786 16 12Z" fill="currentColor"/>
<path d="M6.25 11C6.80228 11 7.25 10.5523 7.25 10C7.25 9.44772 6.80228 9 6.25 9C5.69772 9 5.25 9.44772 5.25 10C5.25 10.5523 5.69772 11 6.25 11Z" fill="currentColor"/>
<path d="M11.75 10C11.75 10.5523 11.3023 11 10.75 11C10.1977 11 9.75 10.5523 9.75 10C9.75 9.44772 10.1977 9 10.75 9C11.3023 9 11.75 9.44772 11.75 10Z" fill="currentColor"/>
<path fill-rule="evenodd" clip-rule="evenodd" d="M5.5 12C5.22386 12 5 12.2239 5 12.5C5 14.433 6.567 16 8.5 16C10.433 16 12 14.433 12 12.5C12 12.2239 11.7761 12 11.5 12H5.5ZM8.5 15C7.29052 15 6.28164 14.1411 6.05001 13H10.95C10.7184 14.1411 9.70948 15 8.5 15Z" fill="currentColor"/>
<path d="M18.25 11C18.8023 11 19.25 10.5523 19.25 10C19.25 9.44772 18.8023 9 18.25 9C17.6977 9 17.25 9.44772 17.25 10C17.25 10.5523 17.6977 11 18.25 11Z" fill="currentColor"/>
<path fill-rule="evenodd" clip-rule="evenodd" d="M6.25 11C6.80228 11 7.25 10.5523 7.25 10C7.25 9.44772 6.80228 9 6.25 9C5.69772 9 5.25 9.44772 5.25 10C5.25 10.5523 5.69772 11 6.25 11ZM11.75 10C11.75 10.5523 11.3023 11 10.75 11C10.1977 11 9.75 10.5523 9.75 10C9.75 9.44772 10.1977 9 10.75 9C11.3023 9 11.75 9.44772 11.75 10ZM5.5 12C5.22386 12 5 12.2239 5 12.5C5 14.433 6.567 16 8.5 16C10.433 16 12 14.433 12 12.5C12 12.2239 11.7761 12 11.5 12H5.5ZM8.5 15C7.29052 15 6.28164 14.1411 6.05001 13H10.95C10.7184 14.1411 9.70948 15 8.5 15Z" fill="currentColor"/>
<path fill-rule="evenodd" clip-rule="evenodd" d="M1 12C1 16.1421 4.35786 19.5 8.5 19.5C10.0704 19.5 11.528 19.0174 12.7327 18.1923C13.7081 18.708 14.8199 19 16 19C19.866 19 23 15.866 23 12C23 8.13401 19.866 5 16 5C14.8199 5 13.7081 5.292 12.7327 5.80769C11.528 4.98265 10.0704 4.5 8.5 4.5C4.35786 4.5 1 7.85786 1 12ZM14 12C14 15.0376 11.5376 17.5 8.5 17.5C5.46243 17.5 3 15.0376 3 12C3 8.96243 5.46243 6.5 8.5 6.5C11.5376 6.5 14 8.96243 14 12ZM21.5 12C21.5 15.0376 19.0376 17.5 16 17.5C15.2877 17.5 14.607 17.3646 13.9823 17.1181C14.3466 16.7281 14.6697 16.2991 14.9448 15.8381C15.2778 15.9433 15.6323 16 16 16C17.933 16 19.5 14.433 19.5 12.5C19.5 12.2239 19.2761 12 19 12H16C16 10.0216 15.2339 8.22205 13.9823 6.8819C14.607 6.63541 15.2877 6.5 16 6.5C19.0376 6.5 21.5 8.96243 21.5 12ZM18.25 11C18.8023 11 19.25 10.5523 19.25 10C19.25 9.44772 18.8023 9 18.25 9C17.6977 9 17.25 9.44772 17.25 10C17.25 10.5523 17.6977 11 18.25 11ZM16 15C17.2095 15 18.2184 14.1411 18.45 13H15.9339C15.8439 13.6756 15.6639 14.3228 15.4065 14.9291C15.5967 14.9754 15.7955 15 16 15Z" fill="currentColor"/>
</svg>
