<svg width="24" height="24" viewBox="0 0 24 24" fill="none" xmlns="http://www.w3.org/2000/svg">
<path fill-rule="evenodd" clip-rule="evenodd" d="M16.0528 2.7232C15.1844 2.35227 14.1921 2.41184 13.3743 2.88397L2.98205 8.88397C1.54717 9.7124 1.05554 11.5472 1.88397 12.982L5.88397 19.9103C6.7124 21.3451 8.54717 21.8368 9.98205 21.0083L20.3743 15.0083C21.1921 14.5362 21.7399 13.7066 21.8528 12.7691L22.4509 7.80499C22.6104 6.48123 21.877 5.21106 20.6509 4.6873L16.0528 2.7232ZM14.3743 4.61602C14.6469 4.45864 14.9777 4.43879 15.2672 4.56243L19.8652 6.52653C20.274 6.70112 20.5184 7.12451 20.4652 7.56576L19.8672 12.5299C19.8295 12.8424 19.6469 13.1189 19.3743 13.2763L8.98205 19.2763C8.50375 19.5524 7.89216 19.3885 7.61602 18.9103L3.61602 11.982C3.33988 11.5038 3.50375 10.8922 3.98205 10.616L14.3743 4.61602Z" fill="black"/>
<path fill-rule="evenodd" clip-rule="evenodd" d="M16.6243 8.51314C16.8635 8.37507 17.1693 8.457 17.3074 8.69615C17.4454 8.9353 17.3635 9.24109 17.1243 9.37916C16.8852 9.51723 16.5794 9.4353 16.4413 9.19615C16.3033 8.957 16.3852 8.65121 16.6243 8.51314ZM18.1734 8.19615C17.7592 7.47871 16.8418 7.2329 16.1243 7.64711C15.4069 8.06132 15.1611 8.97871 15.5753 9.69615C15.9895 10.4136 16.9069 10.6594 17.6243 10.2452C18.3418 9.83097 18.5876 8.91359 18.1734 8.19615Z" fill="black"/>
</svg>
