<svg width="24" height="24" viewBox="0 0 24 24" fill="none" xmlns="http://www.w3.org/2000/svg">
<path fill-rule="evenodd" clip-rule="evenodd" d="M3.75 6.5C3.75 6.36193 3.86193 6.25 4 6.25H7.5C7.63807 6.25 7.75 6.36193 7.75 6.5C7.75 7.60457 6.85457 8.5 5.75 8.5C4.64543 8.5 3.75 7.60457 3.75 6.5ZM4.27074 6.75C4.38976 7.45943 5.00675 8 5.75 8C6.49325 8 7.11024 7.45943 7.22926 6.75H4.27074Z" fill="black"/>
<path fill-rule="evenodd" clip-rule="evenodd" d="M5.75 1C8.37335 1 10.5 3.12665 10.5 5.75C10.5 6.25035 10.4226 6.73262 10.2792 7.18552C10.8335 7.06403 11.4093 7 12 7C12.5907 7 13.1665 7.06403 13.7208 7.18552C13.5774 6.73262 13.5 6.25035 13.5 5.75C13.5 3.12665 15.6266 1 18.25 1C20.8734 1 23 3.12665 23 5.75C23 8.25349 21.0633 10.3046 18.6063 10.4868C19.4856 11.7715 20 13.3257 20 15C20 19.4183 16.4183 23 12 23C7.58172 23 4 19.4183 4 15C4 13.3257 4.51435 11.7715 5.39367 10.4868C2.93675 10.3046 1 8.25349 1 5.75C1 3.12665 3.12665 1 5.75 1ZM9.5 5.75C9.5 3.67893 7.82107 2 5.75 2C3.67893 2 2 3.67893 2 5.75C2 7.82107 3.67893 9.5 5.75 9.5C5.9085 9.5 6.0647 9.49017 6.21803 9.47108C7.00213 8.65131 7.95883 7.99801 9.02977 7.56953C9.32936 7.03067 9.5 6.41026 9.5 5.75ZM18.25 9.5C20.3211 9.5 22 7.82107 22 5.75C22 3.67893 20.3211 2 18.25 2C16.1789 2 14.5 3.67893 14.5 5.75C14.5 6.41026 14.6706 7.03067 14.9702 7.56953C16.0412 7.99802 16.9979 8.65132 17.782 9.47108C17.9353 9.49017 18.0915 9.5 18.25 9.5ZM12 21C15.3137 21 18 18.3137 18 15C18 11.6863 15.3137 9 12 9C8.68629 9 6 11.6863 6 15C6 18.3137 8.68629 21 12 21Z" fill="black"/>
<path d="M8 4.75C8 5.16421 7.66421 5.5 7.25 5.5C6.83579 5.5 6.5 5.16421 6.5 4.75C6.5 4.33579 6.83579 4 7.25 4C7.66421 4 8 4.33579 8 4.75Z" fill="black"/>
<path d="M5 4.75C5 5.16421 4.66421 5.5 4.25 5.5C3.83579 5.5 3.5 5.16421 3.5 4.75C3.5 4.33579 3.83579 4 4.25 4C4.66421 4 5 4.33579 5 4.75Z" fill="black"/>
<path fill-rule="evenodd" clip-rule="evenodd" d="M8.5 15C8.22386 15 8 15.2239 8 15.5C8 17.7091 9.79086 19.5 12 19.5C14.2091 19.5 16 17.7091 16 15.5C16 15.2239 15.7761 15 15.5 15H8.5ZM9.04148 16C9.27952 17.4189 10.5135 18.5 12 18.5C13.4865 18.5 14.7205 17.4189 14.9585 16H9.04148Z" fill="black"/>
<path d="M10.5 13C10.5 13.5523 10.0523 14 9.5 14C8.94772 14 8.5 13.5523 8.5 13C8.5 12.4477 8.94772 12 9.5 12C10.0523 12 10.5 12.4477 10.5 13Z" fill="black"/>
<path d="M15.5 13C15.5 13.5523 15.0523 14 14.5 14C13.9477 14 13.5 13.5523 13.5 13C13.5 12.4477 13.9477 12 14.5 12C15.0523 12 15.5 12.4477 15.5 13Z" fill="black"/>
<path fill-rule="evenodd" clip-rule="evenodd" d="M16.5 6.25C16.3619 6.25 16.25 6.36193 16.25 6.5C16.25 7.60457 17.1454 8.5 18.25 8.5C19.3546 8.5 20.25 7.60457 20.25 6.5C20.25 6.36193 20.1381 6.25 20 6.25H16.5ZM16.7707 6.75C16.8898 7.45943 17.5068 8 18.25 8C18.9932 8 19.6102 7.45943 19.7293 6.75H16.7707Z" fill="black"/>
<path d="M17.5 4.75C17.5 5.16421 17.1642 5.5 16.75 5.5C16.3358 5.5 16 5.16421 16 4.75C16 4.33579 16.3358 4 16.75 4C17.1642 4 17.5 4.33579 17.5 4.75Z" fill="black"/>
<path d="M20.5 4.75C20.5 5.16421 20.1642 5.5 19.75 5.5C19.3358 5.5 19 5.16421 19 4.75C19 4.33579 19.3358 4 19.75 4C20.1642 4 20.5 4.33579 20.5 4.75Z" fill="black"/>
</svg>
