<svg viewBox="0 0 24 24" fill="currentColor" xmlns="http://www.w3.org/2000/svg">
<rect fill="currentColor"/>
<path d="M15 11.5V17.5C15 17.7761 14.7761 18 14.5 18C14.2239 18 14 17.7761 14 17.5V11.5C14 11.2239 14.2239 11 14.5 11C14.7761 11 15 11.2239 15 11.5Z" fill="currentColor"/>
<path d="M12.5 11.5V17.5C12.5 17.7761 12.2761 18 12 18C11.7239 18 11.5 17.7761 11.5 17.5V11.5C11.5 11.2239 11.7239 11 12 11C12.2761 11 12.5 11.2239 12.5 11.5Z" fill="currentColor"/>
<path d="M10 11.5V17.5C10 17.7761 9.77614 18 9.5 18C9.22386 18 9 17.7761 9 17.5V11.5C9 11.2239 9.22386 11 9.5 11C9.77614 11 10 11.2239 10 11.5Z" fill="currentColor"/>
<path fill-rule="evenodd" clip-rule="evenodd" d="M16 22C17.6569 22 19 20.6569 19 19V8.975C19.5706 8.85918 20 8.35474 20 7.75V7C20 5.34315 18.6569 4 17 4H14.5V3.5C14.5 2.67157 13.8284 2 13 2H11C10.1716 2 9.5 2.67157 9.5 3.5V4H7C5.34315 4 4 5.34315 4 7V7.75C4 8.35474 4.42944 8.85918 5 8.975V19C5 20.6569 6.34315 22 8 22H16ZM7 19C7 19.5523 7.44772 20 8 20H16C16.5523 20 17 19.5523 17 19V9H7V19ZM13.5 3.5C13.5 3.22386 13.2761 3 13 3H11C10.7239 3 10.5 3.22386 10.5 3.5V4H13.5V3.5ZM7 6C6.44772 6 6 6.44772 6 7H18C18 6.44772 17.5523 6 17 6H7Z" fill="currentColor"/>
</svg>
