<svg viewBox="0 0 24 24" fill="currentColor" xmlns="http://www.w3.org/2000/svg">
<path d="M17.6569 17.6568C17.2663 18.0474 16.6332 18.0474 16.2426 17.6568L12 13.4142L7.75736 17.6568C7.36684 18.0474 6.73367 18.0474 6.34315 17.6568C5.95263 17.2663 5.95263 16.6332 6.34315 16.2426L10.5858 12L6.34315 7.75735C5.95262 7.36682 5.95262 6.73366 6.34315 6.34313C6.73367 5.95261 7.36684 5.95261 7.75736 6.34313L12 10.5858L16.2426 6.34313C16.6332 5.95261 17.2663 5.95261 17.6569 6.34313C18.0474 6.73366 18.0474 7.36682 17.6569 7.75735L13.4142 12L17.6569 16.2426C18.0474 16.6332 18.0474 17.2663 17.6569 17.6568Z" fill="currentColor"/>
</svg>
